<?xml version="1.0" encoding="UTF-8"?>
<svg width="512px" height="512px" viewBox="0 0 512 512" version="1.1" xmlns="http://www.w3.org/2000/svg" xmlns:xlink="http://www.w3.org/1999/xlink">
    <title>Untitled 2</title>
    <g id="Page-1" stroke="none" stroke-width="1" fill="none" fill-rule="evenodd">
        <g id="arrow-up-left-from-circle" transform="translate(256.000000, 256.000000) scale(-1, 1) translate(-256.000000, -256.000000) " fill="#000000" fill-rule="nonzero">
            <path d="M312,336 C318.156,336 324.28,333.656 328.97,328.969 C338.345,319.594 338.345,304.409 328.97,295.029 L81.94,48 L192,48 C205.25,48 216,37.25 216,24 C216,10.75 205.3,0 192,0 L24,0 C10.75,0 0,10.75 0,24 L0,192 C0,205.25 10.75,216 24,216 C37.25,216 48,205.3 48,192 L48,81.94 L295,328.94 C299.7,333.7 305.8,336 312,336 Z M288,64 C274.75,64 264,74.75 264,88 C264,101.25 274.8,112 288,112 C385.03,112 464,190.97 464,288 C464,385.03 385.03,464 288,464 C190.97,464 112,385 112,288 C112,274.75 101.25,264 88,264 C74.75,264 64,274.8 64,288 C64,411.5 164.5,512 288,512 C411.5,512 512,411.5 512,288 C512,164.5 411.5,64 288,64 Z" id="Shape"></path>
        </g>
    </g>
</svg>