<?xml version="1.0" encoding="UTF-8"?>
<svg width="47px" height="48px" viewBox="0 0 47 48" version="1.1" xmlns="http://www.w3.org/2000/svg" xmlns:xlink="http://www.w3.org/1999/xlink">
    <title>icon-link-blue</title>
    <g id="Page-1" stroke="none" stroke-width="1" fill="none" fill-rule="evenodd">
        <g id="icon-link-blue" transform="translate(0.211000, 0.413000)" fill="#FFFFFF" fill-rule="nonzero">
            <g id="Group" transform="translate(10.337000, 0.000000)">
                <path d="M30.519,35.429 L5.109,35.429 C2.292,35.429 1.77635684e-15,33.091 1.77635684e-15,30.22 L1.77635684e-15,5.212 C1.77635684e-15,2.337 2.293,0 5.109,0 L30.52,0 C33.341,0 35.637,2.337 35.637,5.212 L35.637,30.22 C35.637,33.093 33.341,35.429 30.519,35.429 Z M4.109,3.366 C3.707,3.366 3.366,3.755 3.366,4.212 L3.366,31.22 C3.366,31.683 3.699,32.06 4.109,32.06 L31.52,32.06 C31.933,32.06 32.271,31.683 32.271,31.22 L32.271,4.212 C32.271,3.755 31.927,3.366 31.52,3.366 L4.109,3.366 Z" id="Shape"></path>
                <polygon id="Path" points="21.449 8.927 15.226 8.476 19.278 13.15 7.963 23.149 11.263 26.952 22.582 16.956 26.806 21.829 27.237 15.606 27.667 9.38"></polygon>
            </g>
            <path d="M32.271,33.327 L32.271,42.808 C32.271,43.271 31.933,43.648 31.519,43.648 L4.109,43.648 C3.699,43.648 3.366,43.271 3.366,42.808 L3.366,15.8 C3.366,15.343 3.707,14.954 4.109,14.954 L10.336,14.954 L10.336,11.588 L5.109,11.588 C2.293,11.588 0,13.925 0,16.8 L0,41.808 C0,44.679 2.292,47.017 5.109,47.017 L30.519,47.017 C33.341,47.017 35.636,44.681 35.636,41.808 L35.636,33.327 L32.271,33.327 Z" id="Path"></path>
        </g>
    </g>
</svg>