<?xml version="1.0" encoding="UTF-8"?>
<svg width="45px" height="45px" viewBox="0 0 45 45" version="1.1" xmlns="http://www.w3.org/2000/svg" xmlns:xlink="http://www.w3.org/1999/xlink">
    <title>Slice</title>
    <g id="Page-1" stroke="none" stroke-width="1" fill="none" fill-rule="evenodd">
        <g id="clock-rotate-left" fill="#2F68AD" fill-rule="nonzero">
            <path d="M22.5,0 C34.9277344,0 45,10.0722656 45,22.5 C45,34.9277344 34.9277344,45 22.5,45 C17.9121094,45 13.640625,43.6289062 10.0810547,41.2646484 C9.11425781,40.6230469 8.85058594,39.3134766 9.41308594,38.3466797 C10.1337891,37.3710938 11.4433594,37.1074219 12.4189453,37.7490234 C15.3017578,39.6650391 18.7646484,40.78125 22.5,40.78125 C32.5986328,40.78125 40.78125,32.5986328 40.78125,22.5 C40.78125,12.4013672 32.5986328,4.21875 22.5,4.21875 C16.03125,4.21875 10.3447266,7.5796875 7.09189453,12.65625 L11.953125,12.65625 C13.1220703,12.65625 14.0625,13.5966797 14.0625,14.765625 C14.0625,15.9345703 13.1220703,16.875 11.953125,16.875 L2.109375,16.875 C0.944824219,16.875 0,15.9345703 0,14.765625 L0,4.921875 C0,3.75732422 0.944824219,2.8125 2.109375,2.8125 C3.27392578,2.8125 4.21875,3.75732422 4.21875,4.921875 L4.21875,9.37792969 C8.30126953,3.70195312 14.9677734,0 22.5,0 L22.5,0 Z M22.5,11.25 C23.6689453,11.25 24.609375,12.1904297 24.609375,13.359375 L24.609375,21.6298828 L30.2431641,27.3339844 C31.1396484,28.1601562 31.1396484,29.4960938 30.2431641,30.2431641 C29.4960938,31.1396484 28.1601562,31.1396484 27.3339844,30.2431641 L21.0058594,23.9150391 C20.6103516,23.5986328 20.390625,23.0625 20.390625,22.5 L20.390625,13.359375 C20.390625,12.1904297 21.3310547,11.25 22.5,11.25 L22.5,11.25 Z" id="Shape"></path>
        </g>
    </g>
</svg>