<?xml version="1.0" encoding="UTF-8"?>
<svg width="446px" height="128px" viewBox="0 0 446 128" version="1.1" xmlns="http://www.w3.org/2000/svg" xmlns:xlink="http://www.w3.org/1999/xlink">
    <title>Slice</title>
    <g id="Page-1" stroke="none" stroke-width="1" fill="none" fill-rule="evenodd">
        <g id="bracket-round" transform="translate(222.999704, 63.905454) rotate(-90.000000) translate(-222.999704, -63.905454) translate(159.017000, -159.224092)" fill="#FE423D" fill-rule="nonzero">
            <path d="M121.383,417.324092 C128.509,422.512092 130.103,432.514092 124.915,439.634092 C121.758,443.947092 116.883,446.259092 111.945,446.259092 C108.695,446.259092 105.444,445.259092 102.6,443.228092 C98.412,440.197092 0,367.418092 0,223.128092 C0,78.8380921 98.45,5.22809206 102.6,3.02809206 C109.726,-2.09690794 119.7,-0.596907942 124.91,6.62209206 C130.098,13.7470921 128.504,23.7520921 121.378,28.9320921 C117.721,31.6200921 31.958,95.7120921 31.958,224.032092 C31.958,352.352092 117.783,414.624092 121.383,417.324092 Z" id="Path"></path>
        </g>
    </g>
</svg>