<?xml version="1.0" encoding="UTF-8"?>
<svg width="14px" height="14px" viewBox="0 0 14 14" version="1.1" xmlns="http://www.w3.org/2000/svg" xmlns:xlink="http://www.w3.org/1999/xlink">
    <title>star-solid</title>
    <g id="Page-1" stroke="none" stroke-width="1" fill="none" fill-rule="evenodd">
        <g id="star-solid" transform="translate(0.094952, 0.960900)" fill="#FFFFFF" fill-rule="nonzero">
            <path d="M8.79060864,3.70079392 L12.3279724,4.2226597 C12.6209065,4.26450742 12.8670696,4.47128443 12.9606116,4.754372 C13.0541536,5.0399212 12.977843,5.3500867 12.7661427,5.56178697 L10.2011232,8.07757387 L10.8066844,11.6863249 C10.8559171,11.9817207 10.7352971,12.2820397 10.489134,12.4568155 C10.2454326,12.6315913 9.92295891,12.6537459 9.65956439,12.513433 L6.49883016,10.8272157 L3.34055756,12.513433 C3.07470141,12.6537459 2.75222775,12.6315913 2.50852628,12.4568155 C2.2648248,12.2820397 2.14174325,11.9817207 2.19343751,11.6863249 L2.79899874,8.07757387 L0.233486887,5.56178697 C0.0215404566,5.3500867 -0.0537854526,5.0399212 0.0392641999,4.754372 C0.132067689,4.47128443 0.377492302,4.26450742 0.672641861,4.2226597 L4.20705168,3.70079392 L5.79234206,0.443317592 C5.9228085,0.172144319 6.19851117,-2.31789122e-16 6.49883016,-2.31789122e-16 C6.80161077,-2.31789122e-16 7.07731345,0.172144319 7.20777989,0.443317592 L8.79060864,3.70079392 Z" id="Path"></path>
        </g>
    </g>
</svg>