<svg width="455" height="208" xmlns="http://www.w3.org/2000/svg"><g fill="#000" fill-rule="nonzero"><path d="M214.389 16.335C213.2 7.304 204.909.952 195.883 2.143c-9.032 1.191-15.39 9.475-14.199 18.506 1.191 9.03 9.48 15.383 18.515 14.194 9.03-1.193 15.376-9.479 14.19-18.508M254.607 57.507c-.744-6.781-6.37-12.02-13.021-11.297-6.647.727-11.55 7.12-10.807 13.905.743 6.781 6.833 11.288 13.491 10.563 6.643-.732 11.073-6.394 10.337-13.171"/><path d="M210.735 55.779c1.666 7.699 7.972 15.286 12.293 21.951 2.38 3.67 3.327 6.598 3.558 9.116.268 2.938-.379 8.04-5.59 11.618-5.293 3.64-18.934 1.217-25.818-.544-1.729-.444-2.985-.766-3.719-.862-4.746-.97-6.083.665-6.705 1.685-.992 1.62-.786 4.124 1.986 6.06 9.096 6.858 24.3 10.626 34.905 10.288 1.701-.011 2.34-.092 3.97-.244 1.618-.266 3.476.889 3.848 2.917 2.118 11.526 4.574 24.623 11.057 36.802 3.22 6.056 6.685 6.36 8.794 5.104 3.795-2.272 1.164-7.943.005-13.168-1.055-4.798-3.605-17.226-3.488-25.435.264-19.476 5.22-28.787 10.547-36.081 4.117-5.642 10.036-11.053 15.28-17.14 2.38-2.77 4.318-5.59 5.31-8.284 1.363-3.743.6-5.83-1.043-6.761-2.714-1.51-5.396.27-8.154 3.54-5.187 6.152-6.806 8.377-11.183 11.939-7.077 5.758-20.915 8.823-30.412-4.592-2.711-3.821-4.435-7.708-6.033-10.831-1.364-2.649-3.218-6.305-6.354-5.87-3.804.521-3.992 4.43-3.054 8.792M192.916 34.16c-3.403-1.096-6.347-3.304-8.388-6.221-5.412 2.978-8.682 9.078-7.74 15.548 1.23 8.324 8.971 14.078 17.286 12.847 8.322-1.214 14.077-8.958 12.85-17.28a15.304 15.304 0 00-1.405-4.504c-2.376 1.048-5.01 1.511-7.744 1.328-1.583-.103-3.28-.417-5.14-1.288-.218-.1-.33-.253-.294-.351.04-.12.296-.166.575-.078M237.363 25.255c-1.249-8.485-9.14-14.36-17.635-13.109a15.415 15.415 0 00-4.383 1.324c.52 1.952.748 4.025.577 6.17-.465 5.94-3.712 10.97-8.276 13.8 2.644 6.44 9.403 10.515 16.607 9.452 8.494-1.247 14.362-9.143 13.11-17.637"/><path d="M253.31 142.508c.24-.529.56-.992.96-1.38.408-.391.872-.698 1.411-.922a4.346 4.346 0 011.704-.333c.6 0 1.164.11 1.7.333.53.224.996.53 1.396.923.397.387.717.85.945 1.379.24.532.354 1.108.354 1.723 0 .634-.114 1.218-.354 1.753-.228.538-.548 1.001-.945 1.397-.4.395-.866.699-1.397.923-.535.217-1.099.322-1.699.322-.604 0-1.17-.105-1.704-.322a4.45 4.45 0 01-1.41-.923c-.4-.396-.721-.86-.96-1.397a4.421 4.421 0 01-.348-1.753c0-.615.12-1.188.347-1.723m.73 3.219c.18.459.44.855.755 1.191.329.331.712.598 1.15.788.442.197.925.291 1.44.291.504 0 .98-.094 1.42-.29a3.64 3.64 0 001.144-.789c.322-.336.573-.732.756-1.191a3.91 3.91 0 00.278-1.496 3.811 3.811 0 00-1.034-2.641 3.702 3.702 0 00-1.145-.784 3.62 3.62 0 00-1.419-.286c-.515 0-.998.1-1.44.286a3.732 3.732 0 00-1.15.784 3.71 3.71 0 00-.755 1.18c-.188.452-.282.94-.282 1.461 0 .545.094 1.044.282 1.496m3.611-4.039c.614 0 1.064.123 1.353.367.297.242.447.61.447 1.104 0 .46-.134.795-.39 1.01-.257.217-.577.34-.966.38l1.47 2.266h-.861l-1.39-2.205h-.842v2.205h-.802v-5.127h1.981zm-.351 2.268c.18 0 .347-.004.508-.016.164-.01.305-.042.432-.103a.59.59 0 00.296-.246c.074-.112.112-.268.112-.474a.749.749 0 00-.099-.406.703.703 0 00-.26-.232 1.132 1.132 0 00-.362-.115 2.694 2.694 0 00-.4-.024h-1.055v1.616h.828zM137.425 180.032c1.362-.803 2.385-1.786 2.629-3.383-1.523.694-2.629-.866-2.629-1.994 0-1.409.524-2.503 2.11-2.503 1.62 0 2.227 1.522 2.227 2.908 0 2.579-1.446 4.708-3.728 5.863l-.609-.89zM21.31 197.858c-1.08.573-3.464 1.17-6.484 1.17C6.838 199.029 2 193.997 2 186.358c0-8.295 5.743-13.287 13.417-13.287 3.025 0 5.185.624 6.114 1.11l-.998 3.658c-1.202-.52-2.841-.962-4.926-.962-5.106 0-8.811 3.208-8.811 9.248 0 5.52 3.255 9.058 8.771 9.058 1.86 0 3.802-.374 5.002-.931l.74 3.607zM24.93 172.15h4.625v10.793h.076c.56-.849 1.335-1.606 2.268-2.085a6.343 6.343 0 013.144-.806c3.09 0 6.34 2.042 6.34 7.865v10.697h-4.594v-10.182c0-2.646-.967-4.625-3.506-4.625-1.798 0-3.058 1.184-3.535 2.579-.157.363-.19.853-.19 1.375v10.856h-4.626v-26.468h-.002zM51.155 175.376c0 1.38-1.023 2.462-2.621 2.462-1.53 0-2.541-1.081-2.541-2.462 0-1.404 1.052-2.488 2.58-2.488 1.561 0 2.522 1.084 2.582 2.488m-4.9 5.08h4.632v18.163h-4.633v-18.164zM55.814 172.15h4.625v26.467h-4.625zM82.13 172.15v21.362c0 1.86.077 3.869.15 5.107h-4.093l-.195-2.875h-.074c-1.08 2.015-3.275 3.287-5.926 3.287-4.328 0-7.746-3.701-7.746-9.291-.059-6.08 3.756-9.688 8.113-9.688 2.505 0 4.303 1.028 5.113 2.371h.088V172.15h4.57zm-4.575 15.873c0-.374-.047-.824-.123-1.196-.403-1.787-1.863-3.248-3.958-3.248-2.937 0-4.58 2.612-4.58 6.015 0 3.311 1.643 5.734 4.553 5.734 1.858 0 3.5-1.26 3.94-3.242.119-.412.166-.857.166-1.341v-2.722h.002zM87.063 186.303c0-2.456-.047-4.211-.159-5.848h3.988l.157 3.468h.145c.896-2.581 3.031-3.87 4.963-3.87.442 0 .701.028 1.08.091v4.332c-.379-.067-.788-.14-1.34-.14-2.207 0-3.698 1.41-4.1 3.463a7.687 7.687 0 00-.155 1.417v9.403h-4.58v-12.316h.001zM103.246 190.814c.1 3.287 2.68 4.704 5.588 4.704 2.129 0 3.653-.307 5.037-.83l.658 3.167c-1.558.647-3.72 1.174-6.333 1.174-5.89 0-9.359-3.66-9.359-9.224 0-5.029 3.052-9.755 8.87-9.755 5.936 0 7.843 4.836 7.843 8.826 0 .857-.083 1.533-.152 1.936h-12.152v.002zm7.963-3.206c.051-1.679-.699-4.44-3.75-4.44-2.843 0-4.032 2.575-4.213 4.44h7.963zM119.23 185.867c0-2.087-.037-3.844-.138-5.412h4.023l.228 2.716h.106c.788-1.406 2.758-3.12 5.785-3.12 3.165 0 6.436 2.04 6.436 7.786v10.777h-4.578v-10.253c0-2.618-.97-4.583-3.47-4.583-1.816 0-3.088 1.296-3.582 2.675-.144.419-.186.965-.186 1.491v10.668h-4.623v-12.745zM143.992 194.403c1.039.631 3.022 1.294 4.659 1.294 2.015 0 2.912-.815 2.912-2.008 0-1.234-.754-1.865-2.995-2.642-3.54-1.242-5.026-3.166-4.993-5.306 0-3.195 2.644-5.69 6.869-5.69 2.013 0 3.759.516 4.807 1.072l-.894 3.25c-.78-.456-2.24-1.05-3.837-1.05-1.645 0-2.532.78-2.532 1.901 0 1.164.844 1.715 3.161 2.537 3.285 1.19 4.805 2.865 4.852 5.556 0 3.278-2.58 5.712-7.395 5.712-2.194 0-4.182-.565-5.52-1.317l.906-3.309zM173.228 173.48v10.063h10.637v-10.064h4.59v25.14h-4.59v-11.082h-10.637v11.082h-4.58v-25.14zM210.784 189.357c0 6.68-4.692 9.672-9.318 9.672-5.135 0-9.105-3.545-9.105-9.363 0-5.971 3.923-9.616 9.394-9.616 5.41 0 9.03 3.797 9.03 9.307m-13.682.197c0 3.495 1.71 6.143 4.507 6.143 2.617 0 4.435-2.572 4.435-6.221 0-2.826-1.258-6.086-4.393-6.086-3.246 0-4.549 3.144-4.549 6.164M214.066 194.403c1.041.631 3.018 1.294 4.668 1.294 2.015 0 2.904-.815 2.904-2.008 0-1.234-.752-1.865-2.984-2.642-3.544-1.242-5.042-3.166-4.986-5.306 0-3.195 2.644-5.69 6.853-5.69 2.022 0 3.77.516 4.804 1.072l-.886 3.25c-.784-.456-2.248-1.05-3.842-1.05-1.641 0-2.541.78-2.541 1.901 0 1.164.866 1.715 3.168 2.537 3.286 1.19 4.818 2.865 4.851 5.556 0 3.278-2.565 5.712-7.381 5.712-2.203 0-4.189-.565-5.523-1.317l.895-3.309zM229.837 186.487c0-2.382-.072-4.312-.14-6.034h4.028l.218 2.8h.078c1.339-2.059 3.466-3.205 6.222-3.205 4.177 0 7.645 3.58 7.645 9.237 0 6.573-4.135 9.741-8.27 9.741-2.277 0-4.184-.978-5.111-2.433h-.083v9.405h-4.587v-19.511zm4.587 4.524c0 .441.04.847.159 1.265.434 1.854 2.082 3.208 4.018 3.208 2.92 0 4.633-2.435 4.633-6.01 0-3.204-1.572-5.822-4.525-5.822-1.894 0-3.654 1.386-4.088 3.401a3.993 3.993 0 00-.197 1.15v2.808zM256.81 175.376c0 1.38-1.01 2.462-2.613 2.462-1.531 0-2.534-1.081-2.534-2.462 0-1.404 1.047-2.488 2.57-2.488 1.57 0 2.545 1.084 2.577 2.488m-4.888 5.08h4.615v18.163h-4.615v-18.164zM267.545 175.785v4.67h4.372v3.432h-4.372v8.009c0 2.207.6 3.36 2.36 3.36.848 0 1.264-.074 1.784-.22l.074 3.504c-.67.258-1.859.493-3.318.493-1.673 0-3.09-.598-3.954-1.53-.96-1.054-1.415-2.69-1.415-5.079v-8.537h-2.615v-3.432h2.615v-3.351l4.469-1.319zM290.04 194.253c0 1.639.063 3.249.26 4.366h-4.146l-.294-2.024h-.116c-1.12 1.424-3.011 2.436-5.373 2.436-3.652 0-5.698-2.662-5.698-5.42 0-4.579 4.06-6.894 10.769-6.858v-.298c0-1.184-.484-3.165-3.685-3.165-1.794 0-3.65.557-4.894 1.336l-.896-2.975c1.348-.824 3.696-1.599 6.553-1.599 5.839 0 7.516 3.688 7.516 7.632v6.57h.004zm-4.484-4.516c-3.246-.067-6.331.632-6.331 3.388 0 1.798 1.146 2.617 2.608 2.617 1.818 0 3.166-1.191 3.582-2.496.112-.343.141-.719.141-1.017v-2.492zM294.478 172.15h4.632v26.467h-4.632zM330.778 197.85c-1.088.518-3.466 1.111-6.51 1.111-7.955 0-12.789-4.974-12.789-12.629 0-8.25 5.765-13.22 13.415-13.22 3.016 0 5.13.634 6.058 1.113l-.97 3.642c-1.19-.52-2.858-.97-4.902-.97-5.082 0-8.765 3.198-8.765 9.218 0 5.537 3.192 9.022 8.731 9.022 1.818 0 3.746-.371 4.977-.888l.755 3.602zM350.526 189.35c0 6.638-4.679 9.611-9.282 9.611-5.084 0-9.065-3.483-9.065-9.324 0-5.94 3.893-9.58 9.36-9.58 5.383 0 8.987 3.792 8.987 9.293m-13.627.184c0 3.479 1.746 6.12 4.495 6.12 2.595 0 4.415-2.52 4.415-6.203 0-2.817-1.258-6.092-4.38-6.092-3.23 0-4.53 3.161-4.53 6.175M353.725 172.179h4.563v26.373h-4.563zM379.915 189.35c0 6.638-4.68 9.611-9.289 9.611-5.09 0-9.063-3.483-9.063-9.324 0-5.94 3.91-9.58 9.365-9.58 5.385 0 8.987 3.792 8.987 9.293m-13.628.184c0 3.479 1.744 6.12 4.491 6.12 2.604 0 4.422-2.52 4.422-6.203 0-2.817-1.258-6.092-4.381-6.092-3.238 0-4.532 3.161-4.532 6.175M383.12 186.299c0-2.447-.04-4.24-.154-5.837h3.938l.186 3.419h.112c.896-2.521 3.005-3.822 4.984-3.822.445 0 .703.036 1.072.11v4.271a7.987 7.987 0 00-1.377-.114c-2.153 0-3.67 1.375-4.079 3.455a7.778 7.778 0 00-.116 1.377v9.398h-4.563V186.3h-.002zM409.494 194.213c0 1.632.072 3.235.296 4.343h-4.127l-.335-2.006h-.106c-1.083 1.417-2.977 2.411-5.35 2.411-3.638 0-5.69-2.628-5.69-5.384 0-4.522 4.05-6.869 10.736-6.833v-.29c0-1.199-.481-3.167-3.678-3.167-1.785 0-3.645.562-4.863 1.333l-.896-2.974c1.34-.81 3.679-1.591 6.544-1.591 5.792 0 7.467 3.68 7.467 7.659v6.499h.002zm-4.462-4.5c-3.228-.027-6.307.633-6.307 3.383 0 1.784 1.147 2.603 2.586 2.603 1.865 0 3.168-1.19 3.61-2.49.111-.33.111-.67.111-1.004v-2.492zM430.445 172.18v21.285c0 1.867.07 3.866.152 5.087h-4.048l-.23-2.855h-.072c-1.072 2.002-3.275 3.262-5.868 3.262-4.345 0-7.76-3.665-7.76-9.246-.04-6.05 3.744-9.656 8.1-9.656 2.477 0 4.27 1.003 5.08 2.342h.072V172.18h4.574zm-4.574 15.822c0-.367-.03-.846-.108-1.213-.398-1.755-1.851-3.202-3.938-3.202-2.932 0-4.567 2.595-4.567 5.949 0 3.345 1.635 5.763 4.534 5.763 1.856 0 3.49-1.268 3.929-3.242.119-.403.148-.853.148-1.332v-2.723h.002zM452 189.35c0 6.638-4.693 9.611-9.289 9.611-5.084 0-9.065-3.483-9.065-9.324 0-5.94 3.903-9.58 9.358-9.58 5.392 0 8.996 3.792 8.996 9.293m-13.646.184c0 3.479 1.758 6.12 4.505 6.12 2.604 0 4.417-2.52 4.417-6.203 0-2.817-1.258-6.092-4.383-6.092-3.229 0-4.539 3.161-4.539 6.175"/></g></svg>