<?xml version="1.0" encoding="UTF-8"?>
<svg width="1855px" height="1785px" viewBox="0 0 1855 1785" version="1.1" xmlns="http://www.w3.org/2000/svg" xmlns:xlink="http://www.w3.org/1999/xlink">
    <title>hospital-exequiel-gonzalez-cortes-logo</title>
    <defs>
        <linearGradient x1="50%" y1="0%" x2="50%" y2="100%" id="linearGradient-1">
            <stop stop-color="#95295A" offset="0%"></stop>
            <stop stop-color="#6A3361" offset="100%"></stop>
        </linearGradient>
        <linearGradient x1="52.5819821%" y1="36.9550748%" x2="48.2243308%" y2="44.487381%" id="linearGradient-2">
            <stop stop-color="#5B3563" offset="0%"></stop>
            <stop stop-color="#253767" offset="100%"></stop>
        </linearGradient>
    </defs>
    <g id="Page-1" stroke="none" stroke-width="1" fill="none" fill-rule="evenodd">
        <g id="hospital-exequiel-gonzalez-cortes-logo" transform="translate(-0.320290, -0.200000)" fill-rule="nonzero">
            <g id="Group" transform="translate(0.000000, 1399.900000)" fill="#20386A">
                <path d="M1847.32029,294.7 C1843.72029,293.4 1838.82029,291.6 1836.52029,290.7 L1832.12029,289.1 L1832.42029,277.1 C1832.72029,267.4 1832.52029,265 1831.32029,264.3 C1829.52029,263.3 1793.62029,250.7 1790.02029,249.8 C1787.82029,249.2 1786.82029,250 1781.32029,257 C1777.92029,261.3 1774.52029,265.6 1773.82029,266.6 C1772.72029,268.2 1771.92029,268.1 1761.92029,264.6 C1756.12029,262.5 1751.32029,260.4 1751.32029,259.9 C1751.32029,258.3 1823.22029,173.7 1826.22029,171.9 C1826.72029,171.6 1832.52029,173.2 1839.12029,175.5 L1851.12029,179.6 L1851.72029,186.2 C1853.02029,200.7 1855.32029,297.3 1854.32029,297.3 C1854.02029,297.2 1850.92029,296.1 1847.32029,294.7 L1847.32029,294.7 Z M1833.12029,205.6 L1832.82029,191.8 L1816.32029,212.6 C1807.22029,224 1799.92029,233.6 1800.02029,234 C1800.12029,234.4 1807.52029,237.2 1816.52029,240.3 L1832.82029,246 L1833.12029,232.7 C1833.22029,225.3 1833.22029,213.1 1833.12029,205.6 L1833.12029,205.6 Z" id="Shape"></path>
                <path d="M50.22029,286 C40.52029,283.2 30.92029,275.3 26.32029,266.2 C22.32029,258.4 -0.77971004,196 0.02028996,195.3 C1.82028996,193.8 20.72029,187.3 21.42029,188 C21.82029,188.5 27.92029,204.5 34.92029,223.8 C46.52029,255.4 48.12029,259.1 51.82029,262.9 C58.32029,269.8 65.82029,270.7 77.92029,266.2 C83.62029,264 89.02029,259.3 90.92029,254.6 C93.82029,247.7 92.92029,243.2 80.92029,208.7 C74.62029,190.6 69.02029,174.6 68.42029,173.1 L67.42029,170.4 L78.42029,166.8 C84.52029,164.7 89.82029,163.5 90.22029,163.9 C92.12029,166 114.42029,234.7 114.92029,240 C116.52029,255.5 106.92029,271.3 90.92029,279.5 C78.02029,286.1 60.42029,288.9 50.22029,286 L50.22029,286 Z" id="Path"></path>
                <path d="M148.92029,246.6 C129.52029,187.3 119.32029,154.8 119.62029,153.9 C120.02029,152.8 126.12029,150.7 151.12029,143.2 C174.42029,136.1 191.92029,137.9 202.02029,148.5 C210.12029,156.9 212.32029,171.9 207.12029,182 C204.52029,186.9 195.02029,197.3 193.22029,197.3 C190.32029,197.3 194.82029,200.6 216.32029,214.4 C229.52029,222.8 239.92029,230 239.52029,230.4 C239.12029,230.8 233.22029,232.7 226.32029,234.7 L213.82029,238.2 L192.12029,223.8 L170.52029,209.4 L166.62029,210.6 C164.52029,211.2 162.72029,211.8 162.52029,211.9 C162.32029,212 164.62029,219.9 167.72029,229.5 C170.72029,239 173.32029,247.6 173.52029,248.6 C173.72029,250.1 171.92029,251 163.32029,253.8 C157.52029,255.7 152.72029,257.3 152.62029,257.3 C152.52029,257.3 150.92029,252.5 148.92029,246.6 L148.92029,246.6 Z M177.12029,187.9 C185.92029,182 189.02029,174.4 185.72029,166.5 C182.92029,159.8 178.72029,157.3 170.52029,157.3 C163.32029,157.3 148.42029,161 147.62029,162.9 C147.42029,163.6 149.42029,171.4 152.22029,180.2 L157.32029,196.2 L164.92029,193.6 C169.02029,192.2 174.52029,189.7 177.12029,187.9 L177.12029,187.9 Z" id="Shape"></path>
                <path d="M1719.82029,251.6 C1711.72029,250.5 1699.92029,246.7 1691.42029,242.7 C1670.12029,232.3 1657.52029,211.3 1659.82029,189.8 C1662.52029,165 1674.92029,147 1694.82029,139.2 C1700.12029,137.1 1702.52029,136.9 1714.82029,136.9 C1727.42029,136.9 1729.62029,137.2 1737.32029,139.7 C1745.92029,142.5 1760.92029,149.9 1765.12029,153.3 L1767.32029,155.1 L1763.22029,162.2 L1759.12029,169.3 L1756.52029,167.4 C1746.62029,160.5 1730.32029,155 1719.32029,154.9 C1704.82029,154.9 1694.62029,161.1 1688.42029,173.7 C1681.92029,186.9 1680.82029,201.2 1685.52029,211.5 C1691.62029,224.7 1707.92029,233.6 1728.82029,235.1 L1737.82029,235.8 L1736.92029,244.1 L1736.12029,252.3 L1729.42029,252.2 C1725.82029,252.1 1721.52029,251.8 1719.82029,251.6 L1719.82029,251.6 Z" id="Path"></path>
                <path d="M1612.12029,219.5 C1606.72029,218.1 1602.32029,216.4 1602.32029,215.7 C1602.32029,214.4 1629.32029,112 1629.82029,111.5 C1630.32029,111 1650.72029,116.4 1651.62029,117.3 C1652.72029,118.3 1624.32029,222.3 1622.92029,222.200072 C1622.32029,222.200072 1617.42029,221 1612.12029,219.5 Z" id="Path"></path>
                <path d="M281.12029,216.3 C254.62029,211.6 236.22029,189.7 234.62029,161.2 C234.22029,155.1 234.52029,149.6 235.32029,146.2 C240.72029,122.8 260.52029,106.8 288.62029,103.2 C313.82029,99.9 337.42029,114.7 345.92029,139.1 C356.02029,168.3 345.52029,196.8 319.92029,209.3 C315.52029,211.5 309.32029,213.9 306.22029,214.7 C298.72029,216.6 286.92029,217.3 281.12029,216.3 L281.12029,216.3 Z M306.82029,196.2 C322.52029,190.3 330.02029,173.8 325.92029,154.4 C320.72029,129.8 304.92029,117.1 284.82029,121.3 C281.52029,122 276.72029,123.6 274.22029,124.9 C267.92029,128 261.12029,135.9 259.02029,142.3 C253.52029,159.4 262.12029,185.8 275.92029,194.4 C284.72029,199.8 295.62029,200.4 306.82029,196.2 L306.82029,196.2 Z" id="Shape"></path>
                <path d="M1570.22029,208.6 L1556.52029,205.1 L1545.22029,181.7 L1533.92029,158.3 L1529.92029,157.5 C1527.62029,157 1525.72029,156.7 1525.62029,156.8 C1525.52029,156.8 1523.52029,165.2 1521.22029,175.3 C1519.02029,185.5 1516.72029,194.2 1516.32029,194.6 C1515.92029,195.1 1510.72029,194.5 1504.82029,193.2 C1495.12029,191.1 1494.22029,190.8 1494.72029,188.9 C1495.02029,187.7 1500.22029,163.9 1506.32029,135.8 C1512.42029,107.8 1517.62029,84.7 1517.82029,84.5 C1518.32029,83.9 1554.82029,92.2 1561.02029,94.4 C1575.22029,99.3 1585.62029,107.3 1590.02029,116.9 C1594.92029,127.6 1591.62029,142.4 1582.72029,150.3 C1577.72029,154.6 1569.72029,158.2 1563.42029,159 C1560.62029,159.3 1558.32029,160 1558.32029,160.5 C1558.32029,161 1564.22029,172.9 1571.42029,186.9 C1578.62029,200.9 1584.32029,212.3 1584.12029,212.200653 C1583.92029,212.200653 1577.72029,210.5 1570.22029,208.6 L1570.22029,208.6 Z M1558.82029,141.4 C1563.82029,139.1 1566.72029,135.9 1568.32029,131 C1570.72029,123.3 1567.62029,117.3 1558.62029,112.6 C1552.12029,109.2 1538.62029,105.6 1537.32029,106.9 C1536.32029,108 1529.22029,139.5 1529.82029,140.1 C1531.02029,141.3 1541.62029,143.1 1547.82029,143.2 C1552.62029,143.2 1556.12029,142.7 1558.82029,141.4 L1558.82029,141.4 Z" id="Shape"></path>
                <path d="M381.42029,184.9 C367.12029,122 359.52029,87.8 359.72029,87.6 C360.02029,87.3 382.62029,82.3 382.82029,82.5 C382.92029,82.7 387.12029,102.4 392.22029,126.3 C397.22029,150.2 401.62029,170.3 401.82029,170.9 C402.02029,171.7 408.72029,170.7 422.72029,167.8 C436.82029,164.9 443.32029,163.9 443.62029,164.7 C444.42029,166.8 446.62029,180.3 446.22029,180.6 C446.02029,180.8 435.52029,183.1 422.82029,185.6 C410.22029,188.2 396.12029,191.2 391.62029,192.2 L383.42029,194.1 L381.42029,184.9 L381.42029,184.9 Z" id="Path"></path>
                <path d="M1431.72029,178.1 C1423.22029,176.5 1421.62029,175.9 1421.92029,174.5 C1422.72029,171.4 1438.32029,87.4 1438.32029,86.5 C1438.32029,86 1431.42029,84.4 1423.12029,82.9 C1414.72029,81.4 1407.72029,80 1407.52029,79.8 C1407.32029,79.6 1407.72029,75.9 1408.42029,71.4 C1409.42029,64.9 1410.02029,63.3 1411.32029,63.3 C1413.62029,63.3 1452.12029,70.4 1476.32029,75.3 C1487.02029,77.5 1496.02029,79.3 1496.42029,79.3 C1497.42029,79.3 1493.82029,95.6 1492.72029,96 C1492.22029,96.2 1485.02029,95 1476.82029,93.3 C1468.72029,91.7 1461.92029,90.4 1461.82029,90.5 C1461.72029,90.7 1457.72029,110.9 1452.82029,135.6 C1447.32029,163.9 1443.72029,180.3 1442.92029,180.200455 C1442.32029,180.1 1437.22029,179.2 1431.72029,178.1 L1431.72029,178.1 Z" id="Path"></path>
                <path d="M490.32029,169.9 C466.82029,163.8 452.12029,146.4 448.22029,120.1 C445.22029,99.9 453.32029,80.6 469.62029,69.3 C477.72029,63.6 484.82029,60.6 495.32029,58.7 C505.02029,57 511.22029,57 519.82029,58.8 C540.12029,63.1 554.92029,77.8 560.32029,98.9 C568.32029,130 553.22029,158.6 523.92029,167.9 C513.82029,171.1 498.52029,172 490.32029,169.9 Z M520.82029,150.4 C532.62029,145.2 538.42029,135.6 539.12029,120.2 C539.82029,104.3 535.22029,91 526.22029,82.9 C519.52029,76.9 513.42029,74.9 502.92029,75.5 C492.12029,76.1 485.82029,78.9 479.42029,85.9 C472.92029,93 470.92029,99 471.02029,110.8 C471.12029,129.9 480.62029,146.9 493.82029,151.8 C499.92029,154 514.42029,153.3 520.82029,150.4 Z" id="Shape"></path>
                <path d="M1377.42029,168.2 C1371.72029,167.2 1366.92029,166.2 1366.72029,166 C1366.52029,165.8 1365.32029,160.5 1364.22029,154.2 C1363.02029,147.9 1361.72029,142.6 1361.22029,142.2 C1359.22029,141 1316.12029,135.1 1315.32029,135.9 C1314.92029,136.4 1312.22029,141.2 1309.32029,146.6 C1303.42029,157.6 1304.82029,157 1290.32029,154.9 C1283.82029,154 1281.92029,153.4 1282.12029,152.3 C1282.72029,149.7 1336.12029,54.8 1338.82029,51.5 C1339.02029,51.2 1364.62029,55.2 1364.92029,55.6 C1365.62029,56.6 1389.32029,167.5 1389.32029,169.9 C1389.32029,170.4 1390.12029,170.5 1377.42029,168.2 L1377.42029,168.2 Z M1358.32029,121.1 C1358.12029,116.5 1349.82029,72.2 1349.02029,72 C1347.92029,71.7 1324.02029,117.4 1324.82029,118.2 C1325.52029,118.8 1350.92029,123 1355.62029,123.2 C1357.82029,123.3 1358.32029,122.9 1358.32029,121.1 L1358.32029,121.1 Z" id="Shape"></path>
                <path d="M626.82029,151.2 C601.82029,147.4 585.72029,132.1 580.72029,107.3 C577.82029,92.6 580.02029,77.6 586.82029,65.9 C590.32029,59.8 600.52029,50.5 607.82029,46.6 C623.62029,38.3 651.72029,35.3 668.82029,40.1 L671.82029,41 L671.52029,48.9 C671.32029,53.2 670.82029,57.1 670.42029,57.5 C670.02029,57.9 668.22029,57.8 666.32029,57.3 C664.42029,56.7 658.32029,56 652.82029,55.6 C617.62029,53.5 598.92029,70.9 603.32029,101.7 C606.82029,126.2 621.92029,137.5 647.22029,134.2 C654.92029,133.3 661.12029,131.7 662.62029,130.3 C663.12029,129.9 662.62029,122.7 661.72029,114.3 C660.32029,102 660.22029,99 661.32029,98.3 C662.92029,97.3 679.22029,95.9 680.12029,96.7 C680.42029,97.1 681.72029,106.9 682.92029,118.6 C684.42029,134 684.72029,140 683.92029,140.5 C683.32029,140.9 679.02029,142.7 674.32029,144.4 C658.02029,150.3 639.02029,153.1 626.82029,151.2 L626.82029,151.2 Z" id="Path"></path>
                <path d="M1248.42029,149.7 C1242.72029,149 1237.92029,148.2 1237.72029,148.1 C1237.52029,147.8 1249.42029,40.1 1249.72029,39.7 C1249.92029,39.5 1272.72029,42.4 1273.02029,42.6 C1273.42029,43.1 1259.92029,151.3 1259.32029,151.200069 C1259.02029,151.1 1254.12029,150.4 1248.42029,149.7 L1248.42029,149.7 Z" id="Path"></path>
                <path d="M712.82029,137.1 C711.82029,127.8 703.42029,33.9 703.62029,33.7 C703.92029,33.4 726.62029,31.3 726.92029,31.6 C727.02029,31.7 729.02029,56.1 731.52029,85.8 L735.82029,139.8 L732.82029,140.4 C731.22029,140.8 726.12029,141.4 721.62029,141.7 L713.42029,142.3 L712.82029,137.1 L712.82029,137.1 Z" id="Path"></path>
                <path d="M1133.42029,138.7 C1124.42029,138 1116.92029,137.3 1116.82029,137.1 C1116.42029,136.7 1123.42029,28.9 1123.82029,28.5 C1124.42029,27.8 1164.82029,31.4 1171.32029,32.8 C1199.52029,38.7 1218.52029,58.2 1220.02029,82.8 C1221.82029,111.6 1201.22029,134.7 1169.72029,139.3 C1161.22029,140.5 1154.32029,140.4 1133.42029,138.7 L1133.42029,138.7 Z M1174.52029,119.4 C1197.42029,110.4 1204.72029,79.9 1188.22029,61.9 C1180.52029,53.5 1170.02029,49.2 1153.62029,47.9 L1146.42029,47.3 L1145.92029,50.5 C1145.62029,52.3 1144.42029,66.9 1143.32029,82.8 C1142.22029,98.8 1141.02029,113.9 1140.72029,116.5 C1140.02029,122.3 1139.92029,122.2 1156.32029,121.9 C1166.52029,121.7 1169.92029,121.2 1174.52029,119.4 L1174.52029,119.4 Z" id="Shape"></path>
                <path d="M757.62029,136.7 C770.72029,93.9 791.92029,28.4 793.22029,27.2 C793.52029,26.8 799.52029,26.3 806.42029,26 L819.02029,25.4 L830.82029,51.6 C844.12029,80.8 866.42029,132.5 866.02029,132.9 C865.92029,133.1 860.62029,133.3 854.32029,133.4 L842.92029,133.5 L838.42029,122.3 L834.02029,111 L819.92029,111.7 C812.22029,112 801.52029,112.6 796.22029,112.9 L786.72029,113.6 L783.92029,124.3 C782.42029,130.2 780.82029,135.5 780.42029,136.1 C780.12029,136.7 774.72029,137.5 768.42029,137.9 C757.62029,138.6 757.12029,138.5 757.62029,136.7 L757.62029,136.7 Z M826.52029,93.7 C827.22029,93.3 808.72029,46.4 807.32029,44.9 C806.82029,44.4 805.52029,47.1 804.42029,50.9 C800.92029,63 792.32029,93.9 792.32029,94.7 C792.32029,95.4 825.12029,94.5 826.52029,93.7 Z" id="Shape"></path>
                <path d="M1078.82029,135.2 C1072.22029,134.8 1057.22029,134.2 1045.62029,133.8 L1024.32029,133 L1024.32029,124.4 C1024.32029,113.5 1027.22029,24.1 1027.52029,23.8 C1027.82029,23.5 1062.72029,24.9 1082.72029,25.9 L1096.62029,26.6 L1096.02029,35 C1095.82029,39.6 1095.42029,43.6 1095.22029,43.7 C1095.02029,43.9 1085.02029,43.6 1073.12029,43 C1061.12029,42.4 1051.12029,42.2 1050.82029,42.5 C1050.52029,42.7 1050.02029,48.8 1049.72029,56 L1049.02029,69.1 L1056.92029,69.7 C1061.22029,70 1070.92029,70.5 1078.32029,70.9 L1091.82029,71.5 L1091.42029,80.1 C1091.32029,84.9 1091.02029,88.8 1090.92029,88.9 C1090.92029,88.9 1081.52029,88.5 1070.02029,87.9 C1058.62029,87.4 1049.12029,87.2 1048.92029,87.4 C1048.72029,87.6 1048.22029,94.2 1047.82029,101.9 L1047.12029,116.1 L1061.02029,116.7 C1068.62029,117.1 1078.62029,117.7 1083.32029,118.1 L1091.82029,118.8 L1091.32029,127.3 L1090.82029,135.8 L1078.82029,135.2 L1078.82029,135.2 Z" id="Path"></path>
                <path d="M927.02029,103.1 C926.62029,87 926.32029,62.2 926.32029,47.9 L926.32029,22.1 L949.12029,22.6 C966.12029,23 973.32029,23.5 977.82029,24.8 C990.42029,28.4 998.72029,34.4 1003.02029,43.1 C1005.42029,47.9 1005.82029,50 1005.82029,56.8 C1005.72029,66 1003.82029,71.3 997.92029,78 C990.72029,86.3 974.02029,92.2 958.22029,92.3 L950.62029,92.3 L950.02029,111.4 C949.72029,121.9 949.32029,130.7 949.12029,130.8 C948.92029,130.9 944.02029,131.4 938.22029,131.8 L927.62029,132.5 L927.02029,103.1 L927.02029,103.1 Z M973.02029,72.2 C980.12029,68.5 981.82029,65.6 981.82029,56.8 C981.82029,50 981.62029,49.2 978.92029,46.4 C975.12029,42.5 968.82029,40.4 958.62029,39.6 L950.32029,39 L950.32029,57.3 L950.32029,75.6 L959.32029,75.1 C966.12029,74.7 969.52029,74 973.02029,72.2 L973.02029,72.2 Z" id="Shape"></path>
                <path d="M1356.82029,43.2 C1354.12029,42.7 1350.32029,42.1 1348.52029,41.7 C1344.62029,41.1 1344.62029,40.9 1353.42029,31.5 L1360.02029,24.3 L1372.42029,26.3 C1379.22029,27.4 1385.22029,28.5 1385.72029,28.6 C1386.22029,28.8 1381.22029,32.4 1374.62029,36.6 C1368.02029,40.8 1362.42029,44.2 1362.22029,44.2 C1362.02029,44.1 1359.62029,43.7 1356.82029,43.2 L1356.82029,43.2 Z" id="Path"></path>
                <path d="M710.42029,12.5 L715.72029,2.5 L723.82029,1.9 C728.22029,1.5 734.32029,1 737.32029,0.6 L742.82029,0 L736.62029,6.9 C724.22029,20.8 724.02029,21 714.02029,21.7 L705.12029,22.4 L710.42029,12.5 L710.42029,12.5 Z" id="Path"></path>
            </g>
            <path d="M1031.82029,5.68434189e-14 C1054.32029,5.68434189e-14 1076.92029,3.6 1095.82029,10.2 C1143.62029,27.1 1177.02029,64.7 1187.42029,113.2 C1190.62029,128.2 1190.72029,154 1187.52029,169.7 C1184.76629,183.632 1178.20691,202.87841 1174.32573,209.689101 L1174.21195,209.884159 C1173.94122,210.765657 1173.19382,213.038235 1172.32029,215.5 C1167.02029,230.6 1168.72029,235.8 1182.52029,246 C1199.82029,258.7 1205.32029,267.4 1205.32029,281.5 C1205.22029,285.8 1204.72029,289.7 1203.82029,291.2 C1201.02029,296.1 1201.92029,299.6 1206.72029,303.6 C1221.82029,315.9 1220.52029,344.8 1203.32029,381 C1192.72029,403.2 1185.32029,413.6 1166.52029,432.5 C1135.92029,463.4 1111.92029,478.8 1080.92029,487.5 L1072.32029,490 L1072.32029,487.9 C1072.32029,486.5 1077.42029,480.7 1086.82029,471.2 C1104.62029,453.3 1113.02029,443.3 1123.82029,427.2 C1140.92029,401.6 1149.62029,378.9 1151.82029,354.2 C1152.62029,345.1 1149.42029,317.6 1145.82029,303.7 C1142.92029,292.3 1137.72029,279.9 1130.72029,268.1 C1129.27942,265.698544 1127.97695,263.481631 1127.01232,261.803801 C1126.57213,261.552565 1126.32029,261.201466 1126.32029,260.8 C1126.32029,260.715333 1126.31245,260.630667 1126.29748,260.546474 C1126.04459,260.101058 1125.83641,259.725346 1125.67765,259.430862 C1125.43233,259.175218 1125.134,258.956855 1124.82029,258.8 C1124.03865,258.506884 1123.35247,257.354599 1123.32139,256.275871 C1123.01148,255.937214 1122.67457,255.575122 1122.32029,255.2 C1121.9849,254.844884 1121.66508,254.481985 1121.36775,254.122818 C1120.78737,253.927587 1120.3412,253.370272 1120.321,252.744263 C1119.91506,252.150829 1119.61095,251.619465 1119.44988,251.217005 C1119.40766,251.205343 1119.36397,251.2 1119.32029,251.2 C1118.72029,251.2 1118.02029,250.6 1117.82029,250 C1116.12029,245.8 1093.92029,224.7 1075.92029,210.4 C1063.22029,200.2 1060.92029,197.1 1059.72029,187.8 C1059.12029,183.8 1058.72029,183.2 1056.72029,183.2 C1054.49696,183.2 1054.3294,182.919667 1054.3207,176.577904 L1054.32029,175.9 C1054.32029,165.8 1056.02029,163 1066.42029,156.1 C1071.32029,152.8 1079.32029,145.9 1085.62029,139.5 C1094.52029,130.4 1096.32029,128 1096.32029,125.4 C1096.32029,122.7 1095.82029,122.2 1091.62029,120.8 C1085.82029,118.8 1085.72029,118.8 1068.42029,134.5 L1055.52029,146.2 L1049.42029,146.2 C1042.32029,146.2 1041.62029,145.5 1040.82029,136.6 C1040.63815,134.596429 1040.27169,131.48699 1039.87759,128.345955 L1039.73761,127.237792 C1039.52667,125.578827 1039.31315,123.946429 1039.12029,122.5 C1038.02029,114.4 1038.02029,114.4 1034.82029,113.8 C1028.82029,112.6 1023.82029,116.2 1022.32029,122.6 C1020.92029,129 1023.82029,142.6 1031.22029,164 C1039.72029,188.3 1041.32029,197.5 1039.52029,210.9 C1036.92029,230.2 1025.22029,244.4 1005.72029,251.8 C998.62029,254.4 989.32029,255 985.62029,252.9 C984.459,252.222581 978.146825,246.956191 971.305967,241.088614 L970.62029,240.5 C954.62029,226.4 947.42029,221 939.92029,217.2 C934.42029,214.4 933.92029,214.3 931.22029,215.8 C928.12029,217.4 924.32029,222.6 924.32029,225.3 C924.32029,227.4 928.52029,231.2 937.32029,237 C941.42029,239.7 947.82029,244.7 951.62029,248.1 C957.72029,253.8 958.32029,254.7 958.32029,258.3 L958.320156,258.576401 C958.31361,263.00016 957.98629,263.008 941.62029,263.4 C931.12029,263.7 929.12029,264 926.62029,265.8 C920.42029,270.4 920.62029,276.5 927.32029,281 C930.12029,282.9 931.92029,283.2 939.82029,283.2 C974.02029,283.2 1004.02029,275.3 1027.42029,260.2 C1033.72029,256.1 1037.72029,255.3 1041.42029,257.2 C1043.02029,258.1 1043.32029,259.4 1043.32029,265.2 C1043.32029,272.9 1041.62029,282.2 1040.22029,282.2 L1040.16444,282.205811 C1039.99766,283.391957 1039.70665,284.174335 1039.33854,284.19938 C1039.32635,284.359865 1039.32029,284.52766 1039.32029,284.7 C1039.32029,286.1 1038.92029,287.2 1038.32029,287.2 L1038.30511,287.202524 C1038.23891,288.21347 1037.9495,288.793664 1037.30742,289.046664 C1037.16368,291.231304 1035.69291,293.832384 1034.22822,294.806246 C1034.00005,296.708628 1033.34747,298.172824 1032.32029,299.2 C1031.93661,299.583683 1031.57726,299.991698 1031.27195,300.377366 C1031.18519,301.357306 1030.9477,301.813111 1030.32019,302.023492 L1030.32029,302 C1030.32029,304.406369 1021.10615,309.831165 1015.84551,310.982621 C1014.86848,312.914747 1012.52821,314.710962 1010.3585,315.117014 C1009.95258,315.740857 1009.43644,316.290312 1008.92029,316.6 C1007.82029,317.2 1006.12029,318.5 1005.12029,319.4 C1004.12029,320.4 1002.92029,321.2 1002.32029,321.2 C1002.22667,321.2 1002.098,321.238561 1001.9415,321.310432 C1001.64068,322.147987 1001.00672,322.597847 999.839411,322.836233 C999.535085,323.104192 999.225314,323.394976 998.92029,323.7 C997.816972,324.803318 996.341009,325.720312 995.177644,326.059416 C994.88595,326.919727 994.161619,327.864609 993.32029,328.4 C992.882598,328.678531 992.476571,329.020393 992.146308,329.375186 C991.981257,329.98509 991.700241,330.491317 991.347638,330.68563 C991.328787,330.760189 991.32029,330.831983 991.32029,330.9 C991.32029,331.301145 990.959047,331.669449 990.387119,331.910816 C989.715895,333.864541 991.061209,337.179176 993.92029,339.8 C999.35229,345.038 1000.26797,344.91287 1019.48415,332.123226 L1020.69632,331.315898 C1020.90231,331.17863 1021.11029,331.04 1021.32029,330.9 C1031.92296,323.8 1035.26658,321.987449 1038.90177,321.474953 L1039.20983,321.434649 C1039.31286,321.422187 1039.41629,321.410667 1039.52029,321.4 C1044.02029,321 1044.32029,321.1 1045.42029,323.8 C1046.12029,325.7 1046.32029,330.5 1045.92029,337.8 C1045.22029,350.3 1046.02029,353.5 1050.42029,355.8 C1062.72029,362.1 1069.42029,346.7 1065.92029,319.9 C1065.23458,314.642857 1064.60691,304.161224 1064.25844,293.497149 L1064.21635,292.163554 C1064.12838,289.273621 1064.06156,286.385714 1064.02029,283.6 L1063.85057,275.434013 C1063.4997,274.617337 1063.39912,272.936297 1063.39468,269.484035 L1063.3948,268.891121 C1063.39657,267.773375 1063.40654,266.485 1063.42029,265 C1063.42029,264.448889 1063.42266,263.892247 1063.42726,263.333867 L1063.43582,262.495467 L1063.44761,261.657304 C1063.53012,256.49521 1063.7914,251.508889 1064.12029,249.7 C1064.82029,245.8 1064.92029,245.7 1069.22029,245.4 C1073.52029,245.1 1073.82029,245.3 1081.42029,252.9 C1086.32772,257.735259 1088.26645,259.914322 1088.96549,261.842742 C1094.66279,267.114245 1103.88986,281.406968 1108.72029,293 C1120.62029,321.3 1121.32029,358.6 1110.72029,392 C1109.00094,397.280865 1103.02078,410.17839 1096.1371,423.792782 L1095.55331,424.944846 C1095.45568,425.13709 1095.35788,425.329437 1095.25994,425.521869 L1094.57814,426.857979 L1093.89219,428.195366 C1090.22397,435.32896 1086.40829,442.456 1082.92029,448.6 C1080.4052,452.981132 1078.28505,456.835671 1077.57453,458.241055 L1077.48464,458.421067 C1077.37725,458.639373 1077.32029,458.769811 1077.32029,458.8 C1077.32029,459 1078.22029,459.2 1079.32029,459.2 C1084.22029,459.2 1080.02029,469.1 1067.42029,487.4 C1063.52029,493.1 1062.32029,494.2 1059.92029,494.2 C1057.52029,494.2 1057.22029,494 1058.32029,492.7 C1059.32029,491.5 1059.32029,491.2 1058.02029,491.2 C1057.22029,491.2 1056.32029,491.9 1055.92029,492.7 C1055.62029,493.5 1054.42029,494.2 1053.22029,494.2 C1051.72029,494.2 1051.32029,493.7 1051.72029,492.7 C1052.12029,491.5 1051.12029,491.2 1045.92029,491.2 C1018.12029,491.2 976.22029,473.6 948.62029,450.3 C929.52029,434.1 901.02029,396.3 882.32029,362.3 C880.600078,359.163144 879.059053,356.282267 877.982139,354.175417 C877.944931,354.192184 877.924566,354.2 877.92029,354.2 C877.72029,354.2 875.32029,348.7 872.52029,342 C852.42029,292.9 843.32029,242.4 847.22029,200.7 C852.92029,138.5 874.42029,88 910.32029,52.2 C932.588331,29.8329897 955.83586,16.1834201 987.43024,6.9859757 L988.42029,6.7 C1006.12029,1.6 1015.92029,0.1 1031.82029,5.68434189e-14 Z" id="Combined-Shape" fill="url(#linearGradient-1)"></path>
            <g id="Group" transform="translate(918.551389, 110.350728)" fill="#EFA1C6">
                <path d="M91.668901,667.749272 L88.968901,666.749272 L90.368901,661.549272 C92.868901,652.049272 93.968901,636.649272 92.768901,625.649272 C91.668901,614.749272 89.868901,606.149272 82.468901,577.849272 C79.968901,568.249272 77.368901,556.949272 76.668901,552.849272 C76.0480636,549.124248 74.6942824,545.138272 74.5599873,542.558022 C74.434707,540.150977 75.4623123,539.184785 76.668901,534.937593 C78.168901,529.837593 80.5051515,521.453682 81.5051515,519.453682 C82.3687965,517.765649 83.9289546,513.557757 84.3597002,513.822257 C85.0076058,516.486911 85.7036251,524.808025 87.768901,536.349272 C88.968901,542.949272 92.368901,558.749272 95.368901,571.549272 C102.168901,600.649272 103.768901,611.049272 103.768901,627.349272 C103.768901,641.449272 102.768901,649.149272 99.568901,661.149272 C97.468901,669.349272 96.968901,669.649272 91.668901,667.749272 Z M87.6657887,450.073875 C94.2657887,434.573875 104.368901,419.749272 119.268901,401.049272 C140.168901,374.849272 181.468901,302.449272 189.068901,278.849272 C194.468901,262.149272 196.068901,251.749272 196.168901,234.349272 C196.168901,206.649272 190.568901,187.449272 175.768901,164.949272 C168.968901,154.549272 153.268901,137.649272 150.868901,138.049272 C149.868901,138.249272 149.068901,139.949272 148.568901,142.349272 C147.468901,148.849272 148.768901,194.349272 150.468901,206.849272 C152.068901,218.849272 151.768901,232.749272 149.668901,240.249272 C147.268901,248.749272 139.568901,252.549272 131.168901,249.349272 C123.968901,246.649272 122.668901,242.549272 124.068901,227.849272 C125.068901,217.549272 123.968901,213.349272 120.568901,214.349272 C119.468901,214.749272 112.568901,219.049272 105.368901,223.849272 C98.168901,228.649272 90.668901,233.349272 88.768901,234.349272 C81.168901,238.249272 72.168901,235.449272 69.168901,228.249272 C67.168901,223.549272 67.468901,220.949272 70.168901,217.349272 C73.168901,213.449272 92.368901,199.449272 99.968901,195.549272 C107.168901,191.949272 110.068901,188.649272 115.368901,177.349272 C121.868901,163.549272 123.768901,152.049272 119.868901,149.949272 C118.368901,149.149272 116.768901,149.749272 111.768901,152.849272 C87.768901,168.449272 58.568901,175.849272 21.368901,175.849272 C10.968901,175.849272 8.76890101,175.549272 5.96890101,173.849272 C-0.431098993,169.949272 -2.03109899,159.449272 2.86890101,154.249272 C6.06890101,150.849272 10.668901,149.849272 23.268901,149.849272 C38.468901,149.849272 38.868901,149.349272 30.268901,141.149272 C26.468901,137.549272 19.868901,132.349272 15.768901,129.649272 C5.96890101,123.249272 2.96890101,120.249272 2.16890101,116.349272 C1.36890101,112.049272 4.76890101,105.449272 9.06890101,102.849272 C17.468901,97.6492724 27.468901,102.949272 55.068901,127.149272 C62.168901,133.249272 68.868901,138.849272 70.068901,139.549272 C73.368901,141.449272 77.068901,141.049272 84.168901,138.449272 C108.268901,129.349272 121.368901,108.149272 117.768901,84.2492724 C117.068901,79.9492724 113.468901,67.4492724 109.568901,56.4492724 C96.368901,18.2492724 96.868901,1.54927245 111.368901,0.149272446 C118.068901,-0.550727554 124.068901,1.24927245 127.068901,4.74927245 C129.068901,7.24927245 129.568901,9.04927245 130.168901,17.8492724 C130.868901,29.3492724 131.568901,32.8492724 132.968901,32.8492724 C133.468901,32.8492724 139.768901,27.6492724 146.768901,21.1492724 C161.968901,7.54927245 164.268901,5.84927245 168.368901,5.84927245 C181.668901,5.84927245 191.068901,17.8492724 184.568901,26.4492724 C179.868901,32.5492724 161.368901,48.9492724 154.768901,52.8492724 C145.968901,58.0492724 143.468901,61.3492724 143.568901,68.2492724 C143.568901,73.9492724 145.168901,80.7492724 147.368901,85.0492724 C148.168901,86.5492724 154.068901,91.9492724 160.568901,97.1492724 C192.268901,122.549272 209.668901,142.249272 221.268901,166.349272 C227.868901,179.949272 231.068901,190.749272 233.968901,209.149272 C239.268901,243.749272 235.768901,268.749272 221.568901,297.349272 C215.568901,309.449272 202.468901,329.249272 192.768901,340.849272 C184.168901,351.149272 160.268901,375.349272 152.968901,381.149272 C144.668901,387.749272 119.768901,417.649272 108.368901,434.749272 C101.968901,444.349272 92.868901,462.159166 91.468901,467.149272 C90.5355677,470.47601 90.068901,473.669535 90.068901,476.729847 L86.968901,470.349272 C84.6692066,467.106114 81.7895221,466.064515 82.2714683,462.57194 C82.6068439,460.141535 85.9834161,453.972055 87.6657887,450.073875 Z M170.768901,349.749272 C172.768901,345.449272 173.668901,344.249272 175.568901,343.249272 C178.968901,341.549272 181.768901,338.649272 181.768901,336.949272 C181.768901,336.049272 182.768901,334.849272 184.068901,334.349272 C185.268901,333.749272 186.368901,332.349272 186.568901,331.249272 C186.768901,330.049272 187.768901,328.849272 188.868901,328.549272 C189.968901,328.249272 190.768901,327.149272 190.768901,325.949272 C190.768901,324.749272 191.368901,323.849272 192.268901,323.849272 C193.068901,323.849272 193.768901,322.949272 193.768901,321.849272 C193.768901,320.749272 194.268901,319.849272 194.768901,319.849272 C195.368901,319.849272 195.768901,319.249272 195.768901,318.449272 C195.768901,317.749272 196.668901,316.849272 197.768901,316.549272 C199.168901,316.249272 199.768901,315.149272 199.768901,313.449272 C199.768901,312.049272 200.268901,310.849272 200.768901,310.849272 C201.368901,310.849272 201.768901,310.149272 201.768901,309.349272 C201.768901,308.549272 202.468901,307.849272 203.268901,307.849272 C204.168901,307.849272 204.768901,306.949272 204.768901,305.349272 C204.768901,303.849272 205.368901,302.849272 206.268901,302.849272 C207.068901,302.849272 207.968901,301.649272 208.268901,300.149272 C209.268901,295.649272 212.968901,287.949272 214.368901,287.449272 C215.168901,287.149272 215.768901,285.549272 215.768901,283.849272 C215.768901,282.249272 216.268901,280.849272 216.768901,280.849272 C217.368901,280.849272 217.768901,279.749272 217.768901,278.449272 C217.768901,277.149272 218.468901,275.849272 219.268901,275.449272 C220.068901,275.149272 220.768901,273.649272 220.768901,272.149272 C220.768901,270.549272 221.868901,264.849272 223.268901,259.449272 C224.668901,253.949272 226.068901,246.449272 226.468901,242.649272 C226.768901,238.949272 227.468901,235.849272 227.868901,235.849272 C228.368901,235.849272 228.768901,232.749272 228.768901,228.849272 C228.768901,225.049272 228.368901,221.849272 227.968901,221.849272 C227.268901,221.849272 225.468901,210.649272 224.068901,197.149272 C223.768901,194.749272 223.168901,192.849272 222.668901,192.849272 C222.168901,192.849272 221.768901,191.849272 221.768901,190.749272 C221.768901,187.649272 219.568901,180.849272 218.568901,180.849272 C218.168901,180.849272 217.768901,179.749272 217.768901,178.349272 C217.768901,176.949272 217.368901,175.849272 216.768901,175.849272 C216.268901,175.849272 215.468901,174.649272 215.168901,173.149272 C214.368901,170.049272 211.868901,164.649272 210.768901,163.849272 C210.368901,163.549272 209.068901,161.249272 207.768901,158.649272 C206.468901,155.949272 205.068901,153.849272 204.668901,153.849272 C204.268901,153.849272 203.668901,153.049272 203.368901,152.149272 C203.068901,151.149272 201.768901,149.149272 200.568901,147.749272 C199.268901,146.249272 197.168901,143.549272 195.768901,141.749272 C190.768901,134.949272 166.968901,112.049272 154.968901,102.449272 C146.468901,95.6492724 142.068901,91.4492724 140.968901,88.9492724 C140.068901,86.9492724 139.068901,85.1492724 138.768901,84.8492724 C138.468901,84.5492724 137.668901,81.5492724 136.968901,78.0492724 C135.368901,70.3492724 137.168901,52.8492724 139.568901,52.8492724 C140.268901,52.8492724 142.768901,51.5492724 145.068901,49.9492724 C147.368901,48.4492724 150.668901,46.4492724 152.368901,45.5492724 C155.468901,43.9492724 176.068901,25.1492724 178.568901,21.6492724 C179.768901,19.9492724 179.668901,19.4492724 178.168901,17.6492724 C174.568901,13.7492724 172.868901,13.4492724 168.968901,16.1492724 C166.968901,17.5492724 160.068901,23.2492724 153.768901,28.8492724 C141.468901,39.8492724 139.668901,40.8492724 133.868901,40.8492724 C129.868901,40.8492724 124.768901,37.7492724 124.768901,35.3492724 C124.768901,34.6492724 124.268901,33.8492724 123.768901,33.6492724 C122.068901,33.1492724 121.168901,21.8492724 122.768901,21.8492724 C123.668901,21.8492724 123.868901,20.4492724 123.568901,16.8492724 C122.668901,7.54927245 115.968901,3.94927245 111.368901,10.1492724 C109.668901,12.4492724 109.268901,14.3492724 109.468901,19.2492724 C109.668901,28.2492724 111.168901,34.8492724 117.868901,55.8492724 C124.668901,76.7492724 126.268901,85.8492724 125.268901,97.2492724 C123.468901,118.449272 114.068901,132.149272 94.868901,141.649272 C86.168901,146.049272 84.868901,146.349272 76.568901,146.749272 C65.868901,147.149272 66.168901,147.249272 47.768901,130.949272 C35.368901,119.849272 18.768901,107.849272 15.868901,107.849272 C13.868901,107.849272 9.76890101,111.849272 9.76890101,113.849272 C9.76890101,115.649272 12.668901,118.449272 16.768901,120.749272 C22.068901,123.649272 34.168901,133.449272 39.368901,139.149272 C44.568901,144.749272 44.868901,145.349272 44.568901,149.649272 C44.268901,153.749272 43.968901,154.249272 41.268901,155.049272 C39.668901,155.549272 32.268901,156.149272 24.868901,156.549272 C13.168901,157.049272 11.168901,157.449272 8.96890101,159.349272 C5.66890101,162.249272 6.66890101,165.249272 12.068901,167.849272 C16.568901,170.049272 26.768901,170.649272 26.768901,168.749272 C26.768901,167.949272 29.268901,167.749272 34.768901,168.049272 C39.168901,168.349272 42.768901,168.249272 42.768901,167.849272 C42.768901,167.449272 45.868901,166.849272 49.568901,166.549272 C53.368901,166.149272 60.868901,164.749272 66.368901,163.349272 C71.768901,161.949272 76.968901,160.849272 77.868901,160.849272 C78.868901,160.849272 79.768901,160.349272 79.968901,159.849272 C80.168901,159.249272 82.068901,158.549272 84.268901,158.149272 C86.468901,157.849272 89.068901,156.749272 90.068901,155.749272 C91.068901,154.649272 92.768901,153.849272 93.768901,153.849272 C94.868901,153.849272 95.768901,153.449272 95.768901,152.949272 C95.768901,151.949272 96.768901,151.549272 102.068901,150.449272 C103.568901,150.049272 104.768901,149.149272 104.768901,148.349272 C104.768901,147.549272 105.468901,146.849272 106.268901,146.849272 C107.068901,146.849272 107.768901,146.449272 107.768901,146.049272 C107.768901,144.749272 119.468901,142.549272 122.368901,143.249272 C127.468901,144.549272 128.068901,146.049272 127.568901,156.649272 C127.068901,166.949272 125.668901,171.949272 120.268901,183.349272 C115.968901,192.349272 110.768901,198.049272 103.268901,201.849272 C96.268901,205.349272 75.968901,220.249272 75.068901,222.449272 C74.468901,224.149272 77.368901,227.749272 80.268901,228.849272 C82.668901,229.749272 86.768901,228.049272 86.768901,226.149272 C86.768901,225.449272 87.668901,224.849272 88.768901,224.849272 C91.168901,224.849272 111.668901,211.349272 112.468901,209.249272 C113.368901,206.949272 124.868901,207.349272 127.868901,209.749272 C130.168901,211.649272 130.268901,212.149272 130.268901,225.649272 C130.268901,235.449272 130.668901,239.949272 131.568901,241.049272 C132.968901,242.849272 137.768901,244.049272 137.768901,242.749272 C137.768901,242.249272 138.668901,241.849272 139.668901,241.849272 C142.068901,241.849272 142.468901,240.749272 143.368901,231.949272 C143.668901,228.049272 144.468901,224.849272 144.868901,224.849272 C145.368901,224.849272 145.768901,223.049272 145.768901,220.849272 C145.768901,218.649272 145.368901,216.849272 144.868901,216.849272 C143.368901,216.849272 142.368901,202.749272 142.668901,184.149272 C142.868901,173.649272 142.668901,165.849272 142.068901,165.849272 C141.568901,165.849272 141.168901,159.249272 141.168901,151.149272 C141.268901,133.549272 141.868901,132.249272 150.468901,131.149272 L155.668901,130.549272 L165.468901,140.449272 C184.768901,159.949272 196.468901,181.449272 201.468901,206.549272 C204.068901,219.749272 203.868901,246.749272 200.968901,261.349272 C198.568901,273.549272 193.468901,289.549272 186.368901,306.849272 C180.168901,321.949272 165.068901,352.249272 162.668901,354.449272 C161.668901,355.349272 160.768901,356.849272 160.768901,357.749272 C160.768901,358.749272 161.268901,358.549272 162.068901,356.949272 C162.668901,355.649272 163.968901,354.249272 164.768901,353.849272 C168.968901,351.949272 170.168901,351.049272 170.768901,349.749272 Z" id="Combined-Shape"></path>
            </g>
            <g id="Group" transform="translate(922.433260, 111.248337)" fill="#F6DCEB">
                <path d="M161.226325,339.594804 C164.09825,334.56846 174.945891,311.482917 184.500573,291.951663 C188.955269,282.845572 193.2702,265.918975 194.88703,257.565356 C197.58703,243.265356 197.08703,221.451663 194.58703,208.651663 C189.68703,183.751663 177.88703,162.051663 158.78703,142.751663 C148.38703,132.351663 146.78703,131.651663 142.38703,136.351663 C140.58703,138.251663 140.38703,139.851663 140.38703,150.251663 C140.38703,156.651663 141.68703,172.47439 141.68703,180.451663 C141.68703,188.428936 141.68703,191.24108 142.38703,196.951663 C143.08703,202.507061 143.230424,206.451663 143.58703,208.951663 C143.943635,211.451663 144.88703,216.051663 144.88703,219.951663 C144.88703,223.851663 144.507768,224.726521 144.507768,227.183197 C144.507768,229.639873 143.943635,232.008836 143.543635,235.008836 C143.143635,238.008836 140.88703,242.168637 138.88703,243.951663 C136.88703,245.734688 132.91899,246.391294 130.978649,246.391294 C129.038308,246.391294 126.18703,244.851663 124.88703,243.451663 C122.68703,241.051663 122.48703,240.251663 122.88703,232.651663 C123.68703,215.751663 123.58703,213.951663 121.18703,211.951663 C118.48703,209.851663 113.943515,209.851663 111.48703,211.451663 C109.030544,213.051663 93.7851119,222.951663 87.8870296,226.951663 C81.9889472,230.951663 76.6491034,232.135967 73.6870296,231.451663 C70.7249557,230.767359 66.8870296,224.851663 66.8870296,222.651663 C66.8870296,221.451663 67.5870296,219.451663 68.3870296,218.251663 C70.3870296,215.351663 84.1138771,205.903018 90.5152765,201.951663 C96.916676,198.000308 100.973894,196.442575 105.153517,191.959203 C109.333141,187.475831 112.08703,183.051663 115.68703,174.451663 C122.08703,158.851663 122.58703,146.851663 116.78703,145.851663 C114.18703,145.451663 110.020063,147.036686 106.883444,148.914849 C103.746826,150.793011 95.9988565,154.751663 92.6870296,156.351663 C89.3752026,157.951663 83.3957458,159.963354 79.3744635,161.742868 C75.3531813,163.522383 68.3870296,165.079708 63.8870296,166.251663 C59.3870296,167.423618 51.5452754,169.630708 39.0111831,170.341185 C26.4770908,171.051663 12.2468795,171.362141 9.3934815,170.851663 C6.54008353,170.341185 4.01583243,169.945739 2.48702955,168.451663 C0.187029554,166.351663 -0.212970446,165.251663 0.087029554,161.251663 C0.587029554,154.151663 2.58702955,153.151663 18.3870296,152.551663 C32.7870296,151.951663 37.2870296,151.051663 37.6870296,148.751663 C37.9444562,147.335817 34.1294555,142.75431 28.7733932,137.851663 C21.6457522,131.327409 12.0553369,124.121294 8.28702955,121.951663 C5.19065679,120.168903 1.88702955,116.051663 1.88702955,112.751663 C1.88702955,110.651663 3.27303808,108.387955 5.38702955,106.251663 C7.50102103,104.11537 9.28702955,102.751663 12.6870296,103.451663 C19.6870296,104.751663 29.9870296,111.951663 48.8870296,128.851663 C64.4870296,142.751663 65.1870296,143.051663 72.7870296,142.551663 C85.8870296,141.651663 104.28703,129.651663 111.38703,117.451663 C117.08703,107.851663 119.58703,94.7516628 117.98703,83.3516628 C117.38703,79.4516628 114.28703,68.0516628 110.98703,57.8516628 C103.78703,35.2516628 102.652976,30.9002488 100.812865,19.5924875 C100.135035,15.4271208 100.135035,10.7121531 102.48703,6.89968188 C103.963982,4.50561198 106.197821,2.85430945 109.333141,2.47946106 C114.032279,1.91764762 117.914987,3.63013733 119.899354,5.2649096 C121.88372,6.89968188 123.199965,11.9052267 123.298614,18.3641833 C123.998614,27.8641833 124.372313,32.0252956 126.672313,35.0252956 C128.272149,37.1481543 129.919766,36.2386205 131.707623,35.5092225 C133.495479,34.7798245 136.434159,32.3612676 147.02695,22.9454528 C153.32695,17.3454528 155.010347,13.0127326 162.210347,10.3127326 C166.798732,8.59208822 172.378956,9.47125456 175.823432,12.09534 C177.783958,13.5889158 179.653844,16.5970133 179.653844,19.0635386 C179.653844,21.5997373 179.142366,22.7035716 173.899431,27.9822883 C172.527193,29.3638909 169.911839,31.7293618 167.920435,33.782997 C161.320435,40.482997 156.972593,44.1322862 151.972593,47.4322862 C147.472593,50.4322862 142.38703,52.8591433 139.749223,56.3652772 C137.111417,59.8714111 134.893795,65.1524837 136.393795,72.1524837 C137.093795,75.4524837 137.78703,81.2761438 140.08703,85.0516628 C142.38703,88.8271819 145.58703,91.7516628 154.08703,98.5516628 C166.08703,108.151663 189.88703,131.051663 194.88703,137.851663 C196.28703,139.651663 203.38703,149.951663 203.78703,149.951663 C204.18703,149.951663 213.842592,167.477035 214.98703,169.951663 C216.131467,172.42629 221.349585,186.144123 222.18703,189.051663 C223.024474,191.959203 224.838728,200.701691 226.08703,208.951663 C227.335331,217.201634 228.102399,223.665245 228.102399,229.565245 C228.102399,235.465245 227.684188,246.344673 225.886801,254.363779 C224.089413,262.382884 222.678493,268.244552 220.871581,273.740736 C219.064669,279.236921 216.206309,285.786199 213.095831,291.951663 C209.985353,298.117127 205.94454,304.40919 202.28703,309.951663 C198.629519,315.494135 189.182313,327.668436 184.500573,333.458505 C179.818833,339.248574 170.425309,349.508412 167.127997,352.855467 C163.830685,356.202522 157.61972,362.192352 151.38703,368.251663 C145.154339,374.310973 136.083094,383.724122 129.273669,389.254939 C138.88703,374.310973 141.68703,371.026417 145.652373,364.011169 C149.617716,356.99592 156.556836,347.767183 161.226325,339.594804 Z" id="Path"></path>
            </g>
            <g id="Group" transform="translate(114.611641, 560.424602)" fill="url(#linearGradient-2)">
                <path d="M730.408649,288.475398 C729.008649,291.175398 724.508649,296.475398 720.208649,300.575398 C709.308649,310.975398 707.608649,316.175398 711.808649,327.175398 C716.108649,338.875398 727.708649,347.775398 739.608649,348.475398 C745.108649,348.775398 746.808649,348.475398 750.208649,346.575398 C756.508649,342.875398 759.308649,337.075398 764.008649,318.375398 C765.651162,311.678998 767.054221,306.818413 768.066554,304.14661 C768.030925,304.114956 768.011841,304.091357 768.008649,304.075398 C767.761792,303.334826 769.571607,295.205468 771.886777,286.151151 L772.098596,285.325663 C772.205158,284.911825 772.312667,284.49648 772.420978,284.080237 L772.638625,283.24673 C772.784377,282.690499 772.931381,282.133389 773.079292,281.576838 L773.31729,280.684738 C774.351529,276.822958 775.420649,273.025398 776.408649,269.775398 C776.488649,269.505398 776.569209,269.235318 776.650396,268.964985 L776.895906,268.153055 L777.135511,267.371214 C781.082354,254.576917 786.708489,240.473798 801.008649,207.075398 C808.641035,189.128977 812.680164,180.118419 814.914065,176.240097 C814.852977,176.206372 814.818007,176.184756 814.808649,176.175398 C814.608649,175.975398 816.308649,171.375398 818.508649,165.975398 C824.008649,152.675398 830.308649,135.675398 839.908649,108.275398 C840.811002,105.660104 841.626808,103.264685 842.362865,101.064457 L842.696945,100.062738 C846.529064,88.5356055 848.079237,82.5577508 848.408649,78.2753979 C848.908649,71.4753979 848.808649,70.8753979 843.908649,59.7753979 C841.108649,53.4753979 838.008649,45.1753979 837.108649,41.2753979 C833.208649,24.3753979 839.408649,10.8753979 854.308649,4.07539788 C864.008649,-0.324602118 877.008649,-1.32460212 884.008649,1.87539788 C886.308649,2.87539788 886.708649,3.67539788 886.708649,7.17539788 C886.808649,10.4753979 887.715229,15.0712288 889.925125,18.7576935 C892.135021,22.4441582 894.708649,25.8753979 900.808649,27.1753979 C905.508649,28.1753979 907.208649,36.2753979 904.208649,43.4753979 C903.408649,45.3753979 901.208649,48.6753979 899.408649,50.6753979 C897.608649,52.6753979 894.408649,57.1753979 892.308649,60.5753979 C889.008649,66.0753979 885.408649,74.0419848 883.708649,78.9419848 C882.308649,82.6419848 881.463455,86.3355068 880.24887,91.7239154 C879.749726,93.9383299 879.609446,94.445725 879.464679,94.9622605 L879.435559,95.0661979 C879.234687,95.7842194 878.980192,96.7330069 877.744576,102.293281 C875.544576,112.193281 873.808649,132.775398 872.708649,155.775398 C871.354552,184.800175 870.866985,195.593146 870.327663,199.561476 C870.63409,201.753671 870.227474,208.733196 869.460911,216.509916 L869.375435,217.365606 C869.331993,217.794854 869.287508,218.226059 869.242038,218.658566 L869.142488,219.59293 C869.075133,220.216858 869.005829,220.842498 868.934749,221.467898 L868.826818,222.405574 C868.317129,226.778278 867.724649,231.091398 867.108649,234.675398 C863.608649,255.375398 856.408649,280.975398 845.008649,313.275398 L844.851119,313.723251 L844.380236,315.069848 L844.068408,315.967979 C841.3233,323.896599 838.847632,331.629635 838.308649,333.875398 L837.208649,338.475398 L837.191,338.467 L837.157951,338.664429 C832.866332,364.424688 835.413194,388.287898 844.508649,406.775398 C844.937372,407.646674 845.366096,408.470135 845.822328,409.279109 L846.034951,409.651574 C848.862836,414.54535 852.862904,419.093483 864.208649,430.775398 C866.445937,433.088957 868.844817,435.596426 871.259034,438.144978 L872.708235,439.677816 L874.154096,441.213179 C880.241915,447.690824 886.052717,454.039805 889.208649,457.775398 C930.808649,506.275398 953.608649,555.075398 959.808649,608.775398 C961.299649,622.194398 960.673429,653.660178 958.61002,684.919277 L958.432241,687.559991 C957.616979,699.437318 956.596649,711.210398 955.408649,721.875398 C954.508649,729.475398 954.408649,733.075398 955.208649,733.275398 C955.708649,733.475398 964.508649,734.275398 974.708649,735.175398 C1170.20865,752.375398 1387.50865,809.275398 1564.70865,889.575398 C1595.80865,903.675398 1635.90865,923.675398 1633.10865,923.775398 C1632.50865,923.775398 1631.80865,923.575398 1631.50865,923.275398 C1631.30865,922.975398 1620.30865,918.875398 1607.10865,914.175398 C1256.90865,788.775398 878.208649,749.975398 493.708649,800.375398 C364.108649,817.375398 231.608649,845.575398 113.808649,881.275398 C102.180649,884.809398 87.9390089,889.354198 73.6133281,894.059282 L71.3510489,894.803398 L69.0895857,895.549434 C68.7128661,895.673892 68.3362727,895.798399 67.9598516,895.922939 L65.7037614,896.67046 C45.0486489,903.524148 25.1936489,910.385398 13.8086489,914.675398 C6.40864889,917.475398 0.208648889,919.575398 0.00428671994,919.475398 C-0.342659762,919.125398 20.4272563,908.926398 41.6669311,898.859698 L43.4881435,897.997395 C51.9880089,893.976998 60.4686489,890.023398 67.6086489,886.775398 C226.208649,814.875398 393.608649,766.375398 562.708649,743.375398 C604.108649,737.675398 653.408649,732.775398 689.208649,730.775398 C717.908649,729.175398 714.608649,730.375398 720.008649,718.975398 C758.508649,636.575398 768.108649,563.875398 744.108649,535.975398 C737.308649,527.975398 729.008649,524.875398 719.808649,526.875398 C710.608649,528.775398 704.708649,533.975398 684.108649,557.475398 C647.208649,599.675398 626.608649,625.275398 621.108649,635.775398 C618.608649,640.575398 618.208649,642.375398 618.208649,649.775398 C618.208649,657.375398 618.608649,658.975398 621.508649,665.075398 C624.808649,671.775398 637.408649,689.375398 641.608649,693.175398 C643.808649,695.175398 644.408649,697.775398 642.708649,697.775398 C642.208649,697.775398 637.308649,695.075398 631.808649,691.775398 C616.308649,682.375398 613.708649,681.975398 607.808649,687.975398 C602.808649,693.075398 599.908649,698.875398 595.208649,713.075398 C595.070718,713.499536 594.935046,713.913091 594.801568,714.316174 L594.537517,715.108411 C590.96826,725.745724 589.005201,728.614478 587.308649,725.975398 C587.008649,725.475398 587.708649,720.375398 588.808649,714.675398 C591.508649,700.675398 591.808649,690.475398 589.408649,688.075398 C587.808649,686.375398 587.508649,686.375398 584.008649,688.275398 C582.008649,689.375398 576.108649,694.975398 570.808649,700.775398 C555.908649,716.975398 553.808649,718.975398 552.508649,718.475398 C549.908649,717.675398 551.508649,714.075398 558.408649,704.675398 C570.708649,688.175398 575.308649,677.975398 571.108649,676.375398 C568.308649,675.275398 556.008649,680.375398 542.208649,688.175398 C534.908649,692.375398 528.408649,695.775398 527.808649,695.775398 C524.908649,695.775398 527.408649,692.375398 535.008649,685.975398 C547.708649,675.175398 555.708649,666.375398 555.708649,663.375398 C555.708649,659.075398 552.308649,658.375398 536.708649,659.675398 C527.808649,660.375398 523.008649,660.475398 522.308649,659.775398 C520.508649,657.975398 522.908649,656.975398 535.108649,654.275398 C558.508649,649.075398 574.008649,642.175398 584.408649,632.475398 C591.908649,625.475398 595.908649,619.075398 602.608649,603.675398 C604.249825,599.845986 607.073316,593.651945 610.046046,587.271719 L610.622999,586.035097 L611.202014,584.797334 C612.747326,581.498235 614.296884,578.224417 615.708649,575.275398 C618.894042,568.692252 625.186089,555.244404 631.605374,541.316315 L632.217024,539.988582 C632.318998,539.76712 632.42098,539.545587 632.522958,539.32401 L633.440344,537.329308 C633.542193,537.107694 633.644003,536.886113 633.745761,536.664589 L634.3556,535.336345 L634.963634,534.010711 L635.569292,532.688914 C636.878564,529.830063 638.167076,527.006859 639.408649,524.275398 C647.908649,505.575398 659.808649,480.275398 665.908649,468.075398 C673.681566,452.187898 676.420237,446.150007 678.050828,439.865876 L678.168219,439.405476 C678.245237,439.098054 678.319847,438.78946 678.392503,438.478523 L678.50008,438.010212 C678.606305,437.539851 678.708649,437.062898 678.808649,436.575398 C682.108649,420.575398 680.808649,409.575398 674.408649,398.875398 C670.308649,391.975398 666.408649,388.775398 662.308649,388.775398 C657.308649,388.775398 655.008649,391.175398 650.108649,401.375398 C646.708649,408.475398 644.108649,412.375398 639.608649,416.875398 C625.308649,431.175398 601.308649,442.775398 575.308649,447.975398 C561.108649,450.775398 539.008649,450.775398 525.108649,447.875398 C491.208649,440.875398 453.108649,419.875398 434.408649,397.875398 C432.571914,395.744786 429.061877,390.86132 425.663099,385.72339 L425.097972,384.86514 C424.064917,383.288934 423.051506,381.701928 422.108649,380.175398 C419.658649,376.150398 417.34476,372.499703 415.762468,370.116544 L415.498496,369.720585 C414.514927,368.25162 413.861982,367.352065 413.708649,367.275398 C413.541982,367.175398 412.886427,367.508731 411.879019,368.171694 L411.549355,368.391887 C409.503109,369.777337 406.245491,372.306977 402.708649,375.275398 C397.008649,379.975398 392.308649,383.675398 392.208649,383.575398 C392.202399,383.562898 392.198493,383.521882 392.196832,383.453767 L392.196846,383.255375 C392.220416,381.716829 392.685211,374.891023 393.308649,366.875398 C393.960957,359.455398 394.347323,353.032676 394.359327,350.805682 L394.359081,350.571666 C394.355986,350.212084 394.339418,350.006167 394.308649,349.975398 C394.014103,349.779034 388.70693,347.943927 382.362177,345.889736 L370.208649,341.975398 L385.708649,341.875398 C394.208649,341.775398 401.708649,341.375398 402.308649,340.975398 C403.108649,340.475398 402.908649,337.775398 401.408649,331.275398 C401.183008,330.231808 400.981233,329.229984 400.800799,328.23178 L400.704482,327.687435 C400.688777,327.596694 400.673245,327.505926 400.657883,327.415102 L400.567745,326.869255 C400.538371,326.686929 400.509665,326.504149 400.481612,326.320687 L400.399394,325.768023 C399.623245,320.401368 399.383008,314.267706 399.308649,301.775398 L399.308934,300.58554 C399.314939,288.717841 399.421632,283.76939 400.184965,279.227596 L400.262184,278.781944 C400.407707,277.966478 400.575175,277.157293 400.767849,276.316198 L400.875463,275.854025 C400.930539,275.621127 400.987535,275.385338 401.046515,275.145886 L401.167142,274.661864 C401.413768,273.683132 401.692859,272.637503 402.008649,271.475398 C405.208649,259.575398 412.708649,243.575398 419.908649,233.075398 C426.508649,223.475398 441.608649,207.675398 452.208649,199.075398 C456.528649,195.625398 462.027649,191.608398 467.701249,187.675098 L468.837999,186.889747 L469.97762,186.107784 C480.012577,179.24557 490.173517,172.911257 494.986473,170.651152 L500.708649,167.675398 C526.908649,154.275398 555.608649,147.575398 577.208649,149.775398 C585.708649,150.675398 596.308649,153.475398 601.608649,156.175398 C603.708649,157.375398 603.308649,157.575398 596.208649,158.775398 C591.408649,159.575398 588.308649,160.675398 588.008649,161.475398 C587.008649,163.975398 589.708649,173.475398 593.408649,181.075398 C598.508649,191.275398 610.608649,203.275398 620.808649,208.075398 C634.008649,214.375398 644.208649,215.175398 661.708649,211.275398 C669.208649,209.675398 670.508649,209.575398 673.108649,210.875398 C677.308649,212.875398 679.608649,216.575398 680.608649,222.775398 C681.708649,229.475398 683.708649,231.275398 692.008649,232.975398 C699.908649,234.675398 706.408649,238.975398 710.208649,245.175398 C713.808649,250.975398 720.808649,258.275398 726.508649,261.975398 C731.608649,265.275398 734.108649,269.875398 734.008649,275.775398 C734.008649,278.727372 733.397325,281.595983 732.511576,283.546305 C732.364848,284.257986 731.490661,286.228142 730.408649,288.475398 Z" id="Combined-Shape"></path>
            </g>
            <g id="Group" transform="translate(110.899506, 1571.386156)" fill="#878786">
                <path d="M21.5207841,211.513844 C21.0207841,210.313844 15.8207841,194.313844 9.82078411,175.913844 C-0.779215893,143.413844 -0.979215893,142.613844 0.920784107,141.213844 C2.02078411,140.413844 4.02078411,139.813844 5.32078411,140.013844 C7.52078411,140.313844 8.22078411,141.813844 12.6207841,155.013844 L17.5207841,169.613844 L34.2207841,164.113844 C43.4207841,161.013844 51.0207841,158.413844 51.1207841,158.313844 C51.3207841,158.213844 49.1207841,151.513844 46.4207841,143.313844 C43.7207841,135.113844 41.5207841,128.413844 41.7207841,128.313844 C43.1207841,127.113844 46.7207841,125.813844 48.3207841,125.813844 C50.1207841,125.813844 51.7207841,130.013844 61.8207841,161.013844 C68.2207841,180.413844 73.0207841,196.613844 72.5207841,197.113844 C72.1207841,197.513844 70.1207841,198.113844 68.1207841,198.513844 L64.5207841,199.013844 L59.3207841,182.713844 C56.5207841,173.713844 54.0207841,166.213844 53.9207841,166.113844 C53.7207841,165.813844 21.3207841,176.613844 20.7207841,177.213844 C20.4207841,177.413844 22.5207841,184.913844 25.4207841,193.813844 C28.4207841,203.313844 30.2207841,210.413844 29.7207841,210.913844 C29.2207841,211.413844 27.3207841,212.313844 25.5207841,212.813844 C22.7207841,213.613844 22.2207841,213.413844 21.5207841,211.513844 L21.5207841,211.513844 Z" id="Path"></path>
                <path d="M1603.62078,208.713844 C1598.32078,207.713844 1589.82078,203.213844 1587.42078,200.013844 C1585.92078,198.113844 1585.72078,197.213844 1586.62078,194.813844 C1587.12078,193.113844 1587.82078,191.813844 1588.12078,191.813844 C1588.42078,191.813844 1590.42078,193.413844 1592.62078,195.413844 C1602.92078,204.613844 1615.42078,204.013844 1615.42078,194.213844 C1615.42078,190.913844 1614.52078,189.713844 1607.52078,182.813844 C1598.82078,174.313844 1596.82078,170.413844 1598.52078,164.313844 C1600.72078,156.513844 1608.32078,151.813844 1616.32078,153.313844 C1621.52078,154.313844 1628.02078,157.313844 1630.92078,160.213844 C1633.12078,162.413844 1633.22078,163.013844 1632.32078,165.713844 C1631.72078,167.413844 1631.02078,168.813844 1630.72078,168.813844 C1630.42078,168.813844 1628.42078,167.313844 1626.32078,165.413844 C1619.22078,158.913844 1610.72078,158.313844 1607.52078,163.913844 C1605.22078,167.913844 1606.92078,171.313844 1614.52078,178.613844 C1622.62078,186.313844 1624.42078,189.213844 1624.42078,194.613844 C1624.42078,204.213844 1614.72078,210.813844 1603.62078,208.713844 L1603.62078,208.713844 Z" id="Path"></path>
                <path d="M1559.42078,193.813844 C1543.52078,191.313844 1534.52078,182.613844 1534.42078,169.713844 C1534.42078,155.913844 1541.82078,142.313844 1551.92078,137.713844 C1564.12078,132.113844 1581.62078,140.013844 1584.22078,152.413844 C1585.92078,160.113844 1583.22078,171.813844 1579.82078,171.813844 C1579.02078,171.813844 1570.82078,169.513844 1561.82078,166.613844 C1542.92078,160.613844 1543.42078,160.513844 1543.42078,170.513844 C1543.42078,176.013844 1543.72078,177.113844 1546.42078,180.213844 C1550.32078,184.613844 1557.72078,187.213844 1566.92078,187.313844 C1573.72078,187.513844 1573.92078,187.513844 1573.62078,189.913844 C1573.52078,191.213844 1573.02078,192.613844 1572.52078,193.113844 C1571.22078,194.413844 1565.32078,194.713844 1559.42078,193.813844 L1559.42078,193.813844 Z M1575.82078,161.613844 C1576.82078,157.613844 1576.52078,152.813844 1574.92078,149.813844 C1571.12078,142.513844 1558.42078,140.613844 1552.32078,146.413844 C1549.42078,149.113844 1545.82078,154.713844 1546.62078,155.213844 C1547.22078,155.713844 1572.92078,163.713844 1574.02078,163.813844 C1574.72078,163.813844 1575.42078,162.813844 1575.82078,161.613844 L1575.82078,161.613844 Z" id="Shape"></path>
                <path d="M94.6207841,184.713844 C89.6207841,182.213844 86.5207841,178.513844 82.9207841,170.513844 C79.8207841,163.813844 78.6207841,153.213844 80.3207841,147.013844 C82.7207841,138.213844 93.1207841,130.413844 104.220784,129.113844 C119.220784,127.413844 130.820784,140.013844 132.220784,159.513844 C132.620784,165.913844 132.420784,167.413844 130.020784,172.313844 C128.520784,175.313844 125.720784,179.013844 123.920784,180.413844 C115.520784,186.813844 102.720784,188.713844 94.6207841,184.713844 L94.6207841,184.713844 Z M115.920784,176.913844 C117.520784,176.013844 119.920784,173.613844 121.220784,171.713844 C123.220784,168.813844 123.520784,167.313844 123.220784,161.313844 C122.820784,152.313844 118.120784,142.013844 113.020784,138.913844 C106.020784,134.513844 94.2207841,137.613844 90.2207841,144.813844 C86.2207841,152.013844 89.6207841,168.813844 96.3207841,175.213844 C101.320784,180.013844 109.320784,180.713844 115.920784,176.913844 Z" id="Shape"></path>
                <path d="M202.520784,177.213844 C202.020784,175.013844 197.820784,158.513844 193.320784,140.513844 C184.620784,105.513844 184.620784,105.913844 190.120784,105.813844 C191.920784,105.813844 192.620784,106.713844 193.520784,110.113844 C194.520784,113.913844 194.720784,114.113844 195.820784,112.313844 C198.620784,107.313844 206.020784,101.013844 210.420784,99.8138439 C223.220784,96.3138439 233.620784,104.513844 238.020784,121.713844 C242.820784,140.613844 235.420784,154.713844 220.120784,155.613844 C215.320784,155.813844 213.020784,155.513844 210.020784,153.913844 C207.820784,152.813844 205.920784,152.013844 205.720784,152.213844 C205.520784,152.413844 206.820784,158.413844 208.620784,165.613844 C210.420784,172.813844 211.620784,179.013844 211.220784,179.313844 C210.920784,179.613844 209.020784,180.113844 207.120784,180.513844 C203.720784,181.013844 203.520784,180.913844 202.520784,177.213844 L202.520784,177.213844 Z M225.920784,145.813844 C231.520784,140.513844 231.720784,128.413844 226.520784,117.213844 C220.920784,105.113844 211.020784,103.313844 203.020784,112.913844 C197.420784,119.513844 197.320784,120.313844 200.120784,131.913844 C202.920784,142.713844 203.320784,143.413844 209.920784,146.813844 C215.120784,149.613844 222.420784,149.113844 225.920784,145.813844 L225.920784,145.813844 Z" id="Shape"></path>
                <path d="M1507.92078,178.413844 C1506.32078,177.713844 1503.92078,175.913844 1502.62078,174.513844 C1498.52078,170.113844 1498.82078,166.013844 1504.32078,146.513844 C1507.12078,136.813844 1509.42078,128.613844 1509.42078,128.313844 C1509.42078,128.113844 1507.62078,127.313844 1505.42078,126.713844 C1501.22078,125.413844 1500.42078,123.613844 1502.72078,120.513844 C1503.72078,119.113844 1504.52078,119.013844 1507.42078,119.813844 C1511.82078,121.113844 1512.42078,121.113844 1512.42078,119.713844 C1512.42078,119.113844 1513.12078,116.113844 1514.02078,113.113844 C1515.62078,107.713844 1515.72078,107.613844 1518.72078,108.213844 C1523.62078,109.213844 1523.92078,110.113844 1522.02078,116.913844 C1520.12078,124.013844 1520.02078,123.913844 1528.12078,125.813844 C1534.12078,127.313844 1535.22078,128.613844 1533.62078,132.313844 L1532.52078,134.613844 L1525.82078,132.613844 C1522.22078,131.513844 1518.82078,131.013844 1518.42078,131.513844 C1517.02078,133.013844 1509.22078,161.213844 1509.02078,165.113844 C1508.92078,170.113844 1511.92078,172.813844 1517.52078,172.813844 C1521.72078,172.813844 1522.42078,174.113844 1520.42078,177.913844 C1519.12078,180.213844 1512.62078,180.513844 1507.92078,178.413844 L1507.92078,178.413844 Z" id="Path"></path>
                <path d="M149.120784,170.313844 C148.220784,169.413844 147.420784,168.313844 147.420784,167.813844 C147.420784,167.313844 147.220784,166.313844 146.920784,165.613844 C146.420784,164.413844 148.120784,164.213844 155.820784,164.213844 C163.920784,164.313844 165.620784,164.013844 168.120784,162.213844 C173.520784,158.213844 173.720784,151.113844 168.620784,148.413844 C167.120784,147.613844 162.320784,146.513844 158.020784,145.913844 C145.820784,144.213844 141.620784,141.513844 139.520784,134.013844 C138.020784,129.013844 139.820784,123.713844 144.320784,119.713844 C148.920784,115.613844 154.020784,113.813844 161.220784,113.813844 C165.320784,113.813844 166.620784,114.213844 167.820784,116.013844 C170.120784,119.213844 169.920784,122.113844 167.520784,121.313844 C164.720784,120.513844 157.120784,120.413844 154.320784,121.313844 C150.420784,122.513844 147.420784,125.913844 147.420784,129.013844 C147.420784,135.113844 150.220784,137.013844 161.420784,138.313844 C173.620784,139.813844 178.820784,143.113844 180.420784,150.413844 C183.020784,161.813844 173.720784,170.713844 158.420784,171.613844 C152.220784,172.013844 150.520784,171.713844 149.120784,170.313844 L149.120784,170.313844 Z" id="Path"></path>
                <path d="M1457.22078,163.613844 C1455.62078,163.113844 1454.42078,162.113844 1454.42078,161.513844 C1454.42078,160.813844 1457.52078,149.113844 1461.22078,135.313844 C1467.62078,111.713844 1468.12078,110.313844 1470.52078,110.013844 C1474.72078,109.613844 1475.82078,111.113844 1474.72078,115.713844 C1474.12078,118.013844 1473.82078,119.813844 1473.92078,119.813844 C1474.12078,119.813844 1476.52078,118.413844 1479.32078,116.713844 C1483.62078,114.013844 1485.02078,113.613844 1488.92078,114.013844 C1495.12078,114.713844 1497.52078,117.013844 1496.32078,121.013844 C1495.12078,125.213844 1494.72078,125.413844 1491.52078,123.513844 C1489.92078,122.613844 1487.32078,121.813844 1485.72078,121.813844 C1482.92078,121.813844 1474.82078,126.413844 1472.62078,129.113844 C1472.12078,129.813844 1470.02078,136.613844 1468.02078,144.313844 C1462.02078,167.013844 1462.72078,165.713844 1457.22078,163.613844 L1457.22078,163.613844 Z" id="Path"></path>
                <path d="M1414.42078,153.413844 C1407.32078,151.813844 1403.42078,149.713844 1399.72078,145.413844 C1395.42078,140.513844 1394.12078,135.913844 1394.62078,126.913844 C1395.62078,109.413844 1406.52078,96.8138439 1420.62078,96.8138439 C1425.62078,96.8138439 1434.32078,99.6138439 1438.62078,102.513844 C1443.92078,106.113844 1447.42078,113.513844 1447.42078,121.313844 C1447.42078,137.513844 1438.72078,150.913844 1426.42078,153.713844 C1421.02078,154.913844 1421.32078,155.013844 1414.42078,153.413844 L1414.42078,153.413844 Z M1427.42078,145.313844 C1431.32078,143.313844 1434.32078,138.813844 1436.52078,131.613844 C1441.02078,117.213844 1437.02078,107.313844 1425.52078,104.713844 C1420.02078,103.513844 1414.62078,104.913844 1411.22078,108.513844 C1404.52078,115.513844 1401.32078,131.613844 1405.22078,138.813844 C1408.82078,145.513844 1420.42078,148.913844 1427.42078,145.313844 L1427.42078,145.313844 Z" id="Shape"></path>
                <path d="M259.420784,145.413844 C259.420784,145.113844 256.720784,133.113844 253.320784,118.713844 C246.620784,89.5138439 246.520784,91.1138439 254.620784,90.4138439 C255.420784,90.3138439 258.020784,99.4138439 262.020784,116.813844 L268.120784,143.313844 L265.520784,144.513844 C262.920784,145.713844 259.420784,146.213844 259.420784,145.413844 L259.420784,145.413844 Z" id="Path"></path>
                <path d="M1351.92078,138.313844 C1344.12078,135.113844 1337.12078,127.813844 1334.92078,120.613844 C1329.02078,100.813844 1339.42078,73.9138439 1355.72078,66.7138439 C1365.92078,62.2138439 1380.72078,64.5138439 1389.72078,71.9138439 C1392.82078,74.5138439 1393.42078,75.6138439 1393.42078,78.8138439 C1393.42078,80.9138439 1392.92078,83.0138439 1392.32078,83.4138439 C1391.72078,83.7138439 1389.62078,82.5138439 1387.62078,80.5138439 C1379.62078,72.9138439 1367.52078,70.1138439 1359.82078,74.1138439 C1350.02078,79.2138439 1343.42078,93.1138439 1343.42078,108.913844 C1343.42078,115.413844 1343.82078,117.413844 1346.22078,121.913844 C1348.52078,126.413844 1349.92078,127.813844 1354.82078,130.213844 C1361.42078,133.713844 1369.82078,134.113844 1377.32078,131.413844 C1379.72078,130.513844 1381.82078,129.813844 1382.02078,129.813844 C1382.72078,129.813844 1382.42078,135.313844 1381.62078,136.513844 C1378.62078,141.313844 1361.72078,142.313844 1351.92078,138.313844 L1351.92078,138.313844 Z" id="Path"></path>
                <path d="M293.420784,136.113844 C288.420784,133.513844 286.120784,128.013844 282.120784,109.313844 L278.720784,93.3138439 L274.320784,93.5138439 C269.720784,93.7138439 268.420784,92.8138439 268.420784,89.1138439 C268.420784,87.2138439 269.120784,86.7138439 272.520784,86.2138439 C277.120784,85.4138439 276.820784,86.7138439 274.820784,74.6138439 C274.220784,71.0138439 274.220784,70.9138439 277.920784,70.2138439 C279.920784,69.9138439 281.920784,69.9138439 282.320784,70.4138439 C282.720784,70.9138439 283.620784,73.9138439 284.320784,77.1138439 L285.620784,83.0138439 L290.220784,82.2138439 C299.520784,80.7138439 300.920784,80.9138439 301.220784,84.4138439 C301.520784,87.5138439 301.520784,87.5138439 294.520784,88.7138439 C290.620784,89.4138439 287.420784,90.4138439 287.420784,90.8138439 C287.420784,94.0138439 294.820784,124.713844 296.020784,126.513844 C298.020784,129.713844 301.920784,130.413844 306.120784,128.413844 C310.220784,126.413844 311.420784,127.013844 311.420784,130.813844 C311.420784,134.313844 308.320784,136.313844 301.420784,137.213844 C298.120784,137.713844 296.020784,137.413844 293.420784,136.113844 L293.420784,136.113844 Z" id="Path"></path>
                <path d="M327.920784,129.313844 C322.920784,127.513844 319.820784,124.013844 318.320784,118.613844 C315.320784,107.413844 324.620784,98.9138439 343.820784,95.3138439 C346.820784,94.7138439 347.420784,94.1138439 347.420784,92.2138439 C347.420784,88.8138439 345.120784,83.7138439 342.520784,81.4138439 C338.120784,77.5138439 326.920784,79.9138439 319.120784,86.4138439 C315.720784,89.2138439 314.420784,88.8138439 314.420784,84.8138439 C314.420784,80.8138439 320.220784,76.2138439 328.720784,73.6138439 C340.320784,70.1138439 348.320784,72.1138439 352.820784,79.7138439 C354.920784,83.4138439 362.920784,122.713844 361.720784,123.813844 C361.320784,124.313844 359.820784,124.813844 358.420784,125.013844 C356.420784,125.213844 355.720784,124.713844 354.820784,122.013844 L353.820784,118.713844 L351.120784,122.113844 C346.220784,128.613844 335.220784,132.013844 327.920784,129.313844 L327.920784,129.313844 Z M344.020784,120.713844 C345.820784,119.613844 348.320784,117.213844 349.420784,115.313844 C351.420784,112.113844 351.420784,111.313844 350.420784,106.213844 L349.220784,100.613844 L345.620784,101.313844 C336.720784,102.813844 331.520784,104.913844 329.020784,107.913844 C327.620784,109.613844 326.420784,111.813844 326.420784,112.813844 C326.420784,115.713844 328.320784,120.013844 330.220784,121.413844 C332.820784,123.513844 340.220784,123.113844 344.020784,120.713844 L344.020784,120.713844 Z" id="Shape"></path>
                <path d="M1569.42078,128.713844 L1566.92078,127.613844 L1572.42078,122.613844 C1580.92078,114.813844 1581.72078,114.413844 1585.92078,115.813844 C1587.82078,116.413844 1589.42078,117.313844 1589.42078,117.713844 C1589.42078,118.413844 1573.32078,129.913844 1572.42078,129.713844 C1572.12078,129.713844 1570.82078,129.213844 1569.42078,128.713844 L1569.42078,128.713844 Z" id="Path"></path>
                <path d="M1269.62078,121.913844 C1261.82078,120.413844 1254.82078,118.613844 1254.22078,118.013844 C1251.92078,115.713844 1256.12078,109.713844 1270.92078,93.7138439 C1279.22078,84.9138439 1286.02078,77.3138439 1286.22078,76.8138439 C1286.42078,76.4138439 1282.12078,75.3138439 1276.72078,74.3138439 C1263.12078,72.0138439 1263.42078,72.1138439 1263.42078,68.8138439 C1263.42078,67.2138439 1263.82078,65.7138439 1264.32078,65.3138439 C1265.82078,64.4138439 1294.72078,69.9138439 1296.32078,71.3138439 C1298.92078,73.8138439 1295.72078,78.7138439 1280.22078,95.4138439 C1271.82078,104.413844 1264.82078,112.213844 1264.62078,112.613844 C1264.52078,113.113844 1269.82078,114.413844 1276.52078,115.613844 C1283.32078,116.813844 1289.12078,118.113844 1289.62078,118.613844 C1290.12078,119.113844 1290.22078,120.713844 1289.82078,122.213844 C1289.02078,125.413844 1288.42078,125.413844 1269.62078,121.913844 L1269.62078,121.913844 Z" id="Path"></path>
                <path d="M380.920784,119.713844 C380.620784,118.913844 377.320784,101.213844 373.620784,80.3138439 C366.120784,38.8138439 366.120784,39.8138439 372.520784,39.8138439 C374.720784,39.8138439 375.420784,40.4138439 375.820784,42.5138439 C379.120784,57.7138439 389.220784,118.413844 388.620784,119.013844 C387.020784,120.613844 381.420784,121.113844 380.920784,119.713844 Z" id="Path"></path>
                <path d="M1214.92078,113.113844 C1208.72078,110.913844 1202.32078,104.713844 1200.62078,99.2138439 C1197.52078,88.8138439 1200.62078,72.9138439 1207.12078,65.7138439 C1212.42078,59.9138439 1217.52078,57.6138439 1224.92078,57.6138439 C1235.22078,57.7138439 1242.72078,62.1138439 1246.52078,70.3138439 C1249.32078,76.4138439 1248.82078,89.0138439 1245.72078,90.2138439 C1244.52078,90.7138439 1217.82078,86.9138439 1210.72078,85.3138439 C1208.52078,84.8138439 1208.42078,85.1138439 1208.42078,90.5138439 C1208.42078,98.1138439 1210.82078,102.513844 1216.52078,105.613844 C1220.52078,107.713844 1221.92078,107.913844 1231.42078,107.613844 L1241.92078,107.313844 L1241.62078,109.813844 C1241.42078,111.213844 1240.82078,112.813844 1240.32078,113.313844 C1238.52078,115.113844 1220.42078,114.913844 1214.92078,113.113844 Z M1239.42078,78.8138439 C1239.42078,72.0138439 1237.22078,68.1138439 1232.12078,65.7138439 C1226.92078,63.4138439 1224.62078,63.3138439 1219.42078,65.4138439 C1216.52078,66.6138439 1214.62078,68.3138439 1212.92078,71.3138439 C1210.82078,74.8138439 1209.72078,78.6138439 1210.72078,78.9138439 C1210.92078,78.9138439 1236.52078,83.3138439 1238.72078,83.7138439 C1239.12078,83.7138439 1239.42078,81.5138439 1239.42078,78.8138439 Z" id="Shape"></path>
                <path d="M435.920784,109.713844 C435.020784,108.413844 425.420784,44.3138439 425.420784,40.1138439 C425.420784,36.3138439 423.820784,36.8138439 446.820784,33.3138439 C456.720784,31.8138439 464.220784,31.2138439 464.720784,31.7138439 C465.220784,32.2138439 465.420784,33.8138439 465.220784,35.4138439 C464.920784,38.5138439 465.820784,38.3138439 439.320784,42.2138439 L434.720784,42.9138439 L436.520784,54.4138439 C437.420784,60.8138439 438.520784,66.2138439 438.820784,66.5138439 C439.120784,66.8138439 445.120784,66.3138439 452.020784,65.3138439 C462.620784,63.9138439 464.820784,63.8138439 465.520784,64.9138439 C466.620784,66.6138439 466.720784,70.8138439 465.720784,70.8138439 C463.220784,70.9138439 440.320784,74.5138439 440.020784,74.9138439 C439.620784,75.2138439 443.320784,102.013844 443.820784,102.413844 C443.820784,102.513844 450.720784,101.613844 458.920784,100.313844 C475.120784,97.8138439 476.720784,98.1138439 476.220784,102.713844 C475.920784,105.313844 475.620784,105.313844 458.920784,108.013844 C439.620784,111.013844 436.820784,111.213844 435.920784,109.713844 L435.920784,109.713844 Z" id="Path"></path>
                <path d="M638.120784,109.113844 C637.920784,108.713844 637.420784,104.513844 637.020784,99.8138439 C636.620784,95.1138439 636.120784,88.9138439 635.820784,86.0138439 L635.220784,80.8138439 L631.220784,84.4138439 C626.120784,88.9138439 621.720784,90.8138439 615.920784,90.8138439 C602.820784,90.8138439 594.920784,78.8138439 595.120784,59.1138439 C595.120784,52.3138439 595.620784,49.9138439 597.920784,45.3138439 C601.620784,37.6138439 606.520784,34.5138439 615.320784,34.0138439 C621.520784,33.6138439 622.220784,33.8138439 627.320784,37.2138439 C630.220784,39.2138439 632.820784,40.8138439 633.120784,40.8138439 C633.320784,40.8138439 633.420784,39.1138439 633.220784,37.1138439 C632.920784,33.4138439 633.020784,33.3138439 636.620784,33.0138439 C640.220784,32.7138439 640.320784,32.7138439 640.820784,37.0138439 C641.820784,44.3138439 646.620784,107.913844 646.220784,108.313844 C645.320784,109.213844 638.620784,109.913844 638.120784,109.113844 L638.120784,109.113844 Z M625.520784,81.2138439 C627.020784,80.5138439 629.620784,78.0138439 631.420784,75.8138439 L634.620784,71.8138439 L633.920784,61.0138439 C633.120784,49.1138439 632.720784,48.3138439 625.520784,43.6138439 C617.720784,38.7138439 609.820784,40.5138439 606.320784,48.1138439 C604.220784,52.9138439 603.720784,64.8138439 605.520784,71.3138439 C608.420784,81.9138439 616.320784,85.8138439 625.520784,81.2138439 Z" id="Shape"></path>
                <path d="M1172.82078,105.413844 C1172.22078,103.713844 1182.82078,27.1138439 1183.82078,26.1138439 C1184.12078,25.8138439 1185.92078,25.9138439 1187.92078,26.2138439 C1191.12078,26.8138439 1191.42078,27.2138439 1191.32078,30.1138439 C1191.32078,31.9138439 1188.92078,49.7138439 1186.12078,69.8138439 L1180.92078,106.313844 L1177.12078,106.613844 C1174.42078,106.813844 1173.22078,106.513844 1172.82078,105.413844 Z" id="Path"></path>
                <path d="M486.420784,102.813844 C486.420784,102.313844 489.420784,95.6138439 493.020784,87.9138439 L499.620784,73.9138439 L490.020784,62.3138439 C484.720784,55.8138439 480.420784,50.2138439 480.420784,49.8138439 C480.420784,49.4138439 481.420784,48.8138439 482.720784,48.4138439 C488.120784,47.0138439 489.220784,47.6138439 497.020784,57.3138439 C501.220784,62.5138439 504.820784,66.8138439 505.020784,66.8138439 C505.320784,66.8138439 507.920784,61.6138439 510.920784,55.3138439 L516.320784,43.8138439 L520.320784,43.8138439 C522.620784,43.8138439 524.420784,44.0138439 524.420784,44.3138439 C524.420784,44.5138439 521.720784,50.5138439 518.520784,57.6138439 C515.220784,64.6138439 512.420784,70.8138439 512.220784,71.4138439 C512.020784,72.0138439 516.320784,77.8138439 521.620784,84.4138439 C527.020784,90.9138439 531.520784,96.7138439 531.620784,97.3138439 C532.020784,98.5138439 524.420784,99.9138439 522.720784,98.9138439 C522.120784,98.6138439 518.120784,93.9138439 513.920784,88.5138439 C509.620784,83.1138439 506.020784,78.8138439 505.820784,79.0138439 C505.620784,79.2138439 503.220784,84.5138439 500.420784,90.8138439 C497.620784,97.1138439 494.820784,102.613844 494.120784,103.013844 C492.420784,104.113844 486.420784,104.013844 486.420784,102.813844 L486.420784,102.813844 Z" id="Path"></path>
                <path d="M1148.02078,103.113844 C1146.52078,102.713844 1146.32078,102.013844 1146.72078,99.2138439 C1147.42078,95.3138439 1147.12078,95.2138439 1143.62078,97.6138439 C1135.22078,103.413844 1124.82078,102.913844 1117.62078,96.4138439 C1114.42078,93.4138439 1114.02078,92.5138439 1113.72078,87.2138439 C1113.22078,79.6138439 1115.42078,75.3138439 1121.52078,72.0138439 C1125.62078,69.8138439 1126.72078,69.6138439 1137.72078,70.1138439 L1149.42078,70.5138439 L1149.42078,64.6138439 C1149.42078,61.3138439 1148.92078,57.8138439 1148.32078,56.6138439 C1145.82078,52.0138439 1136.02078,50.5138439 1126.52078,53.4138439 C1120.62078,55.1138439 1118.82078,54.4138439 1119.92078,50.9138439 C1121.12078,47.1138439 1126.02078,45.4138439 1135.92078,45.3138439 C1143.62078,45.3138439 1145.72078,45.7138439 1149.82078,47.8138439 C1155.62078,50.8138439 1158.42078,55.3138439 1158.42078,61.7138439 C1158.42078,65.9138439 1154.92078,96.8138439 1153.82078,101.613844 C1153.42078,103.813844 1152.02078,104.113844 1148.02078,103.113844 L1148.02078,103.113844 Z M1142.22078,92.1138439 C1145.52078,89.9138439 1146.52078,88.6138439 1146.92078,85.8138439 C1147.22078,83.9138439 1147.72078,81.1138439 1147.92078,79.6138439 C1148.32078,77.0138439 1148.12078,76.9138439 1142.82078,76.2138439 C1133.62078,75.1138439 1127.42078,76.1138439 1124.72078,79.2138439 C1122.12078,82.2138439 1121.62078,88.4138439 1123.72078,91.0138439 C1127.42078,95.7138439 1135.92078,96.2138439 1142.22078,92.1138439 L1142.22078,92.1138439 Z" id="Shape"></path>
                <path d="M1081.42078,95.1138439 C1074.52078,94.4138439 1068.32078,93.6138439 1067.72078,93.3138439 C1066.12078,92.7138439 1066.02078,88.4138439 1067.62078,85.5138439 C1068.22078,84.3138439 1074.92078,75.6138439 1082.62078,66.1138439 C1090.22078,56.6138439 1096.02078,48.7138439 1095.62078,48.5138439 C1095.22078,48.2138439 1091.32078,47.7138439 1086.92078,47.4138439 C1072.72078,46.2138439 1072.42078,46.1138439 1072.42078,42.2138439 C1072.42078,39.5138439 1072.82078,38.8138439 1074.32078,38.8138439 C1077.42078,38.8138439 1103.82078,41.8138439 1105.22078,42.3138439 C1105.82078,42.5138439 1106.42078,44.1138439 1106.42078,45.7138439 C1106.42078,48.0138439 1103.12078,52.8138439 1091.52078,67.5138439 C1082.52078,78.9138439 1077.12078,86.5138439 1077.82078,86.9138439 C1078.42078,87.3138439 1082.32078,87.8138439 1086.42078,88.2138439 C1102.82078,89.6138439 1103.92078,90.1138439 1102.72078,94.7138439 C1102.12078,97.2138439 1100.22078,97.2138439 1081.42078,95.1138439 L1081.42078,95.1138439 Z" id="Path"></path>
                <path d="M548.920784,94.0138439 C543.720784,91.5138439 540.120784,87.5138439 537.220784,81.3138439 C534.020784,74.1138439 533.920784,58.2138439 537.120784,52.2138439 C541.820784,43.4138439 549.620784,38.8138439 559.920784,38.8138439 C570.420784,38.8138439 578.220784,45.5138439 581.020784,57.1138439 C582.520784,63.0138439 582.520784,64.1138439 581.320784,65.3138439 C580.320784,66.3138439 574.920784,67.3138439 565.420784,68.3138439 C543.820784,70.6138439 544.420784,70.4138439 544.420784,73.7138439 C544.420784,78.0138439 548.520784,84.9138439 552.420784,87.0138439 C557.320784,89.7138439 567.820784,89.0138439 575.720784,85.5138439 C581.920784,82.7138439 582.920784,83.1138439 582.220784,88.0138439 C581.420784,93.9138439 557.620784,98.1138439 548.920784,94.0138439 L548.920784,94.0138439 Z M560.220784,62.6138439 L572.420784,61.5138439 L572.420784,58.6138439 C572.420784,54.8138439 570.120784,50.5138439 566.820784,47.9138439 C563.020784,44.9138439 554.920784,45.0138439 550.320784,48.1138439 C546.320784,50.7138439 543.420784,56.0138439 543.420784,60.6138439 C543.420784,64.4138439 542.720784,64.3138439 560.220784,62.6138439 Z" id="Shape"></path>
                <path d="M1043.12078,91.1138439 C1042.92078,90.6138439 1043.42078,82.0138439 1044.22078,71.8138439 C1045.12078,61.6138439 1045.42078,52.0138439 1045.02078,50.4138439 C1043.92078,45.8138439 1039.22078,41.8138439 1034.92078,41.8138439 C1030.62078,41.8138439 1024.82078,44.6138439 1021.32078,48.5138439 C1018.82078,51.1138439 1018.62078,52.2138439 1017.52078,67.3138439 C1015.82078,89.5138439 1016.02078,88.8138439 1011.52078,88.8138439 C1009.42078,88.8138439 1007.52078,88.6138439 1007.32078,88.3138439 C1006.52078,87.6138439 1011.22078,34.6138439 1012.22078,33.6138439 C1012.62078,33.2138439 1014.52078,33.1138439 1016.32078,33.4138439 C1019.42078,34.1138439 1019.52078,34.2138439 1018.92078,37.9138439 C1018.52078,40.1138439 1018.52078,41.8138439 1018.92078,41.8138439 C1019.22078,41.8138439 1021.42078,40.5138439 1023.82078,38.9138439 C1029.52078,34.9138439 1035.22078,33.5138439 1040.52078,34.7138439 C1046.32078,36.0138439 1049.52078,38.6138439 1052.32078,44.3138439 L1054.82078,49.1138439 L1053.52078,67.7138439 C1051.82078,92.7138439 1052.02078,91.8138439 1047.32078,91.8138439 C1045.22078,91.8138439 1043.32078,91.5138439 1043.12078,91.1138439 L1043.12078,91.1138439 Z" id="Path"></path>
                <path d="M672.920784,84.9138439 C664.720784,81.1138439 662.720784,76.5138439 661.420784,57.6138439 C660.920784,49.7138439 660.420784,40.5138439 660.420784,37.0138439 L660.420784,30.7138439 L664.720784,31.0138439 L668.920784,31.3138439 L670.020784,50.3138439 C671.120784,70.4138439 672.020784,74.0138439 676.620784,77.2138439 C679.420784,79.2138439 684.620784,79.2138439 688.320784,77.3138439 C692.220784,75.3138439 698.520784,67.8138439 698.020784,65.9138439 C697.720784,65.0138439 697.220784,56.3138439 696.820784,46.5138439 L696.220784,28.7138439 L700.520784,29.0138439 L704.920784,29.3138439 L706.320784,56.2138439 C707.820784,85.4138439 707.820784,85.1138439 702.420784,84.6138439 C700.220784,84.3138439 699.920784,83.8138439 699.620784,80.0138439 L699.320784,75.7138439 L694.320784,80.2138439 C686.920784,86.8138439 680.320784,88.3138439 672.920784,84.9138439 L672.920784,84.9138439 Z" id="Path"></path>
                <path d="M957.620784,85.4138439 C944.520784,81.1138439 938.520784,66.8138439 942.820784,49.8138439 C945.020784,41.1138439 948.720784,36.0138439 955.420784,32.5138439 C960.420784,29.9138439 961.620784,29.7138439 969.520784,30.0138439 C980.620784,30.4138439 986.420784,33.6138439 990.620784,41.7138439 C993.020784,46.3138439 993.420784,48.1138439 993.420784,55.8138439 C993.420784,75.1138439 985.020784,85.7138439 969.020784,86.4138439 C964.720784,86.7138439 960.220784,86.2138439 957.620784,85.4138439 L957.620784,85.4138439 Z M972.620784,78.8138439 C977.020784,77.5138439 981.920784,72.2138439 983.320784,67.1138439 C983.920784,65.0138439 984.420784,60.1138439 984.420784,56.3138439 C984.420784,43.5138439 978.720784,36.8138439 967.820784,36.8138439 C961.120784,36.8138439 956.720784,39.7138439 953.520784,46.2138439 C948.620784,56.1138439 950.920784,73.3138439 957.620784,76.9138439 C962.920784,79.8138439 967.120784,80.3138439 972.620784,78.8138439 L972.620784,78.8138439 Z" id="Shape"></path>
                <path d="M727.020784,83.0138439 C726.220784,81.7138439 724.120784,31.0138439 724.820784,29.2138439 C725.120784,28.3138439 726.920784,27.8138439 729.420784,27.8138439 L733.420784,27.8138439 L733.520784,34.6138439 C733.520784,38.3138439 733.920784,50.5138439 734.420784,61.8138439 C734.820784,73.1138439 735.120784,82.4138439 734.920784,82.6138439 C734.020784,83.5138439 727.620784,83.9138439 727.020784,83.0138439 Z" id="Path"></path>
                <path d="M892.120784,82.8138439 C881.720784,80.1138439 873.320784,73.2138439 868.720784,63.3138439 C866.220784,57.8138439 865.920784,56.3138439 865.920784,46.3138439 C866.020784,33.5138439 868.020784,27.0138439 874.320784,19.0138439 C884.320784,6.41384388 905.520784,2.61384388 921.420784,10.6138439 C926.620784,13.2138439 926.920784,13.6138439 927.220784,17.6138439 C927.620784,22.3138439 926.620784,22.8138439 922.620784,20.0138439 C910.820784,11.8138439 894.320784,12.2138439 884.920784,20.9138439 C878.120784,27.2138439 875.920784,33.2138439 875.920784,45.8138439 C875.920784,54.8138439 876.320784,56.9138439 878.320784,60.8138439 C883.220784,70.2138439 889.920784,74.7138439 900.120784,75.6138439 C906.620784,76.1138439 915.320784,74.3138439 915.920784,72.4138439 C916.120784,71.8138439 916.520784,66.5138439 916.920784,60.6138439 L917.520784,49.8138439 L910.020784,49.8138439 C900.120784,49.8138439 897.220784,48.7138439 897.620784,45.0138439 L897.920784,42.3138439 L910.720784,42.5138439 C917.720784,42.5138439 924.220784,42.9138439 925.120784,43.2138439 C926.520784,43.8138439 926.620784,45.7138439 926.120784,60.4138439 C925.820784,70.3138439 925.120784,77.5138439 924.420784,78.3138439 C921.220784,82.2138439 901.020784,85.0138439 892.120784,82.8138439 L892.120784,82.8138439 Z" id="Path"></path>
                <path d="M765.120784,81.4138439 C754.820784,77.7138439 749.920784,68.8138439 750.020784,53.8138439 C750.120784,35.8138439 759.320784,25.8138439 775.520784,25.8138439 C788.520784,25.9138439 797.420784,35.5138439 797.420784,49.5138439 C797.420784,51.7138439 796.920784,53.9138439 796.220784,54.6138439 C795.420784,55.4138439 789.720784,55.8138439 777.120784,55.8138439 L759.220784,55.8138439 L759.620784,61.1138439 C760.120784,67.5138439 763.220784,72.4138439 768.020784,74.4138439 C772.720784,76.4138439 781.920784,76.1138439 788.420784,73.8138439 C795.620784,71.3138439 795.420784,71.3138439 795.420784,75.2138439 C795.420784,77.9138439 794.920784,78.8138439 792.720784,79.6138439 C783.920784,83.0138439 771.920784,83.8138439 765.120784,81.4138439 L765.120784,81.4138439 Z M788.420784,46.6138439 C788.420784,42.4138439 785.620784,37.0138439 782.320784,34.6138439 C778.920784,32.0138439 770.520784,32.0138439 766.320784,34.5138439 C762.920784,36.4138439 760.020784,41.3138439 759.020784,46.6138439 L758.520784,49.8138439 L773.420784,49.8138439 L788.420784,49.8138439 L788.420784,46.6138439 Z" id="Shape"></path>
                <path d="M814.120784,81.2138439 C813.720784,80.8138439 813.420784,62.6138439 813.420784,40.7138439 L813.420784,0.813843876 L815.820784,0.213843876 C817.220784,-0.0861561237 819.220784,-0.0861561237 820.320784,0.313843876 C822.420784,0.913843876 822.420784,1.21384388 822.220784,41.1138439 L821.920784,81.3138439 L818.420784,81.6138439 C816.420784,81.8138439 814.520784,81.6138439 814.120784,81.2138439 L814.120784,81.2138439 Z" id="Path"></path>
                <path d="M242.820784,77.4138439 C241.720784,72.8138439 242.720784,70.4138439 246.320784,69.4138439 C249.320784,68.6138439 249.920784,68.7138439 251.520784,70.7138439 C255.420784,75.5138439 253.120784,79.8138439 246.520784,79.8138439 C244.120784,79.8138439 243.320784,79.3138439 242.820784,77.4138439 L242.820784,77.4138439 Z" id="Path"></path>
                <path d="M1138.62078,35.8138439 C1138.82078,35.3138439 1141.52078,31.7138439 1144.72078,27.8138439 C1149.32078,22.3138439 1151.12078,20.8138439 1153.22078,20.8138439 C1159.52078,20.9138439 1159.32078,22.3138439 1151.92078,29.8138439 C1146.02078,35.7138439 1144.42078,36.8138439 1141.62078,36.8138439 C1139.72078,36.8138439 1138.42078,36.4138439 1138.62078,35.8138439 Z" id="Path"></path>
                <path d="M724.020784,15.2138439 C722.120784,13.4138439 721.920784,8.71384388 723.620784,7.01384388 C725.220784,5.41384388 730.620784,5.41384388 732.220784,7.01384388 C734.220784,9.01384388 733.720784,14.6138439 731.520784,15.8138439 C728.720784,17.2138439 725.820784,17.0138439 724.020784,15.2138439 Z" id="Path"></path>
            </g>
        </g>
    </g>
</svg>