<svg width="756" height="152" xmlns="http://www.w3.org/2000/svg"><path d="M40.944 34.289c-.483.362.57.868.475.84.038 1.49-.178 3.021.329 3.778.322.47 1.321.815 1.494.365.169-.454.926-1.379 1.096-1.536.316-.278.037-.533-.228-.259-.548.581-.854.313-1.257-.072-.195-.221-.27-2.305-.129-2.367 0 0 1.006-.146 1.248-.146.187 0 .171-.579-.025-.579-.302 0-1.2.008-1.252-.133-.112-.288.18-1.693.23-2.323.042-.445-.197-.586-.317-.171-.13.406-1.094 2.189-1.664 2.603zm2.66-5.319c.585-.048 1.528.303 2.574.217 1.244-.089 2.22-2.017 1.683-3.517-.5-1.424-2.088-1.174-3.157-1.514-.983-.268-1.389-.886-.317-1.59 1.26-.814 2.824.491 2.974.766.231.415.424.408.424-.132.032-1.179-.076-.512-.193-1.622-.039-.397-.329-.431-.355-.05-.026.388-.498.269-.853.269-.362-.007-1.413-.168-2.321.336-.578.336-1.899 1.372-1.16 2.613.433.725 2.97 1.314 3.601 1.731.636.414.778 1.48.171 1.969-.755.599-2.807.095-3.123-.269-.416-.46-.575-.839-.662-1.372-.087-.546-.546-.499-.546 0 0 .497.117 2.203.207 2.603.083.417.499.279.538-.037.047-.293.242-.378.515-.401zm2.9 1.64c-.227.449-.595.859-1.265 1.165.408.355.939.813 1.29 1.043.402-.448.772-.863 1.236-1.302-.459-.09-.991-.32-1.261-.906zm-6.327-.659c.426-.341.74-.915.914-1.051.328-.27.058-.547-.219-.288-.221.218-.801-.287-.826-.321-.189-.221-.465-3.117-.336-3.182 0 0 1.843-.227 2.085-.223.182.013.206-.574.01-.584-.3 0-1.705.194-1.755.056-.078-.306-.267-1.338.194-2.225.217-.386-.006-.76-.15-.365-.164.403-1.318 2.194-2.063 2.488-.609.25-.54.391-.148.49.311.061.634.433.574.428-.061 1.486-.207 3.32.255 4.098.293.491 1.099 1 1.465.679zm-5.092 3.061c-.465.439-.831.839-1.51 1.376.315.363.851.82.898 1.444.041.63.017 3.554.056 4.286.498 0 .409.052 1.264.019-.084-.496-.013-4.291-.013-4.835.321-.305.366-.353.733-.626.264.231.883.368.883.774 0 .409.122 2.21-.022 2.876-.179.812-.1 1.396.339 2.216.332-.372 1.575-1.241 1.845-1.458.265-.23.127-.403-.217-.31-.368.08-.433.151-.433-.082 0-.437-.173-2.414-.2-3.676-.045-1.265-.663-1.638-1.018-1.812-.362.403-1.171.911-1.655 1.322-.365-.269-.546-.874-.95-1.514zm-4.9.863c.216.55.905 1.598 1.216 1.782-.536.537-1.85 1.428-2.219 1.688-.672-.844-1.035-2.222 1.003-3.47zm-2.313 2.574c-.32 2.376 1.921 3.79 2.997 4.247.272-.546.822-1.432 1.361-2.053.411-.478-.041-.605-.409-.237-.496.542-1.977.027-2.369-.688.715-.539 2.579-2.098 3.391-2.763-.536-.502-1.364-1.751-1.492-2.468-.724.487-3.116 1.492-3.479 3.962zm-.616-11.421c-.864 1.322-1.337 3.406.16 4.625.704.589 1.288 1.048 2.726.792.285-.57.412-.759.917-1.418-.991.16-1.755-.019-2.478-.566-1.49-1.156-1.029-3.017-.589-3.653.803-1.193 1.945.512 2.15.745a8.625 8.625 0 011.171-1.123c-.443-.587-.806-1.131-1.107-1.485-.953.343-2.353 1.197-2.95 2.083zm6.919-3.528c-.115-.146-.333-.381-.342-.677 0-.195.023-2.237.023-2.49 0-.242-.482-.216-.482 0-.022.362.032.98-.292 1.481-.895 1.385-2.601 1.956-3.8.257-.408-.564-.504-1.418-.556-2.027-.081-.814.537-1.866.572-1.962 1.525-1.999 3.642-.514 3.813.298.114.542.236 1.206.236 1.555-.014.232.486.208.495-.032l.014-3.536c.01-.199-.403-.264-.411 0-.023.486-.309.528-.682.408-.772-.23-2.482-.597-3.476-.026-.875.515-2.216 1.721-2.192 3.238.026 2.496.969 2.706 2.063 3.378 1.025.603 2.441.213 3.735-.161.513-.14.577.184.824.548.418.56.756.202.458-.252zm.732 7.169c-.005.183 0 .339.004.504-.182.046-.386.089-.64.217-.344-.292-1.975-.826-.906-1.688.655.386.908.085 1.542-.307.005.552 0 1.075 0 1.274zm-.009-1.693c-.94.608-1.239.588-1.885-.141-.322-.373-.292-1.075-.144-1.34.291-.458.803-.92 1.046-.915.212.014.969.934.916 1.335.04.222.056.631.067 1.061zm-.067-3.437c-.841.076-2.058 1.061-2.421 1.909-.147.339.061 1.561.216 1.696.11.096.197.163.293.238-.553.514-1.071.952-1.056 1.716.024.736.608 1.39 1.364 1.734.405-.616 1.036-.994 1.712-1.153.056.588.192 1.018.578 1.314.276-.307 1.385-1.264 1.599-1.481.234-.22.059-.486-.214-.22-.163.15-.559-.073-.676-.266 0-.321 0-3.707.142-3.86-.501-.543-.976-1.688-1.537-1.627zm6.122-8.268c.332-.325-.022-.561-.316-.278-.22-.262-.78-.84-1.079-1.193-.318.265-1.048.703-1.456.931-.319-.365-.711-.365-1.349-.865-.353.271-1.136.844-1.557 1.354.743.217 1.302.26 1.349.896.027.519-.055 3.71-.011 4.295.397.087.883.048 1.447.019.044-.457.023-4.46.023-4.904.214-.119.433-.235.538-.334.234.179.698.854 1.071 1.076.288-.213 1.024-.679 1.34-.997zm2.242 1.402c-.49-1.575-.305-2.117.673-2.895.219.542.781.933 1.093 1.121-.551.538-1.409 1.51-1.766 1.774zm3.181 1.947c-1.939.489-2.847-1.065-3.04-1.481.783-.801 2.116-2.112 2.928-2.778-.537-.495-.758-1.314-1.711-1.384-.832.023-2.77.964-3.11 3.426-.326 2.363 1.893 3.64 3.65 3.711.587 0 1.318-.759 1.681-.937.779-.382.489-.76-.398-.557zm5.454-2.871c-.116.094-.449.363-.808.65a2.179 2.179 0 01-.646.034c-.664-.095-.983-.595-1.289-.996-.316-.42.5-.768.901-.726.407.056 1.306.538 1.842 1.038zm-1.397 1.86c.441.199.889.398 1.377.686.707.4.344 1.161-.418 1.512-.774.356-2.159-.645-2.375-1.055.284-.246.818-.669 1.416-1.143zm3.329-2.728c-.537-.368-1.122-1.263-2.42-1.321-1.304-.052-2.775 1.126-3.253 1.867-.635.98.143 1.84.973 2.476-.531.454-1.267 1.154-1.949 1.792.273.297 1.766 1.002 2.603.982 1.267-.028 2.438-.681 3.16-1.261 1.317-1.042.86-2.149-.481-2.932-.127-.077-.251-.099-.378-.124.831-.659 1.557-1.247 1.745-1.479zm1.611 7.568l-.792-.82-.796.716.016.986.487.499h.493l.592-.534v-.847zm-.355-5.556c-.305-.017-.783.825 1.06.756.288-.011.502-.667-1.06-.756zm-.022 1.105c-.316-.019-.796.56 1.053.75.287.033.672-.645-1.053-.75zm1.201 12.376l.683-.735c-.766-.146-.766-.094-1.174-.461l.03-3.536-.668-.986-.357.047-1.537 1.419c-.414.371-.044.547.418.137l.793.485.029 3.33c.082.399.432.536.921 1.041l.862-.741zm-4.704 6.292c.572.385.9.335 1.621.264-.03.391-.058.75-.058.91 0 .173.071.31.12.456-.373.133-.847.213-1.214.396-.331-.292-1.552-1.126-.469-2.026zm1.65-.113c-.623.013-1.16-.179-1.84-.778-.129-.109-.251-.883-.104-1.136.3-.476.3-.624.561-.619.202 0 1.458.759 1.392 1.164.048.289.025.835-.009 1.369zm-2.172-.292c-.554.57-.965 1.2-.958 1.993.027.754.278 1.505 1.046 1.845.68-.501 1.555-1.109 2.397-1.267.413.496 1.048.827 1.429 1.127.263-.319 1.105-1.002 1.337-1.214.221-.226 0-.542-.232-.245-.18.273-.772.075-.942-.204 0-.321-.307-3.714-.171-3.871-.49-.546-1.334-1.777-1.902-1.716-.826.085-2.061 1.266-2.328 1.652-.201.29.061 1.687.219 1.82.044.031.064.042.105.08zm-2.207-8.074c.516 1.466 1.732 1.928 2.638 2 .268-.501.769-1.264 1.045-1.619.407-.541-.008-.866-.293-.243-.22.48-1.396-.044-1.822-.454-.572-.533-.929-1.931-.473-2.423.461-.496 1.123-.269 1.975-.293.561-.028.681-.546.777-.81a15.364 15.364 0 01-1.209-.679c-.55.349-1.397 1.069-1.762 1.372-.457.386-1.393 1.72-.876 3.149zm-.333 10.63l.667-.738c-.75-.139-.401-.132-.798-.497l-.023-3.054-.976-1.432-.37.052-1.529 1.428c-.405.354-.048.524.423.133l1.012.523.024 3.235c.085.4.44.492.933.999l.637-.649zm12.74 17.627s.617-.668.615-1.147c-.002-.648-.613-1.121-.613-1.121.525.151 1.772.853 2.218 1.147l-2.22 1.121zm3.916-1.182v-.086c-1.369-.197-2.443-1.154-3.695-1.628-1.733-.655-3.569.682-3.569.894 0 .467.492.706 1.893-.175-1.098 1.271.149 2.304.149 2.304-.456-.068-1.107-.221-1.524-.459-.084.459.548.627.849.826 2.325.955 3.853-1.281 5.897-1.676zm15.718-21.298c-.357.363-.981.781-1.565 1.43.484.034.885.138 1.118.602.239.461.038 2.402.071 3.15.039.726.478.88 1.054 1.482.575-.146 2.179-.816 2.719-1.187-.049.596.705 1.266 1.15 1.396.299-.325.623-.503 1.062-.911-.428-.286-.372-.325-.532-.893-.126-.548.03-2.623.045-3.512a6.732 6.732 0 00-1.467-1.557c-.402.367-.945.858-1.582 1.528.474-.064 1.408.126 1.452.525.028.514.106 1.638 0 2.511-.106.88-2.474.476-2.506-.116-.053-.61.121-2.362.134-3.191-.335-.514-.534-.796-1.153-1.257zm1.183-6.83c.174-.873.786-1.231 1.068-1.494.398.442.798.941 1.397.941.585.005 1.194-.266 1.383-.508-.483-.389-1.583-1.547-1.804-1.765-.557.309-2.977 1.565-3.182 3.016-.294 2.139.383 2.566 1.322 3.741.529.667 1.413.698 1.815.595.433-.301 2.017-1.804 2.193-1.993.16-.185-.071-.354-.268-.165-.196.179-.12.257-.381.296-.269.043-1.347.224-1.974-.103-.783-.411-1.804-1.378-1.569-2.561zm-6.753-.233c.058 1.441-.692 2.955-1.508 3.639 1.41-.366 1.595-1.207 2.367-2.198.426.631 1.218 1.392 1.798 1.722.407-.27 1.56-1.565 1.813-1.832-.831-.223-2.438-1.073-2.839-1.97-.316-.665-.241-.98.074-1.504.281.369 2.235 1.267 3.114-.232-.962-.35-1.826-.98-2.119-1.489-.258.214-1.117 1.15-1.6 1.446-.112-.515-.901-1.069-1.541-1.184-.208.223-1.715 1.372-2.403 1.707-.213.102-.133.563.165.446.28-.122.746-.476 1.284-.732.624.242 1.331.877 1.395 2.181zm-.276 6.922c-.576.287.769.82.679.796-.019 1.524-.327 4.016.198 4.807.322.484 1.06.801 1.552.611.474-.189 1.078-1.135 1.258-1.29.351-.263.051-.543-.242-.271-.29.271-1.078.078-1.183-.196-.082-.286-.183-3.612-.046-3.679 0 0 .95-.02 1.203-.012.199 0 .213-.604.018-.604-.346-.006-1.112-.074-1.156-.211-.114-.313.027-1.327.223-1.738.203-.416-.184-.598-.337-.192-.156.432-1.153 1.48-2.167 1.979zm-5.452.999c.324-.495.529-.591.787-.591.234.014 1.138.635 1.091 1.053.044.272.053.838.051 1.416-.676.082-1.153.159-1.911-.48-.14-.113-.178-1.14-.018-1.398zm.407 2.233c.497.277.747.106 1.518.022-.004.486-.017.923-.019 1.156-.339.243-.757.456-1.238.693-.382-.315-.94-.582-.261-1.871zm-.622-.452c-.419.394-1.165 1.417-1.148 2.172.012.772.384 1.515.831 1.932.764-.534 1.241-1.267 2.511-1.757.157.593.575.684 1.07 1.057.298-.323 1.377-1.65 1.615-1.881.24-.227.102-.461-.238-.227-.34.227-.574.087-1.142-.524.02-.331-.038-3.038.093-3.189-.518-.558-.995-1.318-1.607-1.261-.89.074-2.022 1.626-2.302 2.029-.224.29.01 1.402.177 1.541.059.055.088.06.14.108zm-5.194-5.146c.029.731.297 7.027.218 7.901-.05.5.619 1.029 1.231 1.446.298-.36.944-1.301 1.479-1.697.315-.258.097-.428-.146-.332-.482.224-.968.049-1.015-.508-.044-.558-.044-5.975 0-6.757-.372 0-1.418-.02-1.767-.053zm-.455-4.568c.028 2.574 1.052 2.792 2.222 3.466 1.109.627 2.971.501 4.367.132.53-.154.816-.186.799.271 0 .285.4.224.4.011 0-.21.019-2.369.019-2.607 0-.27-.39-.23-.39 0 0 .36 0 .467-.354.981-.961 1.421-3.365 1.364-4.652-.374-.441-.592-.841-1.383-.331-1.533.507-.155 2.053.166 3.075.252.614.04 2.028.184 2.205.286.158.118.396.266.396-.042.014-.302.014-1.294.014-1.601 0-.297-.23-.154-.403-.049-.175.122-1.683.374-2.287.48-.607.113-2.477.263-2.97.096-.503-.167-.335-1.177.112-1.755 1.304-1.724 3.936-1.604 4.887-.17.328.499.328.617.328.992 0 .225.378.252.378 0 .022-.244.031-2.849.031-3.058 0-.203-.382-.277-.382 0 0 .19-.419.301-.831.19-.817-.257-3.199.111-4.261.693-.942.538-2.391 1.78-2.372 3.339zm10.127-14.96c-.484-.058-2.087.077-2.664.168-.578.088-.578.369-.096.428.479.049.571.15.824.796.231.649-.924 3.595-1.212 4.288-.338-.505-1.563-3.2-1.563-3.565 0-.262.54-.525.772-.587.453-.14.444-.451.101-.518-.958-.136-4.333-.433-4.93-.507-.43-.037-.627.462-.104.462.541.015 1.103-.146 1.694.719.681.98 2.82 5.578 3.331 7.511.251-.406 2.386-6.595 2.509-7.25.153-.641.604-1.266 1.232-1.452.646-.174.587-.45.106-.493zm2.892 1.122l.634-.55v-.883l-.855-.829-.848.722.02 1.018.526.522h.523zm.976 8.07l1.127-1.465c-.818-.141-1.155-.292-1.726-.942l.023-3.635-1.152-1.151-.393.043-1.806 1.586c-.187.276.299.276.54-.053l1.31.751.058 3.518c.101.42.448.828.969 1.348h1.05zm7.494-6.234c-.345 0-2.652.049-2.711-.082-.169-.494-.212-1.095.185-1.931.197-.417-.185-.591-.334-.172-.146.409-1.301 2.006-2.501 2.52-.617.243.753.811.658.785-.007 1.537.214 3.843.542 4.766.203.55.828 1.444 1.258 1.171.278-.175.881-1.371 1.071-1.523.333-.271.008-.732-.27-.455-.309.27-.571-.151-.656-.432-.102-.273-.385-3.654-.242-3.719 0 0 2.728-.331 3-.331.186 0 .195-.597 0-.597zm4.195 6.563c-.374.02-.702.12-1.18.349-.392-.319-1.413-1.552-.661-2.929-.103-.062-.211-.117-.312-.18.693.388 1.501.728 2.138.932-.006.548-.022 1.042-.022 1.222-.002.233.016.422.037.606zm-.011-2.163c-.719-.257-2.135-.923-2.65-1.348-.137-.108-.15-.17.017-.437.328-.486.7-.912.96-.892.224 0 1.665.771 1.619 1.177.05.287.059.893.054 1.5zm.879 3.681l1.459-1.595s-.648-.509-1.033-.981c0-.334 0-3.529.141-3.701-1.098-.979-1.899-1.102-2.371-1.04-.889.134-1.799 1.273-2.087 1.655-.211.302-.157.681 0 .822.177.145.406.291.648.436a.9.9 0 00-.121-.067c-.416.392-1.022 1.519-1.002 2.283.008.768.7 1.883 1.165 2.3.515-.398 1.276-1.064 2.394-1.281.123.538.38.864.807 1.169zm.051 8.444c-.376-.183-1.748-1.241-2.061-2.051-.411-1.092-.411-2.299.75-3.007.908.334 1.965 1.226 2.06 2.046.13 1.063-.177 2.323-.749 3.012zm1.232-.43c.399-.721.986-1.888.948-2.775-.053-1.092-.723-2.712-2.324-3.245-2.03.722-3.285 2.324-3.341 4.219-.038 1.108.906 3.392 2.853 3.405.599-.577 1.234-1.188 1.864-1.604zm1.918 5.521c-.241-.283-.891-.822-1.474-1.234-.334.276-1.022.775-1.461 1.004-.326-.369-.759-.878-1.421-1.392-.398.272-1.545 1.32-2.03 1.596.699.018 1.741.249 1.779.898.024.527-.038 3.813 0 4.414.427.091.933.048 1.555.013.03-.465.019-4.254.03-4.714.209-.116.454-.233.576-.34.24.179.972 1.02 1.397 1.246a27.435 27.435 0 001.383-1.201c.352-.35-.029-.573-.334-.29zm0-6.947c.261.078.738.149 1.227.184.308.039.207-.476-.029-.573a4.403 4.403 0 00-1.096-.194c-.353 0-.518.457-.102.583zm1.239-1.525a4.003 4.003 0 00-1.119-.193c-.335 0-.514.476-.097.587.265.074.76.161 1.234.183.324.03.219-.477-.018-.577zm8.304 80.598c-.647 3.178-1.743 6.122-3.655 8.858-1.339 1.939-1.883-1.832-.73-5.483 1.637-.652 3.274-1.921 4.385-3.375zm-1.821.639c-4.271 4.219-10.674 2.691-15.721 4.949-4.573 1.668-7.886 5.897-12.682 6.965-1.41.455-1.642 1.16-.743 1.137.526-.016 3.449 3.035 8.126.683 1.561-.785 6.413-3.488 7.233-3.642-2.626 2.5-3.944 4.734-6.291 6.055-1.436.804-7.286 2.9-13.122 1.767-2.585-.504-4.575 1.881-3.916 1.826 1.384-.369 2.935-.181 3.868 1.041 1.694 1.327 4.148 2.981 6.259.516.701-.816 4.051-2.557 7.2.639-3.349-.176-3.017 5.847-9.362 5.14-2.35-.015-7.539-5.388-9.017-3.728-2.623 2.947 5.635 5.744 2.059 9.451-3.229 3.348-7.089-2.666-7.089-2.666 2.016.846 5.735 1.389 4.097-1.887-.65-1.301-1.886-2.471-1.886-4.877-.283-1.197-7.675 9.52-12.564 4.678-1.922-1.902-5.812-6.074-9.337-7.662 9.334-.795 10.756 2.941 11.202 3.541 2.985 4.027 5.744-.063 6.38-.779.973-1.108 2.348-2.631 1.86-2.862-3.62-1.717-7.756-2.082-10.846-.664 6.615-9.092 11.762-.578 11.761-.58.724.451-.186-5.391-6.728-5.715-4.086-.201-7.682 3.477-10.5 3.473-2.291-.004-9.237-4.695-10.87-8.861 4.041 3.023 9.197 4.759 12.41 2.843 6.04-3.601 13.649 1.828 14.011 1.18-1.689-1.32-5.532-6.473-15.905-3.535-4.024 2.31-5.72-1.715-8.192-1.783 4.204-3.731 7.118-1.832 8.587-1.719.349 0-1.753-1.729-3.227-1.885-11.462-1.191-18.723-4.344-18.723-4.344-.059 0 .955-2.31 5.882-.644 0 0-4.418-2.705-4.381-6.182.143-2.142 1.18-4.437-.459-6.222 6.652-.274 1.927 9.003 6.598 11.394.099.039-1.376-2.217.703-3.965.965 2.725 3.34 4.133 5.011 4.574.392-.214.876-1.05.876-1.048-1.758-2.907-1.988-6.293-1.516-10.172l.07-.039c.378.017 1.019 1.334 1.468 2.301.97 2.085.946 5.087 2.88 7.562 1.07 1.363 1.733 2.725 2.694 3.385.414-.967.107-2.627.043-3.069-.218-1.576-1.206-4.336 1.488-6.773 1.26 3.637 2.973 2.582 3.206 4.326.321 2.443.214 2.055-.035 3.93.128 2.586 2.477 3.312 4.562 4.965 4.703 2.558 7.824 3.943 9.87 7.22.999-5.529-13.925-6.634-12.001-17.304-.2-4.262.531-4.619-2.489-7.221 5.989.176 9.251 10.006 9.577 11.799.599 3.297 2.601 3.469 5.349 7.767.396.145-4.914-11.453 1.416-21.382 0 0 2.133 5.158 1.127 8.541-.607 2.037-.044 4.291.069 5.568.116 1.303-.26-4.705 4.262-7.814.281 2.273 2.461 5.794.395 9.568-2.511 4.592-2.695 2.941-2.732 8.588.227-.098.877-3.893 2.601-6.047 3.641-4.553 1.04-7.002 4.595-10.947.282 1.972.785 1.191.998 2.949.477 3.943-3.642 8.258-2.731 8.127 1.048-.149 2.731-1.061 3.294-4.053 0 0 1.518 2.732.13 3.643-2.513 1.648-3.035 3.423-2.645 5.418 2.017-2.407 4.769-5.073 4.293-8.498.227-2.069 2.469-2.907 2.915-7.711.075-.797.871-1.764 1.666-2.188-.348 2.699 1.749 5.49-.635 8.793.543.291 2.56-2.576 5.507-1.531-5.915 1.066-4.189 7.474-8.722 10.441-1.366.895-1.132 1.899-1.541 2.012 4.047-.229 7.166-5.049 7.706-5.416 4.069-2.75 4.959-3.172 6.585-7.631.636-1.695.174-2.445 2.428-4.732.989 2.256-.448 6.929-.789 7.937-.729 2.152-3.287 4.016-2.745 4.016 10.904-4.813 10.767-8.043 13.375-11.49.783-1.317 4.662-3.602 6.113-3.815-.354.719-1.862 1.928-1.932 3.233-.132 2.41-.911 3.88-2.129 5.814.679.84 1.979-1.588 3.31-.369-1.76.584-2.545 2.545-3.912 3.697zm-9.985-3.422c.315-1.131.316-1.91.462-2.906.064-.428.074-.377.094-.736.007-.12 3.082 2.558 3.254 2.668-.772.966-1.432 1.312-2.168 1.998-.521-.45-1.672-.914-1.642-1.024zm.933 1.67c-1.422 1.248-2.35 1.692-2.04 1.072a18.48 18.48 0 00.795-1.793c.066-.171 1.245.721 1.245.721zm13.935-12.094c-1.3.338-4.729 1.707-5.556 3.053.439-7.412-1.955-14.691-2.717-16.449-1.486-3.426.664 7.971.811 10.596.004.117-12.301-15.813-4.871-3.545 1.924 3.179 4.932 5.256 4.934 5.308.051 2.213-.098 3.84-.519 5.028-.756.603-16.753-21.289-7.911-6.127 1.096 1.881 7.511 7.57 7.458 7.685-.406.863-1.126 2.121-2.121 3.049-.169-.168-3.69-2.766-3.715-2.924-.266-1.691-.276-3.291-2.367-2.092 0 0-7.881-9.175-4.231-2.746 1.595 2.813 2.641 3.123 3.067 3.623 0 0-1.223 1.659-1.616 3.418-.159.705-6.834-7.4-4.215-2.308.839 1.631 3.892 3.412 3.859 3.527-.313 1.061-.63 2.088-.963 2.756-.421.846-6.281 5.518-6.273 5.514 0-.002 1.146-3.702 3.637-5.514 1.423-1.041 1.427-.813 2.369-1.404-.019-.547-.546-1.44-1.229-1.676-.855-.303-3.629.201-3.629.201.26-1.387-.955-4.379-.939-7.67-1.044.104-2.877 1.719-3.32 2.637-.321 5.451-1.506 3.818-2.614 7.74-1.205-1.644.084-4.008-1.097-5.547-1.626-2.117-1.872-3.545-2.111-6.15.379-.211 2.038-2.043.528-5.887-.246-6.041 2.452-8.349-2.374-12.576.407-.131.698-3.158.698-3.162 3.556 1.896 2.851-2.195 4.236-2.998 2.199-1.278 1.801-2.6.813-4.248 6.289 1.789-.284 6.088 2.562 6.181 2.065.063 3.449-.461 4.345-1.849.956-1.467-.164-2.367 2.504-4.746.266-.239.973-1.826-1.142-2.262-.463-.098.004-1.906.004-1.906-1.694 1.433-2.227 3.453-4.95 2.176-1.394-.657-2.299-.012-2.869.263 0 0-.29-1.138.863-1.523 2.981-1.002 3.717-2.192 3.554-2.842-.402-1.549-.524 0-.437-1.631.037-.648.791-1.529 1.415-2.283 2.022-2.439 3.452-1.524 3.968-1.308 1.175-.908 1.382-.845 2.476-1.277 1.871-.735 5.927.487 8.193 1.539 1.099.497 2.412.796 3.695.513-.013.662-.476 1.017-.937 1.15-.707.221-1.551 0-1.496.518.033.302 1.002.355 1.608.519 3.358.918 7.707 3.928 4.852 3.293-.337-.074 2.059 1.791 3.868 4.217l6.405 6.223c-.295.353-2.541.033-9.654-6.633-1.011.902 8.652 8.185 12.641 15.916-.345.24-5.316-1.571-7.109-3.418-2.761-2.858-5.935-10.121-7.24-9.059-.157.061 5.251 8.481 7.923 13.475 1.35 2.527 2.459 6.148 2.551 8.877.428 13.451-1.597 12.418-1.596 12.42-3.151-10.604-4.626-22.914-9.224-28.594-1.836-2.27 4.914 9.936 5.205 20.939zm4.971-72.079l-.135-.968c-.097-.696-2.093-1.098-3.503-.482-1.974.862-6.917 3.684-8.72 3.151V18.09c4.449 1.93 6.187.187 7.617.187 4.393 0 4.614 4.098 4.614 4.098.057.446.099.762.127.968zm-4.567 9.521c3.858-.563 4.44 3.99 4.44 3.99h-.008c-.95-.755-2.859-1.097-4.153-.263-4.31 2.775-8.195 2.807-8.195 2.807v-6.955s.82 1.457 7.916.421zm-9.218 14.129c-7 .477-21.524-3.508-25.216-3.508-7.619 0-11.303 2.974-11.303 2.974s.01-34.582 0-35.827c0 0 10.01-4.694 17.293-2.006 8.919 3.292 19.226 1.834 19.226 1.834v36.533zm-29.004 5.396c.232 1.387-1.054 1.734-1.05 1.733 1.998.467 2.953-.722 3.343-1.473.768 3.191-2.449 3.371-3.452 3.562-.002 0 1.63.469 1.715 1.532.213 2.699 1.948 2.468 2.322 2.256-.061.326-.597 1.955-2.548.484-.33.326.532.83.703 2.17.22 1.693.166 3.264 2.122 4.297-1.199.953-2.612-1.53-2.735-1.233-.139.332 1.666 1.244-.32 5.928-.907-.521-.402-.422-1.452-1.67-.804-.674-1.121-.826-.45.283 1.173 1.465 1.449 4.815 1.045 5.717-.967-.42-.718-1.191-1.858-2.242-.104.447.35 2.668 1.528 3.73 2.035 1.836 2.755 4.055 2.793 4.493.161 1.67-.364 3.869-.562 6.019-.976-.14-1.806-2.912-2.042-2.756-.289.188.123 2.713 1.963 4.434.891 2.603.533 4.002.296 4.096-.314.134-1.306-2.663-1.846-2.176 2.62 6.666.786 8.988.094 11.043-.542-2.106-.816-3.682-1.494-6.067-1.429 1.121-1.771 2.784-3.518 4.305 0-2.719-1.572-9.283-2.817-10.812-.058-.071-2.252 5.884-3.252 8.533-1.297 3.431-1.498 7.722 0 11.066-3.235-4.601-3.582-13.168-.79-14.322.242-.613-.169-2.629-.791-2.379-.178.986-.059 1.828-.876 2.791-2.142-.627-1.166-3.242-.973-4.109 2.779-3.332 1.042-4.104.912-4.016-.301.764-.563 1.699-1.412 2.047-1.783-3.065-.64-7.873 2.746-11.467.143-1.342-1.515 1-2.594.918-.282-2.586.656-7.07 5.437-7.234-.913-.268-1.402-.434-1.623-1.196 1.446-.214 5.979-.56 5.23-4.136-.429.429-.566 1.072-1.748 1.791-.794.484-1.659.525-2.109-.174 2.102-.695 1.408-3.254-1.337-2.502-.842.23-2.072-.649-2.132-1.623.611.611 1.85.158 2.565-.307 3.089-2.008 4.975.901 5.391 1.526.125 0 1.387-2.907-2.999-3.688-.366-1.021-1.369-2.826-4.346-2.6-.981-3.46-3.949-1.753-3.851-.187-3.154-2.322.054-5.253 1.328-5.705.883.073.688 2.869 2.238 2.398.375-.111-1.205-1.925-.6-2.748 1.423-.812 1.391 1.041 2.092.35.348-1.213 1.743-1.892 2.892-2.022 3.224-.458 5.73 3.075 8.822 1.342zm-9.194-5.959s-4.745-2.574-10.316-2.945c-5.386-.358-16.268 3.945-24.622 3.377V10.148s9.527 1.266 13.44-.244c13.307-5.132 21.498.602 21.498.602V46.43zm-41.168-7.684h4.534v-4.46h-4.534v4.46zm0-15.538h4.534v-4.46h-4.534v4.46zm-5.336 16.827c-5.32 0-5.32-7.795 0-7.795 5.117 0 5.149 7.795 0 7.795zm0-15.576c-5.201 0-5.092-7.8 0-7.8 5.117 0 5.117 7.8 0 7.8zm34.277 36.417c-.95-1.622 1.134-3.168 1.134-3.168-.063 4.558 5.764 1.429 8.807 2.878.731.336 1.244.979 1.545 1.657-3.271-2.262-9.318 2.334-11.486-1.367zM31.011 99.481c.025 1.562-.086 2.719.369 4.307.739 2.396.368 1.658-.638.834-.8-.889-1.548-1.621-1.932-2.661-.095-.738.499-.779 2.201-2.48zM19.277 67.258l-.089-.088c-.107 0-7.573 4.711-12.424 2.45 3.614-1.998 16.132-9.953 19.556-12.209 1.615.347 2.269-.235 2.785-.594-1.309.08-5.645.758-3.453-3.123.843 3.478 6.925.278 9.107-.224 6.085-1.401 6.041 5.103 5.522 7.79-.194 1.002 1.864 1.713 2.877 1.569-1.743 4.297-4.721.246-5.075 1.884-.145.665-2.138 1.186-2.129 2.836.012 2.256.894 1.024.975 2.772.089 1.693-.723.375-.539 2.207.292 2.908 5.104-.387 7.091.4.995.393 1.654 1.283 2.624 1.108.283-.233.155-1.332.112-1.725-.102-.924-1.81-1.031-2.606-2.293-.693-1.099.786-4.408 1.586-5.381 1.148 5.463 6.268 3.75 7.032 9.494.483 1.625-1.759 3.43.059 6.075-1.351 1.31-2.974 7.529-.147 10.451-.48 1.322-1.109 4.375 1.406 6.156-.845 1.803-.652 4.006.061 6.248-1.566.006-1.255-8.787-10.643-9.066-.21-.067-.261.996.009 1.472 1.125 1.977 2.636 1.862 2.312 6.512-.111 1.592-1.044-.277-1.542-.717-1.137-1.004-2.016-1.138-2.51-4.41-3.816 2.99-3.441 6.611-3.202 8.451.002.004-.842-2.295-1.805-4.652-.051-.125 3.874-4.848 4.499-5.971 7.921-14.258-5.115 4.61-5.143 4.545-.701-1.625-1.314-3.025-1.727-3.469.101-.197 2.276-2.623 3.259-4.67 6.127-12.757-3.641 4.249-3.99 3.936-.738-.664-1.348-1.496-1.815-1.197-.11 1.959-.578 1.693-.443 3.693-1.021 1.363-3.212 3.506-4.744 4.566 0 0-.382-3.54-.28-3.665.77-.938 3.783-4.166 4.399-5.133 10.039-15.768-4.701 3.799-4.728 3.631-.104-.623-.912-1.653-1.772-2.532 0 0 3.256-4.435 4.057-6.084 6.109-12.56-4.91 5.567-5.032 5.5-.265-.138-.292-.134-.599-.24-.307-.103.337-3.617.762-5.732.827-4.186-1.391-.813-1.995 5.818-.565.09-1.941.232-2.461.705.336 1.77.755.408 1.497 2.109.887 2.038-1.237 5.377.612 7.823.714.943.756.785.615 1.404-1.137-.082-1.828-.104-2.547.879-1.398-6.352-1.354-9.41-1.027-15.865.146-2.936 1.11-7.375.67-7.459-.419-.08-7.071 17.05-8.676 20.408-2.806-.947 1.746-15.773 7.53-22.91.545-2.27-3.032 2.303-5.169 4.123-1.959 1.67-4.439 3.847-7.14 3.101 3.469-3.67 11.424-10.535 12.309-12.25.741-1.47-5.427 4.577-11.945 2.329 4.217-2.26 14.057-7.284 14.074-10.786zm-.067 41.715c1.089.738 2.372 1.065 3.548 1.567 1.456 3.808.035 7.552-.783 6-1.434-2.723-1.999-4.983-2.765-7.567zM119.642 87.79l-.005-84.867C51.459-3.651 0 2.923 0 2.923v84.88c5.434 57.53 59.315 64.287 59.827 64.198 9.624-1.739 54.797-10.823 59.815-64.211zm31.683 20.558c0 15.715 7.554 26.803 17.301 33.506 8.894 5.969 19.373 8.162 30.338 8.162 7.798 0 16.57-1.828 19.25-2.803 1.341-.486 2.804-.972 4.264-1.218 1.828-2.315 4.996-10.356 5.849-16.692-.489-.851-2.315-1.095-3.167-.488-2.804 7.189-9.748 17.426-25.465 17.426-19.982 0-36.186-14.137-36.186-39.721 0-25.221 15.839-37.039 34.48-37.039 17.666 0 23.15 9.502 24.977 17.789.852.729 2.681.608 3.289-.244-.974-7.432-1.584-15.107-1.705-17.91-1.097.121-1.949-.123-3.411-.487-5.727-1.584-14.987-2.923-21.567-2.923-12.67 0-24.001 3.41-32.895 10.353-9.26 7.19-15.352 18.766-15.352 32.289zM185.906 2.824l.038-.144-.067-.134c-.195-.384-.762-.415-.931-.415-.127 0-.313.015-.477.08l-.125.051-.068.116c-.654 1.132-.924 1.224-3.622 1.224h-20.987c-2.273 0-3.291-.119-3.505-1.255l-.023-.119-.086-.085c-.141-.142-.37-.209-.7-.209-.121 0-.533.011-.757.161l-.138.093-.028.164c-.356 2.021-1.106 5.23-1.913 7.502l-.056.157.075.148c.304.612 1.346.908 1.903.491l.082-.061.041-.094c.515-1.172 1.001-2.279 2.19-3.373 1.118-1.027 3.651-1.166 5.982-1.166h2.791c1.134 0 1.134 0 1.134 1.233v22.697c0 5.5-.316 5.74-2.79 5.957l-1.827.152-.173.056c-.302.186-.471.564-.452 1.013.015.342.15.768.482.934l.088.045.098-.004c3.109-.094 4.986-.151 7.044-.151 1.982 0 3.621.048 6.64.151l.099.004.088-.045c.332-.166.475-.619.497-.986.026-.439-.104-.787-.357-.954l-1.805-.215c-2.539-.219-2.69-.553-2.69-5.957V7.135c0-.519-.001-1.009.083-1.093.086-.086.636-.086 1.001-.086h3.602c2.721 0 4.571.39 5.659 1.194.481.352.897 1.638 1.113 3.438l.014.114.073.088c.186.226.53.361.92.361.482 0 .884-.207 1.049-.54l.049-.099-.011-.112c-.145-1.462.207-5.551.753-7.576zm41.741 27.062V11.61c0-5.408.152-5.745 2.693-6.01l1.062-.101.179-.063c.254-.168.384-.518.357-.96-.011-.179-.08-.777-.497-.984l-.09-.045-.101.005c-2.454.108-4.129.15-5.976.15-2.2 0-3.974-.058-6.123-.15l-.099-.005-.09.044c-.418.206-.488.801-.501.979-.029.444.1.795.353.965l1.142.164c2.593.267 2.747.604 2.747 6.011v5.836c0 1.235 0 1.235-2.148 1.235h-14.52c-2.148 0-2.148 0-2.148-1.235V11.61c0-5.408.152-5.744 2.697-6.011l.963-.1.177-.064c.254-.169.383-.52.354-.964-.012-.178-.082-.774-.5-.98l-.09-.044-.1.005c-2.311.107-4.013.15-5.872.15-1.325 0-2.481-.038-3.744-.078-.813-.025-1.669-.053-2.642-.073l-.095-.002-.085.042c-.417.205-.489.798-.501.975-.03.445.098.798.352.969l.085.057 1.423.109c2.237.171 2.635.632 2.635 6.009v18.276c0 5.285-.098 5.508-2.622 5.962l-.983.172-.087.087c-.291.289-.334.762-.278 1.11.06.375.235.66.479.781l.087.043.097-.002c.698-.016 1.364-.04 2.03-.064 1.2-.043 2.441-.087 3.849-.087 1.908 0 3.527.047 6.437.151l.099.004.089-.045c.332-.166.474-.619.496-.987.026-.439-.104-.787-.358-.953l-1.645-.214c-2.435-.263-2.747-.507-2.747-5.958v-7.161c0-1.232 0-1.232 2.148-1.232h14.52c2.148 0 2.148 0 2.148 1.232v7.161c0 5.401-.052 5.512-2.767 5.96l-1.091.171-.09.09c-.29.291-.332.766-.275 1.113.062.374.237.658.481.779l.09.045.1-.005c2.431-.107 4.204-.151 6.123-.151 2.001 0 3.763.055 6.128.151l.099.004.089-.044c.419-.206.49-.802.501-.979.029-.442-.1-.793-.354-.961l-1.387-.214c-2.576-.312-2.703-.591-2.703-5.959zm42.43.785l.025-.122-.051-.114c-.219-.489-.758-.707-1.195-.707a1.12 1.12 0 00-.656.194l-.122.144c-1.456 2.907-2.766 4.379-3.431 4.748-1.092.545-2.629.721-6.325.721-4.228 0-5.318-.506-5.857-1.044-.718-.766-.859-2.418-.859-5.013v-7.157c0-.983 0-.983 1.286-.983h2.945c1.772 0 3.097.041 3.813.243.706.176 1.068.635 1.289 1.64l.456 1.976.08.161c.189.23.545.368.951.368.463 0 .841-.176 1.009-.469l.052-.089v-.105c0-.496-.04-1.151-.084-1.886-.056-.925-.12-1.974-.12-2.99 0-1.062.063-2.149.118-3.107.046-.776.086-1.473.086-2.019v-.103l-.051-.09c-.169-.296-.547-.472-1.012-.472-.405 0-.76.137-.949.367l-.489 2.254c-.23 1.16-.515 1.333-.959 1.48-.542.182-2.069.286-4.19.286h-2.945c-1.286 0-1.286 0-1.286-1.033V7.597c0-1.641 0-1.641 1.133-1.641h3.656c2.156 0 3.803.05 4.83.295 2.316.579 2.78 2.043 3.485 4.259l.097.304.07.129c.173.21.467.326.826.326.35 0 .84-.12 1.066-.456l.076-.115-.067-.75c-.264-2.956-.504-5.466-.777-6.237l-.118-.333-.343.084c-.564.14-3.714.14-6.76.14h-9.545c-1.955 0-3.628-.042-5.969-.15l-.1-.005-.09.044c-.418.205-.489.8-.501.977-.03.445.098.797.352.967l.985.164c2.598.307 2.753.645 2.753 6.011v18.276c0 5.5-.317 5.74-2.794 5.957l-1.814.164-.1.1c-.29.289-.334.762-.278 1.109.06.376.235.661.479.782l.088.045.099-.004c2.934-.096 4.7-.151 6.89-.151h4.571c4.427 0 8.875.049 13.597.151l.251.006.109-.227c.681-1.418 1.958-5.358 2.314-7.147zm4.914 39.664c.73-.491.487-2.682-.244-3.045-5.239.242-9.381.363-14.132.363-5.24 0-9.383-.242-15.353-.363-.732.363-.975 2.554-.243 3.045l3.167.244c6.337.486 7.189 2.558 7.189 15.351v43.862c0 12.791-.244 14.011-7.067 15.228l-2.07.365c-.732.731-.488 2.682.242 3.047 4.752-.121 8.895-.365 14.135-.365 4.751 0 8.893.121 15.472.365.732-.365.975-2.56.244-3.047l-3.532-.365c-6.823-.73-7.433-2.437-7.433-15.228V112.61c0-3.652.243-3.897 6.092-3.897h34.845c5.849 0 6.093.245 6.093 3.897v17.182c0 12.791 0 14.011-7.433 15.228l-2.315.365c-.73.731-.487 2.682.244 3.047 5.361-.244 9.749-.365 14.742-.365 4.753 0 8.895.121 14.743.365.73-.365.974-2.56.244-3.047l-2.926-.365c-7.066-.853-7.308-2.437-7.308-15.228V85.93c0-12.793.242-14.623 7.308-15.351l2.561-.244c.73-.491.486-2.682-.244-3.045-5.483.242-9.625.363-14.378.363-4.993 0-9.138-.121-14.742-.363-.731.363-.974 2.554-.244 3.045l2.315.244c7.189.728 7.433 2.558 7.433 15.351v14.01c0 3.779-.244 3.9-6.093 3.9h-34.845c-5.849 0-6.092-.121-6.092-3.9V85.93c0-12.793.243-14.623 7.31-15.351l2.315-.244zM333.352 5.31c.224-.272.331-.691.269-1.068a1.037 1.037 0 00-.466-.732l-.104-.065-.123.007c-1.765.097-3.133.15-5.309.15-1.947 0-3.834-.049-5.766-.15l-.13-.007-.108.073c-.234.156-.396.445-.445.791-.053.38.043.746.262 1.005l.105.124 1.432.109c1.164.096 1.957.407 2.228.873.592 1.042.917 4.706.917 10.314v5.841c0 5.982-1.694 13.112-9.764 13.112-6.767 0-9.918-4.183-9.918-13.165V11.558c0-5.399.176-5.792 2.688-6.011l1.319-.105.084-.057c.254-.169.383-.511.354-.939-.023-.354-.166-.791-.498-.955l-.09-.043-.099.004c-2.407.097-4.112.15-6.228.15-2.085 0-3.88-.055-6.278-.15l-.098-.004-.089.043c-.332.163-.476.597-.501.95-.029.429.099.773.352.943l.085.058 1.37.105c2.512.219 2.688.612 2.688 6.011v11.979c0 6.139 1.264 9.928 4.095 12.28 2.236 1.913 5.516 2.883 9.749 2.883 3.999 0 7.825-1.469 9.98-3.832 2.462-2.636 3.658-6.691 3.658-12.396v-5.738c0-2.573 0-8.601.677-10.194.236-.512 1.105-.902 2.213-.993l1.383-.11.106-.127zm45.511.075c.244-.245.367-.643.323-1.038-.042-.362-.222-.666-.493-.836l-.105-.066-.125.007c-1.666.097-2.989.15-5.207.15-1.791 0-3.466-.042-5.973-.15l-.079-.004-.073.028c-.295.109-.502.386-.571.761-.082.454.054.913.35 1.169l.09.078.979.114c1.744.218 2.628.478 2.866.838.606.959.955 4.712.955 10.298v10.865c0 .491 0 1.06-.032 1.45-1.76-1.819-3.602-3.881-5.891-6.443l-7.062-7.924c-5.022-5.634-7.898-9.328-8.547-10.983l-.114-.29-.308.047c-.61.092-1.44.146-2.279.146-.887 0-3.588 0-5.706-.15l-.107-.007-.096.048c-.269.136-.457.415-.513.766-.071.423.051.865.308 1.125l.097.098.995.116c1.354.169 2.363.551 2.907 1.096.948 1.036 1.017 1.973 1.017 3.39v15.133c.003 2.454.01 8.202-.626 9.838-.118.26-.55.607-1.921.789l-1.507.166-.097.097c-.225.225-.341.586-.31.968.033.382.199.707.461.892l.111.079.136-.007a84.835 84.835 0 015.259-.151c1.718 0 3.435.044 5.923.151l.134.006.109-.078c.238-.17.398-.44.449-.761a1.417 1.417 0 00-.26-1.056l-.103-.139-1.754-.168c-1.218-.099-2.069-.385-2.282-.771-.546-.965-.86-4.724-.86-10.316V13.689c0-.909.016-1.877.107-2.566.806.902 2.15 2.49 3.359 3.92.829.981 1.597 1.889 2.094 2.459l11.778 13.4c3.913 4.454 5.788 6.664 6.472 7.633l.117.165h.202c.667 0 1.165-.309 1.335-.827l.026-.081-.009-.085c-.069-.591-.15-2.604-.15-8.837l-.002-12.822c-.009-2.601-.026-8.013.721-9.596.064-.128.673-.561 2.551-.855l.839-.118.092-.094zm-6.282 124.162V86.172c0-12.914.243-14.986 7.432-15.593l3.046-.244c.73-.491.486-2.682-.245-3.045-6.091.242-10.233.363-15.107.363-5.117 0-9.26-.121-15.352-.363-.73.363-.974 2.554-.243 3.045l3.046.244c7.188.607 7.432 2.679 7.432 15.593v43.375c0 12.916-.244 14.62-7.432 15.473l-3.046.365c-.731.731-.487 2.682.243 3.047 6.092-.244 10.235-.365 15.352-.365 4.874 0 9.016.121 15.107.365.731-.365.975-2.56.245-3.047l-3.046-.365c-7.189-.853-7.432-2.557-7.432-15.473zm25.482-99.764V11.71c0-5.493.179-5.893 2.739-6.109l1.37-.109.084-.057c.254-.169.383-.521.353-.966-.01-.177-.082-.773-.501-.978l-.087-.043-.099.004c-2.399.095-4.194.15-6.279.15-2.182 0-3.925-.053-6.38-.15l-.099-.004-.089.043c-.419.206-.489.803-.501.981-.028.443.101.795.356.964l.084.056 1.367.108c2.561.217 2.741.617 2.741 6.11v18.073c0 5.465-.13 5.749-2.754 6.061l-1.402.168-.096.095c-.29.289-.334.763-.277 1.111.061.375.236.66.481.781l.089.044.1-.004c2.579-.1 4.273-.151 6.38-.151 2.008 0 3.755.053 6.279.151l.099.004.088-.044c.42-.207.491-.804.501-.982.029-.441-.101-.791-.355-.959l-1.438-.214c-2.626-.312-2.754-.596-2.754-6.061zm15.578 46.276c-9.261 7.19-15.354 18.766-15.354 32.289 0 15.715 7.556 26.803 17.302 33.506 8.895 5.969 19.372 8.162 30.339 8.162 7.797 0 16.572-1.828 19.249-2.803 1.342-.486 2.803-.972 4.265-1.218 1.828-2.315 4.996-10.356 5.849-16.692-.486-.851-2.316-1.095-3.167-.488-2.804 7.189-9.749 17.426-25.466 17.426-19.98 0-36.187-14.137-36.187-39.721 0-25.221 15.841-37.039 34.482-37.039 17.668 0 23.15 9.502 24.977 17.789.85.729 2.68.608 3.288-.244-.973-7.432-1.581-15.107-1.705-17.91-1.098.121-1.949-.123-3.41-.487-5.728-1.584-14.988-2.923-21.567-2.923-12.671 0-24.001 3.41-32.895 10.353zm33.148-70.674c.274-.277.32-.759.275-1.088-.049-.37-.213-.651-.461-.794l-.101-.058-.117.007c-1.701.102-3.259.15-4.902.15-1.995 0-3.91-.055-5.252-.15l-.119-.008-.103.06c-.28.161-.471.497-.509.899-.04.405.09.779.348 1.002l.091.08 1.032.114c1.775.203 1.939.575 1.94.575 0 .332-.049.841-.43 1.84-.874 2.211-3.294 8.024-4.714 11.36-.376.864-.851 1.99-1.375 3.232-.962 2.281-2.134 5.059-3.13 7.241-2.403-5.518-4.616-11.055-6.86-16.713-1.486-3.645-2.339-6.296-2.498-6.956.078-.161.518-.38 2.036-.58l.876-.116.088-.076c.259-.222.39-.596.351-1.001-.038-.403-.23-.74-.51-.901l-.099-.058-.115.006c-2.259.107-4.034.15-6.125.15-2.119 0-3.739-.046-5.254-.15l-.126-.008-.106.067c-.295.184-.488.526-.52.915-.03.388.108.754.367.979l.092.08 1.036.114c1.974.23 2.647 1.135 3.795 3.924l8.935 22.029c1.063 2.639 1.843 4.894 2.317 6.705l.049.189.182.074c.295.12.6.18.908.18.292 0 .568-.077.777-.217l.115-.076.041-.13c.871-2.726 3.307-8.71 5.264-13.211l2.741-6.244c2.353-5.338 4.311-9.361 5.661-11.63.646-1.044 1.325-1.506 2.334-1.591l1.671-.111.104-.105zm34.826 25.286l.025-.122-.052-.114c-.219-.488-.758-.707-1.194-.707a1.12 1.12 0 00-.656.194l-.122.144c-1.456 2.906-2.766 4.378-3.431 4.748-1.091.545-2.627.721-6.325.721-4.23 0-5.317-.506-5.855-1.044-.721-.765-.862-2.418-.862-5.013v-7.157c0-.983 0-.983 1.286-.983h2.946c1.773 0 3.099.041 3.813.243.706.176 1.067.635 1.291 1.639l.454 1.977.079.162c.19.229.547.367.952.367.465 0 .842-.176 1.009-.469l.051-.09v-.104c0-.496-.039-1.151-.083-1.886-.056-.925-.12-1.974-.12-2.99 0-1.062.064-2.149.118-3.107.046-.776.085-1.473.085-2.019v-.103l-.05-.09c-.168-.295-.546-.472-1.012-.472-.404 0-.76.137-.95.366l-.489 2.255c-.229 1.16-.514 1.333-.957 1.48-.544.182-2.072.286-4.191.286h-2.946c-1.286 0-1.286 0-1.286-1.033V7.597c0-1.641 0-1.641 1.136-1.641h3.654c2.155 0 3.801.05 4.832.295 2.313.579 2.778 2.043 3.482 4.258l.097.305.071.129c.173.21.466.326.826.326.351 0 .84-.12 1.066-.457l.077-.115-.068-.746c-.262-2.958-.503-5.469-.777-6.24l-.119-.333-.343.084c-.564.14-3.713.14-6.757.14h-9.545c-1.957 0-3.63-.042-5.971-.15l-.101-.005-.089.044c-.418.205-.489.8-.501.977-.029.445.099.797.352.967l.984.164c2.597.307 2.752.645 2.752 6.011v18.276c0 5.501-.316 5.74-2.794 5.957l-1.812.164-.101.1c-.288.287-.333.759-.277 1.106.06.376.234.663.478.785l.089.045.1-.004c2.932-.096 4.7-.151 6.891-.151h4.569c4.429 0 8.878.049 13.598.151l.251.006.11-.227c.681-1.425 1.957-5.365 2.312-7.147zm26.237-11.452c-1.451 1.098-3.429 1.24-4.991 1.24-2.293 0-2.999-.087-3.209-.15-.058-.211-.058-.809-.058-1.39V7.039c0-1.141 0-1.235 2.91-1.235 5.708 0 7.732 4.003 7.732 7.429 0 2.814-.758 4.717-2.384 5.986zm15.3 18.891a.84.84 0 00.309-.784.744.744 0 00-.459-.596l-.113-.026c-1.211-.088-2.435-.584-3.281-1.332-3.495-2.931-6.276-7.212-10.122-13.411-.266-.428-.304-.625-.298-.708 1.687-.704 6.451-3.191 6.451-8.783 0-4.252-2.408-6.4-4.422-7.45-2.546-1.382-5.808-1.569-8.662-1.569-4.649 0-8.256.13-11.355.406l-.14.04c-.295.148-.491.475-.523.875-.035.436.127.854.415 1.062l.081.06 1.726.212c1.655.202 1.893.56 1.893 5.551v18.229c0 5.368-.126 5.646-2.702 5.958l-1.421.169-.099.115c-.287.334-.316.818-.247 1.16.069.343.237.595.472.711l.089.044.1-.004a144.86 144.86 0 016.329-.151c2.098 0 3.861.058 6.026.151l.101.005.09-.046c.373-.185.465-.673.489-.873.05-.449-.067-.839-.316-1.043l-.084-.07-1.175-.167c-2.609-.363-2.71-.585-2.71-5.959v-6.399c0-.725 0-.725 1.995-.725 1.95 0 2.612.468 3.285 1.454.772 1.121 1.669 2.542 2.538 3.917.908 1.436 1.765 2.792 2.441 3.751 3.487 4.968 6.118 6.561 10.827 6.561.979 0 1.837-.098 2.353-.27l.119-.065zm12.788-27.719c0-1.959.735-5.247 5.654-5.247 4.476 0 5.841 2.913 6.529 5.45l.075.145c.162.199.436.308.768.308.384 0 .899-.154 1.123-.495l.064-.097v-.117c0-2.074-.427-4.973-.933-6.331l-.095-.254h-.271c-.358 0-1.034-.089-1.681-.288-1.212-.326-3.114-.674-4.818-.674-6.427 0-10.747 3.665-10.747 9.12 0 4.637 3.544 7.667 5.658 9.06l4.824 3.151c3.506 2.255 3.988 4.591 3.988 6.779 0 2.711-1.842 5.446-5.958 5.446-5.138 0-7.381-3.962-8.358-7.285l-.05-.107c-.152-.227-.427-.351-.774-.351-.337 0-.823.129-1.084.495l-.078.109.005.134c.097 2.295.749 6.053 1.417 7.277l.052.096.095.055c.994.581 3.778 1.93 8.115 1.93 6.702 0 11.204-3.931 11.204-9.782 0-4.06-2.136-7.355-6.528-10.076l-4.064-2.54c-1.543-.957-4.132-2.998-4.132-5.911zm-4.972 101.488h-14.986c-3.412 0-3.533-.121-2.559-2.921l7.677-21.202c1.339-3.654 2.556-6.58 2.921-7.189h.246c.732 1.461 1.827 4.754 2.799 7.676l6.581 19.859c1.098 3.291.855 3.777-2.679 3.777zm31.434 33.141c-5.24-.609-6.822-2.437-10.357-12.916l-16.692-48.978c-1.826-5.36-3.775-10.965-5.362-16.327-.243-.851-1.095-1.095-1.825-1.095-1.343 1.584-3.411 3.777-6.337 4.631.368 1.949-.364 4.261-2.071 8.648l-12.426 32.896c-5.118 13.647-8.53 21.567-10.725 27.17-1.703 4.387-4.383 5.729-7.307 5.971l-4.022.365c-.73.61-.486 2.561.246 3.047 3.289-.121 7.673-.365 11.694-.365 5.726.121 9.507.121 12.674.365 1.094-.486 1.094-2.437.242-3.047l-4.021-.365c-2.925-.242-3.535-.975-3.535-2.437 0-1.34.855-4.629 2.682-10.114l4.263-12.791c.855-2.56 1.584-2.924 4.63-2.924h18.398c3.654 0 4.143.364 4.998 3.045l5.358 16.571c.977 2.923 1.584 5.117 1.584 6.457 0 1.218-1.705 1.951-4.261 2.193l-3.536.365c-.854.61-.732 2.561.244 3.047 3.534-.121 8.162-.365 14.01-.365 5.483 0 9.748.121 14.743.365.608-.486.851-2.437 0-3.047l-3.289-.365zm8.365-115.237V11.71c0-5.548.153-5.891 2.733-6.109l1.375-.109.084-.057c.253-.169.382-.52.354-.963-.012-.178-.083-.774-.5-.98l-.087-.044-.1.004c-2.401.095-4.198.15-6.28.15-2.179 0-3.924-.053-6.383-.15l-.1-.004-.091.045c-.414.207-.483.805-.495.983-.028.441.101.791.353.959l.085.057 1.368.108c2.588.219 2.741.562 2.741 6.11v18.073c0 5.466-.129 5.749-2.754 6.061l-1.404.168-.095.095c-.288.289-.331.761-.276 1.108.06.375.234.661.476.783l.091.045.101-.004c2.584-.1 4.28-.151 6.383-.151 2.016 0 3.697.051 6.28.151l.1.004.088-.045c.418-.207.488-.805.499-.983.027-.44-.102-.789-.354-.956l-1.443-.215c-2.621-.312-2.749-.595-2.749-6.061zm46.284-26.959l.037-.141-.064-.132c-.186-.378-.711-.42-.93-.42a1.35 1.35 0 00-.478.079l-.127.051-.068.118c-.651 1.131-.922 1.223-3.623 1.223h-20.985c-2.273 0-3.292-.119-3.502-1.254l-.023-.12-.087-.086c-.141-.141-.37-.208-.7-.208-.121 0-.532.01-.757.16l-.14.093-.028.165c-.356 2.028-1.107 5.242-1.913 7.502l-.056.157.075.149c.307.612 1.346.91 1.904.491l.082-.062.042-.094c.517-1.175 1.004-2.286 2.188-3.372 1.121-1.028 3.654-1.167 5.984-1.167h2.793c1.131 0 1.131 0 1.131 1.233v22.697c0 5.501-.317 5.74-2.79 5.957l-1.828.152-.171.055c-.304.187-.474.567-.454 1.018.016.342.152.766.485.931l.088.043.097-.003c3.107-.094 4.982-.151 7.043-.151 1.985 0 3.622.048 6.636.151l.098.004.089-.044c.418-.206.488-.802.5-.98.028-.442-.101-.792-.354-.96l-1.806-.216c-2.54-.219-2.689-.553-2.689-5.957V7.126c-.002-.515-.002-1.001.081-1.084.086-.086.637-.086 1.002-.086h3.603c2.719 0 4.571.39 5.657 1.193.479.352.894 1.638 1.113 3.439l.013.113.072.088c.187.227.53.362.922.362.482 0 .885-.207 1.05-.539l.05-.1-.012-.112c-.148-1.457.203-5.545.75-7.576zm20.77 64.708c-2.073-.487-8.53-1.826-15.475-1.826-18.399 0-30.46 5.722-38.622 14.254-7.554 8.039-10.968 18.517-10.968 28.874 0 10.723 3.901 20.346 11.211 27.657 9.381 9.504 22.662 13.525 37.16 13.525 6.58 0 15.352-1.463 21.811-3.168 2.313-.607 4.508-1.097 5.966-1.097.491-.366.491-1.098.125-1.461-2.191-.854-2.924-3.776-2.924-8.651v-6.824c0-6.213.123-9.623 5.238-10.234l1.952-.245c.851-.728.728-2.556-.122-3.044-4.022.242-8.166.363-12.916.363-7.19 0-13.89-.121-17.423-.363-.854.363-.976 2.56 0 3.044l5.361.612c7.553.851 7.918 1.584 7.918 11.816v4.875c0 3.899-.608 6.092-1.216 6.944-1.343 2.07-5.848 3.658-13.406 3.658-24.489 0-36.552-18.403-36.552-41.793 0-18.276 10.361-35.09 33.996-35.09 12.427 0 21.564 4.145 24.977 17.301.732.732 2.926.611 3.29-.365-1.097-7.311-1.829-13.647-1.829-17.665-1.461.243-5.238-.611-7.552-1.097zm17.791-62.127c.259-.225.397-.591.367-.98-.029-.388-.222-.73-.516-.914l-.106-.066-.124.007c-3.61.21-5.737.209-9.552 0l-.104-.006-.094.047c-.282.142-.477.428-.535.784-.066.41.061.834.332 1.108l.098.098 1.046.115c.986.123 1.599.364 1.778.497-.16.727-1.935 4.021-3.013 6.02l-.232.432c-1.223 2.364-2.634 4.911-4.419 7.973-1.337-2.417-2.642-5.075-3.906-7.652-.497-1.011-.992-2.018-1.487-3.008-.367-.734-1.514-3.329-1.534-3.733 0-.102.235-.306 1.802-.53l.788-.12.092-.092c.274-.277.393-.777.285-1.215-.083-.348-.302-.603-.598-.699l-.074-.025-.077.007c-1.245.098-3.061.149-5.401.149-2.35 0-4.212-.048-5.862-.15l-.116-.007-.102.058c-.248.143-.418.409-.477.75-.069.407.036.833.275 1.112l.091.105 1.56.277c1.345.227 2.019.34 3.728 3.65l5.988 11.681c1.434 2.763 1.583 3.335 1.583 6.117v2.588c0 5.51-.126 5.793-2.694 6.061l-1.714.164-.098.1c-.289.291-.331.765-.274 1.112.062.374.237.657.48.778l.088.045.099-.004c2.736-.1 4.514-.151 6.636-.151 2.061 0 3.879.057 6.892.151l.098.004.087-.045c.245-.121.421-.408.481-.784.056-.347.011-.82-.28-1.108l-.101-.101-2.07-.162c-2.349-.177-2.686-.564-2.686-6.06v-2.642c0-3.804.108-4.179 2.332-8.027l3.199-5.533c.291-.5.569-.984.835-1.451 1.996-3.488 3.439-6.009 5.596-6.383l1.529-.271.081-.071zm26.92 99.408c0-26.682 16.447-35.332 29.119-35.332 23.271 0 32.165 21.686 32.165 41.791 0 24-13.889 34.969-28.51 34.969-24.001 0-32.774-23.397-32.774-41.428zm-12.183 3.898c0 21.932 16.325 41.305 43.373 41.305 23.516 0 42.278-17.912 42.278-42.523 0-21.442-14.135-41.789-42.278-41.789-25.098 0-43.373 18.642-43.373 43.007zm41.525-86.543c0 10.465-6.189 14.178-11.488 14.178-10.475 0-13.271-10.604-13.271-16.869 0-10.58 6.328-14.333 11.747-14.333 9.605 0 13.012 9.171 13.012 17.024zm5.857-1.577c0-8.573-5.634-17.8-18.007-17.8-10.527 0-18.465 7.872-18.465 18.311 0 8.745 6.343 17.598 18.465 17.598 10.266 0 18.007-7.785 18.007-18.109zm34.075-9.873l.048-.093-.006-.105c-.101-1.836-.157-4.208-.157-6.679v-.488l-.477.108c-.614.141-3.741.141-6.764.141h-9.344c-1.911 0-3.61-.043-5.866-.15l-.099-.005-.091.044c-.42.206-.489.802-.501.98-.029.444.1.796.356.965l.978.162c2.577.311 2.703.591 2.703 6.012v18.276c0 5.368-.126 5.647-2.702 5.958l-1.402.168-.095.094c-.29.286-.335.758-.28 1.104.06.378.234.665.477.788l.091.046.101-.005c2.377-.098 4.09-.151 6.33-.151 2.05 0 3.809.055 6.742.151l.097.004.089-.045c.333-.166.476-.618.498-.986.027-.44-.103-.787-.358-.954l-1.904-.215c-2.588-.219-2.743-.553-2.743-5.957v-7.059c0-.981 0-.981 1.286-.981h3.454c1.781 0 3.109.041 3.79.236.713.227 1.097.693 1.367 1.652l.534 2.103.094.08c.503.432 1.579.408 1.901-.081l.066-.098v-.117c0-.527-.04-1.205-.085-1.959-.055-.921-.117-1.964-.117-2.967 0-1.028.062-2.116.116-3.075.045-.789.086-1.502.086-2.052v-.117l-.066-.098c-.24-.364-.756-.403-.966-.403-.422 0-.788.137-.981.367l-.535 2.194c-.285 1.231-.627 1.353-1.014 1.492-.536.18-2.103.287-4.19.287h-3.454c-1.286 0-1.286 0-1.286-.979V7.597c0-1.641 0-1.641 1.136-1.641h3.096c2.098 0 3.755 0 4.825.294 2.177.566 2.828 2.023 3.268 4.513l.024.137.105.091c.196.168.468.261.768.261.392 0 .87-.165 1.057-.534z" fill="#000" fill-rule="nonzero"/></svg>