<svg width="450" height="199" xmlns="http://www.w3.org/2000/svg"><path d="M148.729 41.186l-45 76.272v51.101c5.339 12.204 18.305 13.73 31.271 14.492v7.627H45.763v-6.864c12.966-.763 28.22-2.289 32.034-10.678v-52.628L32.034 42.712C23.644 28.983 16.017 24.407.763 22.882v-6.865h77.034v6.864c-14.492 1.526-19.068 3.814-22.882 6.865l42.712 73.983 41.95-73.22c-4.577-3.814-10.679-6.102-25.17-7.628v-6.864H180v6.864c-14.492.763-23.644 6.102-31.271 18.305zm90 151.78c-14.492 0-22.119-9.915-22.882-17.542-9.152 9.915-21.355 17.542-32.796 17.542-14.492 0-27.458-9.152-27.458-24.407 0-7.627 2.288-16.017 6.102-22.118l54.915-19.83v-20.594c0-12.203-6.102-24.407-18.305-24.407-7.627 0-14.491 9.153-15.254 22.882l-24.407 3.813v-1.525c8.39-24.407 35.085-34.322 48.814-34.322 25.17 0 34.322 12.966 33.559 33.559l-.763 57.966c0 11.44 6.102 13.729 11.44 13.729 4.577 0 9.153-3.051 13.73-7.627v7.627c-6.102 6.864-16.78 15.254-26.695 15.254zm-54.915-44.237c-.763 4.576-2.289 8.39-2.289 14.491 0 8.39 4.577 16.78 13.73 16.78 8.39 0 12.965-3.05 20.592-8.39v-37.373c-6.864 2.288-24.406 10.678-32.033 14.492zm83.898 41.949v-6.102c12.203-.762 16.017-3.813 18.305-8.39V33.56c0-9.152-1.525-12.966-20.593-14.491v-5.34L315.763.764l1.525 4.576-7.627 9.915v160.932c3.05 5.34 7.627 7.628 19.068 8.39v6.102h-61.017zm126.61 2.288c-28.983 0-51.102-22.881-51.102-54.915 0-38.898 23.644-65.593 57.966-65.593 27.458 0 41.95 15.254 41.95 39.66v4.577l-73.983-.763c-.763 3.051-.763 7.627-.763 13.729 0 28.22 17.542 46.525 41.186 46.525 13.73 0 21.356-4.576 32.034-14.491l3.814 6.102c-15.255 16.017-28.22 25.17-51.102 25.17zm2.288-112.119c-13.729 0-23.644 10.678-26.695 28.22l48.051-.762c.763-13.729-8.39-27.458-21.356-27.458z" fill="#FFF" fill-rule="nonzero"/></svg>