<svg width="208" height="90" xmlns="http://www.w3.org/2000/svg"><path d="M69.355 19.206L48.371 54.773v23.83c2.49 5.69 8.536 6.402 14.582 6.758v3.556H21.34v-3.2c6.047-.356 13.16-1.068 14.938-4.98V56.195l-21.34-36.277C11.026 13.515 7.47 11.382.356 10.67v-3.2h35.922v3.2c-6.758.712-8.891 1.778-10.67 3.201l19.918 34.5 19.562-34.144c-2.135-1.779-4.98-2.845-11.738-3.557v-3.2h30.588v3.2c-6.758.356-11.026 2.845-14.583 8.536zm41.97 70.778c-6.759 0-10.315-4.623-10.671-8.18-4.268 4.624-9.958 8.18-15.293 8.18-6.758 0-12.805-4.268-12.805-11.381 0-3.557 1.067-7.47 2.846-10.314l25.608-9.248v-9.603c0-5.69-2.846-11.382-8.536-11.382-3.557 0-6.758 4.269-7.113 10.67l-11.382 1.779v-.711c3.913-11.382 16.36-16.005 22.763-16.005 11.737 0 16.005 6.046 15.65 15.649l-.356 27.03c0 5.335 2.845 6.403 5.334 6.403 2.135 0 4.268-1.423 6.403-3.557v3.557c-2.846 3.2-7.825 7.113-12.449 7.113zM85.715 69.355c-.355 2.134-1.067 3.913-1.067 6.758 0 3.912 2.134 7.825 6.403 7.825 3.912 0 6.045-1.422 9.602-3.913V62.598c-3.2 1.067-11.381 4.979-14.938 6.757zm39.124 19.563v-2.846c5.69-.356 7.469-1.778 8.536-3.913V15.65c0-4.267-.711-6.046-9.603-6.757v-2.49L147.247.356l.711 2.134-3.556 4.624V82.16c1.422 2.49 3.556 3.557 8.891 3.912v2.846H124.84zm59.04 1.067c-13.515 0-23.83-10.67-23.83-25.609 0-18.139 11.026-30.587 27.032-30.587 12.804 0 19.562 7.113 19.562 18.494v2.134l-34.5-.355c-.356 1.422-.356 3.556-.356 6.402 0 13.16 8.18 21.695 19.206 21.695 6.403 0 9.959-2.134 14.938-6.757l1.779 2.845c-7.114 7.47-13.16 11.738-23.83 11.738zm1.068-52.284c-6.402 0-11.026 4.98-12.449 13.16l22.407-.356c.356-6.402-3.912-12.804-9.958-12.804z" fill="#000" fill-rule="nonzero"/></svg>