<?xml version="1.0" encoding="UTF-8"?>
<svg width="1914px" height="1010px" viewBox="0 0 1914 1010" version="1.1" xmlns="http://www.w3.org/2000/svg" xmlns:xlink="http://www.w3.org/1999/xlink" style="background: #FFFFFF;">
    <title>Slice</title>
    <g id="Page-1" stroke="none" stroke-width="1" fill="none" fill-rule="evenodd">
        <path id="Line" d="M34.5,436.5 C40.446058,436.5 45.3820355,440.824668 46.3341145,446.500187 L50.5,446.5 L50.5,450.5 L46.3339473,450.500809 C45.3814578,456.175838 40.44571,460.5 34.5,460.5 C27.872583,460.5 22.5,455.127417 22.5,448.5 C22.5,441.872583 27.872583,436.5 34.5,436.5 Z M1884.5,436.5 C1891.12742,436.5 1896.5,441.872583 1896.5,448.5 C1896.5,455.127417 1891.12742,460.5 1884.5,460.5 C1878.55429,460.5 1873.61854,456.175838 1872.66605,450.500809 L1868.5,450.5 L1868.5,446.5 L1872.66589,446.500187 C1873.61796,440.824668 1878.55394,436.5 1884.5,436.5 Z M72.5,446.5 L72.5,450.5 L64.5,450.5 L64.5,446.5 L72.5,446.5 Z M83.5,446.5 L83.5,450.5 L75.5,450.5 L75.5,446.5 L83.5,446.5 Z M94.5,446.5 L94.5,450.5 L86.5,450.5 L86.5,446.5 L94.5,446.5 Z M105.5,446.5 L105.5,450.5 L97.5,450.5 L97.5,446.5 L105.5,446.5 Z M116.5,446.5 L116.5,450.5 L108.5,450.5 L108.5,446.5 L116.5,446.5 Z M127.5,446.5 L127.5,450.5 L119.5,450.5 L119.5,446.5 L127.5,446.5 Z M138.5,446.5 L138.5,450.5 L130.5,450.5 L130.5,446.5 L138.5,446.5 Z M149.5,446.5 L149.5,450.5 L141.5,450.5 L141.5,446.5 L149.5,446.5 Z M160.5,446.5 L160.5,450.5 L152.5,450.5 L152.5,446.5 L160.5,446.5 Z M171.5,446.5 L171.5,450.5 L163.5,450.5 L163.5,446.5 L171.5,446.5 Z M182.5,446.5 L182.5,450.5 L174.5,450.5 L174.5,446.5 L182.5,446.5 Z M193.5,446.5 L193.5,450.5 L185.5,450.5 L185.5,446.5 L193.5,446.5 Z M204.5,446.5 L204.5,450.5 L196.5,450.5 L196.5,446.5 L204.5,446.5 Z M215.5,446.5 L215.5,450.5 L207.5,450.5 L207.5,446.5 L215.5,446.5 Z M226.5,446.5 L226.5,450.5 L218.5,450.5 L218.5,446.5 L226.5,446.5 Z M237.5,446.5 L237.5,450.5 L229.5,450.5 L229.5,446.5 L237.5,446.5 Z M248.5,446.5 L248.5,450.5 L240.5,450.5 L240.5,446.5 L248.5,446.5 Z M259.5,446.5 L259.5,450.5 L251.5,450.5 L251.5,446.5 L259.5,446.5 Z M270.5,446.5 L270.5,450.5 L262.5,450.5 L262.5,446.5 L270.5,446.5 Z M281.5,446.5 L281.5,450.5 L273.5,450.5 L273.5,446.5 L281.5,446.5 Z M292.5,446.5 L292.5,450.5 L284.5,450.5 L284.5,446.5 L292.5,446.5 Z M303.5,446.5 L303.5,450.5 L295.5,450.5 L295.5,446.5 L303.5,446.5 Z M314.5,446.5 L314.5,450.5 L306.5,450.5 L306.5,446.5 L314.5,446.5 Z M325.5,446.5 L325.5,450.5 L317.5,450.5 L317.5,446.5 L325.5,446.5 Z M336.5,446.5 L336.5,450.5 L328.5,450.5 L328.5,446.5 L336.5,446.5 Z M347.5,446.5 L347.5,450.5 L339.5,450.5 L339.5,446.5 L347.5,446.5 Z M358.5,446.5 L358.5,450.5 L350.5,450.5 L350.5,446.5 L358.5,446.5 Z M369.5,446.5 L369.5,450.5 L361.5,450.5 L361.5,446.5 L369.5,446.5 Z M380.5,446.5 L380.5,450.5 L372.5,450.5 L372.5,446.5 L380.5,446.5 Z M391.5,446.5 L391.5,450.5 L383.5,450.5 L383.5,446.5 L391.5,446.5 Z M402.5,446.5 L402.5,450.5 L394.5,450.5 L394.5,446.5 L402.5,446.5 Z M413.5,446.5 L413.5,450.5 L405.5,450.5 L405.5,446.5 L413.5,446.5 Z M424.5,446.5 L424.5,450.5 L416.5,450.5 L416.5,446.5 L424.5,446.5 Z M435.5,446.5 L435.5,450.5 L427.5,450.5 L427.5,446.5 L435.5,446.5 Z M446.5,446.5 L446.5,450.5 L438.5,450.5 L438.5,446.5 L446.5,446.5 Z M457.5,446.5 L457.5,450.5 L449.5,450.5 L449.5,446.5 L457.5,446.5 Z M468.5,446.5 L468.5,450.5 L460.5,450.5 L460.5,446.5 L468.5,446.5 Z M479.5,446.5 L479.5,450.5 L471.5,450.5 L471.5,446.5 L479.5,446.5 Z M490.5,446.5 L490.5,450.5 L482.5,450.5 L482.5,446.5 L490.5,446.5 Z M501.5,446.5 L501.5,450.5 L493.5,450.5 L493.5,446.5 L501.5,446.5 Z M512.5,446.5 L512.5,450.5 L504.5,450.5 L504.5,446.5 L512.5,446.5 Z M523.5,446.5 L523.5,450.5 L515.5,450.5 L515.5,446.5 L523.5,446.5 Z M534.5,446.5 L534.5,450.5 L526.5,450.5 L526.5,446.5 L534.5,446.5 Z M545.5,446.5 L545.5,450.5 L537.5,450.5 L537.5,446.5 L545.5,446.5 Z M556.5,446.5 L556.5,450.5 L548.5,450.5 L548.5,446.5 L556.5,446.5 Z M567.5,446.5 L567.5,450.5 L559.5,450.5 L559.5,446.5 L567.5,446.5 Z M578.5,446.5 L578.5,450.5 L570.5,450.5 L570.5,446.5 L578.5,446.5 Z M589.5,446.5 L589.5,450.5 L581.5,450.5 L581.5,446.5 L589.5,446.5 Z M600.5,446.5 L600.5,450.5 L592.5,450.5 L592.5,446.5 L600.5,446.5 Z M611.5,446.5 L611.5,450.5 L603.5,450.5 L603.5,446.5 L611.5,446.5 Z M622.5,446.5 L622.5,450.5 L614.5,450.5 L614.5,446.5 L622.5,446.5 Z M633.5,446.5 L633.5,450.5 L625.5,450.5 L625.5,446.5 L633.5,446.5 Z M644.5,446.5 L644.5,450.5 L636.5,450.5 L636.5,446.5 L644.5,446.5 Z M655.5,446.5 L655.5,450.5 L647.5,450.5 L647.5,446.5 L655.5,446.5 Z M666.5,446.5 L666.5,450.5 L658.5,450.5 L658.5,446.5 L666.5,446.5 Z M677.5,446.5 L677.5,450.5 L669.5,450.5 L669.5,446.5 L677.5,446.5 Z M688.5,446.5 L688.5,450.5 L680.5,450.5 L680.5,446.5 L688.5,446.5 Z M699.5,446.5 L699.5,450.5 L691.5,450.5 L691.5,446.5 L699.5,446.5 Z M710.5,446.5 L710.5,450.5 L702.5,450.5 L702.5,446.5 L710.5,446.5 Z M721.5,446.5 L721.5,450.5 L713.5,450.5 L713.5,446.5 L721.5,446.5 Z M732.5,446.5 L732.5,450.5 L724.5,450.5 L724.5,446.5 L732.5,446.5 Z M743.5,446.5 L743.5,450.5 L735.5,450.5 L735.5,446.5 L743.5,446.5 Z M754.5,446.5 L754.5,450.5 L746.5,450.5 L746.5,446.5 L754.5,446.5 Z M765.5,446.5 L765.5,450.5 L757.5,450.5 L757.5,446.5 L765.5,446.5 Z M776.5,446.5 L776.5,450.5 L768.5,450.5 L768.5,446.5 L776.5,446.5 Z M787.5,446.5 L787.5,450.5 L779.5,450.5 L779.5,446.5 L787.5,446.5 Z M798.5,446.5 L798.5,450.5 L790.5,450.5 L790.5,446.5 L798.5,446.5 Z M809.5,446.5 L809.5,450.5 L801.5,450.5 L801.5,446.5 L809.5,446.5 Z M820.5,446.5 L820.5,450.5 L812.5,450.5 L812.5,446.5 L820.5,446.5 Z M831.5,446.5 L831.5,450.5 L823.5,450.5 L823.5,446.5 L831.5,446.5 Z M842.5,446.5 L842.5,450.5 L834.5,450.5 L834.5,446.5 L842.5,446.5 Z M853.5,446.5 L853.5,450.5 L845.5,450.5 L845.5,446.5 L853.5,446.5 Z M864.5,446.5 L864.5,450.5 L856.5,450.5 L856.5,446.5 L864.5,446.5 Z M875.5,446.5 L875.5,450.5 L867.5,450.5 L867.5,446.5 L875.5,446.5 Z M886.5,446.5 L886.5,450.5 L878.5,450.5 L878.5,446.5 L886.5,446.5 Z M897.5,446.5 L897.5,450.5 L889.5,450.5 L889.5,446.5 L897.5,446.5 Z M908.5,446.5 L908.5,450.5 L900.5,450.5 L900.5,446.5 L908.5,446.5 Z M919.5,446.5 L919.5,450.5 L911.5,450.5 L911.5,446.5 L919.5,446.5 Z M930.5,446.5 L930.5,450.5 L922.5,450.5 L922.5,446.5 L930.5,446.5 Z M941.5,446.5 L941.5,450.5 L933.5,450.5 L933.5,446.5 L941.5,446.5 Z M952.5,446.5 L952.5,450.5 L944.5,450.5 L944.5,446.5 L952.5,446.5 Z M963.5,446.5 L963.5,450.5 L955.5,450.5 L955.5,446.5 L963.5,446.5 Z M61.5,446.5 L61.5,450.5 L53.5,450.5 L53.5,446.5 L61.5,446.5 Z M985.5,446.5 L985.5,450.5 L977.5,450.5 L977.5,446.5 L985.5,446.5 Z M996.5,446.5 L996.5,450.5 L988.5,450.5 L988.5,446.5 L996.5,446.5 Z M1007.5,446.5 L1007.5,450.5 L999.5,450.5 L999.5,446.5 L1007.5,446.5 Z M1018.5,446.5 L1018.5,450.5 L1010.5,450.5 L1010.5,446.5 L1018.5,446.5 Z M1029.5,446.5 L1029.5,450.5 L1021.5,450.5 L1021.5,446.5 L1029.5,446.5 Z M1040.5,446.5 L1040.5,450.5 L1032.5,450.5 L1032.5,446.5 L1040.5,446.5 Z M1051.5,446.5 L1051.5,450.5 L1043.5,450.5 L1043.5,446.5 L1051.5,446.5 Z M1062.5,446.5 L1062.5,450.5 L1054.5,450.5 L1054.5,446.5 L1062.5,446.5 Z M1073.5,446.5 L1073.5,450.5 L1065.5,450.5 L1065.5,446.5 L1073.5,446.5 Z M1084.5,446.5 L1084.5,450.5 L1076.5,450.5 L1076.5,446.5 L1084.5,446.5 Z M1095.5,446.5 L1095.5,450.5 L1087.5,450.5 L1087.5,446.5 L1095.5,446.5 Z M1106.5,446.5 L1106.5,450.5 L1098.5,450.5 L1098.5,446.5 L1106.5,446.5 Z M1117.5,446.5 L1117.5,450.5 L1109.5,450.5 L1109.5,446.5 L1117.5,446.5 Z M1128.5,446.5 L1128.5,450.5 L1120.5,450.5 L1120.5,446.5 L1128.5,446.5 Z M1139.5,446.5 L1139.5,450.5 L1131.5,450.5 L1131.5,446.5 L1139.5,446.5 Z M1150.5,446.5 L1150.5,450.5 L1142.5,450.5 L1142.5,446.5 L1150.5,446.5 Z M1161.5,446.5 L1161.5,450.5 L1153.5,450.5 L1153.5,446.5 L1161.5,446.5 Z M1172.5,446.5 L1172.5,450.5 L1164.5,450.5 L1164.5,446.5 L1172.5,446.5 Z M1183.5,446.5 L1183.5,450.5 L1175.5,450.5 L1175.5,446.5 L1183.5,446.5 Z M1194.5,446.5 L1194.5,450.5 L1186.5,450.5 L1186.5,446.5 L1194.5,446.5 Z M1205.5,446.5 L1205.5,450.5 L1197.5,450.5 L1197.5,446.5 L1205.5,446.5 Z M1216.5,446.5 L1216.5,450.5 L1208.5,450.5 L1208.5,446.5 L1216.5,446.5 Z M1227.5,446.5 L1227.5,450.5 L1219.5,450.5 L1219.5,446.5 L1227.5,446.5 Z M1238.5,446.5 L1238.5,450.5 L1230.5,450.5 L1230.5,446.5 L1238.5,446.5 Z M1249.5,446.5 L1249.5,450.5 L1241.5,450.5 L1241.5,446.5 L1249.5,446.5 Z M1260.5,446.5 L1260.5,450.5 L1252.5,450.5 L1252.5,446.5 L1260.5,446.5 Z M1271.5,446.5 L1271.5,450.5 L1263.5,450.5 L1263.5,446.5 L1271.5,446.5 Z M1282.5,446.5 L1282.5,450.5 L1274.5,450.5 L1274.5,446.5 L1282.5,446.5 Z M1293.5,446.5 L1293.5,450.5 L1285.5,450.5 L1285.5,446.5 L1293.5,446.5 Z M1304.5,446.5 L1304.5,450.5 L1296.5,450.5 L1296.5,446.5 L1304.5,446.5 Z M1315.5,446.5 L1315.5,450.5 L1307.5,450.5 L1307.5,446.5 L1315.5,446.5 Z M1326.5,446.5 L1326.5,450.5 L1318.5,450.5 L1318.5,446.5 L1326.5,446.5 Z M1337.5,446.5 L1337.5,450.5 L1329.5,450.5 L1329.5,446.5 L1337.5,446.5 Z M1348.5,446.5 L1348.5,450.5 L1340.5,450.5 L1340.5,446.5 L1348.5,446.5 Z M1359.5,446.5 L1359.5,450.5 L1351.5,450.5 L1351.5,446.5 L1359.5,446.5 Z M1370.5,446.5 L1370.5,450.5 L1362.5,450.5 L1362.5,446.5 L1370.5,446.5 Z M1381.5,446.5 L1381.5,450.5 L1373.5,450.5 L1373.5,446.5 L1381.5,446.5 Z M1392.5,446.5 L1392.5,450.5 L1384.5,450.5 L1384.5,446.5 L1392.5,446.5 Z M1403.5,446.5 L1403.5,450.5 L1395.5,450.5 L1395.5,446.5 L1403.5,446.5 Z M1414.5,446.5 L1414.5,450.5 L1406.5,450.5 L1406.5,446.5 L1414.5,446.5 Z M1425.5,446.5 L1425.5,450.5 L1417.5,450.5 L1417.5,446.5 L1425.5,446.5 Z M1436.5,446.5 L1436.5,450.5 L1428.5,450.5 L1428.5,446.5 L1436.5,446.5 Z M1447.5,446.5 L1447.5,450.5 L1439.5,450.5 L1439.5,446.5 L1447.5,446.5 Z M1458.5,446.5 L1458.5,450.5 L1450.5,450.5 L1450.5,446.5 L1458.5,446.5 Z M1469.5,446.5 L1469.5,450.5 L1461.5,450.5 L1461.5,446.5 L1469.5,446.5 Z M1480.5,446.5 L1480.5,450.5 L1472.5,450.5 L1472.5,446.5 L1480.5,446.5 Z M1491.5,446.5 L1491.5,450.5 L1483.5,450.5 L1483.5,446.5 L1491.5,446.5 Z M1502.5,446.5 L1502.5,450.5 L1494.5,450.5 L1494.5,446.5 L1502.5,446.5 Z M1513.5,446.5 L1513.5,450.5 L1505.5,450.5 L1505.5,446.5 L1513.5,446.5 Z M1524.5,446.5 L1524.5,450.5 L1516.5,450.5 L1516.5,446.5 L1524.5,446.5 Z M1535.5,446.5 L1535.5,450.5 L1527.5,450.5 L1527.5,446.5 L1535.5,446.5 Z M1546.5,446.5 L1546.5,450.5 L1538.5,450.5 L1538.5,446.5 L1546.5,446.5 Z M1557.5,446.5 L1557.5,450.5 L1549.5,450.5 L1549.5,446.5 L1557.5,446.5 Z M1568.5,446.5 L1568.5,450.5 L1560.5,450.5 L1560.5,446.5 L1568.5,446.5 Z M1579.5,446.5 L1579.5,450.5 L1571.5,450.5 L1571.5,446.5 L1579.5,446.5 Z M1590.5,446.5 L1590.5,450.5 L1582.5,450.5 L1582.5,446.5 L1590.5,446.5 Z M1601.5,446.5 L1601.5,450.5 L1593.5,450.5 L1593.5,446.5 L1601.5,446.5 Z M1612.5,446.5 L1612.5,450.5 L1604.5,450.5 L1604.5,446.5 L1612.5,446.5 Z M1623.5,446.5 L1623.5,450.5 L1615.5,450.5 L1615.5,446.5 L1623.5,446.5 Z M1634.5,446.5 L1634.5,450.5 L1626.5,450.5 L1626.5,446.5 L1634.5,446.5 Z M1645.5,446.5 L1645.5,450.5 L1637.5,450.5 L1637.5,446.5 L1645.5,446.5 Z M1656.5,446.5 L1656.5,450.5 L1648.5,450.5 L1648.5,446.5 L1656.5,446.5 Z M1667.5,446.5 L1667.5,450.5 L1659.5,450.5 L1659.5,446.5 L1667.5,446.5 Z M1678.5,446.5 L1678.5,450.5 L1670.5,450.5 L1670.5,446.5 L1678.5,446.5 Z M1689.5,446.5 L1689.5,450.5 L1681.5,450.5 L1681.5,446.5 L1689.5,446.5 Z M1700.5,446.5 L1700.5,450.5 L1692.5,450.5 L1692.5,446.5 L1700.5,446.5 Z M1711.5,446.5 L1711.5,450.5 L1703.5,450.5 L1703.5,446.5 L1711.5,446.5 Z M1722.5,446.5 L1722.5,450.5 L1714.5,450.5 L1714.5,446.5 L1722.5,446.5 Z M1733.5,446.5 L1733.5,450.5 L1725.5,450.5 L1725.5,446.5 L1733.5,446.5 Z M1744.5,446.5 L1744.5,450.5 L1736.5,450.5 L1736.5,446.5 L1744.5,446.5 Z M1755.5,446.5 L1755.5,450.5 L1747.5,450.5 L1747.5,446.5 L1755.5,446.5 Z M1766.5,446.5 L1766.5,450.5 L1758.5,450.5 L1758.5,446.5 L1766.5,446.5 Z M1777.5,446.5 L1777.5,450.5 L1769.5,450.5 L1769.5,446.5 L1777.5,446.5 Z M1788.5,446.5 L1788.5,450.5 L1780.5,450.5 L1780.5,446.5 L1788.5,446.5 Z M1799.5,446.5 L1799.5,450.5 L1791.5,450.5 L1791.5,446.5 L1799.5,446.5 Z M1810.5,446.5 L1810.5,450.5 L1802.5,450.5 L1802.5,446.5 L1810.5,446.5 Z M1821.5,446.5 L1821.5,450.5 L1813.5,450.5 L1813.5,446.5 L1821.5,446.5 Z M1832.5,446.5 L1832.5,450.5 L1824.5,450.5 L1824.5,446.5 L1832.5,446.5 Z M1843.5,446.5 L1843.5,450.5 L1835.5,450.5 L1835.5,446.5 L1843.5,446.5 Z M1854.5,446.5 L1854.5,450.5 L1846.5,450.5 L1846.5,446.5 L1854.5,446.5 Z M1865.5,446.5 L1865.5,450.5 L1857.5,450.5 L1857.5,446.5 L1865.5,446.5 Z M974.5,446.5 L974.5,450.5 L966.5,450.5 L966.5,446.5 L974.5,446.5 Z" fill="#96C2A6" fill-rule="nonzero"></path>
        <path id="Line-Copy" d="M1707.9414,568.997534 L1707.94872,570.997521 L1707.95645,573.15864 C1713.63542,574.089923 1717.97814,579.010026 1717.99992,584.956044 C1718.0242,591.583417 1712.67133,596.975643 1706.04396,596.999919 C1699.41658,597.024196 1694.02436,591.671328 1694.00008,585.043956 C1693.9783,579.098176 1698.28451,574.146549 1703.95617,573.173407 L1703.94875,571.012173 L1703.94142,569.012186 L1707.9414,568.997534 Z M1707.9011,557.997608 L1707.90843,559.997595 L1707.92308,563.997568 L1707.93041,565.997555 L1703.93043,566.012206 L1703.92311,564.01222 L1703.90846,560.012247 L1703.90113,558.01226 L1707.9011,557.997608 Z M1707.86081,546.997682 L1707.86814,548.997669 L1707.88279,552.997642 L1707.89011,554.997628 L1703.89014,555.01228 L1703.88282,553.012294 L1703.86816,549.01232 L1703.86084,547.012334 L1707.86081,546.997682 Z M1707.82052,535.997756 L1707.82784,537.997742 L1707.8425,541.997716 L1707.84982,543.997702 L1703.84985,544.012354 L1703.84252,542.012367 L1703.82787,538.012394 L1703.82054,536.012408 L1707.82052,535.997756 Z M1707.78023,524.99783 L1707.78755,526.997816 L1707.8022,530.997789 L1707.80953,532.997776 L1703.80956,533.012428 L1703.80223,531.012441 L1703.78758,527.012468 L1703.78025,525.012482 L1707.78023,524.99783 Z M1707.73993,513.997903 L1707.74726,515.99789 L1707.76191,519.997863 L1707.76924,521.99785 L1703.76926,522.012502 L1703.76194,520.012515 L1703.74729,516.012542 L1703.73996,514.012555 L1707.73993,513.997903 Z M1707.69964,502.997977 L1707.70697,504.997964 L1707.72162,508.997937 L1707.72894,510.997924 L1703.72897,511.012575 L1703.72164,509.012589 L1703.70699,505.012616 L1703.69967,503.012629 L1707.69964,502.997977 Z M1707.65935,491.998051 L1707.66667,493.998038 L1707.68132,497.998011 L1707.68865,499.997997 L1703.68868,500.012649 L1703.68135,498.012663 L1703.6667,494.012689 L1703.65937,492.012703 L1707.65935,491.998051 Z M1707.61905,480.998125 L1707.62638,482.998111 L1707.64103,486.998085 L1707.64836,488.998071 L1703.64838,489.012723 L1703.64106,487.012736 L1703.62641,483.012763 L1703.61908,481.012777 L1707.61905,480.998125 Z M1707.57876,469.998199 L1707.58609,471.998185 L1707.60074,475.998158 L1707.60807,477.998145 L1703.60809,478.012797 L1703.60077,476.01281 L1703.58611,472.012837 L1703.57879,470.01285 L1707.57876,469.998199 Z M1705.45604,436.500081 C1712.08342,436.475804 1717.47564,441.828672 1717.49992,448.456044 C1717.5217,454.401824 1713.21549,459.353451 1707.54383,460.326593 L1707.54579,460.998259 L1707.56045,464.998232 L1707.56777,466.998219 L1703.5678,467.012871 L1703.56047,465.012884 L1703.54582,461.012911 L1703.54355,460.34136 C1697.86458,459.410077 1693.52186,454.489974 1693.50008,448.543956 C1693.4758,441.916583 1698.82867,436.524357 1705.45604,436.500081 Z" fill="#96C2A6" fill-rule="nonzero"></path>
        <path id="Line-Copy-2" d="M1496.9414,568.997534 L1496.94872,570.997521 L1496.95645,573.15864 C1502.63542,574.089923 1506.97814,579.010026 1506.99992,584.956044 C1507.0242,591.583417 1501.67133,596.975643 1495.04396,596.999919 C1488.41658,597.024196 1483.02436,591.671328 1483.00008,585.043956 C1482.9783,579.098176 1487.28451,574.146549 1492.95617,573.173407 L1492.94875,571.012173 L1492.94142,569.012186 L1496.9414,568.997534 Z M1496.9011,557.997608 L1496.90843,559.997595 L1496.92308,563.997568 L1496.93041,565.997555 L1492.93043,566.012206 L1492.92311,564.01222 L1492.90846,560.012247 L1492.90113,558.01226 L1496.9011,557.997608 Z M1496.86081,546.997682 L1496.86814,548.997669 L1496.88279,552.997642 L1496.89011,554.997628 L1492.89014,555.01228 L1492.88282,553.012294 L1492.86816,549.01232 L1492.86084,547.012334 L1496.86081,546.997682 Z M1496.82052,535.997756 L1496.82784,537.997742 L1496.8425,541.997716 L1496.84982,543.997702 L1492.84985,544.012354 L1492.84252,542.012367 L1492.82787,538.012394 L1492.82054,536.012408 L1496.82052,535.997756 Z M1496.78023,524.99783 L1496.78755,526.997816 L1496.8022,530.997789 L1496.80953,532.997776 L1492.80956,533.012428 L1492.80223,531.012441 L1492.78758,527.012468 L1492.78025,525.012482 L1496.78023,524.99783 Z M1496.73993,513.997903 L1496.74726,515.99789 L1496.76191,519.997863 L1496.76924,521.99785 L1492.76926,522.012502 L1492.76194,520.012515 L1492.74729,516.012542 L1492.73996,514.012555 L1496.73993,513.997903 Z M1496.69964,502.997977 L1496.70697,504.997964 L1496.72162,508.997937 L1496.72894,510.997924 L1492.72897,511.012575 L1492.72164,509.012589 L1492.70699,505.012616 L1492.69967,503.012629 L1496.69964,502.997977 Z M1496.65935,491.998051 L1496.66667,493.998038 L1496.68132,497.998011 L1496.68865,499.997997 L1492.68868,500.012649 L1492.68135,498.012663 L1492.6667,494.012689 L1492.65937,492.012703 L1496.65935,491.998051 Z M1496.61905,480.998125 L1496.62638,482.998111 L1496.64103,486.998085 L1496.64836,488.998071 L1492.64838,489.012723 L1492.64106,487.012736 L1492.62641,483.012763 L1492.61908,481.012777 L1496.61905,480.998125 Z M1496.57876,469.998199 L1496.58609,471.998185 L1496.60074,475.998158 L1496.60807,477.998145 L1492.60809,478.012797 L1492.60077,476.01281 L1492.58611,472.012837 L1492.57879,470.01285 L1496.57876,469.998199 Z M1494.45604,436.500081 C1501.08342,436.475804 1506.47564,441.828672 1506.49992,448.456044 C1506.5217,454.401824 1502.21549,459.353451 1496.54383,460.326593 L1496.54579,460.998259 L1496.56045,464.998232 L1496.56777,466.998219 L1492.5678,467.012871 L1492.56047,465.012884 L1492.54582,461.012911 L1492.54355,460.34136 C1486.86458,459.410077 1482.52186,454.489974 1482.50008,448.543956 C1482.4758,441.916583 1487.82867,436.524357 1494.45604,436.500081 Z" fill="#96C2A6" fill-rule="nonzero"></path>
        <path id="Line-Copy-3" d="M1313.9414,568.997534 L1313.94872,570.997521 L1313.95645,573.15864 C1319.63542,574.089923 1323.97814,579.010026 1323.99992,584.956044 C1324.0242,591.583417 1318.67133,596.975643 1312.04396,596.999919 C1305.41658,597.024196 1300.02436,591.671328 1300.00008,585.043956 C1299.9783,579.098176 1304.28451,574.146549 1309.95617,573.173407 L1309.94875,571.012173 L1309.94142,569.012186 L1313.9414,568.997534 Z M1313.9011,557.997608 L1313.90843,559.997595 L1313.92308,563.997568 L1313.93041,565.997555 L1309.93043,566.012206 L1309.92311,564.01222 L1309.90846,560.012247 L1309.90113,558.01226 L1313.9011,557.997608 Z M1313.86081,546.997682 L1313.86814,548.997669 L1313.88279,552.997642 L1313.89011,554.997628 L1309.89014,555.01228 L1309.88282,553.012294 L1309.86816,549.01232 L1309.86084,547.012334 L1313.86081,546.997682 Z M1313.82052,535.997756 L1313.82784,537.997742 L1313.8425,541.997716 L1313.84982,543.997702 L1309.84985,544.012354 L1309.84252,542.012367 L1309.82787,538.012394 L1309.82054,536.012408 L1313.82052,535.997756 Z M1313.78023,524.99783 L1313.78755,526.997816 L1313.8022,530.997789 L1313.80953,532.997776 L1309.80956,533.012428 L1309.80223,531.012441 L1309.78758,527.012468 L1309.78025,525.012482 L1313.78023,524.99783 Z M1313.73993,513.997903 L1313.74726,515.99789 L1313.76191,519.997863 L1313.76924,521.99785 L1309.76926,522.012502 L1309.76194,520.012515 L1309.74729,516.012542 L1309.73996,514.012555 L1313.73993,513.997903 Z M1313.69964,502.997977 L1313.70697,504.997964 L1313.72162,508.997937 L1313.72894,510.997924 L1309.72897,511.012575 L1309.72164,509.012589 L1309.70699,505.012616 L1309.69967,503.012629 L1313.69964,502.997977 Z M1313.65935,491.998051 L1313.66667,493.998038 L1313.68132,497.998011 L1313.68865,499.997997 L1309.68868,500.012649 L1309.68135,498.012663 L1309.6667,494.012689 L1309.65937,492.012703 L1313.65935,491.998051 Z M1313.61905,480.998125 L1313.62638,482.998111 L1313.64103,486.998085 L1313.64836,488.998071 L1309.64838,489.012723 L1309.64106,487.012736 L1309.62641,483.012763 L1309.61908,481.012777 L1313.61905,480.998125 Z M1313.57876,469.998199 L1313.58609,471.998185 L1313.60074,475.998158 L1313.60807,477.998145 L1309.60809,478.012797 L1309.60077,476.01281 L1309.58611,472.012837 L1309.57879,470.01285 L1313.57876,469.998199 Z M1311.45604,436.500081 C1318.08342,436.475804 1323.47564,441.828672 1323.49992,448.456044 C1323.5217,454.401824 1319.21549,459.353451 1313.54383,460.326593 L1313.54579,460.998259 L1313.56045,464.998232 L1313.56777,466.998219 L1309.5678,467.012871 L1309.56047,465.012884 L1309.54582,461.012911 L1309.54355,460.34136 C1303.86458,459.410077 1299.52186,454.489974 1299.50008,448.543956 C1299.4758,441.916583 1304.82867,436.524357 1311.45604,436.500081 Z" fill="#96C2A6" fill-rule="nonzero"></path>
        <path id="Line-Copy-4" d="M1162.9414,568.997534 L1162.94872,570.997521 L1162.95645,573.15864 C1168.63542,574.089923 1172.97814,579.010026 1172.99992,584.956044 C1173.0242,591.583417 1167.67133,596.975643 1161.04396,596.999919 C1154.41658,597.024196 1149.02436,591.671328 1149.00008,585.043956 C1148.9783,579.098176 1153.28451,574.146549 1158.95617,573.173407 L1158.94875,571.012173 L1158.94142,569.012186 L1162.9414,568.997534 Z M1162.9011,557.997608 L1162.90843,559.997595 L1162.92308,563.997568 L1162.93041,565.997555 L1158.93043,566.012206 L1158.92311,564.01222 L1158.90846,560.012247 L1158.90113,558.01226 L1162.9011,557.997608 Z M1162.86081,546.997682 L1162.86814,548.997669 L1162.88279,552.997642 L1162.89011,554.997628 L1158.89014,555.01228 L1158.88282,553.012294 L1158.86816,549.01232 L1158.86084,547.012334 L1162.86081,546.997682 Z M1162.82052,535.997756 L1162.82784,537.997742 L1162.8425,541.997716 L1162.84982,543.997702 L1158.84985,544.012354 L1158.84252,542.012367 L1158.82787,538.012394 L1158.82054,536.012408 L1162.82052,535.997756 Z M1162.78023,524.99783 L1162.78755,526.997816 L1162.8022,530.997789 L1162.80953,532.997776 L1158.80956,533.012428 L1158.80223,531.012441 L1158.78758,527.012468 L1158.78025,525.012482 L1162.78023,524.99783 Z M1162.73993,513.997903 L1162.74726,515.99789 L1162.76191,519.997863 L1162.76924,521.99785 L1158.76926,522.012502 L1158.76194,520.012515 L1158.74729,516.012542 L1158.73996,514.012555 L1162.73993,513.997903 Z M1162.69964,502.997977 L1162.70697,504.997964 L1162.72162,508.997937 L1162.72894,510.997924 L1158.72897,511.012575 L1158.72164,509.012589 L1158.70699,505.012616 L1158.69967,503.012629 L1162.69964,502.997977 Z M1162.65935,491.998051 L1162.66667,493.998038 L1162.68132,497.998011 L1162.68865,499.997997 L1158.68868,500.012649 L1158.68135,498.012663 L1158.6667,494.012689 L1158.65937,492.012703 L1162.65935,491.998051 Z M1162.61905,480.998125 L1162.62638,482.998111 L1162.64103,486.998085 L1162.64836,488.998071 L1158.64838,489.012723 L1158.64106,487.012736 L1158.62641,483.012763 L1158.61908,481.012777 L1162.61905,480.998125 Z M1162.57876,469.998199 L1162.58609,471.998185 L1162.60074,475.998158 L1162.60807,477.998145 L1158.60809,478.012797 L1158.60077,476.01281 L1158.58611,472.012837 L1158.57879,470.01285 L1162.57876,469.998199 Z M1160.45604,436.500081 C1167.08342,436.475804 1172.47564,441.828672 1172.49992,448.456044 C1172.5217,454.401824 1168.21549,459.353451 1162.54383,460.326593 L1162.54579,460.998259 L1162.56045,464.998232 L1162.56777,466.998219 L1158.5678,467.012871 L1158.56047,465.012884 L1158.54582,461.012911 L1158.54355,460.34136 C1152.86458,459.410077 1148.52186,454.489974 1148.50008,448.543956 C1148.4758,441.916583 1153.82867,436.524357 1160.45604,436.500081 Z" fill="#96C2A6" fill-rule="nonzero"></path>
        <path id="Line-Copy-5" d="M982.941396,568.997534 L982.948722,570.997521 L982.956451,573.15864 C988.635419,574.089923 992.978139,579.010026 992.999919,584.956044 C993.024196,591.583417 987.671328,596.975643 981.043956,596.999919 C974.416583,597.024196 969.024357,591.671328 969.000081,585.043956 C968.978301,579.098176 973.284514,574.146549 978.956171,573.173407 L978.948749,571.012173 L978.941423,569.012186 L982.941396,568.997534 Z M982.901104,557.997608 L982.90843,559.997595 L982.923081,563.997568 L982.930407,565.997555 L978.930434,566.012206 L978.923108,564.01222 L978.908456,560.012247 L978.90113,558.01226 L982.901104,557.997608 Z M982.860811,546.997682 L982.868137,548.997669 L982.882789,552.997642 L982.890115,554.997628 L978.890141,555.01228 L978.882815,553.012294 L978.868164,549.01232 L978.860838,547.012334 L982.860811,546.997682 Z M982.820518,535.997756 L982.827844,537.997742 L982.842496,541.997716 L982.849822,543.997702 L978.849849,544.012354 L978.842523,542.012367 L978.827871,538.012394 L978.820545,536.012408 L982.820518,535.997756 Z M982.780225,524.99783 L982.787551,526.997816 L982.802203,530.997789 L982.809529,532.997776 L978.809556,533.012428 L978.80223,531.012441 L978.787578,527.012468 L978.780252,525.012482 L982.780225,524.99783 Z M982.739932,513.997903 L982.747258,515.99789 L982.76191,519.997863 L982.769236,521.99785 L978.769263,522.012502 L978.761937,520.012515 L978.747285,516.012542 L978.739959,514.012555 L982.739932,513.997903 Z M982.69964,502.997977 L982.706966,504.997964 L982.721618,508.997937 L982.728944,510.997924 L978.72897,511.012575 L978.721644,509.012589 L978.706993,505.012616 L978.699667,503.012629 L982.69964,502.997977 Z M982.659347,491.998051 L982.666673,493.998038 L982.681325,497.998011 L982.688651,499.997997 L978.688678,500.012649 L978.681352,498.012663 L978.6667,494.012689 L978.659374,492.012703 L982.659347,491.998051 Z M982.619054,480.998125 L982.62638,482.998111 L982.641032,486.998085 L982.648358,488.998071 L978.648385,489.012723 L978.641059,487.012736 L978.626407,483.012763 L978.619081,481.012777 L982.619054,480.998125 Z M982.578761,469.998199 L982.586087,471.998185 L982.600739,475.998158 L982.608065,477.998145 L978.608092,478.012797 L978.600766,476.01281 L978.586114,472.012837 L978.578788,470.01285 L982.578761,469.998199 Z M980.456044,436.500081 C987.083417,436.475804 992.475643,441.828672 992.499919,448.456044 C992.521699,454.401824 988.215486,459.353451 982.543829,460.326593 L982.545795,460.998259 L982.560447,464.998232 L982.567772,466.998219 L978.567799,467.012871 L978.560473,465.012884 L978.545821,461.012911 L978.543549,460.34136 C972.864581,459.410077 968.521861,454.489974 968.500081,448.543956 C968.475804,441.916583 973.828672,436.524357 980.456044,436.500081 Z" fill="#96C2A6" fill-rule="nonzero"></path>
        <path id="Line-Copy-6" d="M795.941396,568.997534 L795.948722,570.997521 L795.956451,573.15864 C801.635419,574.089923 805.978139,579.010026 805.999919,584.956044 C806.024196,591.583417 800.671328,596.975643 794.043956,596.999919 C787.416583,597.024196 782.024357,591.671328 782.000081,585.043956 C781.978301,579.098176 786.284514,574.146549 791.956171,573.173407 L791.948749,571.012173 L791.941423,569.012186 L795.941396,568.997534 Z M795.901104,557.997608 L795.90843,559.997595 L795.923081,563.997568 L795.930407,565.997555 L791.930434,566.012206 L791.923108,564.01222 L791.908456,560.012247 L791.90113,558.01226 L795.901104,557.997608 Z M795.860811,546.997682 L795.868137,548.997669 L795.882789,552.997642 L795.890115,554.997628 L791.890141,555.01228 L791.882815,553.012294 L791.868164,549.01232 L791.860838,547.012334 L795.860811,546.997682 Z M795.820518,535.997756 L795.827844,537.997742 L795.842496,541.997716 L795.849822,543.997702 L791.849849,544.012354 L791.842523,542.012367 L791.827871,538.012394 L791.820545,536.012408 L795.820518,535.997756 Z M795.780225,524.99783 L795.787551,526.997816 L795.802203,530.997789 L795.809529,532.997776 L791.809556,533.012428 L791.80223,531.012441 L791.787578,527.012468 L791.780252,525.012482 L795.780225,524.99783 Z M795.739932,513.997903 L795.747258,515.99789 L795.76191,519.997863 L795.769236,521.99785 L791.769263,522.012502 L791.761937,520.012515 L791.747285,516.012542 L791.739959,514.012555 L795.739932,513.997903 Z M795.69964,502.997977 L795.706966,504.997964 L795.721618,508.997937 L795.728944,510.997924 L791.72897,511.012575 L791.721644,509.012589 L791.706993,505.012616 L791.699667,503.012629 L795.69964,502.997977 Z M795.659347,491.998051 L795.666673,493.998038 L795.681325,497.998011 L795.688651,499.997997 L791.688678,500.012649 L791.681352,498.012663 L791.6667,494.012689 L791.659374,492.012703 L795.659347,491.998051 Z M795.619054,480.998125 L795.62638,482.998111 L795.641032,486.998085 L795.648358,488.998071 L791.648385,489.012723 L791.641059,487.012736 L791.626407,483.012763 L791.619081,481.012777 L795.619054,480.998125 Z M795.578761,469.998199 L795.586087,471.998185 L795.600739,475.998158 L795.608065,477.998145 L791.608092,478.012797 L791.600766,476.01281 L791.586114,472.012837 L791.578788,470.01285 L795.578761,469.998199 Z M793.456044,436.500081 C800.083417,436.475804 805.475643,441.828672 805.499919,448.456044 C805.521699,454.401824 801.215486,459.353451 795.543829,460.326593 L795.545795,460.998259 L795.560447,464.998232 L795.567772,466.998219 L791.567799,467.012871 L791.560473,465.012884 L791.545821,461.012911 L791.543549,460.34136 C785.864581,459.410077 781.521861,454.489974 781.500081,448.543956 C781.475804,441.916583 786.828672,436.524357 793.456044,436.500081 Z" fill="#96C2A6" fill-rule="nonzero"></path>
        <path id="Line-Copy-7" d="M523.941396,568.997534 L523.948722,570.997521 L523.956451,573.15864 C529.635419,574.089923 533.978139,579.010026 533.999919,584.956044 C534.024196,591.583417 528.671328,596.975643 522.043956,596.999919 C515.416583,597.024196 510.024357,591.671328 510.000081,585.043956 C509.978301,579.098176 514.284514,574.146549 519.956171,573.173407 L519.948749,571.012173 L519.941423,569.012186 L523.941396,568.997534 Z M523.901104,557.997608 L523.90843,559.997595 L523.923081,563.997568 L523.930407,565.997555 L519.930434,566.012206 L519.923108,564.01222 L519.908456,560.012247 L519.90113,558.01226 L523.901104,557.997608 Z M523.860811,546.997682 L523.868137,548.997669 L523.882789,552.997642 L523.890115,554.997628 L519.890141,555.01228 L519.882815,553.012294 L519.868164,549.01232 L519.860838,547.012334 L523.860811,546.997682 Z M523.820518,535.997756 L523.827844,537.997742 L523.842496,541.997716 L523.849822,543.997702 L519.849849,544.012354 L519.842523,542.012367 L519.827871,538.012394 L519.820545,536.012408 L523.820518,535.997756 Z M523.780225,524.99783 L523.787551,526.997816 L523.802203,530.997789 L523.809529,532.997776 L519.809556,533.012428 L519.80223,531.012441 L519.787578,527.012468 L519.780252,525.012482 L523.780225,524.99783 Z M523.739932,513.997903 L523.747258,515.99789 L523.76191,519.997863 L523.769236,521.99785 L519.769263,522.012502 L519.761937,520.012515 L519.747285,516.012542 L519.739959,514.012555 L523.739932,513.997903 Z M523.69964,502.997977 L523.706966,504.997964 L523.721618,508.997937 L523.728944,510.997924 L519.72897,511.012575 L519.721644,509.012589 L519.706993,505.012616 L519.699667,503.012629 L523.69964,502.997977 Z M523.659347,491.998051 L523.666673,493.998038 L523.681325,497.998011 L523.688651,499.997997 L519.688678,500.012649 L519.681352,498.012663 L519.6667,494.012689 L519.659374,492.012703 L523.659347,491.998051 Z M523.619054,480.998125 L523.62638,482.998111 L523.641032,486.998085 L523.648358,488.998071 L519.648385,489.012723 L519.641059,487.012736 L519.626407,483.012763 L519.619081,481.012777 L523.619054,480.998125 Z M523.578761,469.998199 L523.586087,471.998185 L523.600739,475.998158 L523.608065,477.998145 L519.608092,478.012797 L519.600766,476.01281 L519.586114,472.012837 L519.578788,470.01285 L523.578761,469.998199 Z M521.456044,436.500081 C528.083417,436.475804 533.475643,441.828672 533.499919,448.456044 C533.521699,454.401824 529.215486,459.353451 523.543829,460.326593 L523.545795,460.998259 L523.560447,464.998232 L523.567772,466.998219 L519.567799,467.012871 L519.560473,465.012884 L519.545821,461.012911 L519.543549,460.34136 C513.864581,459.410077 509.521861,454.489974 509.500081,448.543956 C509.475804,441.916583 514.828672,436.524357 521.456044,436.500081 Z" fill="#96C2A6" fill-rule="nonzero"></path>
        <path id="Line-Copy-8" d="M164.941396,568.997534 L164.948722,570.997521 L164.956451,573.15864 C170.635419,574.089923 174.978139,579.010026 174.999919,584.956044 C175.024196,591.583417 169.671328,596.975643 163.043956,596.999919 C156.416583,597.024196 151.024357,591.671328 151.000081,585.043956 C150.978301,579.098176 155.284514,574.146549 160.956171,573.173407 L160.948749,571.012173 L160.941423,569.012186 L164.941396,568.997534 Z M164.901104,557.997608 L164.90843,559.997595 L164.923081,563.997568 L164.930407,565.997555 L160.930434,566.012206 L160.923108,564.01222 L160.908456,560.012247 L160.90113,558.01226 L164.901104,557.997608 Z M164.860811,546.997682 L164.868137,548.997669 L164.882789,552.997642 L164.890115,554.997628 L160.890141,555.01228 L160.882815,553.012294 L160.868164,549.01232 L160.860838,547.012334 L164.860811,546.997682 Z M164.820518,535.997756 L164.827844,537.997742 L164.842496,541.997716 L164.849822,543.997702 L160.849849,544.012354 L160.842523,542.012367 L160.827871,538.012394 L160.820545,536.012408 L164.820518,535.997756 Z M164.780225,524.99783 L164.787551,526.997816 L164.802203,530.997789 L164.809529,532.997776 L160.809556,533.012428 L160.80223,531.012441 L160.787578,527.012468 L160.780252,525.012482 L164.780225,524.99783 Z M164.739932,513.997903 L164.747258,515.99789 L164.76191,519.997863 L164.769236,521.99785 L160.769263,522.012502 L160.761937,520.012515 L160.747285,516.012542 L160.739959,514.012555 L164.739932,513.997903 Z M164.69964,502.997977 L164.706966,504.997964 L164.721618,508.997937 L164.728944,510.997924 L160.72897,511.012575 L160.721644,509.012589 L160.706993,505.012616 L160.699667,503.012629 L164.69964,502.997977 Z M164.659347,491.998051 L164.666673,493.998038 L164.681325,497.998011 L164.688651,499.997997 L160.688678,500.012649 L160.681352,498.012663 L160.6667,494.012689 L160.659374,492.012703 L164.659347,491.998051 Z M164.619054,480.998125 L164.62638,482.998111 L164.641032,486.998085 L164.648358,488.998071 L160.648385,489.012723 L160.641059,487.012736 L160.626407,483.012763 L160.619081,481.012777 L164.619054,480.998125 Z M164.578761,469.998199 L164.586087,471.998185 L164.600739,475.998158 L164.608065,477.998145 L160.608092,478.012797 L160.600766,476.01281 L160.586114,472.012837 L160.578788,470.01285 L164.578761,469.998199 Z M162.456044,436.500081 C169.083417,436.475804 174.475643,441.828672 174.499919,448.456044 C174.521699,454.401824 170.215486,459.353451 164.543829,460.326593 L164.545795,460.998259 L164.560447,464.998232 L164.567772,466.998219 L160.567799,467.012871 L160.560473,465.012884 L160.545821,461.012911 L160.543549,460.34136 C154.864581,459.410077 150.521861,454.489974 150.500081,448.543956 C150.475804,441.916583 155.828672,436.524357 162.456044,436.500081 Z" fill="#96C2A6" fill-rule="nonzero"></path>
        <path id="Line-Copy-9" d="M334.941396,432.997534 L334.948722,434.997521 L334.956451,437.15864 C340.635419,438.089923 344.978139,443.010026 344.999919,448.956044 C345.024196,455.583417 339.671328,460.975643 333.043956,460.999919 C326.416583,461.024196 321.024357,455.671328 321.000081,449.043956 C320.978301,443.098176 325.284514,438.146549 330.956171,437.173407 L330.948749,435.012173 L330.941423,433.012186 L334.941396,432.997534 Z M334.901104,421.997608 L334.90843,423.997595 L334.923081,427.997568 L334.930407,429.997555 L330.930434,430.012206 L330.923108,428.01222 L330.908456,424.012247 L330.90113,422.01226 L334.901104,421.997608 Z M334.860811,410.997682 L334.868137,412.997669 L334.882789,416.997642 L334.890115,418.997628 L330.890141,419.01228 L330.882815,417.012294 L330.868164,413.01232 L330.860838,411.012334 L334.860811,410.997682 Z M334.820518,399.997756 L334.827844,401.997742 L334.842496,405.997716 L334.849822,407.997702 L330.849849,408.012354 L330.842523,406.012367 L330.827871,402.012394 L330.820545,400.012408 L334.820518,399.997756 Z M334.780225,388.99783 L334.787551,390.997816 L334.802203,394.997789 L334.809529,396.997776 L330.809556,397.012428 L330.80223,395.012441 L330.787578,391.012468 L330.780252,389.012482 L334.780225,388.99783 Z M334.739932,377.997903 L334.747258,379.99789 L334.76191,383.997863 L334.769236,385.99785 L330.769263,386.012502 L330.761937,384.012515 L330.747285,380.012542 L330.739959,378.012555 L334.739932,377.997903 Z M334.69964,366.997977 L334.706966,368.997964 L334.721618,372.997937 L334.728944,374.997924 L330.72897,375.012575 L330.721644,373.012589 L330.706993,369.012616 L330.699667,367.012629 L334.69964,366.997977 Z M334.659347,355.998051 L334.666673,357.998038 L334.681325,361.998011 L334.688651,363.997997 L330.688678,364.012649 L330.681352,362.012663 L330.6667,358.012689 L330.659374,356.012703 L334.659347,355.998051 Z M334.619054,344.998125 L334.62638,346.998111 L334.641032,350.998085 L334.648358,352.998071 L330.648385,353.012723 L330.641059,351.012736 L330.626407,347.012763 L330.619081,345.012777 L334.619054,344.998125 Z M334.578761,333.998199 L334.586087,335.998185 L334.600739,339.998158 L334.608065,341.998145 L330.608092,342.012797 L330.600766,340.01281 L330.586114,336.012837 L330.578788,334.01285 L334.578761,333.998199 Z M332.456044,300.500081 C339.083417,300.475804 344.475643,305.828672 344.499919,312.456044 C344.521699,318.401824 340.215486,323.353451 334.543829,324.326593 L334.545795,324.998259 L334.560447,328.998232 L334.567772,330.998219 L330.567799,331.012871 L330.560473,329.012884 L330.545821,325.012911 L330.543549,324.34136 C324.864581,323.410077 320.521861,318.489974 320.500081,312.543956 C320.475804,305.916583 325.828672,300.524357 332.456044,300.500081 Z" fill="#96C2A6" fill-rule="nonzero"></path>
        <path id="Line-Copy-10" d="M717.941396,432.997534 L717.948722,434.997521 L717.956451,437.15864 C723.635419,438.089923 727.978139,443.010026 727.999919,448.956044 C728.024196,455.583417 722.671328,460.975643 716.043956,460.999919 C709.416583,461.024196 704.024357,455.671328 704.000081,449.043956 C703.978301,443.098176 708.284514,438.146549 713.956171,437.173407 L713.948749,435.012173 L713.941423,433.012186 L717.941396,432.997534 Z M717.901104,421.997608 L717.90843,423.997595 L717.923081,427.997568 L717.930407,429.997555 L713.930434,430.012206 L713.923108,428.01222 L713.908456,424.012247 L713.90113,422.01226 L717.901104,421.997608 Z M717.860811,410.997682 L717.868137,412.997669 L717.882789,416.997642 L717.890115,418.997628 L713.890141,419.01228 L713.882815,417.012294 L713.868164,413.01232 L713.860838,411.012334 L717.860811,410.997682 Z M717.820518,399.997756 L717.827844,401.997742 L717.842496,405.997716 L717.849822,407.997702 L713.849849,408.012354 L713.842523,406.012367 L713.827871,402.012394 L713.820545,400.012408 L717.820518,399.997756 Z M717.780225,388.99783 L717.787551,390.997816 L717.802203,394.997789 L717.809529,396.997776 L713.809556,397.012428 L713.80223,395.012441 L713.787578,391.012468 L713.780252,389.012482 L717.780225,388.99783 Z M717.739932,377.997903 L717.747258,379.99789 L717.76191,383.997863 L717.769236,385.99785 L713.769263,386.012502 L713.761937,384.012515 L713.747285,380.012542 L713.739959,378.012555 L717.739932,377.997903 Z M717.69964,366.997977 L717.706966,368.997964 L717.721618,372.997937 L717.728944,374.997924 L713.72897,375.012575 L713.721644,373.012589 L713.706993,369.012616 L713.699667,367.012629 L717.69964,366.997977 Z M717.659347,355.998051 L717.666673,357.998038 L717.681325,361.998011 L717.688651,363.997997 L713.688678,364.012649 L713.681352,362.012663 L713.6667,358.012689 L713.659374,356.012703 L717.659347,355.998051 Z M717.619054,344.998125 L717.62638,346.998111 L717.641032,350.998085 L717.648358,352.998071 L713.648385,353.012723 L713.641059,351.012736 L713.626407,347.012763 L713.619081,345.012777 L717.619054,344.998125 Z M717.578761,333.998199 L717.586087,335.998185 L717.600739,339.998158 L717.608065,341.998145 L713.608092,342.012797 L713.600766,340.01281 L713.586114,336.012837 L713.578788,334.01285 L717.578761,333.998199 Z M715.456044,300.500081 C722.083417,300.475804 727.475643,305.828672 727.499919,312.456044 C727.521699,318.401824 723.215486,323.353451 717.543829,324.326593 L717.545795,324.998259 L717.560447,328.998232 L717.567772,330.998219 L713.567799,331.012871 L713.560473,329.012884 L713.545821,325.012911 L713.543549,324.34136 C707.864581,323.410077 703.521861,318.489974 703.500081,312.543956 C703.475804,305.916583 708.828672,300.524357 715.456044,300.500081 Z" fill="#96C2A6" fill-rule="nonzero"></path>
        <path id="Line-Copy-11" d="M928.941396,432.997534 L928.948722,434.997521 L928.956451,437.15864 C934.635419,438.089923 938.978139,443.010026 938.999919,448.956044 C939.024196,455.583417 933.671328,460.975643 927.043956,460.999919 C920.416583,461.024196 915.024357,455.671328 915.000081,449.043956 C914.978301,443.098176 919.284514,438.146549 924.956171,437.173407 L924.948749,435.012173 L924.941423,433.012186 L928.941396,432.997534 Z M928.901104,421.997608 L928.90843,423.997595 L928.923081,427.997568 L928.930407,429.997555 L924.930434,430.012206 L924.923108,428.01222 L924.908456,424.012247 L924.90113,422.01226 L928.901104,421.997608 Z M928.860811,410.997682 L928.868137,412.997669 L928.882789,416.997642 L928.890115,418.997628 L924.890141,419.01228 L924.882815,417.012294 L924.868164,413.01232 L924.860838,411.012334 L928.860811,410.997682 Z M928.820518,399.997756 L928.827844,401.997742 L928.842496,405.997716 L928.849822,407.997702 L924.849849,408.012354 L924.842523,406.012367 L924.827871,402.012394 L924.820545,400.012408 L928.820518,399.997756 Z M928.780225,388.99783 L928.787551,390.997816 L928.802203,394.997789 L928.809529,396.997776 L924.809556,397.012428 L924.80223,395.012441 L924.787578,391.012468 L924.780252,389.012482 L928.780225,388.99783 Z M928.739932,377.997903 L928.747258,379.99789 L928.76191,383.997863 L928.769236,385.99785 L924.769263,386.012502 L924.761937,384.012515 L924.747285,380.012542 L924.739959,378.012555 L928.739932,377.997903 Z M928.69964,366.997977 L928.706966,368.997964 L928.721618,372.997937 L928.728944,374.997924 L924.72897,375.012575 L924.721644,373.012589 L924.706993,369.012616 L924.699667,367.012629 L928.69964,366.997977 Z M928.659347,355.998051 L928.666673,357.998038 L928.681325,361.998011 L928.688651,363.997997 L924.688678,364.012649 L924.681352,362.012663 L924.6667,358.012689 L924.659374,356.012703 L928.659347,355.998051 Z M928.619054,344.998125 L928.62638,346.998111 L928.641032,350.998085 L928.648358,352.998071 L924.648385,353.012723 L924.641059,351.012736 L924.626407,347.012763 L924.619081,345.012777 L928.619054,344.998125 Z M928.578761,333.998199 L928.586087,335.998185 L928.600739,339.998158 L928.608065,341.998145 L924.608092,342.012797 L924.600766,340.01281 L924.586114,336.012837 L924.578788,334.01285 L928.578761,333.998199 Z M926.456044,300.500081 C933.083417,300.475804 938.475643,305.828672 938.499919,312.456044 C938.521699,318.401824 934.215486,323.353451 928.543829,324.326593 L928.545795,324.998259 L928.560447,328.998232 L928.567772,330.998219 L924.567799,331.012871 L924.560473,329.012884 L924.545821,325.012911 L924.543549,324.34136 C918.864581,323.410077 914.521861,318.489974 914.500081,312.543956 C914.475804,305.916583 919.828672,300.524357 926.456044,300.500081 Z" fill="#96C2A6" fill-rule="nonzero"></path>
        <path id="Line-Copy-12" d="M1077.9414,432.997534 L1077.94872,434.997521 L1077.95645,437.15864 C1083.63542,438.089923 1087.97814,443.010026 1087.99992,448.956044 C1088.0242,455.583417 1082.67133,460.975643 1076.04396,460.999919 C1069.41658,461.024196 1064.02436,455.671328 1064.00008,449.043956 C1063.9783,443.098176 1068.28451,438.146549 1073.95617,437.173407 L1073.94875,435.012173 L1073.94142,433.012186 L1077.9414,432.997534 Z M1077.9011,421.997608 L1077.90843,423.997595 L1077.92308,427.997568 L1077.93041,429.997555 L1073.93043,430.012206 L1073.92311,428.01222 L1073.90846,424.012247 L1073.90113,422.01226 L1077.9011,421.997608 Z M1077.86081,410.997682 L1077.86814,412.997669 L1077.88279,416.997642 L1077.89011,418.997628 L1073.89014,419.01228 L1073.88282,417.012294 L1073.86816,413.01232 L1073.86084,411.012334 L1077.86081,410.997682 Z M1077.82052,399.997756 L1077.82784,401.997742 L1077.8425,405.997716 L1077.84982,407.997702 L1073.84985,408.012354 L1073.84252,406.012367 L1073.82787,402.012394 L1073.82054,400.012408 L1077.82052,399.997756 Z M1077.78023,388.99783 L1077.78755,390.997816 L1077.8022,394.997789 L1077.80953,396.997776 L1073.80956,397.012428 L1073.80223,395.012441 L1073.78758,391.012468 L1073.78025,389.012482 L1077.78023,388.99783 Z M1077.73993,377.997903 L1077.74726,379.99789 L1077.76191,383.997863 L1077.76924,385.99785 L1073.76926,386.012502 L1073.76194,384.012515 L1073.74729,380.012542 L1073.73996,378.012555 L1077.73993,377.997903 Z M1077.69964,366.997977 L1077.70697,368.997964 L1077.72162,372.997937 L1077.72894,374.997924 L1073.72897,375.012575 L1073.72164,373.012589 L1073.70699,369.012616 L1073.69967,367.012629 L1077.69964,366.997977 Z M1077.65935,355.998051 L1077.66667,357.998038 L1077.68132,361.998011 L1077.68865,363.997997 L1073.68868,364.012649 L1073.68135,362.012663 L1073.6667,358.012689 L1073.65937,356.012703 L1077.65935,355.998051 Z M1077.61905,344.998125 L1077.62638,346.998111 L1077.64103,350.998085 L1077.64836,352.998071 L1073.64838,353.012723 L1073.64106,351.012736 L1073.62641,347.012763 L1073.61908,345.012777 L1077.61905,344.998125 Z M1077.57876,333.998199 L1077.58609,335.998185 L1077.60074,339.998158 L1077.60807,341.998145 L1073.60809,342.012797 L1073.60077,340.01281 L1073.58611,336.012837 L1073.57879,334.01285 L1077.57876,333.998199 Z M1075.45604,300.500081 C1082.08342,300.475804 1087.47564,305.828672 1087.49992,312.456044 C1087.5217,318.401824 1083.21549,323.353451 1077.54383,324.326593 L1077.54579,324.998259 L1077.56045,328.998232 L1077.56777,330.998219 L1073.5678,331.012871 L1073.56047,329.012884 L1073.54582,325.012911 L1073.54355,324.34136 C1067.86458,323.410077 1063.52186,318.489974 1063.50008,312.543956 C1063.4758,305.916583 1068.82867,300.524357 1075.45604,300.500081 Z" fill="#96C2A6" fill-rule="nonzero"></path>
        <path id="Line-Copy-13" d="M1399.9414,432.997534 L1399.94872,434.997521 L1399.95645,437.15864 C1405.63542,438.089923 1409.97814,443.010026 1409.99992,448.956044 C1410.0242,455.583417 1404.67133,460.975643 1398.04396,460.999919 C1391.41658,461.024196 1386.02436,455.671328 1386.00008,449.043956 C1385.9783,443.098176 1390.28451,438.146549 1395.95617,437.173407 L1395.94875,435.012173 L1395.94142,433.012186 L1399.9414,432.997534 Z M1399.9011,421.997608 L1399.90843,423.997595 L1399.92308,427.997568 L1399.93041,429.997555 L1395.93043,430.012206 L1395.92311,428.01222 L1395.90846,424.012247 L1395.90113,422.01226 L1399.9011,421.997608 Z M1399.86081,410.997682 L1399.86814,412.997669 L1399.88279,416.997642 L1399.89011,418.997628 L1395.89014,419.01228 L1395.88282,417.012294 L1395.86816,413.01232 L1395.86084,411.012334 L1399.86081,410.997682 Z M1399.82052,399.997756 L1399.82784,401.997742 L1399.8425,405.997716 L1399.84982,407.997702 L1395.84985,408.012354 L1395.84252,406.012367 L1395.82787,402.012394 L1395.82054,400.012408 L1399.82052,399.997756 Z M1399.78023,388.99783 L1399.78755,390.997816 L1399.8022,394.997789 L1399.80953,396.997776 L1395.80956,397.012428 L1395.80223,395.012441 L1395.78758,391.012468 L1395.78025,389.012482 L1399.78023,388.99783 Z M1399.73993,377.997903 L1399.74726,379.99789 L1399.76191,383.997863 L1399.76924,385.99785 L1395.76926,386.012502 L1395.76194,384.012515 L1395.74729,380.012542 L1395.73996,378.012555 L1399.73993,377.997903 Z M1399.69964,366.997977 L1399.70697,368.997964 L1399.72162,372.997937 L1399.72894,374.997924 L1395.72897,375.012575 L1395.72164,373.012589 L1395.70699,369.012616 L1395.69967,367.012629 L1399.69964,366.997977 Z M1399.65935,355.998051 L1399.66667,357.998038 L1399.68132,361.998011 L1399.68865,363.997997 L1395.68868,364.012649 L1395.68135,362.012663 L1395.6667,358.012689 L1395.65937,356.012703 L1399.65935,355.998051 Z M1399.61905,344.998125 L1399.62638,346.998111 L1399.64103,350.998085 L1399.64836,352.998071 L1395.64838,353.012723 L1395.64106,351.012736 L1395.62641,347.012763 L1395.61908,345.012777 L1399.61905,344.998125 Z M1399.57876,333.998199 L1399.58609,335.998185 L1399.60074,339.998158 L1399.60807,341.998145 L1395.60809,342.012797 L1395.60077,340.01281 L1395.58611,336.012837 L1395.57879,334.01285 L1399.57876,333.998199 Z M1397.45604,300.500081 C1404.08342,300.475804 1409.47564,305.828672 1409.49992,312.456044 C1409.5217,318.401824 1405.21549,323.353451 1399.54383,324.326593 L1399.54579,324.998259 L1399.56045,328.998232 L1399.56777,330.998219 L1395.5678,331.012871 L1395.56047,329.012884 L1395.54582,325.012911 L1395.54355,324.34136 C1389.86458,323.410077 1385.52186,318.489974 1385.50008,312.543956 C1385.4758,305.916583 1390.82867,300.524357 1397.45604,300.500081 Z" fill="#96C2A6" fill-rule="nonzero"></path>
        <circle id="Oval" fill="#96C2A6" cx="333" cy="342" r="55"></circle>
        <circle id="Oval-Copy" fill="#96C2A6" cx="716" cy="342" r="55"></circle>
        <circle id="Oval-Copy-2" fill="#96C2A6" cx="925" cy="342" r="55"></circle>
        <circle id="Oval-Copy-3" fill="#96C2A6" cx="1076" cy="342" r="55"></circle>
        <circle id="Oval-Copy-4" fill="#96C2A6" cx="1398" cy="342" r="55"></circle>
        <circle id="Oval-Copy-5" fill="#96C2A6" cx="1495" cy="581" r="55"></circle>
        <circle id="Oval-Copy-12" fill="#96C2A6" cx="1705" cy="595" r="69"></circle>
        <circle id="Oval-Copy-6" fill="#96C2A6" cx="1312" cy="581" r="55"></circle>
        <circle id="Oval-Copy-8" fill="#96C2A6" cx="980" cy="581" r="55"></circle>
        <circle id="Oval-Copy-9" fill="#96C2A6" cx="794" cy="581" r="55"></circle>
        <circle id="Oval-Copy-10" fill="#96C2A6" cx="521" cy="581" r="55"></circle>
        <circle id="Oval-Copy-11" fill="#96C2A6" cx="163" cy="581" r="55"></circle>
        <circle id="Oval-Copy-7" fill="#96C2A6" cx="1160" cy="581" r="55"></circle>
        <line x1="197.5" y1="474.5" x2="252.5" y2="419.5" id="Line-2" stroke="#B21F37" stroke-width="5" stroke-linecap="square"></line>
        <line x1="580.5" y1="474.5" x2="635.5" y2="419.5" id="Line-2-Copy-2" stroke="#B21F37" stroke-width="5" stroke-linecap="square"></line>
        <line x1="214.5" y1="474.5" x2="269.5" y2="419.5" id="Line-2-Copy" stroke="#B21F37" stroke-width="5" stroke-linecap="square"></line>
        <line x1="597.5" y1="474.5" x2="652.5" y2="419.5" id="Line-2-Copy-3" stroke="#B21F37" stroke-width="5" stroke-linecap="square"></line>
        <text id="1500-BC" font-family="HelveticaNeue-Bold, Helvetica Neue" font-size="20" font-weight="bold" fill="#000000">
            <tspan x="122.53" y="589">1500 BC</tspan>
        </text>
        <text id="25-AC" font-family="HelveticaNeue-Bold, Helvetica Neue" font-size="20" font-weight="bold" fill="#000000">
            <tspan x="304.84" y="350">25 AC</tspan>
        </text>
        <text id="176-AC" font-family="HelveticaNeue-Bold, Helvetica Neue" font-size="20" font-weight="bold" fill="#000000">
            <tspan x="487.28" y="589">176 AC</tspan>
        </text>
        <text id="1540-AC" font-family="HelveticaNeue-Bold, Helvetica Neue" font-size="20" font-weight="bold" fill="#000000">
            <tspan x="676.72" y="350">1540 AC</tspan>
        </text>
        <text id="1756-AC" font-family="HelveticaNeue-Bold, Helvetica Neue" font-size="20" font-weight="bold" fill="#000000">
            <tspan x="754.72" y="589">1756 AC</tspan>
        </text>
        <text id="1877-AC" font-family="HelveticaNeue-Bold, Helvetica Neue" font-size="20" font-weight="bold" fill="#000000">
            <tspan x="885.72" y="350">1877 AC</tspan>
        </text>
        <text id="1889-AC" font-family="HelveticaNeue-Bold, Helvetica Neue" font-size="20" font-weight="bold" fill="#000000">
            <tspan x="1036.72" y="350">1889 AC</tspan>
        </text>
        <text id="1881-AC" font-family="HelveticaNeue-Bold, Helvetica Neue" font-size="20" font-weight="bold" fill="#000000">
            <tspan x="941.72" y="589">1881 AC</tspan>
        </text>
        <text id="1912,-1922,-1925" font-family="HelveticaNeue-Bold, Helvetica Neue" font-size="20" font-weight="bold" fill="#000000">
            <tspan x="1134.98" y="569">1912,</tspan>
            <tspan x="1134.98" y="593">1922,</tspan>
            <tspan x="1137.76" y="617">1925</tspan>
        </text>
        <text id="1938" font-family="HelveticaNeue-Bold, Helvetica Neue" font-size="20" font-weight="bold" fill="#000000">
            <tspan x="1289.76" y="589">1938</tspan>
        </text>
        <text id="1951" font-family="HelveticaNeue-Bold, Helvetica Neue" font-size="20" font-weight="bold" fill="#000000">
            <tspan x="1472.76" y="589">1951</tspan>
        </text>
        <text id="1941" font-family="HelveticaNeue-Bold, Helvetica Neue" font-size="20" font-weight="bold" fill="#000000">
            <tspan x="1374.76" y="350">1941</tspan>
        </text>
        <text id="19551958,-1959,-196" font-family="HelveticaNeue-Bold, Helvetica Neue" font-size="20" font-weight="bold" fill="#000000">
            <tspan x="1652.74" y="579">19551958,</tspan>
            <tspan x="1679.98" y="603">1959,</tspan>
            <tspan x="1655.52" y="627">19611962</tspan>
        </text>
        <text id="In-Egypt,-the-existe" font-family="HelveticaNeue-Bold, Helvetica Neue" font-size="18" font-weight="bold" fill="#000000">
            <tspan x="108.162" y="678">In Egypt, the </tspan>
            <tspan x="75.519" y="700">existence of hernias </tspan>
            <tspan x="84.33" y="722">was reported on a </tspan>
            <tspan x="77.652" y="744">papyrus. The use of </tspan>
            <tspan x="78.498" y="766">bandages was then </tspan>
            <tspan x="116.847" y="788">described.</tspan>
        </text>
        <text id="Galen-affirms:-&quot;the" font-family="HelveticaNeue-Bold, Helvetica Neue" font-size="18" font-weight="bold" fill="#000000">
            <tspan x="441.134" y="678">Galen affirms: "the </tspan>
            <tspan x="437.822" y="700">descent duct of the </tspan>
            <tspan x="441.566" y="722">testicle is a simple </tspan>
            <tspan x="440.828" y="744">dependence of the </tspan>
            <tspan x="443.015" y="766">peritoneum, in the </tspan>
            <tspan x="450.179" y="788">lower part of the </tspan>
            <tspan x="431.009" y="810">abdomen (processus </tspan>
            <tspan x="476.522" y="832">vaginalis)</tspan>
        </text>
        <text id="Percival-Pott-makes" font-family="HelveticaNeue-Bold, Helvetica Neue" font-size="18" font-weight="bold" fill="#000000">
            <tspan x="739.496" y="678">Percival Pott </tspan>
            <tspan x="729.839" y="700">makes the first </tspan>
            <tspan x="734.69" y="722">description of </tspan>
            <tspan x="744.185" y="744">the inguinal </tspan>
            <tspan x="754.508" y="766">hernia as </tspan>
            <tspan x="746.516" y="788">congenital.</tspan>
        </text>
        <text id="Lucas-Championnere-d" font-family="HelveticaNeue-Bold, Helvetica Neue" font-size="18" font-weight="bold" fill="#000000">
            <tspan x="950.498" y="678">Lucas-</tspan>
            <tspan x="917.009" y="700">Championnere </tspan>
            <tspan x="921.176" y="722">described the </tspan>
            <tspan x="921.338" y="744">section of the </tspan>
            <tspan x="945.179" y="766">external </tspan>
            <tspan x="941.687" y="788">obliques </tspan>
            <tspan x="916.001" y="810">aponeurosis to </tspan>
            <tspan x="926.864" y="832">facilitate the </tspan>
            <tspan x="929.33" y="854">exposure of </tspan>
            <tspan x="931.346" y="876">the internal </tspan>
            <tspan x="927.197" y="898">inguinal ring </tspan>
            <tspan x="922.688" y="920">and allow the </tspan>
            <tspan x="921.869" y="942">high proximal </tspan>
            <tspan x="921.194" y="964">ligation of the </tspan>
            <tspan x="930.518" y="986">hernial sac.</tspan>
        </text>
        <text id="Celsus-gave-the-firs" font-family="HelveticaNeue-Bold, Helvetica Neue" font-size="18" font-weight="bold" fill="#000000">
            <tspan x="245.151" y="37">Celsus gave the first </tspan>
            <tspan x="251.496" y="59">reference to hernia </tspan>
            <tspan x="239.868" y="81">repair in children. In it </tspan>
            <tspan x="241.677" y="103">he recommended the </tspan>
            <tspan x="239.841" y="125">treatment, in cases of </tspan>
            <tspan x="267.876" y="147">painful inguinal</tspan>
            <tspan x="259.821" y="169">hernia, through a </tspan>
            <tspan x="249.525" y="191">scrotal incision just </tspan>
            <tspan x="262.521" y="213">below the pubis, </tspan>
            <tspan x="240.66" y="235">resecting the sac and </tspan>
            <tspan x="299.187" y="257">testicle.</tspan>
        </text>
        <text id="Par,-in-France,-per" font-family="HelveticaNeue-Bold, Helvetica Neue" font-size="18" font-weight="bold" fill="#000000">
            <tspan x="648.824" y="191">Par, in France, </tspan>
            <tspan x="635.342" y="213">performed the first </tspan>
            <tspan x="626.774" y="235">surgical treatment of </tspan>
            <tspan x="637.862" y="257">a hernia in a child.</tspan>
        </text>
        <text id="Czerny,-in-Vienna,-a" font-family="HelveticaNeue-Bold, Helvetica Neue" font-size="18" font-weight="bold" fill="#000000">
            <tspan x="882.826" y="59">Czerny, in </tspan>
            <tspan x="875.158" y="81">Vienna, and </tspan>
            <tspan x="885.499" y="103">Banks, in </tspan>
            <tspan x="887.506" y="125">England, </tspan>
            <tspan x="862.855" y="147">recommended </tspan>
            <tspan x="866.194" y="169">the ligation of </tspan>
            <tspan x="861.847" y="191">the hernial sac </tspan>
            <tspan x="875.311" y="213">through the </tspan>
            <tspan x="880.189" y="235">superficial </tspan>
            <tspan x="869.695" y="257">inguinal ring.</tspan>
        </text>
        <text id="Ferguson-recommends" font-family="HelveticaNeue-Bold, Helvetica Neue" font-size="18" font-weight="bold" fill="#000000">
            <tspan x="1034.743" y="147">Ferguson </tspan>
            <tspan x="1018.687" y="169">recommends </tspan>
            <tspan x="1028.335" y="191">leaving the </tspan>
            <tspan x="1028.668" y="213">cord intact </tspan>
            <tspan x="1031.332" y="235">during the </tspan>
            <tspan x="1021.495" y="257">intervention.</tspan>
        </text>
        <text id="Ladd-and-Gross,-in-B" font-family="HelveticaNeue-Bold, Helvetica Neue" font-size="18" font-weight="bold" fill="#000000">
            <tspan x="1317.495" y="81">Ladd and Gross, in </tspan>
            <tspan x="1305.156" y="103">Boston, saw the need </tspan>
            <tspan x="1326.279" y="125">for early surgical </tspan>
            <tspan x="1328.997" y="147">treatment of the </tspan>
            <tspan x="1315.506" y="169">hernia, an idea that </tspan>
            <tspan x="1299.675" y="191">was later supported by </tspan>
            <tspan x="1341.831" y="213">Potts and his </tspan>
            <tspan x="1330.698" y="235">collaborators in </tspan>
            <tspan x="1359.84" y="257">Chicago.</tspan>
        </text>
        <text id="Turner-(1912),-Mac-L" font-family="HelveticaNeue-Bold, Helvetica Neue" font-size="18" font-weight="bold" fill="#000000">
            <tspan x="1101.977" y="678">Turner (1912), </tspan>
            <tspan x="1106.99" y="700">Mac Lennon </tspan>
            <tspan x="1116.152" y="722">(1922) and </tspan>
            <tspan x="1100.843" y="744">Russell (1925) </tspan>
            <tspan x="1099.16" y="766">stated that for </tspan>
            <tspan x="1101.68" y="788">the healing of </tspan>
            <tspan x="1096.505" y="810">the hernia only </tspan>
            <tspan x="1125.332" y="832">the high </tspan>
            <tspan x="1097.567" y="854">simple ligation </tspan>
            <tspan x="1097.837" y="876">of the sac was </tspan>
            <tspan x="1121.831" y="898">required.</tspan>
        </text>
        <text id="Herzfeld-introduces" font-family="HelveticaNeue-Bold, Helvetica Neue" font-size="18" font-weight="bold" fill="#000000">
            <tspan x="1276.009" y="678">Herzfeld </tspan>
            <tspan x="1266.334" y="700">introduces </tspan>
            <tspan x="1268.17" y="722">outpatient </tspan>
            <tspan x="1257.577" y="744">surgery for a </tspan>
            <tspan x="1274.191" y="766">pediatric </tspan>
            <tspan x="1274.848" y="788">hernia in </tspan>
            <tspan x="1265.587" y="810">Edinburgh.</tspan>
        </text>
        <text id="Ducket,-was-the-firs" font-family="HelveticaNeue-Bold, Helvetica Neue" font-size="18" font-weight="bold" fill="#000000">
            <tspan x="1441.999" y="678">Ducket, was </tspan>
            <tspan x="1450.657" y="700">the first to </tspan>
            <tspan x="1437.994" y="722">introduce the </tspan>
            <tspan x="1440.352" y="744">contralateral </tspan>
            <tspan x="1440.028" y="766">examination, </tspan>
            <tspan x="1439.326" y="788">based on the </tspan>
            <tspan x="1431.532" y="810">publications of </tspan>
            <tspan x="1451.161" y="832">Gross and </tspan>
            <tspan x="1442.818" y="854">Potts on the </tspan>
            <tspan x="1431.325" y="876">high frequency </tspan>
            <tspan x="1437.373" y="898">of bilaterality.</tspan>
        </text>
        <text id="Rothenberg-and-Barne" font-family="HelveticaNeue-Bold, Helvetica Neue" font-size="18" font-weight="bold" fill="#000000">
            <tspan x="1637.078" y="696">Rothenberg and </tspan>
            <tspan x="1606.316" y="718">Barnett (1955), Clausen </tspan>
            <tspan x="1623.515" y="740">et al. (1958), Gilbert </tspan>
            <tspan x="1610.321" y="762">and Clatworthy (1959), </tspan>
            <tspan x="1627.799" y="784">Lynn and Johnson </tspan>
            <tspan x="1615.82" y="806">(1961) and Sparkman </tspan>
            <tspan x="1607.342" y="828">(1962), are examples of </tspan>
            <tspan x="1617.854" y="850">the first publications </tspan>
            <tspan x="1621.841" y="872">on the contralateral </tspan>
            <tspan x="1623.02" y="894">groin exploration, a </tspan>
            <tspan x="1638.635" y="916">controversy not </tspan>
            <tspan x="1620.491" y="938">resolved to this day.</tspan>
        </text>
    </g>
</svg>