<?xml version="1.0" encoding="UTF-8"?>
<svg width="419px" height="74px" viewBox="0 0 419 74" version="1.1" xmlns="http://www.w3.org/2000/svg" xmlns:xlink="http://www.w3.org/1999/xlink">
    <title>figure-03-2</title>
    <g id="Page-1" stroke="none" stroke-width="1" fill="none" fill-rule="evenodd">
        <g id="GFR-(mL/min/1.73-m2)" transform="translate(8.520000, 25.718000)" fill="#000000" fill-rule="nonzero">
            <path d="M9.846,14.824 L10.134,16.282 L11.934,16.282 L11.934,9.334 L6.534,9.334 L6.534,11.44 L9.378,11.44 C9.294,12.34 8.997,13.027 8.487,13.501 C7.977,13.975 7.254,14.212 6.318,14.212 C5.682,14.212 5.142,14.089 4.698,13.843 C4.254,13.597 3.894,13.27 3.618,12.862 C3.342,12.454 3.141,11.995 3.015,11.485 C2.889,10.975 2.826,10.45 2.826,9.91 C2.826,9.346 2.889,8.8 3.015,8.272 C3.141,7.744 3.342,7.273 3.618,6.859 C3.894,6.445 4.254,6.115 4.698,5.869 C5.142,5.623 5.682,5.5 6.318,5.5 C7.002,5.5 7.584,5.68 8.064,6.04 C8.544,6.4 8.868,6.94 9.036,7.66 L11.736,7.66 C11.664,6.928 11.466,6.28 11.142,5.716 C10.818,5.152 10.407,4.678 9.909,4.294 C9.411,3.91 8.853,3.619 8.235,3.421 C7.617,3.223 6.978,3.124 6.318,3.124 C5.334,3.124 4.449,3.298 3.663,3.646 C2.877,3.994 2.214,4.474 1.674,5.086 C1.134,5.698 0.72,6.415 0.432,7.237 C0.144,8.059 0,8.95 0,9.91 C0,10.846 0.144,11.719 0.432,12.529 C0.72,13.339 1.134,14.044 1.674,14.644 C2.214,15.244 2.877,15.715 3.663,16.057 C4.449,16.399 5.334,16.57 6.318,16.57 C6.942,16.57 7.56,16.441 8.172,16.183 C8.784,15.925 9.342,15.472 9.846,14.824 Z" id="Path"></path>
            <polygon id="Path" points="14.22 3.43 14.22 16.282 17.046 16.282 17.046 10.972 22.428 10.972 22.428 8.776 17.046 8.776 17.046 5.806 23.256 5.806 23.256 3.43"></polygon>
            <path d="M27.72,9.244 L27.72,5.626 L30.816,5.626 C31.464,5.626 31.95,5.767 32.274,6.049 C32.598,6.331 32.76,6.784 32.76,7.408 C32.76,8.056 32.598,8.524 32.274,8.812 C31.95,9.1 31.464,9.244 30.816,9.244 L27.72,9.244 Z M24.894,3.43 L24.894,16.282 L27.72,16.282 L27.72,11.26 L30.546,11.26 C31.254,11.26 31.764,11.416 32.076,11.728 C32.388,12.04 32.592,12.532 32.688,13.204 C32.76,13.72 32.814,14.26 32.85,14.824 C32.886,15.388 32.982,15.874 33.138,16.282 L35.964,16.282 C35.832,16.102 35.733,15.883 35.667,15.625 C35.601,15.367 35.553,15.094 35.523,14.806 C35.493,14.518 35.472,14.236 35.46,13.96 C35.448,13.684 35.436,13.444 35.424,13.24 C35.4,12.916 35.355,12.592 35.289,12.268 C35.223,11.944 35.118,11.647 34.974,11.377 C34.83,11.107 34.644,10.873 34.416,10.675 C34.188,10.477 33.9,10.33 33.552,10.234 L33.552,10.198 C34.272,9.91 34.791,9.49 35.109,8.938 C35.427,8.386 35.586,7.732 35.586,6.976 C35.586,6.484 35.499,6.025 35.325,5.599 C35.151,5.173 34.899,4.798 34.569,4.474 C34.239,4.15 33.843,3.895 33.381,3.709 C32.919,3.523 32.4,3.43 31.824,3.43 L24.894,3.43 Z" id="Shape"></path>
            <path d="M47.106,3.124 L44.964,3.124 C44.568,3.7 44.223,4.33 43.929,5.014 C43.635,5.698 43.389,6.406 43.191,7.138 C42.993,7.87 42.843,8.605 42.741,9.343 C42.639,10.081 42.588,10.786 42.588,11.458 C42.588,12.874 42.795,14.266 43.209,15.634 C43.623,17.002 44.208,18.304 44.964,19.54 L47.088,19.54 C46.404,18.232 45.909,16.888 45.603,15.508 C45.297,14.128 45.144,12.718 45.144,11.278 C45.144,9.862 45.3,8.467 45.612,7.093 C45.924,5.719 46.422,4.396 47.106,3.124 Z" id="Path"></path>
            <path d="M48.024,6.976 L48.024,16.282 L50.58,16.282 L50.58,10.882 C50.58,10.426 50.646,10.057 50.778,9.775 C50.91,9.493 51.069,9.277 51.255,9.127 C51.441,8.977 51.633,8.875 51.831,8.821 C52.029,8.767 52.188,8.74 52.308,8.74 C52.716,8.74 53.025,8.809 53.235,8.947 C53.445,9.085 53.595,9.268 53.685,9.496 C53.775,9.724 53.826,9.973 53.838,10.243 C53.85,10.513 53.856,10.786 53.856,11.062 L53.856,16.282 L56.412,16.282 L56.412,11.098 C56.412,10.81 56.433,10.525 56.475,10.243 C56.517,9.961 56.601,9.709 56.727,9.487 C56.853,9.265 57.027,9.085 57.249,8.947 C57.471,8.809 57.762,8.74 58.122,8.74 C58.482,8.74 58.767,8.8 58.977,8.92 C59.187,9.04 59.346,9.202 59.454,9.406 C59.562,9.61 59.628,9.85 59.652,10.126 C59.676,10.402 59.688,10.696 59.688,11.008 L59.688,16.282 L62.244,16.282 L62.244,10.054 C62.244,9.454 62.16,8.941 61.992,8.515 C61.824,8.089 61.59,7.744 61.29,7.48 C60.99,7.216 60.63,7.024 60.21,6.904 C59.79,6.784 59.334,6.724 58.842,6.724 C58.194,6.724 57.633,6.88 57.159,7.192 C56.685,7.504 56.31,7.864 56.034,8.272 C55.782,7.696 55.413,7.294 54.927,7.066 C54.441,6.838 53.904,6.724 53.316,6.724 C52.704,6.724 52.161,6.856 51.687,7.12 C51.213,7.384 50.808,7.756 50.472,8.236 L50.436,8.236 L50.436,6.976 L48.024,6.976 Z" id="Path"></path>
            <polygon id="Path" points="64.53 3.43 64.53 16.282 73.62 16.282 73.62 13.906 67.356 13.906 67.356 3.43"></polygon>
            <polygon id="Path" points="78.786 3.124 73.782 16.57 75.816 16.57 80.838 3.124"></polygon>
            <path d="M81.684,6.976 L81.684,16.282 L84.24,16.282 L84.24,10.882 C84.24,10.426 84.306,10.057 84.438,9.775 C84.57,9.493 84.729,9.277 84.915,9.127 C85.101,8.977 85.293,8.875 85.491,8.821 C85.689,8.767 85.848,8.74 85.968,8.74 C86.376,8.74 86.685,8.809 86.895,8.947 C87.105,9.085 87.255,9.268 87.345,9.496 C87.435,9.724 87.486,9.973 87.498,10.243 C87.51,10.513 87.516,10.786 87.516,11.062 L87.516,16.282 L90.072,16.282 L90.072,11.098 C90.072,10.81 90.093,10.525 90.135,10.243 C90.177,9.961 90.261,9.709 90.387,9.487 C90.513,9.265 90.687,9.085 90.909,8.947 C91.131,8.809 91.422,8.74 91.782,8.74 C92.142,8.74 92.427,8.8 92.637,8.92 C92.847,9.04 93.006,9.202 93.114,9.406 C93.222,9.61 93.288,9.85 93.312,10.126 C93.336,10.402 93.348,10.696 93.348,11.008 L93.348,16.282 L95.904,16.282 L95.904,10.054 C95.904,9.454 95.82,8.941 95.652,8.515 C95.484,8.089 95.25,7.744 94.95,7.48 C94.65,7.216 94.29,7.024 93.87,6.904 C93.45,6.784 92.994,6.724 92.502,6.724 C91.854,6.724 91.293,6.88 90.819,7.192 C90.345,7.504 89.97,7.864 89.694,8.272 C89.442,7.696 89.073,7.294 88.587,7.066 C88.101,6.838 87.564,6.724 86.976,6.724 C86.364,6.724 85.821,6.856 85.347,7.12 C84.873,7.384 84.468,7.756 84.132,8.236 L84.096,8.236 L84.096,6.976 L81.684,6.976 Z" id="Path"></path>
            <path d="M100.548,5.536 L100.548,3.43 L97.992,3.43 L97.992,5.536 L100.548,5.536 Z M97.992,6.976 L97.992,16.282 L100.548,16.282 L100.548,6.976 L97.992,6.976 Z" id="Shape"></path>
            <path d="M102.564,6.976 L102.564,16.282 L105.12,16.282 L105.12,11.404 C105.12,10.456 105.276,9.775 105.588,9.361 C105.9,8.947 106.404,8.74 107.1,8.74 C107.712,8.74 108.138,8.929 108.378,9.307 C108.618,9.685 108.738,10.258 108.738,11.026 L108.738,16.282 L111.294,16.282 L111.294,10.558 C111.294,9.982 111.243,9.457 111.141,8.983 C111.039,8.509 110.862,8.107 110.61,7.777 C110.358,7.447 110.013,7.189 109.575,7.003 C109.137,6.817 108.576,6.724 107.892,6.724 C107.352,6.724 106.824,6.847 106.308,7.093 C105.792,7.339 105.372,7.732 105.048,8.272 L104.994,8.272 L104.994,6.976 L102.564,6.976 Z" id="Path"></path>
            <polygon id="Path" points="117.09 3.124 112.086 16.57 114.12 16.57 119.142 3.124"></polygon>
            <path d="M126,16.282 L126,3.682 L123.966,3.682 C123.894,4.162 123.744,4.564 123.516,4.888 C123.288,5.212 123.009,5.473 122.679,5.671 C122.349,5.869 121.977,6.007 121.563,6.085 C121.149,6.163 120.72,6.196 120.276,6.184 L120.276,8.11 L123.444,8.11 L123.444,16.282 L126,16.282 Z" id="Path"></path>
            <polygon id="Path" points="130.032 13.51 130.032 16.282 132.858 16.282 132.858 13.51"></polygon>
            <path d="M143.262,5.878 L143.262,3.682 L134.658,3.682 L134.658,6.058 L140.634,6.058 C139.434,7.51 138.465,9.106 137.727,10.846 C136.989,12.586 136.548,14.398 136.404,16.282 L139.14,16.282 C139.152,15.442 139.251,14.536 139.437,13.564 C139.623,12.592 139.887,11.632 140.229,10.684 C140.571,9.736 140.997,8.842 141.507,8.002 C142.017,7.162 142.602,6.454 143.262,5.878 Z" id="Path"></path>
            <path d="M148.068,8.776 L148.068,10.576 C148.38,10.576 148.707,10.585 149.049,10.603 C149.391,10.621 149.706,10.687 149.994,10.801 C150.282,10.915 150.519,11.098 150.705,11.35 C150.891,11.602 150.984,11.968 150.984,12.448 C150.984,13.06 150.786,13.543 150.39,13.897 C149.994,14.251 149.508,14.428 148.932,14.428 C148.56,14.428 148.239,14.362 147.969,14.23 C147.699,14.098 147.474,13.921 147.294,13.699 C147.114,13.477 146.976,13.213 146.88,12.907 C146.784,12.601 146.73,12.28 146.718,11.944 L144.288,11.944 C144.276,12.676 144.381,13.324 144.603,13.888 C144.825,14.452 145.14,14.929 145.548,15.319 C145.956,15.709 146.451,16.006 147.033,16.21 C147.615,16.414 148.26,16.516 148.968,16.516 C149.58,16.516 150.168,16.426 150.732,16.246 C151.296,16.066 151.794,15.802 152.226,15.454 C152.658,15.106 153.003,14.674 153.261,14.158 C153.519,13.642 153.648,13.054 153.648,12.394 C153.648,11.674 153.45,11.056 153.054,10.54 C152.658,10.024 152.112,9.688 151.416,9.532 L151.416,9.496 C152.004,9.328 152.445,9.01 152.739,8.542 C153.033,8.074 153.18,7.534 153.18,6.922 C153.18,6.358 153.054,5.86 152.802,5.428 C152.55,4.996 152.223,4.63 151.821,4.33 C151.419,4.03 150.966,3.805 150.462,3.655 C149.958,3.505 149.454,3.43 148.95,3.43 C148.302,3.43 147.714,3.535 147.186,3.745 C146.658,3.955 146.205,4.252 145.827,4.636 C145.449,5.02 145.155,5.479 144.945,6.013 C144.735,6.547 144.618,7.138 144.594,7.786 L147.024,7.786 C147.012,7.138 147.171,6.601 147.501,6.175 C147.831,5.749 148.32,5.536 148.968,5.536 C149.436,5.536 149.85,5.68 150.21,5.968 C150.57,6.256 150.75,6.67 150.75,7.21 C150.75,7.57 150.663,7.858 150.489,8.074 C150.315,8.29 150.093,8.455 149.823,8.569 C149.553,8.683 149.262,8.752 148.95,8.776 C148.638,8.8 148.344,8.8 148.068,8.776 Z" id="Path"></path>
            <path d="M160.02,6.976 L160.02,16.282 L162.576,16.282 L162.576,10.882 C162.576,10.426 162.642,10.057 162.774,9.775 C162.906,9.493 163.065,9.277 163.251,9.127 C163.437,8.977 163.629,8.875 163.827,8.821 C164.025,8.767 164.184,8.74 164.304,8.74 C164.712,8.74 165.021,8.809 165.231,8.947 C165.441,9.085 165.591,9.268 165.681,9.496 C165.771,9.724 165.822,9.973 165.834,10.243 C165.846,10.513 165.852,10.786 165.852,11.062 L165.852,16.282 L168.408,16.282 L168.408,11.098 C168.408,10.81 168.429,10.525 168.471,10.243 C168.513,9.961 168.597,9.709 168.723,9.487 C168.849,9.265 169.023,9.085 169.245,8.947 C169.467,8.809 169.758,8.74 170.118,8.74 C170.478,8.74 170.763,8.8 170.973,8.92 C171.183,9.04 171.342,9.202 171.45,9.406 C171.558,9.61 171.624,9.85 171.648,10.126 C171.672,10.402 171.684,10.696 171.684,11.008 L171.684,16.282 L174.24,16.282 L174.24,10.054 C174.24,9.454 174.156,8.941 173.988,8.515 C173.82,8.089 173.586,7.744 173.286,7.48 C172.986,7.216 172.626,7.024 172.206,6.904 C171.786,6.784 171.33,6.724 170.838,6.724 C170.19,6.724 169.629,6.88 169.155,7.192 C168.681,7.504 168.306,7.864 168.03,8.272 C167.778,7.696 167.409,7.294 166.923,7.066 C166.437,6.838 165.9,6.724 165.312,6.724 C164.7,6.724 164.157,6.856 163.683,7.12 C163.209,7.384 162.804,7.756 162.468,8.236 L162.432,8.236 L162.432,6.976 L160.02,6.976 Z" id="Path"></path>
            <path d="M175.765,3.679 L177.533,3.679 C177.533,3.43633333 177.556833,3.1915 177.6045,2.9445 C177.652167,2.6975 177.732333,2.47216667 177.845,2.2685 C177.957667,2.06483333 178.107167,1.90016667 178.2935,1.7745 C178.479833,1.64883333 178.707333,1.586 178.976,1.586 C179.374667,1.586 179.701833,1.7095 179.9575,1.9565 C180.213167,2.2035 180.341,2.548 180.341,2.99 C180.341,3.26733333 180.278167,3.51433333 180.1525,3.731 C180.026833,3.94766667 179.870833,4.14266667 179.6845,4.316 C179.498167,4.48933333 179.292333,4.6475 179.067,4.7905 C178.841667,4.9335 178.629333,5.07433333 178.43,5.213 C178.04,5.48166667 177.6695,5.746 177.3185,6.006 C176.9675,6.266 176.662,6.54983333 176.402,6.8575 C176.142,7.16516667 175.936167,7.514 175.7845,7.904 C175.632833,8.294 175.557,8.75333333 175.557,9.282 L182.239,9.282 L182.239,7.696 L177.936,7.696 C178.161333,7.384 178.421333,7.111 178.716,6.877 C179.010667,6.643 179.314,6.42416667 179.626,6.2205 C179.938,6.01683333 180.247833,5.811 180.5555,5.603 C180.863167,5.395 181.138333,5.16316667 181.381,4.9075 C181.623667,4.65183333 181.818667,4.35933333 181.966,4.03 C182.113333,3.70066667 182.187,3.30633333 182.187,2.847 C182.187,2.405 182.1025,2.00633333 181.9335,1.651 C181.7645,1.29566667 181.537,0.996666667 181.251,0.754 C180.965,0.511333333 180.6335,0.325 180.2565,0.195 C179.8795,0.065 179.483,0 179.067,0 C178.521,0 178.037833,0.0931666667 177.6175,0.2795 C177.197167,0.465833333 176.848333,0.725833333 176.571,1.0595 C176.293667,1.39316667 176.085667,1.78316667 175.947,2.2295 C175.808333,2.67583333 175.747667,3.159 175.765,3.679 Z" id="Path"></path>
            <path d="M182.404,19.54 L184.528,19.54 C184.924,18.976 185.272,18.352 185.572,17.668 C185.872,16.984 186.121,16.279 186.319,15.553 C186.517,14.827 186.664,14.095 186.76,13.357 C186.856,12.619 186.904,11.914 186.904,11.242 C186.904,9.826 186.697,8.428 186.283,7.048 C185.869,5.668 185.284,4.36 184.528,3.124 L182.422,3.124 C183.082,4.432 183.568,5.782 183.88,7.174 C184.192,8.566 184.348,9.982 184.348,11.422 C184.348,12.838 184.189,14.227 183.871,15.589 C183.553,16.951 183.064,18.268 182.404,19.54 Z" id="Path"></path>
            <path d="M202.798,14.626 L202.798,12.7 L193.708,12.7 L193.708,14.626 L202.798,14.626 Z M202.798,10.774 L202.798,8.848 L193.708,8.848 L193.708,10.774 L202.798,10.774 Z" id="Shape"></path>
        </g>
        <g id="0.55-×-height-(cm)" transform="translate(239.481000, 16.842000)" fill="#000000" fill-rule="nonzero">
            <path d="M2.556,6.804 C2.556,6.588 2.559,6.327 2.565,6.021 C2.571,5.715 2.592,5.4 2.628,5.076 C2.664,4.752 2.724,4.431 2.808,4.113 C2.892,3.795 3.009,3.51 3.159,3.258 C3.309,3.006 3.501,2.802 3.735,2.646 C3.969,2.49 4.26,2.412 4.608,2.412 C4.956,2.412 5.25,2.49 5.49,2.646 C5.73,2.802 5.928,3.006 6.084,3.258 C6.24,3.51 6.357,3.795 6.435,4.113 C6.513,4.431 6.573,4.752 6.615,5.076 C6.657,5.4 6.681,5.715 6.687,6.021 C6.693,6.327 6.696,6.588 6.696,6.804 C6.696,7.164 6.684,7.599 6.66,8.109 C6.636,8.619 6.561,9.111 6.435,9.585 C6.309,10.059 6.105,10.464 5.823,10.8 C5.541,11.136 5.136,11.304 4.608,11.304 C4.092,11.304 3.696,11.136 3.42,10.8 C3.144,10.464 2.943,10.059 2.817,9.585 C2.691,9.111 2.616,8.619 2.592,8.109 C2.568,7.599 2.556,7.164 2.556,6.804 Z M-1.42108547e-14,6.804 C-1.42108547e-14,8.064 0.123,9.117 0.369,9.963 C0.615,10.809 0.948,11.484 1.368,11.988 C1.788,12.492 2.277,12.852 2.835,13.068 C3.393,13.284 3.984,13.392 4.608,13.392 C5.244,13.392 5.841,13.284 6.399,13.068 C6.957,12.852 7.449,12.492 7.875,11.988 C8.301,11.484 8.637,10.809 8.883,9.963 C9.129,9.117 9.252,8.064 9.252,6.804 C9.252,5.58 9.129,4.551 8.883,3.717 C8.637,2.883 8.301,2.214 7.875,1.71 C7.449,1.206 6.957,0.846 6.399,0.63 C5.841,0.414 5.244,0.306 4.608,0.306 C3.984,0.306 3.393,0.414 2.835,0.63 C2.277,0.846 1.788,1.206 1.368,1.71 C0.948,2.214 0.615,2.883 0.369,3.717 C0.123,4.551 -1.42108547e-14,5.58 -1.42108547e-14,6.804 Z" id="Shape"></path>
            <polygon id="Path" points="10.71 10.386 10.71 13.158 13.536 13.158 13.536 10.386"></polygon>
            <path d="M23.634,2.664 L23.634,0.558 L16.596,0.558 L15.354,7.524 L17.658,7.524 C17.91,7.176 18.18,6.921 18.468,6.759 C18.756,6.597 19.128,6.516 19.584,6.516 C19.932,6.516 20.238,6.576 20.502,6.696 C20.766,6.816 20.994,6.984 21.186,7.2 C21.378,7.416 21.522,7.668 21.618,7.956 C21.714,8.244 21.762,8.55 21.762,8.874 C21.762,9.186 21.711,9.489 21.609,9.783 C21.507,10.077 21.363,10.335 21.177,10.557 C20.991,10.779 20.763,10.959 20.493,11.097 C20.223,11.235 19.92,11.304 19.584,11.304 C19.008,11.304 18.534,11.133 18.162,10.791 C17.79,10.449 17.574,9.99 17.514,9.414 L14.958,9.414 C14.97,10.074 15.105,10.653 15.363,11.151 C15.621,11.649 15.966,12.066 16.398,12.402 C16.83,12.738 17.325,12.987 17.883,13.149 C18.441,13.311 19.026,13.392 19.638,13.392 C20.274,13.404 20.874,13.299 21.438,13.077 C22.002,12.855 22.497,12.54 22.923,12.132 C23.349,11.724 23.688,11.241 23.94,10.683 C24.192,10.125 24.318,9.522 24.318,8.874 C24.318,8.286 24.231,7.731 24.057,7.209 C23.883,6.687 23.631,6.234 23.301,5.85 C22.971,5.466 22.566,5.16 22.086,4.932 C21.606,4.704 21.054,4.59 20.43,4.59 C19.926,4.59 19.476,4.665 19.08,4.815 C18.684,4.965 18.312,5.214 17.964,5.562 L17.928,5.526 L18.432,2.664 L23.634,2.664 Z" id="Path"></path>
            <path d="M33.642,2.664 L33.642,0.558 L26.604,0.558 L25.362,7.524 L27.666,7.524 C27.918,7.176 28.188,6.921 28.476,6.759 C28.764,6.597 29.136,6.516 29.592,6.516 C29.94,6.516 30.246,6.576 30.51,6.696 C30.774,6.816 31.002,6.984 31.194,7.2 C31.386,7.416 31.53,7.668 31.626,7.956 C31.722,8.244 31.77,8.55 31.77,8.874 C31.77,9.186 31.719,9.489 31.617,9.783 C31.515,10.077 31.371,10.335 31.185,10.557 C30.999,10.779 30.771,10.959 30.501,11.097 C30.231,11.235 29.928,11.304 29.592,11.304 C29.016,11.304 28.542,11.133 28.17,10.791 C27.798,10.449 27.582,9.99 27.522,9.414 L24.966,9.414 C24.978,10.074 25.113,10.653 25.371,11.151 C25.629,11.649 25.974,12.066 26.406,12.402 C26.838,12.738 27.333,12.987 27.891,13.149 C28.449,13.311 29.034,13.392 29.646,13.392 C30.282,13.404 30.882,13.299 31.446,13.077 C32.01,12.855 32.505,12.54 32.931,12.132 C33.357,11.724 33.696,11.241 33.948,10.683 C34.2,10.125 34.326,9.522 34.326,8.874 C34.326,8.286 34.239,7.731 34.065,7.209 C33.891,6.687 33.639,6.234 33.309,5.85 C32.979,5.466 32.574,5.16 32.094,4.932 C31.614,4.704 31.062,4.59 30.438,4.59 C29.934,4.59 29.484,4.665 29.088,4.815 C28.692,4.965 28.32,5.214 27.972,5.562 L27.936,5.526 L28.44,2.664 L33.642,2.664 Z" id="Path"></path>
            <polygon id="Path" points="40.806 11.484 42.174 12.852 45.072 9.954 47.952 12.852 49.32 11.484 46.422 8.604 49.32 5.724 47.952 4.356 45.072 7.236 42.21 4.356 40.842 5.724 43.704 8.604"></polygon>
            <path d="M56.43,0.306 L56.43,13.158 L58.986,13.158 L58.986,8.28 C58.986,7.332 59.142,6.651 59.454,6.237 C59.766,5.823 60.27,5.616 60.966,5.616 C61.578,5.616 62.004,5.805 62.244,6.183 C62.484,6.561 62.604,7.134 62.604,7.902 L62.604,13.158 L65.16,13.158 L65.16,7.434 C65.16,6.858 65.109,6.333 65.007,5.859 C64.905,5.385 64.728,4.983 64.476,4.653 C64.224,4.323 63.879,4.065 63.441,3.879 C63.003,3.693 62.442,3.6 61.758,3.6 C61.278,3.6 60.786,3.723 60.282,3.969 C59.778,4.215 59.364,4.608 59.04,5.148 L58.986,5.148 L58.986,0.306 L56.43,0.306 Z" id="Path"></path>
            <path d="M73.368,7.506 L69.21,7.506 C69.222,7.326 69.261,7.122 69.327,6.894 C69.393,6.666 69.507,6.45 69.669,6.246 C69.831,6.042 70.047,5.871 70.317,5.733 C70.587,5.595 70.926,5.526 71.334,5.526 C71.958,5.526 72.423,5.694 72.729,6.03 C73.035,6.366 73.248,6.858 73.368,7.506 Z M69.21,9.126 L75.924,9.126 C75.972,8.406 75.912,7.716 75.744,7.056 C75.576,6.396 75.303,5.808 74.925,5.292 C74.547,4.776 74.064,4.365 73.476,4.059 C72.888,3.753 72.198,3.6 71.406,3.6 C70.698,3.6 70.053,3.726 69.471,3.978 C68.889,4.23 68.388,4.575 67.968,5.013 C67.548,5.451 67.224,5.97 66.996,6.57 C66.768,7.17 66.654,7.818 66.654,8.514 C66.654,9.234 66.765,9.894 66.987,10.494 C67.209,11.094 67.524,11.61 67.932,12.042 C68.34,12.474 68.838,12.807 69.426,13.041 C70.014,13.275 70.674,13.392 71.406,13.392 C72.462,13.392 73.362,13.152 74.106,12.672 C74.85,12.192 75.402,11.394 75.762,10.278 L73.512,10.278 C73.428,10.566 73.2,10.839 72.828,11.097 C72.456,11.355 72.012,11.484 71.496,11.484 C70.776,11.484 70.224,11.298 69.84,10.926 C69.456,10.554 69.246,9.954 69.21,9.126 Z" id="Shape"></path>
            <path d="M80.064,2.412 L80.064,0.306 L77.508,0.306 L77.508,2.412 L80.064,2.412 Z M77.508,3.852 L77.508,13.158 L80.064,13.158 L80.064,3.852 L77.508,3.852 Z" id="Shape"></path>
            <path d="M86.418,10.962 C86.022,10.962 85.692,10.878 85.428,10.71 C85.164,10.542 84.951,10.326 84.789,10.062 C84.627,9.798 84.513,9.501 84.447,9.171 C84.381,8.841 84.348,8.508 84.348,8.172 C84.348,7.824 84.387,7.491 84.465,7.173 C84.543,6.855 84.669,6.573 84.843,6.327 C85.017,6.081 85.233,5.886 85.491,5.742 C85.749,5.598 86.058,5.526 86.418,5.526 C86.838,5.526 87.186,5.604 87.462,5.76 C87.738,5.916 87.96,6.126 88.128,6.39 C88.296,6.654 88.416,6.957 88.488,7.299 C88.56,7.641 88.596,8.004 88.596,8.388 C88.596,8.724 88.551,9.045 88.461,9.351 C88.371,9.657 88.236,9.93 88.056,10.17 C87.876,10.41 87.648,10.602 87.372,10.746 C87.096,10.89 86.778,10.962 86.418,10.962 Z M91.026,12.564 L91.026,3.852 L88.596,3.852 L88.596,5.094 L88.56,5.094 C88.248,4.554 87.861,4.17 87.399,3.942 C86.937,3.714 86.4,3.6 85.788,3.6 C85.14,3.6 84.567,3.726 84.069,3.978 C83.571,4.23 83.154,4.569 82.818,4.995 C82.482,5.421 82.227,5.913 82.053,6.471 C81.879,7.029 81.792,7.608 81.792,8.208 C81.792,8.844 81.867,9.447 82.017,10.017 C82.167,10.587 82.404,11.085 82.728,11.511 C83.052,11.937 83.466,12.273 83.97,12.519 C84.474,12.765 85.074,12.888 85.77,12.888 C86.334,12.888 86.871,12.771 87.381,12.537 C87.891,12.303 88.284,11.94 88.56,11.448 L88.596,11.448 L88.596,12.672 C88.608,13.332 88.449,13.878 88.119,14.31 C87.789,14.742 87.264,14.958 86.544,14.958 C86.088,14.958 85.686,14.865 85.338,14.679 C84.99,14.493 84.756,14.16 84.636,13.68 L82.098,13.68 C82.134,14.208 82.281,14.661 82.539,15.039 C82.797,15.417 83.121,15.726 83.511,15.966 C83.901,16.206 84.333,16.383 84.807,16.497 C85.281,16.611 85.746,16.668 86.202,16.668 C87.27,16.668 88.122,16.524 88.758,16.236 C89.394,15.948 89.88,15.597 90.216,15.183 C90.552,14.769 90.771,14.322 90.873,13.842 C90.975,13.362 91.026,12.936 91.026,12.564 Z" id="Shape"></path>
            <path d="M93.078,0.306 L93.078,13.158 L95.634,13.158 L95.634,8.28 C95.634,7.332 95.79,6.651 96.102,6.237 C96.414,5.823 96.918,5.616 97.614,5.616 C98.226,5.616 98.652,5.805 98.892,6.183 C99.132,6.561 99.252,7.134 99.252,7.902 L99.252,13.158 L101.808,13.158 L101.808,7.434 C101.808,6.858 101.757,6.333 101.655,5.859 C101.553,5.385 101.376,4.983 101.124,4.653 C100.872,4.323 100.527,4.065 100.089,3.879 C99.651,3.693 99.09,3.6 98.406,3.6 C97.926,3.6 97.434,3.723 96.93,3.969 C96.426,4.215 96.012,4.608 95.688,5.148 L95.634,5.148 L95.634,0.306 L93.078,0.306 Z" id="Path"></path>
            <path d="M106.992,3.852 L106.992,1.062 L104.436,1.062 L104.436,3.852 L102.888,3.852 L102.888,5.562 L104.436,5.562 L104.436,11.052 C104.436,11.52 104.514,11.898 104.67,12.186 C104.826,12.474 105.039,12.696 105.309,12.852 C105.579,13.008 105.891,13.113 106.245,13.167 C106.599,13.221 106.974,13.248 107.37,13.248 C107.622,13.248 107.88,13.242 108.144,13.23 C108.408,13.218 108.648,13.194 108.864,13.158 L108.864,11.178 C108.744,11.202 108.618,11.22 108.486,11.232 C108.354,11.244 108.216,11.25 108.072,11.25 C107.64,11.25 107.352,11.178 107.208,11.034 C107.064,10.89 106.992,10.602 106.992,10.17 L106.992,5.562 L108.864,5.562 L108.864,3.852 L106.992,3.852 Z" id="Path"></path>
            <path d="M119.574,0 L117.432,0 C117.036,0.576 116.691,1.206 116.397,1.89 C116.103,2.574 115.857,3.282 115.659,4.014 C115.461,4.746 115.311,5.481 115.209,6.219 C115.107,6.957 115.056,7.662 115.056,8.334 C115.056,9.75 115.263,11.142 115.677,12.51 C116.091,13.878 116.676,15.18 117.432,16.416 L119.556,16.416 C118.872,15.108 118.377,13.764 118.071,12.384 C117.765,11.004 117.612,9.594 117.612,8.154 C117.612,6.738 117.768,5.343 118.08,3.969 C118.392,2.595 118.89,1.272 119.574,0 Z" id="Path"></path>
            <path d="M126.756,7.128 L129.258,7.128 C129.222,6.528 129.078,6.009 128.826,5.571 C128.574,5.133 128.247,4.767 127.845,4.473 C127.443,4.179 126.987,3.96 126.477,3.816 C125.967,3.672 125.436,3.6 124.884,3.6 C124.128,3.6 123.456,3.726 122.868,3.978 C122.28,4.23 121.782,4.581 121.374,5.031 C120.966,5.481 120.657,6.015 120.447,6.633 C120.237,7.251 120.132,7.92 120.132,8.64 C120.132,9.336 120.246,9.975 120.474,10.557 C120.702,11.139 121.02,11.64 121.428,12.06 C121.836,12.48 122.331,12.807 122.913,13.041 C123.495,13.275 124.134,13.392 124.83,13.392 C126.066,13.392 127.08,13.068 127.872,12.42 C128.664,11.772 129.144,10.83 129.312,9.594 L126.846,9.594 C126.762,10.17 126.555,10.629 126.225,10.971 C125.895,11.313 125.424,11.484 124.812,11.484 C124.416,11.484 124.08,11.394 123.804,11.214 C123.528,11.034 123.309,10.803 123.147,10.521 C122.985,10.239 122.868,9.924 122.796,9.576 C122.724,9.228 122.688,8.886 122.688,8.55 C122.688,8.202 122.724,7.851 122.796,7.497 C122.868,7.143 122.991,6.819 123.165,6.525 C123.339,6.231 123.564,5.991 123.84,5.805 C124.116,5.619 124.458,5.526 124.866,5.526 C125.958,5.526 126.588,6.06 126.756,7.128 Z" id="Path"></path>
            <path d="M130.824,3.852 L130.824,13.158 L133.38,13.158 L133.38,7.758 C133.38,7.302 133.446,6.933 133.578,6.651 C133.71,6.369 133.869,6.153 134.055,6.003 C134.241,5.853 134.433,5.751 134.631,5.697 C134.829,5.643 134.988,5.616 135.108,5.616 C135.516,5.616 135.825,5.685 136.035,5.823 C136.245,5.961 136.395,6.144 136.485,6.372 C136.575,6.6 136.626,6.849 136.638,7.119 C136.65,7.389 136.656,7.662 136.656,7.938 L136.656,13.158 L139.212,13.158 L139.212,7.974 C139.212,7.686 139.233,7.401 139.275,7.119 C139.317,6.837 139.401,6.585 139.527,6.363 C139.653,6.141 139.827,5.961 140.049,5.823 C140.271,5.685 140.562,5.616 140.922,5.616 C141.282,5.616 141.567,5.676 141.777,5.796 C141.987,5.916 142.146,6.078 142.254,6.282 C142.362,6.486 142.428,6.726 142.452,7.002 C142.476,7.278 142.488,7.572 142.488,7.884 L142.488,13.158 L145.044,13.158 L145.044,6.93 C145.044,6.33 144.96,5.817 144.792,5.391 C144.624,4.965 144.39,4.62 144.09,4.356 C143.79,4.092 143.43,3.9 143.01,3.78 C142.59,3.66 142.134,3.6 141.642,3.6 C140.994,3.6 140.433,3.756 139.959,4.068 C139.485,4.38 139.11,4.74 138.834,5.148 C138.582,4.572 138.213,4.17 137.727,3.942 C137.241,3.714 136.704,3.6 136.116,3.6 C135.504,3.6 134.961,3.732 134.487,3.996 C134.013,4.26 133.608,4.632 133.272,5.112 L133.236,5.112 L133.236,3.852 L130.824,3.852 Z" id="Path"></path>
            <path d="M145.98,16.416 L148.104,16.416 C148.5,15.852 148.848,15.228 149.148,14.544 C149.448,13.86 149.697,13.155 149.895,12.429 C150.093,11.703 150.24,10.971 150.336,10.233 C150.432,9.495 150.48,8.79 150.48,8.118 C150.48,6.702 150.273,5.304 149.859,3.924 C149.445,2.544 148.86,1.236 148.104,0 L145.998,0 C146.658,1.308 147.144,2.658 147.456,4.05 C147.768,5.442 147.924,6.858 147.924,8.298 C147.924,9.714 147.765,11.103 147.447,12.465 C147.129,13.827 146.64,15.144 145.98,16.416 Z" id="Path"></path>
        </g>
        <g id="creatinine-(mg/dL)" transform="translate(237.537000, 42.842000)" fill="#000000" fill-rule="nonzero">
            <path d="M6.624,7.128 L9.126,7.128 C9.09,6.528 8.946,6.009 8.694,5.571 C8.442,5.133 8.115,4.767 7.713,4.473 C7.311,4.179 6.855,3.96 6.345,3.816 C5.835,3.672 5.304,3.6 4.752,3.6 C3.996,3.6 3.324,3.726 2.736,3.978 C2.148,4.23 1.65,4.581 1.242,5.031 C0.834,5.481 0.525,6.015 0.315,6.633 C0.105,7.251 -1.42108547e-14,7.92 -1.42108547e-14,8.64 C-1.42108547e-14,9.336 0.114,9.975 0.342,10.557 C0.57,11.139 0.888,11.64 1.296,12.06 C1.704,12.48 2.199,12.807 2.781,13.041 C3.363,13.275 4.002,13.392 4.698,13.392 C5.934,13.392 6.948,13.068 7.74,12.42 C8.532,11.772 9.012,10.83 9.18,9.594 L6.714,9.594 C6.63,10.17 6.423,10.629 6.093,10.971 C5.763,11.313 5.292,11.484 4.68,11.484 C4.284,11.484 3.948,11.394 3.672,11.214 C3.396,11.034 3.177,10.803 3.015,10.521 C2.853,10.239 2.736,9.924 2.664,9.576 C2.592,9.228 2.556,8.886 2.556,8.55 C2.556,8.202 2.592,7.851 2.664,7.497 C2.736,7.143 2.859,6.819 3.033,6.525 C3.207,6.231 3.432,5.991 3.708,5.805 C3.984,5.619 4.326,5.526 4.734,5.526 C5.826,5.526 6.456,6.06 6.624,7.128 Z" id="Path"></path>
            <path d="M10.62,3.852 L10.62,13.158 L13.176,13.158 L13.176,8.964 C13.176,8.544 13.218,8.154 13.302,7.794 C13.386,7.434 13.527,7.119 13.725,6.849 C13.923,6.579 14.184,6.366 14.508,6.21 C14.832,6.054 15.228,5.976 15.696,5.976 C15.852,5.976 16.014,5.985 16.182,6.003 C16.35,6.021 16.494,6.042 16.614,6.066 L16.614,3.69 C16.41,3.63 16.224,3.6 16.056,3.6 C15.732,3.6 15.42,3.648 15.12,3.744 C14.82,3.84 14.538,3.975 14.274,4.149 C14.01,4.323 13.776,4.533 13.572,4.779 C13.368,5.025 13.206,5.292 13.086,5.58 L13.05,5.58 L13.05,3.852 L10.62,3.852 Z" id="Path"></path>
            <path d="M23.562,7.506 L19.404,7.506 C19.416,7.326 19.455,7.122 19.521,6.894 C19.587,6.666 19.701,6.45 19.863,6.246 C20.025,6.042 20.241,5.871 20.511,5.733 C20.781,5.595 21.12,5.526 21.528,5.526 C22.152,5.526 22.617,5.694 22.923,6.03 C23.229,6.366 23.442,6.858 23.562,7.506 Z M19.404,9.126 L26.118,9.126 C26.166,8.406 26.106,7.716 25.938,7.056 C25.77,6.396 25.497,5.808 25.119,5.292 C24.741,4.776 24.258,4.365 23.67,4.059 C23.082,3.753 22.392,3.6 21.6,3.6 C20.892,3.6 20.247,3.726 19.665,3.978 C19.083,4.23 18.582,4.575 18.162,5.013 C17.742,5.451 17.418,5.97 17.19,6.57 C16.962,7.17 16.848,7.818 16.848,8.514 C16.848,9.234 16.959,9.894 17.181,10.494 C17.403,11.094 17.718,11.61 18.126,12.042 C18.534,12.474 19.032,12.807 19.62,13.041 C20.208,13.275 20.868,13.392 21.6,13.392 C22.656,13.392 23.556,13.152 24.3,12.672 C25.044,12.192 25.596,11.394 25.956,10.278 L23.706,10.278 C23.622,10.566 23.394,10.839 23.022,11.097 C22.65,11.355 22.206,11.484 21.69,11.484 C20.97,11.484 20.418,11.298 20.034,10.926 C19.65,10.554 19.44,9.954 19.404,9.126 Z" id="Shape"></path>
            <path d="M27.522,6.714 C27.558,6.114 27.708,5.616 27.972,5.22 C28.236,4.824 28.572,4.506 28.98,4.266 C29.388,4.026 29.847,3.855 30.357,3.753 C30.867,3.651 31.38,3.6 31.896,3.6 C32.364,3.6 32.838,3.633 33.318,3.699 C33.798,3.765 34.236,3.894 34.632,4.086 C35.028,4.278 35.352,4.545 35.604,4.887 C35.856,5.229 35.982,5.682 35.982,6.246 L35.982,11.088 C35.982,11.508 36.006,11.91 36.054,12.294 C36.102,12.678 36.186,12.966 36.306,13.158 L33.714,13.158 C33.666,13.014 33.627,12.867 33.597,12.717 C33.567,12.567 33.546,12.414 33.534,12.258 C33.126,12.678 32.646,12.972 32.094,13.14 C31.542,13.308 30.978,13.392 30.402,13.392 C29.958,13.392 29.544,13.338 29.16,13.23 C28.776,13.122 28.44,12.954 28.152,12.726 C27.864,12.498 27.639,12.21 27.477,11.862 C27.315,11.514 27.234,11.1 27.234,10.62 C27.234,10.092 27.327,9.657 27.513,9.315 C27.699,8.973 27.939,8.7 28.233,8.496 C28.527,8.292 28.863,8.139 29.241,8.037 C29.619,7.935 30,7.854 30.384,7.794 C30.768,7.734 31.146,7.686 31.518,7.65 C31.89,7.614 32.22,7.56 32.508,7.488 C32.796,7.416 33.024,7.311 33.192,7.173 C33.36,7.035 33.438,6.834 33.426,6.57 C33.426,6.294 33.381,6.075 33.291,5.913 C33.201,5.751 33.081,5.625 32.931,5.535 C32.781,5.445 32.607,5.385 32.409,5.355 C32.211,5.325 31.998,5.31 31.77,5.31 C31.266,5.31 30.87,5.418 30.582,5.634 C30.294,5.85 30.126,6.21 30.078,6.714 L27.522,6.714 Z M33.426,8.604 C33.318,8.7 33.183,8.775 33.021,8.829 C32.859,8.883 32.685,8.928 32.499,8.964 C32.313,9 32.118,9.03 31.914,9.054 C31.71,9.078 31.506,9.108 31.302,9.144 C31.11,9.18 30.921,9.228 30.735,9.288 C30.549,9.348 30.387,9.429 30.249,9.531 C30.111,9.633 30,9.762 29.916,9.918 C29.832,10.074 29.79,10.272 29.79,10.512 C29.79,10.74 29.832,10.932 29.916,11.088 C30,11.244 30.114,11.367 30.258,11.457 C30.402,11.547 30.57,11.61 30.762,11.646 C30.954,11.682 31.152,11.7 31.356,11.7 C31.86,11.7 32.25,11.616 32.526,11.448 C32.802,11.28 33.006,11.079 33.138,10.845 C33.27,10.611 33.351,10.374 33.381,10.134 C33.411,9.894 33.426,9.702 33.426,9.558 L33.426,8.604 Z" id="Shape"></path>
            <path d="M41.202,3.852 L41.202,1.062 L38.646,1.062 L38.646,3.852 L37.098,3.852 L37.098,5.562 L38.646,5.562 L38.646,11.052 C38.646,11.52 38.724,11.898 38.88,12.186 C39.036,12.474 39.249,12.696 39.519,12.852 C39.789,13.008 40.101,13.113 40.455,13.167 C40.809,13.221 41.184,13.248 41.58,13.248 C41.832,13.248 42.09,13.242 42.354,13.23 C42.618,13.218 42.858,13.194 43.074,13.158 L43.074,11.178 C42.954,11.202 42.828,11.22 42.696,11.232 C42.564,11.244 42.426,11.25 42.282,11.25 C41.85,11.25 41.562,11.178 41.418,11.034 C41.274,10.89 41.202,10.602 41.202,10.17 L41.202,5.562 L43.074,5.562 L43.074,3.852 L41.202,3.852 Z" id="Path"></path>
            <path d="M46.926,2.412 L46.926,0.306 L44.37,0.306 L44.37,2.412 L46.926,2.412 Z M44.37,3.852 L44.37,13.158 L46.926,13.158 L46.926,3.852 L44.37,3.852 Z" id="Shape"></path>
            <path d="M48.942,3.852 L48.942,13.158 L51.498,13.158 L51.498,8.28 C51.498,7.332 51.654,6.651 51.966,6.237 C52.278,5.823 52.782,5.616 53.478,5.616 C54.09,5.616 54.516,5.805 54.756,6.183 C54.996,6.561 55.116,7.134 55.116,7.902 L55.116,13.158 L57.672,13.158 L57.672,7.434 C57.672,6.858 57.621,6.333 57.519,5.859 C57.417,5.385 57.24,4.983 56.988,4.653 C56.736,4.323 56.391,4.065 55.953,3.879 C55.515,3.693 54.954,3.6 54.27,3.6 C53.73,3.6 53.202,3.723 52.686,3.969 C52.17,4.215 51.75,4.608 51.426,5.148 L51.372,5.148 L51.372,3.852 L48.942,3.852 Z" id="Path"></path>
            <path d="M62.244,2.412 L62.244,0.306 L59.688,0.306 L59.688,2.412 L62.244,2.412 Z M59.688,3.852 L59.688,13.158 L62.244,13.158 L62.244,3.852 L59.688,3.852 Z" id="Shape"></path>
            <path d="M64.26,3.852 L64.26,13.158 L66.816,13.158 L66.816,8.28 C66.816,7.332 66.972,6.651 67.284,6.237 C67.596,5.823 68.1,5.616 68.796,5.616 C69.408,5.616 69.834,5.805 70.074,6.183 C70.314,6.561 70.434,7.134 70.434,7.902 L70.434,13.158 L72.99,13.158 L72.99,7.434 C72.99,6.858 72.939,6.333 72.837,5.859 C72.735,5.385 72.558,4.983 72.306,4.653 C72.054,4.323 71.709,4.065 71.271,3.879 C70.833,3.693 70.272,3.6 69.588,3.6 C69.048,3.6 68.52,3.723 68.004,3.969 C67.488,4.215 67.068,4.608 66.744,5.148 L66.69,5.148 L66.69,3.852 L64.26,3.852 Z" id="Path"></path>
            <path d="M81.198,7.506 L77.04,7.506 C77.052,7.326 77.091,7.122 77.157,6.894 C77.223,6.666 77.337,6.45 77.499,6.246 C77.661,6.042 77.877,5.871 78.147,5.733 C78.417,5.595 78.756,5.526 79.164,5.526 C79.788,5.526 80.253,5.694 80.559,6.03 C80.865,6.366 81.078,6.858 81.198,7.506 Z M77.04,9.126 L83.754,9.126 C83.802,8.406 83.742,7.716 83.574,7.056 C83.406,6.396 83.133,5.808 82.755,5.292 C82.377,4.776 81.894,4.365 81.306,4.059 C80.718,3.753 80.028,3.6 79.236,3.6 C78.528,3.6 77.883,3.726 77.301,3.978 C76.719,4.23 76.218,4.575 75.798,5.013 C75.378,5.451 75.054,5.97 74.826,6.57 C74.598,7.17 74.484,7.818 74.484,8.514 C74.484,9.234 74.595,9.894 74.817,10.494 C75.039,11.094 75.354,11.61 75.762,12.042 C76.17,12.474 76.668,12.807 77.256,13.041 C77.844,13.275 78.504,13.392 79.236,13.392 C80.292,13.392 81.192,13.152 81.936,12.672 C82.68,12.192 83.232,11.394 83.592,10.278 L81.342,10.278 C81.258,10.566 81.03,10.839 80.658,11.097 C80.286,11.355 79.842,11.484 79.326,11.484 C78.606,11.484 78.054,11.298 77.67,10.926 C77.286,10.554 77.076,9.954 77.04,9.126 Z" id="Shape"></path>
            <path d="M94.752,0 L92.61,0 C92.214,0.576 91.869,1.206 91.575,1.89 C91.281,2.574 91.035,3.282 90.837,4.014 C90.639,4.746 90.489,5.481 90.387,6.219 C90.285,6.957 90.234,7.662 90.234,8.334 C90.234,9.75 90.441,11.142 90.855,12.51 C91.269,13.878 91.854,15.18 92.61,16.416 L94.734,16.416 C94.05,15.108 93.555,13.764 93.249,12.384 C92.943,11.004 92.79,9.594 92.79,8.154 C92.79,6.738 92.946,5.343 93.258,3.969 C93.57,2.595 94.068,1.272 94.752,0 Z" id="Path"></path>
            <path d="M95.67,3.852 L95.67,13.158 L98.226,13.158 L98.226,7.758 C98.226,7.302 98.292,6.933 98.424,6.651 C98.556,6.369 98.715,6.153 98.901,6.003 C99.087,5.853 99.279,5.751 99.477,5.697 C99.675,5.643 99.834,5.616 99.954,5.616 C100.362,5.616 100.671,5.685 100.881,5.823 C101.091,5.961 101.241,6.144 101.331,6.372 C101.421,6.6 101.472,6.849 101.484,7.119 C101.496,7.389 101.502,7.662 101.502,7.938 L101.502,13.158 L104.058,13.158 L104.058,7.974 C104.058,7.686 104.079,7.401 104.121,7.119 C104.163,6.837 104.247,6.585 104.373,6.363 C104.499,6.141 104.673,5.961 104.895,5.823 C105.117,5.685 105.408,5.616 105.768,5.616 C106.128,5.616 106.413,5.676 106.623,5.796 C106.833,5.916 106.992,6.078 107.1,6.282 C107.208,6.486 107.274,6.726 107.298,7.002 C107.322,7.278 107.334,7.572 107.334,7.884 L107.334,13.158 L109.89,13.158 L109.89,6.93 C109.89,6.33 109.806,5.817 109.638,5.391 C109.47,4.965 109.236,4.62 108.936,4.356 C108.636,4.092 108.276,3.9 107.856,3.78 C107.436,3.66 106.98,3.6 106.488,3.6 C105.84,3.6 105.279,3.756 104.805,4.068 C104.331,4.38 103.956,4.74 103.68,5.148 C103.428,4.572 103.059,4.17 102.573,3.942 C102.087,3.714 101.55,3.6 100.962,3.6 C100.35,3.6 99.807,3.732 99.333,3.996 C98.859,4.26 98.454,4.632 98.118,5.112 L98.082,5.112 L98.082,3.852 L95.67,3.852 Z" id="Path"></path>
            <path d="M116.244,10.962 C115.848,10.962 115.518,10.878 115.254,10.71 C114.99,10.542 114.777,10.326 114.615,10.062 C114.453,9.798 114.339,9.501 114.273,9.171 C114.207,8.841 114.174,8.508 114.174,8.172 C114.174,7.824 114.213,7.491 114.291,7.173 C114.369,6.855 114.495,6.573 114.669,6.327 C114.843,6.081 115.059,5.886 115.317,5.742 C115.575,5.598 115.884,5.526 116.244,5.526 C116.664,5.526 117.012,5.604 117.288,5.76 C117.564,5.916 117.786,6.126 117.954,6.39 C118.122,6.654 118.242,6.957 118.314,7.299 C118.386,7.641 118.422,8.004 118.422,8.388 C118.422,8.724 118.377,9.045 118.287,9.351 C118.197,9.657 118.062,9.93 117.882,10.17 C117.702,10.41 117.474,10.602 117.198,10.746 C116.922,10.89 116.604,10.962 116.244,10.962 Z M120.852,12.564 L120.852,3.852 L118.422,3.852 L118.422,5.094 L118.386,5.094 C118.074,4.554 117.687,4.17 117.225,3.942 C116.763,3.714 116.226,3.6 115.614,3.6 C114.966,3.6 114.393,3.726 113.895,3.978 C113.397,4.23 112.98,4.569 112.644,4.995 C112.308,5.421 112.053,5.913 111.879,6.471 C111.705,7.029 111.618,7.608 111.618,8.208 C111.618,8.844 111.693,9.447 111.843,10.017 C111.993,10.587 112.23,11.085 112.554,11.511 C112.878,11.937 113.292,12.273 113.796,12.519 C114.3,12.765 114.9,12.888 115.596,12.888 C116.16,12.888 116.697,12.771 117.207,12.537 C117.717,12.303 118.11,11.94 118.386,11.448 L118.422,11.448 L118.422,12.672 C118.434,13.332 118.275,13.878 117.945,14.31 C117.615,14.742 117.09,14.958 116.37,14.958 C115.914,14.958 115.512,14.865 115.164,14.679 C114.816,14.493 114.582,14.16 114.462,13.68 L111.924,13.68 C111.96,14.208 112.107,14.661 112.365,15.039 C112.623,15.417 112.947,15.726 113.337,15.966 C113.727,16.206 114.159,16.383 114.633,16.497 C115.107,16.611 115.572,16.668 116.028,16.668 C117.096,16.668 117.948,16.524 118.584,16.236 C119.22,15.948 119.706,15.597 120.042,15.183 C120.378,14.769 120.597,14.322 120.699,13.842 C120.801,13.362 120.852,12.936 120.852,12.564 Z" id="Shape"></path>
            <polygon id="Path" points="126.756 0 121.752 13.446 123.786 13.446 128.808 0"></polygon>
            <path d="M136.188,8.478 C136.188,8.862 136.152,9.234 136.08,9.594 C136.008,9.954 135.888,10.275 135.72,10.557 C135.552,10.839 135.327,11.064 135.045,11.232 C134.763,11.4 134.412,11.484 133.992,11.484 C133.596,11.484 133.257,11.397 132.975,11.223 C132.693,11.049 132.459,10.821 132.273,10.539 C132.087,10.257 131.952,9.936 131.868,9.576 C131.784,9.216 131.742,8.856 131.742,8.496 C131.742,8.112 131.781,7.743 131.859,7.389 C131.937,7.035 132.063,6.72 132.237,6.444 C132.411,6.168 132.642,5.946 132.93,5.778 C133.218,5.61 133.572,5.526 133.992,5.526 C134.412,5.526 134.76,5.61 135.036,5.778 C135.312,5.946 135.537,6.165 135.711,6.435 C135.885,6.705 136.008,7.017 136.08,7.371 C136.152,7.725 136.188,8.094 136.188,8.478 Z M136.224,11.97 L136.224,13.158 L138.654,13.158 L138.654,0.306 L136.098,0.306 L136.098,4.986 L136.062,4.986 C135.774,4.53 135.381,4.185 134.883,3.951 C134.385,3.717 133.86,3.6 133.308,3.6 C132.624,3.6 132.024,3.735 131.508,4.005 C130.992,4.275 130.563,4.632 130.221,5.076 C129.879,5.52 129.621,6.033 129.447,6.615 C129.273,7.197 129.186,7.8 129.186,8.424 C129.186,9.072 129.273,9.696 129.447,10.296 C129.621,10.896 129.879,11.427 130.221,11.889 C130.563,12.351 130.998,12.717 131.526,12.987 C132.054,13.257 132.666,13.392 133.362,13.392 C133.974,13.392 134.523,13.281 135.009,13.059 C135.495,12.837 135.888,12.474 136.188,11.97 L136.224,11.97 Z" id="Shape"></path>
            <polygon id="Path" points="140.85 0.306 140.85 13.158 149.94 13.158 149.94 10.782 143.676 10.782 143.676 0.306"></polygon>
            <path d="M150.174,16.416 L152.298,16.416 C152.694,15.852 153.042,15.228 153.342,14.544 C153.642,13.86 153.891,13.155 154.089,12.429 C154.287,11.703 154.434,10.971 154.53,10.233 C154.626,9.495 154.674,8.79 154.674,8.118 C154.674,6.702 154.467,5.304 154.053,3.924 C153.639,2.544 153.054,1.236 152.298,0 L150.192,0 C150.852,1.308 151.338,2.658 151.65,4.05 C151.962,5.442 152.118,6.858 152.118,8.298 C152.118,9.714 151.959,11.103 151.641,12.465 C151.323,13.827 150.834,15.144 150.174,16.416 Z" id="Path"></path>
        </g>
        <line x1="219.5" y1="37.5" x2="409.5" y2="37.5" id="Line" stroke="#000000" stroke-width="2" stroke-linecap="square"></line>
    </g>
</svg>