<?xml version="1.0" encoding="UTF-8"?>
<svg width="2078px" height="1004px" viewBox="0 0 2078 1004" version="1.1" xmlns="http://www.w3.org/2000/svg" xmlns:xlink="http://www.w3.org/1999/xlink">
    <title>figure-03-3</title>
    <defs>
        <linearGradient x1="52.8131065%" y1="44.4494337%" x2="59.6590516%" y2="27.24267%" id="linearGradient-1">
            <stop stop-color="#FFC47E" offset="0%"></stop>
            <stop stop-color="#7EFF8D" stop-opacity="0" offset="100%"></stop>
        </linearGradient>
        <linearGradient x1="51.6600388%" y1="69.0264971%" x2="49.0697252%" y2="79.8987822%" id="linearGradient-2">
            <stop stop-color="#FF8C88" offset="0%"></stop>
            <stop stop-color="#8895FF" stop-opacity="0" offset="100%"></stop>
        </linearGradient>
        <linearGradient x1="52.8131065%" y1="44.4494337%" x2="59.6590516%" y2="27.24267%" id="linearGradient-3">
            <stop stop-color="#7EFF8D" offset="0%"></stop>
            <stop stop-color="#7EFF8D" stop-opacity="0" offset="100%"></stop>
        </linearGradient>
        <linearGradient x1="51.6600388%" y1="69.0264971%" x2="49.0697252%" y2="79.8987822%" id="linearGradient-4">
            <stop stop-color="#0CC897" offset="0%"></stop>
            <stop stop-color="#8895FF" stop-opacity="0" offset="100%"></stop>
        </linearGradient>
    </defs>
    <g id="Page-1" stroke="none" stroke-width="1" fill="none" fill-rule="evenodd">
        <rect id="Rectangle" fill="#FFFFFF" x="0" y="0" width="2078" height="1004"></rect>
        <g id="Bowman's_capsule_and_glomerulus" transform="translate(1382.589501, 173.121494)">
            <path d="M164.234709,743.070606 L282.741019,747.672796 L342.569439,615.935196 L374.784749,584.870436 L116.487029,533.095846 C116.487029,533.095846 153.869409,550.250106 166.535799,565.311146 C180.635269,582.076196 189.935639,603.892706 191.847829,625.714846 C193.756129,647.492626 185.125339,666.802476 175.740179,689.138736 C167.152469,709.577116 159.716299,743.070606 164.234709,743.070606 L164.234709,743.070606 Z" id="path3934" fill="url(#linearGradient-1)"></path>
            <path d="M283.410499,746.322946 C305.410499,704.322946 324.410499,661.322946 343.410499,614.322946 C359.410499,594.322946 382.410499,576.322946 405.410499,557.322946 C435.410499,523.322946 469.410499,468.322946 475.410499,451.322946 C489.410499,407.322946 503.410499,364.322946 500.410499,320.322946 C499.410499,295.322946 489.410499,270.322946 483.410499,246.322946 C477.410499,224.322946 475.410499,203.322946 465.410499,182.322946 C453.410499,163.322946 431.410499,146.322946 412.410499,129.322946 C389.410499,113.322946 366.410499,100.32295 337.410499,90.3229504 C298.410499,80.3229504 276.410499,102.32295 281.410499,122.322946 C287.410499,144.322946 310.410499,163.322946 333.410499,182.322946 C354.410499,196.322946 386.410499,210.322946 396.410499,224.322946 C411.410499,247.322946 412.410499,270.322946 422.410499,292.322946 C425.410499,315.322946 428.410499,350.322946 427.410499,362.322946 C414.410499,383.322946 400.410499,406.322946 386.410499,424.322946 C368.410499,444.322946 366.410499,458.322946 332.410499,474.322946 C301.410499,485.322946 267.410499,479.322946 238.410499,477.322946 C213.410499,472.322946 185.410499,473.322946 164.410499,461.322946 C148.410499,451.322946 136.410499,417.322946 122.410499,394.322946 C110.410499,368.322946 93.4104986,351.322946 87.4104986,312.322946 C85.4104986,292.322946 103.410499,271.322946 110.410499,251.322946 C121.410499,230.322946 125.410499,209.322946 142.410499,188.322946 C170.410499,164.322946 167.410499,130.322946 153.410499,121.322946 C135.410499,103.32295 117.410499,111.322946 99.4104986,125.322946 C79.4104986,140.322946 66.4104986,162.322946 59.4104986,181.322946 C41.4104986,199.322946 27.4104986,220.322946 20.4104986,240.322946 C11.4104986,267.322946 14.4104986,294.322946 19.4104986,321.322946 C21.4104986,347.322946 22.4104986,374.322946 28.4104986,399.322946 C37.4104986,426.322946 51.4104986,444.322946 64.4104986,465.322946 C78.4104986,486.322946 85.4104986,501.322946 113.410499,527.322946 C124.410499,541.322946 144.410499,544.322946 162.410499,562.322946 C229.410499,636.322946 160.410499,684.322946 162.410499,744.322946 L283.410499,746.322946 Z" id="path9" fill="url(#linearGradient-2)"></path>
            <path d="M360.410499,411.322946 C375.410499,403.322946 389.410499,394.322946 390.410499,373.322946 C390.410499,359.322946 382.410499,352.322946 382.410499,341.322946 C383.410499,329.322946 392.410499,320.322946 390.410499,308.322946 C390.410499,290.322946 372.410499,281.322946 353.410499,274.322946 C346.410499,280.322946 338.410499,286.322946 331.410499,292.322946 C350.410499,290.322946 368.410499,289.322946 374.410499,309.322946 C377.410499,329.322946 357.410499,334.322946 362.410499,347.322946 C366.410499,355.322946 372.410499,360.322946 375.410499,369.322946 C375.410499,380.322946 368.410499,380.322946 364.410499,384.322946 C361.410499,390.322946 362.410499,405.322946 360.410499,411.322946 Z" id="path11" stroke="#000000" stroke-width="3" fill="#E54762"></path>
            <path d="M296.410499,368.322946 C288.410499,374.322946 282.410499,384.322946 277.410499,403.322946 C275.410499,436.322946 262.410499,437.322946 247.410499,438.322946 C244.410499,429.322946 243.410499,419.322946 243.410499,410.322946 C261.410499,387.322946 272.410499,366.322946 274.410499,345.322946 C275.410499,327.322946 269.410499,318.322946 257.410499,319.322946 C249.410499,321.322946 248.410499,335.322946 223.410499,354.322946 C204.410499,360.322946 188.410499,356.322946 179.410499,342.322946 C177.410499,347.322946 176.410499,353.322946 174.410499,359.322946 C187.410499,370.322946 201.410499,374.322946 217.410499,370.322946 C228.410499,368.322946 244.410499,366.322946 261.410499,340.322946 C260.410499,344.322946 260.410499,348.322946 259.410499,354.322946 C252.410499,370.322946 242.410499,384.322946 232.410499,398.322946 C213.410499,413.322946 210.410499,438.322946 235.410499,454.322946 C246.410499,460.322946 258.410499,460.322946 273.410499,448.322946 C285.410499,440.322946 293.410499,430.322946 291.410499,417.322946 C294.410499,403.322946 297.410499,396.322946 300.410499,391.322946 C310.410499,379.322946 317.410499,366.322946 335.410499,356.322946 C346.410499,348.322946 367.410499,366.322946 383.410499,366.322946 C406.410499,360.322946 418.410499,324.322946 398.410499,305.322946 C391.410499,300.322946 371.410499,294.322946 355.410499,302.322946 C326.410499,327.322946 312.410499,323.322946 309.410499,300.322946 C310.410499,295.322946 311.410499,289.322946 311.410499,284.322946 C305.410499,282.322946 298.410499,280.322946 291.410499,278.322946 C286.410499,287.322946 284.410499,297.322946 285.410499,311.322946 C292.410499,325.322946 304.410499,329.322946 317.410499,331.322946 C350.410499,340.322946 363.410499,300.322946 379.410499,313.322946 C399.410499,314.322946 402.410499,330.322946 389.410499,341.322946 C379.410499,346.322946 361.410499,343.322946 342.410499,338.322946 C321.410499,341.322946 308.410499,355.322946 296.410499,368.322946 Z" id="path13" stroke="#000000" stroke-width="3" fill="#E54762"></path>
            <path d="M295.721045,19.4331939 C283.564021,23.529534 251.23667,22.2222564 243.218175,54.4333076 C235.19968,86.6443588 236.551963,167.41218 275.410499,205.322946 C278.410499,208.322946 280.410499,215.322946 276.410499,223.322946 C257.410499,285.322946 293.410499,285.322946 310.410499,288.322946 C314.410499,282.322946 324.410499,276.322946 332.410499,271.322946 C309.410499,272.322946 290.410499,271.322946 286.410499,249.322946 C286.410499,242.322946 296.410499,232.322946 298.410499,216.322946 C297.410499,207.322946 292.410499,198.322946 288.410499,189.322946 C300.410499,203.322946 320.410499,214.322946 319.410499,235.322946 C319.410499,246.322946 308.410499,257.322946 301.410499,268.322946 C305.410499,270.322946 313.410499,271.322946 321.410499,271.322946 C332.410499,256.322946 340.410499,239.322946 331.410499,223.322946 C344.410499,237.322946 350.410499,257.322946 337.410499,268.322946 C318.410499,278.322946 301.410499,292.322946 300.410499,310.322946 C301.410499,362.322946 313.410499,400.322946 337.410499,414.322946 C361.410499,425.322946 374.410499,394.322946 370.410499,383.322946 C362.410499,358.322946 347.410499,358.322946 329.410499,370.322946 C330.410499,373.322946 336.410499,384.322946 338.410499,386.322946 C346.410499,376.322946 356.410499,383.322946 354.410499,388.322946 C351.410499,393.322946 345.410499,392.322946 339.410499,387.322946 C330.410499,373.322946 320.410499,360.322946 320.410499,325.322946 C321.410499,304.322946 331.410499,293.322946 345.410499,287.322946 C364.410499,273.322946 374.410499,248.322946 358.410499,226.322946 C325.410499,199.322946 287.410499,173.322946 273.410499,131.322946 C271.775138,101.886458 267.182228,74.1570619 281.451637,58.8788951 C295.721045,43.6007282 429.410499,32.2456939 452.410499,28.9624908 C455.410499,9.6541636 456.910499,-2.84217094e-14 456.910499,-2.84217094e-14 C434.969854,3.01131448 347.79151,1.88791908 295.721045,19.4331939 Z" id="path15" stroke="#000000" stroke-width="3" fill="#E54762"></path>
            <path d="M211.410499,304.322946 C212.410499,334.322946 219.410499,363.322946 202.410499,395.322946 C193.410499,412.322946 183.410499,418.322946 171.410499,402.322946 C164.410499,392.322946 177.410499,369.322946 181.410499,339.322946 C185.410499,326.322946 186.410499,309.322946 185.410499,296.322946 L160.410499,349.322946 C153.410499,381.322946 153.410499,416.322946 168.410499,425.322946 C191.410499,439.322946 207.410499,425.322946 219.410499,400.322946 C229.410499,372.322946 227.410499,346.322946 227.410499,320.322946 C234.410499,295.322946 254.410499,289.322946 266.410499,310.322946 C287.410499,362.322946 294.410499,414.322946 324.410499,403.322946 C318.410499,396.322946 314.410499,388.322946 310.410499,379.322946 C300.410499,376.322946 298.410499,331.322946 279.410499,300.322946 C261.410499,278.322946 236.410499,271.322946 211.410499,304.322946 Z" id="path17" stroke="#000000" stroke-width="3" fill="#E54762"></path>
            <path d="M162.410499,744.322946 C160.410499,684.322946 229.410499,636.322946 162.410499,562.322946 C144.410499,544.322946 124.410499,541.322946 113.410499,527.322946 C85.4104986,501.322946 78.4104986,486.322946 64.4104986,465.322946 C51.4104986,444.322946 37.4104986,426.322946 28.4104986,399.322946 C22.4104986,374.322946 21.4104986,347.322946 19.4104986,321.322946 C14.4104986,294.322946 11.4104986,267.322946 20.4104986,240.322946 C27.4104986,220.322946 41.4104986,199.322946 59.4104986,181.322946 C66.4104986,162.322946 79.4104986,140.322946 99.4104986,125.322946 C117.410499,111.322946 135.410499,103.32295 153.410499,121.322946 C167.410499,130.322946 170.410499,164.322946 142.410499,188.322946 C125.410499,209.322946 121.410499,230.322946 110.410499,251.322946 C103.410499,271.322946 85.4104986,292.322946 87.4104986,312.322946 C93.4104986,351.322946 110.410499,368.322946 122.410499,394.322946 C136.410499,417.322946 148.410499,451.322946 164.410499,461.322946 C185.410499,473.322946 213.410499,472.322946 238.410499,477.322946 C267.410499,479.322946 301.410499,485.322946 332.410499,474.322946 C366.410499,458.322946 368.410499,444.322946 386.410499,424.322946 C400.410499,406.322946 414.410499,383.322946 427.410499,362.322946 C428.410499,350.322946 425.410499,315.322946 422.410499,292.322946 C412.410499,270.322946 411.410499,247.322946 396.410499,224.322946 C386.410499,210.322946 354.410499,196.322946 333.410499,182.322946 C310.410499,163.322946 287.410499,144.322946 281.410499,122.322946 C276.410499,102.32295 298.410499,80.3229504 337.410499,90.3229504 C366.410499,100.32295 389.410499,113.322946 412.410499,129.322946 C431.410499,146.322946 453.410499,163.322946 465.410499,182.322946 C475.410499,203.322946 477.410499,224.322946 483.410499,246.322946 C489.410499,270.322946 499.410499,295.322946 500.410499,320.322946 C503.410499,364.322946 489.410499,407.322946 475.410499,451.322946 C469.410499,468.322946 435.410499,523.322946 405.410499,557.322946 C382.410499,576.322946 359.410499,594.322946 343.410499,614.322946 C324.410499,661.322946 305.410499,704.322946 283.410499,746.322946 L259.410499,741.322946 C261.410499,728.322946 265.410499,718.322946 275.410499,716.322946 C272.410499,702.322946 276.410499,692.322946 287.410499,689.322946 C287.410499,678.322946 290.410499,669.322946 300.410499,663.322946 C298.410499,650.322946 302.410499,640.322946 315.410499,640.322946 C313.410499,628.322946 314.410499,618.322946 321.410499,610.322946 C326.410499,607.322946 330.410499,603.322946 334.410499,600.322946 C341.410499,600.322946 347.410499,599.322946 353.410499,599.322946 C367.410499,561.322946 399.410499,531.322946 444.410499,504.322946 C445.410499,465.322946 464.410499,425.322946 492.410499,386.322946 C483.410499,347.322946 481.410499,299.322946 481.410499,245.322946 C457.410499,207.322946 444.410499,168.322946 410.410499,130.322946 C387.410499,113.322946 315.410499,102.32295 290.410499,99.3229504 C279.410499,109.322946 280.410499,120.322946 286.410499,131.322946 C310.410499,157.322946 356.410499,170.322946 399.410499,223.322946 C434.410499,262.322946 450.410499,307.322946 428.410499,364.322946 C411.410499,424.322946 378.410499,460.322946 330.410499,477.322946 C307.410499,487.322946 280.410499,494.322946 245.410499,494.322946 C212.410499,491.322946 189.410499,476.322946 163.410499,463.322946 C141.410499,446.322946 118.410499,428.322946 105.410499,401.322946 C95.4104986,371.322946 91.4104986,341.322946 86.4104986,312.322946 C82.4104986,261.322946 101.410499,222.322946 141.410499,188.322946 C162.410499,166.322946 172.410499,142.322946 152.410499,121.322946 C138.410499,102.32295 90.4104986,161.322946 61.4104986,182.322946 C39.4104986,227.322946 21.4104986,294.322946 22.4104986,322.322946 C38.4104986,361.322946 52.4104986,427.322946 67.4104986,464.322946 C90.4104986,502.322946 148.410499,521.322946 167.410499,559.322946 C183.410499,566.322946 195.410499,574.322946 193.410499,584.322946 C201.410499,586.322946 204.410499,595.322946 203.410499,611.322946 C212.410499,619.322946 218.410499,628.322946 208.410499,641.322946 C217.410499,648.322946 217.410499,656.322946 206.410499,665.322946 C215.410499,672.322946 213.410499,681.322946 202.410499,690.322946 C206.410499,698.322946 205.410499,706.322946 193.410499,714.322946 C196.410499,723.322946 195.410499,732.322946 188.410499,741.322946 L162.410499,744.322946 Z" id="path19" stroke="#000000" stroke-width="3"></path>
            <path d="M1.93002987,46.9614117 C21.0872564,48.6332867 136.741003,31.785733 148.525733,46.9614117 C160.310463,62.1370905 161.901075,129.506105 178.410499,169.322946 C185.410499,186.322946 182.410499,200.322946 172.410499,211.322946 C144.410499,255.322946 88.4104986,293.322946 127.410499,360.322946 C135.410499,374.322946 161.410499,365.322946 165.410499,352.322946 C173.410499,309.322946 187.410499,295.322946 208.410499,305.322946 C230.410499,320.322946 232.410499,351.322946 230.410499,388.322946 C227.410499,454.322946 261.410499,461.322946 277.410499,462.322946 C310.410499,468.322946 338.410499,441.322946 343.410499,416.322946 C337.410499,416.322946 330.410499,410.322946 324.410499,403.322946 C319.410499,434.322946 305.410499,445.322946 281.410499,445.322946 C258.410499,445.322946 245.410499,434.322946 245.410499,402.322946 C244.410499,379.322946 244.410499,357.322946 243.410499,334.322946 C238.410499,304.322946 213.410499,287.322946 184.410499,288.322946 C171.410499,289.322946 159.410499,302.322946 152.410499,342.322946 C149.410499,357.322946 129.410499,349.322946 131.410499,317.322946 C131.410499,292.322946 145.410499,269.322946 162.410499,247.322946 C155.410499,268.322946 160.410499,285.322946 169.410499,297.322946 C173.410499,292.322946 177.410499,289.322946 184.410499,288.322946 C171.410499,280.322946 167.410499,265.322946 174.410499,248.322946 C181.410499,234.322946 192.410499,220.322946 197.410499,206.322946 C210.410499,220.322946 222.410499,230.322946 234.410499,236.322946 C250.410499,245.322946 244.410499,259.322946 226.410499,264.322946 C209.410499,263.322946 193.410499,270.322946 178.410499,284.322946 C180.410499,286.322946 182.410499,288.322946 184.410499,288.322946 C189.410499,288.322946 195.410499,289.322946 199.410499,290.322946 C199.410499,279.322946 254.410499,278.322946 258.410499,261.322946 C265.410499,245.322946 260.410499,234.322946 249.410499,225.322946 C195.410499,191.322946 184.410499,84.4119257 173.410499,43.3229504 C162.410499,2.23397517 101.410499,14.1109283 76.4827642,14.1109283 C43.1864794,14.1109283 3.23499618,20.8453033 -2.84217094e-14,20.8453033 C-2.84217094e-14,20.8453033 1.93002987,46.9614117 1.93002987,46.9614117 Z" id="path21" stroke="#000000" stroke-width="3" fill="#E54762"></path>
            <path d="M193.410499,713.322946 C183.410499,713.322946 176.410499,710.322946 169.410499,707.322946" id="path23" stroke="#000000" stroke-width="3"></path>
            <path d="M202.410499,690.322946 C192.410499,690.322946 184.410499,687.322946 178.410499,684.322946" id="path25" stroke="#000000" stroke-width="3"></path>
            <path d="M207.410499,665.322946 C202.410499,665.322946 194.410499,662.322946 187.410499,658.322946" id="path27" stroke="#000000" stroke-width="3"></path>
            <path d="M208.410499,641.322946 C203.410499,640.322946 196.410499,637.322946 191.410499,634.322946" id="path29" stroke="#000000" stroke-width="3"></path>
            <path d="M203.410499,611.322946 C199.410499,612.322946 195.410499,610.322946 189.410499,606.322946" id="path31" stroke="#000000" stroke-width="3"></path>
            <path d="M193.410499,585.322946 C191.410499,581.322946 185.410499,582.322946 178.410499,583.322946" id="path33" stroke="#000000" stroke-width="3"></path>
            <path d="M168.410499,560.322946 C166.410499,561.322946 164.410499,562.322946 162.410499,561.322946" id="path35" stroke="#000000" stroke-width="3"></path>
            <path d="M275.410499,716.322946 C282.410499,717.322946 288.410499,720.322946 294.410499,723.322946" id="path37" stroke="#000000" stroke-width="3"></path>
            <path d="M287.410499,690.322946 C295.410499,690.322946 301.410499,694.322946 305.410499,700.322946" id="path39" stroke="#000000" stroke-width="3"></path>
            <path d="M300.410499,663.322946 C308.410499,665.322946 314.410499,668.322946 317.410499,673.322946" id="path41" stroke="#000000" stroke-width="3"></path>
            <path d="M315.410499,640.322946 C320.410499,642.322946 324.410499,644.322946 329.410499,647.322946" id="path43" stroke="#000000" stroke-width="3"></path>
            <path d="M322.410499,609.322946 C328.410499,612.322946 336.410499,615.322946 340.410499,620.322946" id="path45" stroke="#000000" stroke-width="3"></path>
            <circle id="circle47" fill="#000000" transform="translate(279.410499, 732.322946) scale(-1, 1) rotate(-180.000000) translate(-279.410499, -732.322946) " cx="279.410499" cy="732.322946" r="5"></circle>
            <circle id="circle49" fill="#000000" transform="translate(291.410499, 706.322946) scale(-1, 1) rotate(-180.000000) translate(-291.410499, -706.322946) " cx="291.410499" cy="706.322946" r="5"></circle>
            <circle id="circle51" fill="#000000" transform="translate(305.410499, 680.322946) scale(-1, 1) rotate(-180.000000) translate(-305.410499, -680.322946) " cx="305.410499" cy="680.322946" r="5"></circle>
            <circle id="circle53" fill="#000000" transform="translate(315.410499, 655.322946) scale(-1, 1) rotate(-180.000000) translate(-315.410499, -655.322946) " cx="315.410499" cy="655.322946" r="4"></circle>
            <circle id="circle55" fill="#000000" transform="translate(327.410499, 628.322946) scale(-1, 1) rotate(-180.000000) translate(-327.410499, -628.322946) " cx="327.410499" cy="628.322946" r="3"></circle>
            <circle id="circle57" fill="#000000" transform="translate(338.410499, 607.322946) scale(-1, 1) rotate(-180.000000) translate(-338.410499, -607.322946) " cx="338.410499" cy="607.322946" r="2"></circle>
            <circle id="circle59" fill="#000000" transform="translate(193.410499, 594.322946) scale(-1, 1) rotate(-180.000000) translate(-193.410499, -594.322946) " cx="193.410499" cy="594.322946" r="2"></circle>
            <circle id="circle61" fill="#000000" transform="translate(180.410499, 573.322946) scale(-1, 1) rotate(-180.000000) translate(-180.410499, -573.322946) " cx="180.410499" cy="573.322946" r="2"></circle>
            <circle id="circle63" fill="#000000" transform="translate(202.410499, 625.322946) scale(-1, 1) rotate(-180.000000) translate(-202.410499, -625.322946) " cx="202.410499" cy="625.322946" r="3"></circle>
            <circle id="circle65" fill="#000000" transform="translate(202.410499, 651.322946) scale(-1, 1) rotate(-180.000000) translate(-202.410499, -651.322946) " cx="202.410499" cy="651.322946" r="3"></circle>
            <circle id="circle67" fill="#000000" transform="translate(195.410499, 676.322946) scale(-1, 1) rotate(-180.000000) translate(-195.410499, -676.322946) " cx="195.410499" cy="676.322946" r="3"></circle>
            <circle id="circle69" fill="#000000" transform="translate(181.410499, 724.322946) scale(-1, 1) rotate(-180.000000) translate(-181.410499, -724.322946) " cx="181.410499" cy="724.322946" r="5"></circle>
            <circle id="circle71" fill="#000000" transform="translate(188.410499, 699.322946) scale(-1, 1) rotate(-180.000000) translate(-188.410499, -699.322946) " cx="188.410499" cy="699.322946" r="4"></circle>
            <line x1="110.410499" y1="513.322946" x2="127.410499" y2="525.322946" id="path73" stroke="#000000" stroke-width="5" stroke-linecap="round"></line>
            <line x1="33.4104986" y1="378.322946" x2="39.4104986" y2="399.322946" id="path75" stroke="#000000" stroke-width="5" stroke-linecap="round"></line>
            <line x1="27.4104986" y1="257.322946" x2="34.4104986" y2="228.322946" id="path77" stroke="#000000" stroke-width="5" stroke-linecap="round"></line>
            <line x1="246.410499" y1="486.322946" x2="228.410499" y2="482.322946" id="path79" stroke="#000000" stroke-width="5" stroke-linecap="round"></line>
            <line x1="120.410499" y1="409.322946" x2="111.410499" y2="389.322946" id="path81" stroke="#000000" stroke-width="5" stroke-linecap="round"></line>
            <line x1="101.410499" y1="255.322946" x2="108.410499" y2="237.322946" id="path83" stroke="#000000" stroke-width="5" stroke-linecap="round"></line>
            <line x1="94.4104986" y1="143.322946" x2="108.410499" y2="129.322946" id="path85" stroke="#000000" stroke-width="5" stroke-linecap="round"></line>
            <line x1="387.410499" y1="435.322946" x2="396.410499" y2="422.322946" id="path87" stroke="#000000" stroke-width="5" stroke-linecap="round"></line>
            <line x1="432.410499" y1="302.322946" x2="429.410499" y2="286.322946" id="path89" stroke="#000000" stroke-width="5" stroke-linecap="round"></line>
            <line x1="348.410499" y1="182.322946" x2="332.410499" y2="171.322946" id="path91" stroke="#000000" stroke-width="5" stroke-linecap="round"></line>
            <line x1="326.410499" y1="95.3229504" x2="348.410499" y2="103.32295" id="path93" stroke="#000000" stroke-width="5" stroke-linecap="round"></line>
            <line x1="452.410499" y1="180.322946" x2="461.410499" y2="195.322946" id="path95" stroke="#000000" stroke-width="5" stroke-linecap="round"></line>
            <line x1="491.410499" y1="310.322946" x2="493.410499" y2="331.322946" id="path97" stroke="#000000" stroke-width="5" stroke-linecap="round"></line>
            <line x1="470.410499" y1="438.322946" x2="459.410499" y2="462.322946" id="path99" stroke="#000000" stroke-width="5" stroke-linecap="round"></line>
            <line x1="405.410499" y1="542.322946" x2="389.410499" y2="559.322946" id="path101" stroke="#000000" stroke-width="5" stroke-linecap="round"></line>
            <path d="M230.410499,65.3229504 C226.410499,81.3229504 224.410499,98.3229504 225.410499,117.32295" id="path103" stroke="#000000" stroke-width="5" stroke-linecap="round"></path>
            <polyline id="path105" stroke="#000000" stroke-width="5" stroke-linecap="round" points="217.410499 108.32295 225.410499 117.322946 232.410499 107.32295"></polyline>
            <path d="M199.410499,99.3229504 C195.410499,83.3229504 193.410499,65.3229504 194.410499,46.3229504" id="path107" stroke="#000000" stroke-width="5" stroke-linecap="round"></path>
            <polyline id="path109" stroke="#000000" stroke-width="5" stroke-linecap="round" points="186.410499 56.3229504 194.410499 46.3229504 200.410499 56.3229504"></polyline>
            <path d="M454.894874,2.07688756 C456.962582,2.32093555 457.996436,2.44295955 457.996436,2.44295955 C455.445655,18.7710845 454.170264,26.935147 454.170264,26.935147 L450.79917,27.4175689 C453.529639,10.5237813 454.894874,2.07688756 454.894874,2.07688756 Z" id="Path" fill="#E54762"></path>
        </g>
        <g id="Bowman's_capsule_and_glomerulus-Copy" transform="translate(277.174805, 188.250000)">
            <path d="M165.649405,755.9421 L284.155715,760.54429 L343.984135,628.80669 L376.199445,597.74193 L117.901725,545.96734 C117.901725,545.96734 155.284105,563.1216 167.950495,578.18264 C182.049965,594.94769 191.350335,616.7642 193.262525,638.58634 C195.170825,660.36412 186.540035,679.67397 177.154875,702.01023 C168.567165,722.44861 161.130995,755.9421 165.649405,755.9421 L165.649405,755.9421 Z" id="path3934" fill="url(#linearGradient-3)"></path>
            <path d="M284.825195,759.19444 C306.825195,717.19444 325.825195,674.19444 344.825195,627.19444 C360.825195,607.19444 383.825195,589.19444 406.825195,570.19444 C436.825195,536.19444 470.825195,481.19444 476.825195,464.19444 C490.825195,420.19444 504.825195,377.19444 501.825195,333.19444 C500.825195,308.19444 490.825195,283.19444 484.825195,259.19444 C478.825195,237.19444 476.825195,216.19444 466.825195,195.19444 C454.825195,176.19444 432.825195,159.19444 413.825195,142.19444 C390.825195,126.19444 367.825195,113.194444 338.825195,103.194444 C299.825195,93.194444 277.825195,115.194444 282.825195,135.19444 C288.825195,157.19444 311.825195,176.19444 334.825195,195.19444 C355.825195,209.19444 387.825195,223.19444 397.825195,237.19444 C412.825195,260.19444 413.825195,283.19444 423.825195,305.19444 C426.825195,328.19444 429.825195,363.19444 428.825195,375.19444 C415.825195,396.19444 401.825195,419.19444 387.825195,437.19444 C369.825195,457.19444 367.825195,471.19444 333.825195,487.19444 C302.825195,498.19444 268.825195,492.19444 239.825195,490.19444 C214.825195,485.19444 186.825195,486.19444 165.825195,474.19444 C149.825195,464.19444 137.825195,430.19444 123.825195,407.19444 C111.825195,381.19444 94.8251953,364.19444 88.8251953,325.19444 C86.8251953,305.19444 104.825195,284.19444 111.825195,264.19444 C122.825195,243.19444 126.825195,222.19444 143.825195,201.19444 C171.825195,177.19444 168.825195,143.19444 154.825195,134.19444 C136.825195,116.194444 118.825195,124.19444 100.825195,138.19444 C80.8251953,153.19444 67.8251953,175.19444 60.8251953,194.19444 C42.8251953,212.19444 28.8251953,233.19444 21.8251953,253.19444 C12.8251953,280.19444 15.8251953,307.19444 20.8251953,334.19444 C22.8251953,360.19444 23.8251953,387.19444 29.8251953,412.19444 C38.8251953,439.19444 52.8251953,457.19444 65.8251953,478.19444 C79.8251953,499.19444 86.8251953,514.19444 114.825195,540.19444 C125.825195,554.19444 145.825195,557.19444 163.825195,575.19444 C230.825195,649.19444 161.825195,697.19444 163.825195,757.19444 L284.825195,759.19444 Z" id="path9" fill="url(#linearGradient-4)"></path>
            <path d="M361.825195,424.19444 C376.825195,416.19444 390.825195,407.19444 391.825195,386.19444 C391.825195,372.19444 383.825195,365.19444 383.825195,354.19444 C384.825195,342.19444 393.825195,333.19444 391.825195,321.19444 C391.825195,303.19444 373.825195,294.19444 354.825195,287.19444 C347.825195,293.19444 339.825195,299.19444 332.825195,305.19444 C351.825195,303.19444 369.825195,302.19444 375.825195,322.19444 C378.825195,342.19444 358.825195,347.19444 363.825195,360.19444 C367.825195,368.19444 373.825195,373.19444 376.825195,382.19444 C376.825195,393.19444 369.825195,393.19444 365.825195,397.19444 C362.825195,403.19444 363.825195,418.19444 361.825195,424.19444 Z" id="path11" stroke="#000000" stroke-width="3" fill="#E54762"></path>
            <path d="M297.825195,381.19444 C289.825195,387.19444 283.825195,397.19444 278.825195,416.19444 C276.825195,449.19444 263.825195,450.19444 248.825195,451.19444 C245.825195,442.19444 244.825195,432.19444 244.825195,423.19444 C262.825195,400.19444 273.825195,379.19444 275.825195,358.19444 C276.825195,340.19444 270.825195,331.19444 258.825195,332.19444 C250.825195,334.19444 249.825195,348.19444 224.825195,367.19444 C205.825195,373.19444 189.825195,369.19444 180.825195,355.19444 C178.825195,360.19444 177.825195,366.19444 175.825195,372.19444 C188.825195,383.19444 202.825195,387.19444 218.825195,383.19444 C229.825195,381.19444 245.825195,379.19444 262.825195,353.19444 C261.825195,357.19444 261.825195,361.19444 260.825195,367.19444 C253.825195,383.19444 243.825195,397.19444 233.825195,411.19444 C214.825195,426.19444 211.825195,451.19444 236.825195,467.19444 C247.825195,473.19444 259.825195,473.19444 274.825195,461.19444 C286.825195,453.19444 294.825195,443.19444 292.825195,430.19444 C295.825195,416.19444 298.825195,409.19444 301.825195,404.19444 C311.825195,392.19444 318.825195,379.19444 336.825195,369.19444 C347.825195,361.19444 368.825195,379.19444 384.825195,379.19444 C407.825195,373.19444 419.825195,337.19444 399.825195,318.19444 C392.825195,313.19444 372.825195,307.19444 356.825195,315.19444 C327.825195,340.19444 313.825195,336.19444 310.825195,313.19444 C311.825195,308.19444 312.825195,302.19444 312.825195,297.19444 C306.825195,295.19444 299.825195,293.19444 292.825195,291.19444 C287.825195,300.19444 285.825195,310.19444 286.825195,324.19444 C293.825195,338.19444 305.825195,342.19444 318.825195,344.19444 C351.825195,353.19444 364.825195,313.19444 380.825195,326.19444 C400.825195,327.19444 403.825195,343.19444 390.825195,354.19444 C380.825195,359.19444 362.825195,356.19444 343.825195,351.19444 C322.825195,354.19444 309.825195,368.19444 297.825195,381.19444 Z" id="path13" stroke="#000000" stroke-width="3" fill="#E54762"></path>
            <path d="M297.135742,32.3046875 C284.978718,36.4010275 252.651367,35.09375 244.632872,67.3048012 C236.614377,99.5158524 237.96666,180.283673 276.825195,218.19444 C279.825195,221.19444 281.825195,228.19444 277.825195,236.19444 C258.825195,298.19444 294.825195,298.19444 311.825195,301.19444 C315.825195,295.19444 325.825195,289.19444 333.825195,284.19444 C310.825195,285.19444 291.825195,284.19444 287.825195,262.19444 C287.825195,255.19444 297.825195,245.19444 299.825195,229.19444 C298.825195,220.19444 293.825195,211.19444 289.825195,202.19444 C301.825195,216.19444 321.825195,227.19444 320.825195,248.19444 C320.825195,259.19444 309.825195,270.19444 302.825195,281.19444 C306.825195,283.19444 314.825195,284.19444 322.825195,284.19444 C333.825195,269.19444 341.825195,252.19444 332.825195,236.19444 C345.825195,250.19444 351.825195,270.19444 338.825195,281.19444 C319.825195,291.19444 302.825195,305.19444 301.825195,323.19444 C302.825195,375.19444 314.825195,413.19444 338.825195,427.19444 C362.825195,438.19444 375.825195,407.19444 371.825195,396.19444 C363.825195,371.19444 348.825195,371.19444 330.825195,383.19444 C331.825195,386.19444 337.825195,397.19444 339.825195,399.19444 C347.825195,389.19444 357.825195,396.19444 355.825195,401.19444 C352.825195,406.19444 346.825195,405.19444 340.825195,400.19444 C331.825195,386.19444 321.825195,373.19444 321.825195,338.19444 C322.825195,317.19444 332.825195,306.19444 346.825195,300.19444 C365.825195,286.19444 375.825195,261.19444 359.825195,239.19444 C326.825195,212.19444 288.825195,186.19444 274.825195,144.19444 C273.189835,114.757951 268.596925,87.0285555 282.866334,71.7503886 C297.135742,56.4722218 430.825195,45.1171875 453.825195,41.8339844 C456.825195,22.5256572 458.325195,12.8714936 458.325195,12.8714936 C436.38455,15.8828081 349.206207,14.7594127 297.135742,32.3046875 Z" id="path15" stroke="#000000" stroke-width="3" fill="#E54762"></path>
            <path d="M212.825195,317.19444 C213.825195,347.19444 220.825195,376.19444 203.825195,408.19444 C194.825195,425.19444 184.825195,431.19444 172.825195,415.19444 C165.825195,405.19444 178.825195,382.19444 182.825195,352.19444 C186.825195,339.19444 187.825195,322.19444 186.825195,309.19444 L161.825195,362.19444 C154.825195,394.19444 154.825195,429.19444 169.825195,438.19444 C192.825195,452.19444 208.825195,438.19444 220.825195,413.19444 C230.825195,385.19444 228.825195,359.19444 228.825195,333.19444 C235.825195,308.19444 255.825195,302.19444 267.825195,323.19444 C288.825195,375.19444 295.825195,427.19444 325.825195,416.19444 C319.825195,409.19444 315.825195,401.19444 311.825195,392.19444 C301.825195,389.19444 299.825195,344.19444 280.825195,313.19444 C262.825195,291.19444 237.825195,284.19444 212.825195,317.19444 Z" id="path17" stroke="#000000" stroke-width="3" fill="#E54762"></path>
            <path d="M163.825195,757.19444 C161.825195,697.19444 230.825195,649.19444 163.825195,575.19444 C145.825195,557.19444 125.825195,554.19444 114.825195,540.19444 C86.8251953,514.19444 79.8251953,499.19444 65.8251953,478.19444 C52.8251953,457.19444 38.8251953,439.19444 29.8251953,412.19444 C23.8251953,387.19444 22.8251953,360.19444 20.8251953,334.19444 C15.8251953,307.19444 12.8251953,280.19444 21.8251953,253.19444 C28.8251953,233.19444 42.8251953,212.19444 60.8251953,194.19444 C67.8251953,175.19444 80.8251953,153.19444 100.825195,138.19444 C118.825195,124.19444 136.825195,116.194444 154.825195,134.19444 C168.825195,143.19444 171.825195,177.19444 143.825195,201.19444 C126.825195,222.19444 122.825195,243.19444 111.825195,264.19444 C104.825195,284.19444 86.8251953,305.19444 88.8251953,325.19444 C94.8251953,364.19444 111.825195,381.19444 123.825195,407.19444 C137.825195,430.19444 149.825195,464.19444 165.825195,474.19444 C186.825195,486.19444 214.825195,485.19444 239.825195,490.19444 C268.825195,492.19444 302.825195,498.19444 333.825195,487.19444 C367.825195,471.19444 369.825195,457.19444 387.825195,437.19444 C401.825195,419.19444 415.825195,396.19444 428.825195,375.19444 C429.825195,363.19444 426.825195,328.19444 423.825195,305.19444 C413.825195,283.19444 412.825195,260.19444 397.825195,237.19444 C387.825195,223.19444 355.825195,209.19444 334.825195,195.19444 C311.825195,176.19444 288.825195,157.19444 282.825195,135.19444 C277.825195,115.194444 299.825195,93.194444 338.825195,103.194444 C367.825195,113.194444 390.825195,126.19444 413.825195,142.19444 C432.825195,159.19444 454.825195,176.19444 466.825195,195.19444 C476.825195,216.19444 478.825195,237.19444 484.825195,259.19444 C490.825195,283.19444 500.825195,308.19444 501.825195,333.19444 C504.825195,377.19444 490.825195,420.19444 476.825195,464.19444 C470.825195,481.19444 436.825195,536.19444 406.825195,570.19444 C383.825195,589.19444 360.825195,607.19444 344.825195,627.19444 C325.825195,674.19444 306.825195,717.19444 284.825195,759.19444 L260.825195,754.19444 C262.825195,741.19444 266.825195,731.19444 276.825195,729.19444 C273.825195,715.19444 277.825195,705.19444 288.825195,702.19444 C288.825195,691.19444 291.825195,682.19444 301.825195,676.19444 C299.825195,663.19444 303.825195,653.19444 316.825195,653.19444 C314.825195,641.19444 315.825195,631.19444 322.825195,623.19444 C327.825195,620.19444 331.825195,616.19444 335.825195,613.19444 C342.825195,613.19444 348.825195,612.19444 354.825195,612.19444 C368.825195,574.19444 400.825195,544.19444 445.825195,517.19444 C446.825195,478.19444 465.825195,438.19444 493.825195,399.19444 C484.825195,360.19444 482.825195,312.19444 482.825195,258.19444 C458.825195,220.19444 445.825195,181.19444 411.825195,143.19444 C388.825195,126.19444 316.825195,115.194444 291.825195,112.194444 C280.825195,122.19444 281.825195,133.19444 287.825195,144.19444 C311.825195,170.19444 357.825195,183.19444 400.825195,236.19444 C435.825195,275.19444 451.825195,320.19444 429.825195,377.19444 C412.825195,437.19444 379.825195,473.19444 331.825195,490.19444 C308.825195,500.19444 281.825195,507.19444 246.825195,507.19444 C213.825195,504.19444 190.825195,489.19444 164.825195,476.19444 C142.825195,459.19444 119.825195,441.19444 106.825195,414.19444 C96.8251953,384.19444 92.8251953,354.19444 87.8251953,325.19444 C83.8251953,274.19444 102.825195,235.19444 142.825195,201.19444 C163.825195,179.19444 173.825195,155.19444 153.825195,134.19444 C139.825195,115.194444 91.8251953,174.19444 62.8251953,195.19444 C40.8251953,240.19444 22.8251953,307.19444 23.8251953,335.19444 C39.8251953,374.19444 53.8251953,440.19444 68.8251953,477.19444 C91.8251953,515.19444 149.825195,534.19444 168.825195,572.19444 C184.825195,579.19444 196.825195,587.19444 194.825195,597.19444 C202.825195,599.19444 205.825195,608.19444 204.825195,624.19444 C213.825195,632.19444 219.825195,641.19444 209.825195,654.19444 C218.825195,661.19444 218.825195,669.19444 207.825195,678.19444 C216.825195,685.19444 214.825195,694.19444 203.825195,703.19444 C207.825195,711.19444 206.825195,719.19444 194.825195,727.19444 C197.825195,736.19444 196.825195,745.19444 189.825195,754.19444 L163.825195,757.19444 Z" id="path19" stroke="#000000" stroke-width="3"></path>
            <path d="M3.29583734,64.194444 C22.4530639,65.866319 136.569824,49.0187652 148.354553,64.194444 C160.139283,79.3701228 163.315771,142.377598 179.825195,182.19444 C186.825195,199.19444 183.825195,213.19444 173.825195,224.19444 C145.825195,268.19444 89.8251953,306.19444 128.825195,373.19444 C136.825195,387.19444 162.825195,378.19444 166.825195,365.19444 C174.825195,322.19444 188.825195,308.19444 209.825195,318.19444 C231.825195,333.19444 233.825195,364.19444 231.825195,401.19444 C228.825195,467.19444 262.825195,474.19444 278.825195,475.19444 C311.825195,481.19444 339.825195,454.19444 344.825195,429.19444 C338.825195,429.19444 331.825195,423.19444 325.825195,416.19444 C320.825195,447.19444 306.825195,458.19444 282.825195,458.19444 C259.825195,458.19444 246.825195,447.19444 246.825195,415.19444 C245.825195,392.19444 245.825195,370.19444 244.825195,347.19444 C239.825195,317.19444 214.825195,300.19444 185.825195,301.19444 C172.825195,302.19444 160.825195,315.19444 153.825195,355.19444 C150.825195,370.19444 130.825195,362.19444 132.825195,330.19444 C132.825195,305.19444 146.825195,282.19444 163.825195,260.19444 C156.825195,281.19444 161.825195,298.19444 170.825195,310.19444 C174.825195,305.19444 178.825195,302.19444 185.825195,301.19444 C172.825195,293.19444 168.825195,278.19444 175.825195,261.19444 C182.825195,247.19444 193.825195,233.19444 198.825195,219.19444 C211.825195,233.19444 223.825195,243.19444 235.825195,249.19444 C251.825195,258.19444 245.825195,272.19444 227.825195,277.19444 C210.825195,276.19444 194.825195,283.19444 179.825195,297.19444 C181.825195,299.19444 183.825195,301.19444 185.825195,301.19444 C190.825195,301.19444 196.825195,302.19444 200.825195,303.19444 C200.825195,292.19444 255.825195,291.19444 259.825195,274.19444 C266.825195,258.19444 261.825195,247.19444 250.825195,238.19444 C196.825195,204.19444 190.825195,89.3389753 179.825195,48.25 C168.825195,7.16102475 108.991211,0 84.0634766,0 C50.7671917,0 3.23367725,0 0,0 C0,0 3.29583734,64.194444 3.29583734,64.194444 Z" id="path21" stroke="#000000" stroke-width="3" fill="#E54762"></path>
            <path d="M194.825195,726.19444 C184.825195,726.19444 177.825195,723.19444 170.825195,720.19444" id="path23" stroke="#000000" stroke-width="3"></path>
            <path d="M203.825195,703.19444 C193.825195,703.19444 185.825195,700.19444 179.825195,697.19444" id="path25" stroke="#000000" stroke-width="3"></path>
            <path d="M208.825195,678.19444 C203.825195,678.19444 195.825195,675.19444 188.825195,671.19444" id="path27" stroke="#000000" stroke-width="3"></path>
            <path d="M209.825195,654.19444 C204.825195,653.19444 197.825195,650.19444 192.825195,647.19444" id="path29" stroke="#000000" stroke-width="3"></path>
            <path d="M204.825195,624.19444 C200.825195,625.19444 196.825195,623.19444 190.825195,619.19444" id="path31" stroke="#000000" stroke-width="3"></path>
            <path d="M194.825195,598.19444 C192.825195,594.19444 186.825195,595.19444 179.825195,596.19444" id="path33" stroke="#000000" stroke-width="3"></path>
            <path d="M169.825195,573.19444 C167.825195,574.19444 165.825195,575.19444 163.825195,574.19444" id="path35" stroke="#000000" stroke-width="3"></path>
            <path d="M276.825195,729.19444 C283.825195,730.19444 289.825195,733.19444 295.825195,736.19444" id="path37" stroke="#000000" stroke-width="3"></path>
            <path d="M288.825195,703.19444 C296.825195,703.19444 302.825195,707.19444 306.825195,713.19444" id="path39" stroke="#000000" stroke-width="3"></path>
            <path d="M301.825195,676.19444 C309.825195,678.19444 315.825195,681.19444 318.825195,686.19444" id="path41" stroke="#000000" stroke-width="3"></path>
            <path d="M316.825195,653.19444 C321.825195,655.19444 325.825195,657.19444 330.825195,660.19444" id="path43" stroke="#000000" stroke-width="3"></path>
            <path d="M323.825195,622.19444 C329.825195,625.19444 337.825195,628.19444 341.825195,633.19444" id="path45" stroke="#000000" stroke-width="3"></path>
            <circle id="circle47" fill="#000000" transform="translate(280.825195, 745.194440) scale(-1, 1) rotate(-180.000000) translate(-280.825195, -745.194440) " cx="280.825195" cy="745.19444" r="5"></circle>
            <circle id="circle49" fill="#000000" transform="translate(292.825195, 719.194440) scale(-1, 1) rotate(-180.000000) translate(-292.825195, -719.194440) " cx="292.825195" cy="719.19444" r="5"></circle>
            <circle id="circle51" fill="#000000" transform="translate(306.825195, 693.194440) scale(-1, 1) rotate(-180.000000) translate(-306.825195, -693.194440) " cx="306.825195" cy="693.19444" r="5"></circle>
            <circle id="circle53" fill="#000000" transform="translate(316.825195, 668.194440) scale(-1, 1) rotate(-180.000000) translate(-316.825195, -668.194440) " cx="316.825195" cy="668.19444" r="4"></circle>
            <circle id="circle55" fill="#000000" transform="translate(328.825195, 641.194440) scale(-1, 1) rotate(-180.000000) translate(-328.825195, -641.194440) " cx="328.825195" cy="641.19444" r="3"></circle>
            <circle id="circle57" fill="#000000" transform="translate(339.825195, 620.194440) scale(-1, 1) rotate(-180.000000) translate(-339.825195, -620.194440) " cx="339.825195" cy="620.19444" r="2"></circle>
            <circle id="circle59" fill="#000000" transform="translate(194.825195, 607.194440) scale(-1, 1) rotate(-180.000000) translate(-194.825195, -607.194440) " cx="194.825195" cy="607.19444" r="2"></circle>
            <circle id="circle61" fill="#000000" transform="translate(181.825195, 586.194440) scale(-1, 1) rotate(-180.000000) translate(-181.825195, -586.194440) " cx="181.825195" cy="586.19444" r="2"></circle>
            <circle id="circle63" fill="#000000" transform="translate(203.825195, 638.194440) scale(-1, 1) rotate(-180.000000) translate(-203.825195, -638.194440) " cx="203.825195" cy="638.19444" r="3"></circle>
            <circle id="circle65" fill="#000000" transform="translate(203.825195, 664.194440) scale(-1, 1) rotate(-180.000000) translate(-203.825195, -664.194440) " cx="203.825195" cy="664.19444" r="3"></circle>
            <circle id="circle67" fill="#000000" transform="translate(196.825195, 689.194440) scale(-1, 1) rotate(-180.000000) translate(-196.825195, -689.194440) " cx="196.825195" cy="689.19444" r="3"></circle>
            <circle id="circle69" fill="#000000" transform="translate(182.825195, 737.194440) scale(-1, 1) rotate(-180.000000) translate(-182.825195, -737.194440) " cx="182.825195" cy="737.19444" r="5"></circle>
            <circle id="circle71" fill="#000000" transform="translate(189.825195, 712.194440) scale(-1, 1) rotate(-180.000000) translate(-189.825195, -712.194440) " cx="189.825195" cy="712.19444" r="4"></circle>
            <line x1="111.825195" y1="526.19444" x2="128.825195" y2="538.19444" id="path73" stroke="#000000" stroke-width="5" stroke-linecap="round"></line>
            <line x1="34.8251953" y1="391.19444" x2="40.8251953" y2="412.19444" id="path75" stroke="#000000" stroke-width="5" stroke-linecap="round"></line>
            <line x1="28.8251953" y1="270.19444" x2="35.8251953" y2="241.19444" id="path77" stroke="#000000" stroke-width="5" stroke-linecap="round"></line>
            <line x1="247.825195" y1="499.19444" x2="229.825195" y2="495.19444" id="path79" stroke="#000000" stroke-width="5" stroke-linecap="round"></line>
            <line x1="121.825195" y1="422.19444" x2="112.825195" y2="402.19444" id="path81" stroke="#000000" stroke-width="5" stroke-linecap="round"></line>
            <line x1="102.825195" y1="268.19444" x2="109.825195" y2="250.19444" id="path83" stroke="#000000" stroke-width="5" stroke-linecap="round"></line>
            <line x1="95.8251953" y1="156.19444" x2="109.825195" y2="142.19444" id="path85" stroke="#000000" stroke-width="5" stroke-linecap="round"></line>
            <line x1="388.825195" y1="448.19444" x2="397.825195" y2="435.19444" id="path87" stroke="#000000" stroke-width="5" stroke-linecap="round"></line>
            <line x1="433.825195" y1="315.19444" x2="430.825195" y2="299.19444" id="path89" stroke="#000000" stroke-width="5" stroke-linecap="round"></line>
            <line x1="349.825195" y1="195.19444" x2="333.825195" y2="184.19444" id="path91" stroke="#000000" stroke-width="5" stroke-linecap="round"></line>
            <line x1="327.825195" y1="108.194444" x2="349.825195" y2="116.194444" id="path93" stroke="#000000" stroke-width="5" stroke-linecap="round"></line>
            <line x1="453.825195" y1="193.19444" x2="462.825195" y2="208.19444" id="path95" stroke="#000000" stroke-width="5" stroke-linecap="round"></line>
            <line x1="492.825195" y1="323.19444" x2="494.825195" y2="344.19444" id="path97" stroke="#000000" stroke-width="5" stroke-linecap="round"></line>
            <line x1="471.825195" y1="451.19444" x2="460.825195" y2="475.19444" id="path99" stroke="#000000" stroke-width="5" stroke-linecap="round"></line>
            <line x1="406.825195" y1="555.19444" x2="390.825195" y2="572.19444" id="path101" stroke="#000000" stroke-width="5" stroke-linecap="round"></line>
            <path d="M231.825195,78.194444 C227.825195,94.194444 225.825195,111.194444 226.825195,130.194444" id="path103" stroke="#000000" stroke-width="5" stroke-linecap="round"></path>
            <polyline id="path105" stroke="#000000" stroke-width="5" stroke-linecap="round" points="218.825195 121.194444 226.825195 130.19444 233.825195 120.194444"></polyline>
            <path d="M200.825195,112.194444 C196.825195,96.194444 194.825195,78.194444 195.825195,59.194444" id="path107" stroke="#000000" stroke-width="5" stroke-linecap="round"></path>
            <polyline id="path109" stroke="#000000" stroke-width="5" stroke-linecap="round" points="187.825195 69.194444 195.825195 59.194444 201.825195 69.194444"></polyline>
            <path d="M456.30957,14.9483811 C458.377279,15.1924291 459.411133,15.3144531 459.411133,15.3144531 C456.860352,31.6425781 455.584961,39.8066406 455.584961,39.8066406 L452.213867,40.2890625 C454.944336,23.3952749 456.30957,14.9483811 456.30957,14.9483811 Z" id="Path" fill="#E54762"></path>
        </g>
        <path d="M1381.1748,195.983887 C1383.37598,195.573079 1384.47656,195.367676 1384.47656,195.367676 C1385.59505,210.903809 1386.1543,218.671875 1386.1543,218.671875 L1382.80225,218.839844 C1381.71729,203.602539 1381.1748,195.983887 1381.1748,195.983887 Z" id="Path-2" fill="#E54762"></path>
        <path d="M275.844727,190.105469 C277.816406,190.105469 278.802246,190.105469 278.802246,190.105469 C281.036947,230.483073 282.154297,250.671875 282.154297,250.671875 L278.802246,250.839844 C276.830566,210.35026 275.844727,190.105469 275.844727,190.105469 Z" id="Path-2-Copy" fill="#E54762"></path>
        <text id="afferent-arteriole" transform="translate(1457.000000, 201.000000) rotate(-3.000000) translate(-1457.000000, -201.000000) " font-family="HelveticaNeue-Bold, Helvetica Neue" font-size="18" font-weight="bold" fill="#000000">
            <tspan x="1385.621" y="207">afferent arteriole</tspan>
        </text>
        <text id="afferent-arteriole" transform="translate(353.000000, 229.000000) rotate(-3.000000) translate(-353.000000, -229.000000) " font-family="HelveticaNeue-Bold, Helvetica Neue" font-size="18" font-weight="bold" fill="#000000">
            <tspan x="281.621" y="235">afferent arteriole</tspan>
        </text>
        <text id="efferent-arteriole" transform="translate(1755.000000, 196.000000) rotate(-7.000000) translate(-1755.000000, -196.000000) " font-family="HelveticaNeue-Bold, Helvetica Neue" font-size="18" font-weight="bold" fill="#000000">
            <tspan x="1683.621" y="202">efferent arteriole</tspan>
        </text>
        <text id="efferent-arteriole-copy" transform="translate(651.000000, 224.000000) rotate(-7.000000) translate(-651.000000, -224.000000) " font-family="HelveticaNeue-Bold, Helvetica Neue" font-size="18" font-weight="bold" fill="#000000">
            <tspan x="579.621" y="230">efferent arteriole</tspan>
        </text>
        <path id="Line" d="M1786.63067,116.671399 L1786.97963,119.651034 L1789.525,141.381 L1803.42965,139.753332 L1790.5,175.5 L1769.66045,143.708283 L1783.565,142.079 L1781.02037,120.348966 L1780.6714,117.369332 L1786.63067,116.671399 Z" fill="#000000" fill-rule="nonzero"></path>
        <path id="Line-Copy-4" d="M682.630668,144.671399 L682.979635,147.651034 L685.525,169.381 L699.429646,167.753332 L686.5,203.5 L665.660453,171.708283 L679.565,170.079 L677.020365,148.348966 L676.671399,145.369332 L682.630668,144.671399 Z" fill="#000000" fill-rule="nonzero"></path>
        <path id="Line-Copy" d="M1408.63067,128.671399 L1408.97963,131.651034 L1411.525,153.381 L1425.42965,151.753332 L1412.5,187.5 L1391.66045,155.708283 L1405.565,154.079 L1403.02037,132.348966 L1402.6714,129.369332 L1408.63067,128.671399 Z" transform="translate(1409.500000, 160.000000) scale(-1, -1) translate(-1409.500000, -160.000000) " fill="#000000" fill-rule="nonzero"></path>
        <path id="Line-Copy-5" d="M297.630668,124.671399 L297.979635,127.651034 L300.525,149.381 L314.429646,147.753332 L301.5,183.5 L280.660453,151.708283 L294.565,150.079 L292.020365,128.348966 L291.671399,125.369332 L297.630668,124.671399 Z" transform="translate(298.500000, 156.000000) scale(-1, -1) translate(-298.500000, -156.000000) " fill="#000000" fill-rule="nonzero"></path>
        <path id="Line-Copy-3" d="M1320.53563,91.0428901 L1321.23356,97.0021594 L1318.25393,97.3511256 L1307.328,98.631 L1313.47963,151.151034 L1313.8286,154.130668 L1307.86933,154.828601 L1307.52037,151.848966 L1301.369,99.328 L1290.444,100.608144 L1287.46437,100.95711 L1286.76644,94.9978406 L1289.74607,94.6488744 L1317.556,91.3918563 L1320.53563,91.0428901 Z" transform="translate(1307.500000, 124.000000) scale(-1, -1) translate(-1307.500000, -124.000000) " fill="#000000" fill-rule="nonzero"></path>
        <path id="Line" d="M1796.63067,204.671399 L1796.97963,207.651034 L1799.525,229.381 L1813.42965,227.753332 L1800.5,263.5 L1779.66045,231.708283 L1793.565,230.079 L1791.02037,208.348966 L1790.6714,205.369332 L1796.63067,204.671399 Z" transform="translate(1797.500000, 236.000000) scale(-1, -1) translate(-1797.500000, -236.000000) " fill="#000000" fill-rule="nonzero"></path>
        <path id="Line-Copy-7" d="M692.630668,232.671399 L692.979635,235.651034 L695.525,257.381 L709.429646,255.753332 L696.5,291.5 L675.660453,259.708283 L689.565,258.079 L687.020365,236.348966 L686.671399,233.369332 L692.630668,232.671399 Z" transform="translate(693.500000, 264.000000) scale(-1, -1) translate(-693.500000, -264.000000) " fill="#000000" fill-rule="nonzero"></path>
        <path id="Line-Copy-2" d="M1418.63067,216.671399 L1418.97963,219.651034 L1421.525,241.381 L1435.42965,239.753332 L1422.5,275.5 L1401.66045,243.708283 L1415.565,242.079 L1413.02037,220.348966 L1412.6714,217.369332 L1418.63067,216.671399 Z" fill="#000000" fill-rule="nonzero"></path>
        <path id="Line-Copy-8" d="M311.630668,250.671399 L311.979635,253.651034 L314.525,275.381 L328.429646,273.753332 L315.5,309.5 L294.660453,277.708283 L308.565,276.079 L306.020365,254.348966 L305.671399,251.369332 L311.630668,250.671399 Z" fill="#000000" fill-rule="nonzero"></path>
        <text id="angiotensin-II" transform="translate(1849.000000, 120.000000) rotate(-7.000000) translate(-1849.000000, -120.000000) " font-family="HelveticaNeue-Bold, Helvetica Neue" font-size="18" font-weight="bold" fill="#000000">
            <tspan x="1791.202" y="127">angiotensin II</tspan>
        </text>
        <text id="angiotensin-II-Copy" transform="translate(745.000000, 148.000000) rotate(-7.000000) translate(-745.000000, -148.000000) " font-family="HelveticaNeue-Bold, Helvetica Neue" font-size="18" font-weight="bold" fill="#000000">
            <tspan x="687.202" y="155">angiotensin II</tspan>
        </text>
        <text id="prostoglandins" transform="translate(1320.939065, 166.503727) rotate(-7.000000) translate(-1320.939065, -166.503727) " font-family="HelveticaNeue-Bold, Helvetica Neue" font-size="18" font-weight="bold" fill="#000000">
            <tspan x="1256.78707" y="174.003727">prostoglandins</tspan>
        </text>
        <text id="prostoglandins-copy" transform="translate(216.939065, 158.503727) rotate(-7.000000) translate(-216.939065, -158.503727) " font-family="HelveticaNeue-Bold, Helvetica Neue" font-size="18" font-weight="bold" fill="#000000">
            <tspan x="152.787065" y="166.003727">prostoglandins</tspan>
        </text>
        <text id="NSAIDs" font-family="HelveticaNeue-Bold, Helvetica Neue" font-size="18" font-weight="bold" fill="#000000">
            <tspan x="1266.168" y="87">NSAIDs</tspan>
        </text>
        <g id="Group" transform="translate(1399.000000, 156.000000)" stroke="#FF2C4F" stroke-linecap="square" stroke-width="8">
            <line x1="0.205882353" y1="0.205882353" x2="20.7941176" y2="20.7941176" id="Line-2"></line>
            <line x1="0.205882353" y1="0.205882353" x2="20.7941176" y2="20.7941176" id="Line-2-Copy" transform="translate(10.500000, 10.500000) scale(-1, 1) translate(-10.500000, -10.500000) "></line>
        </g>
        <g id="Group-Copy" transform="translate(1409.000000, 237.000000)" stroke="#FF2C4F" stroke-linecap="square" stroke-width="8">
            <line x1="0.205882353" y1="0.205882353" x2="20.7941176" y2="20.7941176" id="Line-2"></line>
            <line x1="0.205882353" y1="0.205882353" x2="20.7941176" y2="20.7941176" id="Line-2-Copy" transform="translate(10.500000, 10.500000) scale(-1, 1) translate(-10.500000, -10.500000) "></line>
        </g>
        <text id="A." font-family="HelveticaNeue-Bold, Helvetica Neue" font-size="48" font-weight="bold" fill="#000000">
            <tspan x="78.888" y="83">A.</tspan>
        </text>
        <text id="B." font-family="HelveticaNeue-Bold, Helvetica Neue" font-size="48" font-weight="bold" fill="#000000">
            <tspan x="1118.432" y="83">B.</tspan>
        </text>
    </g>
</svg>