<?xml version="1.0" encoding="UTF-8"?>
<svg width="843px" height="622px" viewBox="0 0 843 622" version="1.1" xmlns="http://www.w3.org/2000/svg" xmlns:xlink="http://www.w3.org/1999/xlink">
    <title>test</title>
    <defs>
        <path d="M11.5,0.225 L35.5,22.725 L14.166,34.275 C-2.167,27.392 1.272,14.415 1.272,14.415 L1.632,13.126 L11.5,0.225 Z" id="path-1"></path>
        <path d="M34.059,52.811 C84.872,-8.368 175.101,-17.236 235.588,33.004 C236.285,33.583 236.966,34.173 237.648,34.761 L237.67,34.734 L449.89,315 L449.89,467.404 L311.69,467.195 L53.658,256.28 L53.682,256.252 C52.978,255.692 52.271,255.131 51.577,254.551 C-8.911,204.31 -16.755,113.988 34.059,52.811 Z" id="path-3"></path>
        <path d="M30,2.725 C52,-1.275 72.539,1.063 72.539,1.063 C41.629,12.817 32.486,44.163 32.486,44.163 L32.486,44.163 L0.707,27.619 L30,2.725 Z" id="path-5"></path>
        <polygon id="path-7" points="87.627 0.932 290.457 67.017 203.462 334.211 0.632 268.126"></polygon>
        <path d="M90.5,0.225 L274,51.225 C278.5,71.725 291.5,74.225 291.5,74.225 L205.967,330.87 L9.137,266.785 C9.137,266.785 -1.435,262.246 0.346,251.244 L90.5,0.225 Z" id="path-9"></path>
        <path d="M85,0.225 L85.000432,0.275382 C85.0144,1.3515 85.48,19.345 101,23.225 L15.5,279.225 C15.5,279.225 0.5,270.225 1,256.225 L85,0.225 Z" id="path-11"></path>
        <path d="M90.036,0.716 L284.457,64.017 L197.462,331.211 L0.632,267.126 L87.132,1.45 L87.15078,1.41341 C87.26688,1.20362 87.9516,0.1814 90.036,0.716 Z" id="path-13"></path>
        <path d="M8.708,0.858 C8.708,9.242 10.687,11.497 16.915,11.497 C10.731,11.497 8.708,13.335 8.708,21.078 C8.708,14.025 6.198,11.497 0.609,11.497 C6.151,11.497 8.708,9.886 8.708,0.858 Z" id="path-15"></path>
        <path d="M4.443,0.792 C4.443,4.863 5.404,5.958 8.429,5.958 C5.426,5.958 4.443,6.851 4.443,10.611 C4.443,7.187 3.225,5.958 0.51,5.958 C3.202,5.958 4.443,5.176 4.443,0.792 Z" id="path-17"></path>
        <path d="M4.66,0.197 C4.66,4.269 5.621,5.363 8.646,5.363 C5.643,5.363 4.66,6.256 4.66,10.016 C4.66,6.592 3.441,5.363 0.727,5.363 C3.419,5.363 4.66,4.581 4.66,0.197 Z" id="path-19"></path>
        <path d="M4.599,0.021 C4.599,4.093 5.56,5.188 8.584,5.188 C5.581,5.188 4.599,6.08 4.599,9.84 C4.599,6.416 3.38,5.188 0.665,5.188 C3.357,5.188 4.599,4.406 4.599,0.021 Z" id="path-21"></path>
        <path d="M4.437,0.745 C4.437,4.816 5.398,5.911 8.422,5.911 C5.419,5.911 4.437,6.804 4.437,10.564 C4.437,7.139 3.218,5.911 0.504,5.911 C3.195,5.911 4.437,5.129 4.437,0.745 Z" id="path-23"></path>
        <path d="M4.443,0.387 C4.443,4.458 5.404,5.553 8.429,5.553 C5.426,5.553 4.443,6.446 4.443,10.206 C4.443,6.781 3.225,5.553 0.51,5.553 C3.202,5.553 4.443,4.771 4.443,0.387 Z" id="path-25"></path>
        <path d="M113.748,18.284 C201.944,-14.787 289.486,-5.138 344.341,77.579 C344.861,78.365 516.085752,445.434 516.085752,445.434 L530.756003,445.019 L107.381,445.434 C107.381,445.434 8.865,217.902 8.596,217 C-18.83,124.928 25.55,51.353 113.748,18.284 Z" id="path-27"></path>
        <path d="M295.56,81.413 C349.175,220.259 308.12,273.659 253.667,302.772 C179.114,342.633 96.271,363.491 15.41,204.492 C-24.68,125.661 18.187,52.259 105.738,17.693 C193.29,-16.874 264.468,0.896 295.56,81.413 Z" id="path-29"></path>
        <path d="M108.952,16.433 C164.497,-5.499 212.999,-6.843 255.022,23.672 C195.608,12.991 139.098,25.452 92.245,54.949 C34.741,91.152 21.887,119.981 2.053,159.384 C-9.54,93.269 53.008,38.517 108.952,16.433 Z" id="path-31"></path>
        <path d="M72.278,20.676 C105.123,5.418 130.832,-1.524 159.901,0.718 C146.433,27.538 115.924,46.842 87.834,58.912 C59.892,70.922 36.25,80.036 0.506,75.987 C17.556,55.541 44.522,33.568 72.278,20.676 Z" id="path-33"></path>
    </defs>
    <g id="test" stroke="none" stroke-width="1" fill="none" fill-rule="evenodd">
        <g id="Group-3" transform="translate(284.000000, 281.000000)">
            <mask id="mask-2" fill="white">
                <use xlink:href="#path-1"></use>
            </mask>
            <g id="Clip-2"></g>
            <polygon id="Fill-1" fill="#737373" mask="url(#mask-2)" points="-4.03 -4.775 40.5 -4.775 40.5 39.275 -4.03 39.275"></polygon>
        </g>
        <g id="Group-6" transform="translate(393.000000, 307.000000)">
            <mask id="mask-4" fill="white">
                <use xlink:href="#path-3"></use>
            </mask>
            <g id="Clip-5"></g>
            <polygon id="Fill-4" fill="#C3C3C3" mask="url(#mask-4)" points="-4.4609 -4.5647 454.89 -4.5647 454.89 472.404 -4.4609 472.404"></polygon>
        </g>
        <g id="Group-9" transform="translate(477.000000, 307.000000)">
            <mask id="mask-6" fill="white">
                <use xlink:href="#path-5"></use>
            </mask>
            <g id="Clip-8"></g>
            <polygon id="Fill-7" fill="#AEAEAE" mask="url(#mask-6)" points="-4.293 -4.6161 77.539 -4.6161 77.539 49.163 -4.293 49.163"></polygon>
        </g>
        <g id="Group-12" transform="translate(297.000000, 47.000000)">
            <mask id="mask-8" fill="white">
                <use xlink:href="#path-7"></use>
            </mask>
            <g id="Clip-11"></g>
            <polygon id="Fill-10" fill="#737373" mask="url(#mask-8)" points="-4.368 -4.068 295.457 -4.068 295.457 339.211 -4.368 339.211"></polygon>
        </g>
        <g id="Group-15" transform="translate(289.000000, 44.000000)">
            <mask id="mask-10" fill="white">
                <use xlink:href="#path-9"></use>
            </mask>
            <g id="Clip-14"></g>
            <polygon id="Fill-13" fill="#F7F7F7" mask="url(#mask-10)" points="-4.8562 -4.775 296.5 -4.775 296.5 335.87 -4.8562 335.87"></polygon>
        </g>
        <g id="Group-18" transform="translate(478.000000, 95.000000)">
            <mask id="mask-12" fill="white">
                <use xlink:href="#path-11"></use>
            </mask>
            <g id="Clip-17"></g>
            <polygon id="Fill-16" fill="#D8D8D8" mask="url(#mask-12)" points="-4.0122 -4.775 106 -4.775 106 284.225 -4.0122 284.225"></polygon>
        </g>
        <g id="Group-24" transform="translate(285.000000, 27.000000)">
            <mask id="mask-14" fill="white">
                <use xlink:href="#path-13"></use>
            </mask>
            <g id="Clip-23"></g>
            <polygon id="Fill-22" fill="#A9A9A9" mask="url(#mask-14)" points="-4.368 -4.4369 289.457 -4.4369 289.457 336.211 -4.368 336.211"></polygon>
        </g>
        <g id="Group-27" transform="translate(585.000000, 67.000000)">
            <mask id="mask-16" fill="white">
                <use xlink:href="#path-15"></use>
            </mask>
            <g id="Clip-26"></g>
            <polygon id="Fill-25" fill="#FEFEFE" mask="url(#mask-16)" points="-4.391 -4.142 21.915 -4.142 21.915 26.078 -4.391 26.078"></polygon>
        </g>
        <g id="Group-30" transform="translate(608.000000, 53.000000)">
            <mask id="mask-18" fill="white">
                <use xlink:href="#path-17"></use>
            </mask>
            <g id="Clip-29"></g>
            <polygon id="Fill-28" fill="#FEFEFE" mask="url(#mask-18)" points="-4.49 -4.208 13.429 -4.208 13.429 15.611 -4.49 15.611"></polygon>
        </g>
        <g id="Group-33" transform="translate(574.000000, 84.000000)">
            <mask id="mask-20" fill="white">
                <use xlink:href="#path-19"></use>
            </mask>
            <g id="Clip-32"></g>
            <polygon id="Fill-31" fill="#FEFEFE" mask="url(#mask-20)" points="-4.273 -4.803 13.646 -4.803 13.646 15.016 -4.273 15.016"></polygon>
        </g>
        <g id="Group-36" transform="translate(607.000000, 96.000000)">
            <mask id="mask-22" fill="white">
                <use xlink:href="#path-21"></use>
            </mask>
            <g id="Clip-35"></g>
            <polygon id="Fill-34" fill="#FEFEFE" mask="url(#mask-22)" points="-4.335 -4.979 13.584 -4.979 13.584 14.84 -4.335 14.84"></polygon>
        </g>
        <g id="Group-39" transform="translate(570.000000, 37.000000)">
            <mask id="mask-24" fill="white">
                <use xlink:href="#path-23"></use>
            </mask>
            <g id="Clip-38"></g>
            <polygon id="Fill-37" fill="#FEFEFE" mask="url(#mask-24)" points="-4.496 -4.255 13.422 -4.255 13.422 15.564 -4.496 15.564"></polygon>
        </g>
        <g id="Group-42" transform="translate(608.000000, 23.000000)">
            <mask id="mask-26" fill="white">
                <use xlink:href="#path-25"></use>
            </mask>
            <g id="Clip-41"></g>
            <polygon id="Fill-40" fill="#FEFEFE" mask="url(#mask-26)" points="-4.49 -4.613 13.429 -4.613 13.429 15.206 -4.49 15.206"></polygon>
        </g>
        <g id="Group-45" transform="translate(220.000000, 329.000000)">
            <mask id="mask-28" fill="white">
                <use xlink:href="#path-27"></use>
            </mask>
            <g id="Clip-44"></g>
            <polygon id="Fill-43" fill="#D4D4D4" mask="url(#mask-28)" points="-4.4671 -4.444 584.744 -4.444 584.744 450.434 -4.4671 450.434"></polygon>
        </g>
        <g id="Group-48" transform="translate(241.000000, 351.000000)">
            <mask id="mask-30" fill="white">
                <use xlink:href="#path-29"></use>
            </mask>
            <g id="Clip-47"></g>
            <polygon id="Fill-46" fill="#E1E1E1" mask="url(#mask-30)" points="-4.7114 -4.0723 325.6308 -4.0723 325.6308 336.19961 -4.7114 336.19961"></polygon>
        </g>
        <g id="Group-51" transform="translate(240.000000, 350.000000)">
            <mask id="mask-32" fill="white">
                <use xlink:href="#path-31"></use>
            </mask>
            <g id="Clip-50"></g>
            <polygon id="Fill-49" fill="#F2F2F2" mask="url(#mask-32)" points="-4.3478 -4.6775 260.022 -4.6775 260.022 164.384 -4.3478 164.384"></polygon>
        </g>
        <g id="Group-54" transform="translate(387.000000, 605.000000)">
            <mask id="mask-34" fill="white">
                <use xlink:href="#path-33"></use>
            </mask>
            <g id="Clip-53"></g>
            <polygon id="Fill-52" fill="#F2F2F2" mask="url(#mask-34)" points="-4.494 -4.6941 164.901 -4.6941 164.901 81.9623 -4.494 81.9623"></polygon>
        </g>
    </g>
</svg>